G04 #@! TF.GenerationSoftware,KiCad,Pcbnew,(5.1.5)-3*
G04 #@! TF.CreationDate,2020-04-30T20:14:28+02:00*
G04 #@! TF.ProjectId,5-pointed-Star,352d706f-696e-4746-9564-2d537461722e,rev?*
G04 #@! TF.SameCoordinates,Original*
G04 #@! TF.FileFunction,Soldermask,Bot*
G04 #@! TF.FilePolarity,Negative*
%FSLAX46Y46*%
G04 Gerber Fmt 4.6, Leading zero omitted, Abs format (unit mm)*
G04 Created by KiCad (PCBNEW (5.1.5)-3) date 2020-04-30 20:14:28*
%MOMM*%
%LPD*%
G04 APERTURE LIST*
%ADD10C,0.100000*%
G04 APERTURE END LIST*
D10*
G36*
X197403572Y-176151054D02*
G01*
X197477119Y-176161227D01*
X197765777Y-176261325D01*
X197913363Y-176347827D01*
X198029360Y-176415814D01*
X198257740Y-176618757D01*
X198442135Y-176862351D01*
X198442137Y-176862354D01*
X198575469Y-177137245D01*
X198652610Y-177432866D01*
X198652610Y-177432868D01*
X198670597Y-177737857D01*
X198628737Y-178040494D01*
X198615155Y-178079660D01*
X198528639Y-178329153D01*
X198412863Y-178526686D01*
X197951537Y-179161646D01*
X197617955Y-179620782D01*
X197465864Y-179791936D01*
X197312078Y-179908348D01*
X197222267Y-179976333D01*
X196947377Y-180109664D01*
X196947375Y-180109665D01*
X196947374Y-180109665D01*
X196813103Y-180144703D01*
X196651755Y-180186806D01*
X196499260Y-180195799D01*
X196346766Y-180204792D01*
X196346765Y-180204792D01*
X196044127Y-180162932D01*
X195755469Y-180062834D01*
X195695904Y-180027922D01*
X195491889Y-179908348D01*
X195263506Y-179705402D01*
X195079112Y-179461809D01*
X195079109Y-179461805D01*
X194945778Y-179186915D01*
X194868636Y-178891293D01*
X194850650Y-178586303D01*
X194892510Y-178283665D01*
X194992608Y-177995007D01*
X195108384Y-177797475D01*
X195174730Y-177706157D01*
X195903291Y-176703378D01*
X196055382Y-176532224D01*
X196298976Y-176347829D01*
X196298977Y-176347829D01*
X196298979Y-176347827D01*
X196573868Y-176214495D01*
X196869490Y-176137354D01*
X196885579Y-176136405D01*
X197174480Y-176119367D01*
X197403572Y-176151054D01*
G37*
G36*
X190654262Y-176024796D02*
G01*
X190942920Y-176124894D01*
X191090504Y-176211395D01*
X191140454Y-176240671D01*
X192234549Y-177035577D01*
X192234551Y-177035579D01*
X192405702Y-177187667D01*
X192590100Y-177431265D01*
X192723432Y-177706154D01*
X192800573Y-178001776D01*
X192800573Y-178001777D01*
X192818560Y-178306766D01*
X192788141Y-178526686D01*
X192776700Y-178609405D01*
X192676602Y-178898063D01*
X192579201Y-179064245D01*
X192522113Y-179161646D01*
X192319170Y-179390026D01*
X192075576Y-179574421D01*
X192075573Y-179574423D01*
X191800682Y-179707755D01*
X191505061Y-179784896D01*
X191472882Y-179786794D01*
X191200070Y-179802883D01*
X190897433Y-179761023D01*
X190743822Y-179707755D01*
X190608774Y-179660925D01*
X190411241Y-179545149D01*
X189317144Y-178750240D01*
X189145991Y-178598150D01*
X188961597Y-178354557D01*
X188961594Y-178354553D01*
X188828263Y-178079663D01*
X188807939Y-178001776D01*
X188751121Y-177784040D01*
X188733135Y-177479052D01*
X188739745Y-177431262D01*
X188774995Y-177176413D01*
X188875093Y-176887755D01*
X188983159Y-176703376D01*
X189029579Y-176624175D01*
X189232525Y-176395792D01*
X189476118Y-176211398D01*
X189476122Y-176211395D01*
X189751012Y-176078064D01*
X189751014Y-176078063D01*
X189751015Y-176078063D01*
X189955145Y-176024796D01*
X190046634Y-176000922D01*
X190199129Y-175991929D01*
X190351623Y-175982936D01*
X190351624Y-175982936D01*
X190654262Y-176024796D01*
G37*
G36*
X194357309Y-170927989D02*
G01*
X194645967Y-171028087D01*
X194793551Y-171114588D01*
X194843501Y-171143864D01*
X195937596Y-171938770D01*
X195937598Y-171938772D01*
X196108749Y-172090860D01*
X196293147Y-172334458D01*
X196426479Y-172609347D01*
X196446803Y-172687234D01*
X196503620Y-172904970D01*
X196521607Y-173209959D01*
X196489920Y-173439051D01*
X196479747Y-173512598D01*
X196379649Y-173801256D01*
X196282248Y-173967438D01*
X196225160Y-174064839D01*
X196022217Y-174293219D01*
X195778623Y-174477614D01*
X195778620Y-174477616D01*
X195503729Y-174610948D01*
X195208108Y-174688089D01*
X195175929Y-174689987D01*
X194903117Y-174706076D01*
X194600480Y-174664216D01*
X194446869Y-174610948D01*
X194311821Y-174564118D01*
X194114288Y-174448342D01*
X193020191Y-173653433D01*
X192849038Y-173501343D01*
X192664644Y-173257750D01*
X192664641Y-173257746D01*
X192531310Y-172982856D01*
X192510986Y-172904969D01*
X192454168Y-172687233D01*
X192436182Y-172382245D01*
X192442792Y-172334455D01*
X192478042Y-172079606D01*
X192578140Y-171790948D01*
X192613052Y-171731383D01*
X192732626Y-171527368D01*
X192935572Y-171298985D01*
X193179165Y-171114591D01*
X193179169Y-171114588D01*
X193454059Y-170981257D01*
X193454061Y-170981256D01*
X193454062Y-170981256D01*
X193658192Y-170927989D01*
X193749681Y-170904115D01*
X193902176Y-170895122D01*
X194054670Y-170886129D01*
X194054671Y-170886129D01*
X194357309Y-170927989D01*
G37*
G36*
X191491000Y-158001000D02*
G01*
X190389000Y-158001000D01*
X190389000Y-156299000D01*
X191491000Y-156299000D01*
X191491000Y-158001000D01*
G37*
G36*
X186391000Y-158001000D02*
G01*
X185289000Y-158001000D01*
X185289000Y-156299000D01*
X186391000Y-156299000D01*
X186391000Y-158001000D01*
G37*
G36*
X193991000Y-158001000D02*
G01*
X192889000Y-158001000D01*
X192889000Y-156299000D01*
X193991000Y-156299000D01*
X193991000Y-158001000D01*
G37*
G36*
X226186564Y-147219389D02*
G01*
X226377833Y-147298615D01*
X226377835Y-147298616D01*
X226549973Y-147413635D01*
X226696365Y-147560027D01*
X226811385Y-147732167D01*
X226890611Y-147923436D01*
X226931000Y-148126484D01*
X226931000Y-148333516D01*
X226890611Y-148536564D01*
X226811385Y-148727833D01*
X226811384Y-148727835D01*
X226696365Y-148899973D01*
X226549973Y-149046365D01*
X226377835Y-149161384D01*
X226377834Y-149161385D01*
X226377833Y-149161385D01*
X226186564Y-149240611D01*
X225983516Y-149281000D01*
X225776484Y-149281000D01*
X225573436Y-149240611D01*
X225382167Y-149161385D01*
X225382166Y-149161385D01*
X225382165Y-149161384D01*
X225210027Y-149046365D01*
X225063635Y-148899973D01*
X224948616Y-148727835D01*
X224948615Y-148727833D01*
X224869389Y-148536564D01*
X224829000Y-148333516D01*
X224829000Y-148126484D01*
X224869389Y-147923436D01*
X224948615Y-147732167D01*
X225063635Y-147560027D01*
X225210027Y-147413635D01*
X225382165Y-147298616D01*
X225382167Y-147298615D01*
X225573436Y-147219389D01*
X225776484Y-147179000D01*
X225983516Y-147179000D01*
X226186564Y-147219389D01*
G37*
G36*
X228726564Y-147219389D02*
G01*
X228917833Y-147298615D01*
X228917835Y-147298616D01*
X229089973Y-147413635D01*
X229236365Y-147560027D01*
X229351385Y-147732167D01*
X229430611Y-147923436D01*
X229471000Y-148126484D01*
X229471000Y-148333516D01*
X229430611Y-148536564D01*
X229351385Y-148727833D01*
X229351384Y-148727835D01*
X229236365Y-148899973D01*
X229089973Y-149046365D01*
X228917835Y-149161384D01*
X228917834Y-149161385D01*
X228917833Y-149161385D01*
X228726564Y-149240611D01*
X228523516Y-149281000D01*
X228316484Y-149281000D01*
X228113436Y-149240611D01*
X227922167Y-149161385D01*
X227922166Y-149161385D01*
X227922165Y-149161384D01*
X227750027Y-149046365D01*
X227603635Y-148899973D01*
X227488616Y-148727835D01*
X227488615Y-148727833D01*
X227409389Y-148536564D01*
X227369000Y-148333516D01*
X227369000Y-148126484D01*
X227409389Y-147923436D01*
X227488615Y-147732167D01*
X227603635Y-147560027D01*
X227750027Y-147413635D01*
X227922165Y-147298616D01*
X227922167Y-147298615D01*
X228113436Y-147219389D01*
X228316484Y-147179000D01*
X228523516Y-147179000D01*
X228726564Y-147219389D01*
G37*
G36*
X193991000Y-148001000D02*
G01*
X192889000Y-148001000D01*
X192889000Y-146299000D01*
X193991000Y-146299000D01*
X193991000Y-148001000D01*
G37*
G36*
X186391000Y-148001000D02*
G01*
X185289000Y-148001000D01*
X185289000Y-146299000D01*
X186391000Y-146299000D01*
X186391000Y-148001000D01*
G37*
G36*
X228726564Y-144679389D02*
G01*
X228917833Y-144758615D01*
X228917835Y-144758616D01*
X229056097Y-144851000D01*
X229089973Y-144873635D01*
X229236365Y-145020027D01*
X229351385Y-145192167D01*
X229430611Y-145383436D01*
X229471000Y-145586484D01*
X229471000Y-145793516D01*
X229430611Y-145996564D01*
X229351385Y-146187833D01*
X229351384Y-146187835D01*
X229236365Y-146359973D01*
X229089973Y-146506365D01*
X228917835Y-146621384D01*
X228917834Y-146621385D01*
X228917833Y-146621385D01*
X228726564Y-146700611D01*
X228523516Y-146741000D01*
X228316484Y-146741000D01*
X228113436Y-146700611D01*
X227922167Y-146621385D01*
X227922166Y-146621385D01*
X227922165Y-146621384D01*
X227750027Y-146506365D01*
X227603635Y-146359973D01*
X227488616Y-146187835D01*
X227488615Y-146187833D01*
X227409389Y-145996564D01*
X227369000Y-145793516D01*
X227369000Y-145586484D01*
X227409389Y-145383436D01*
X227488615Y-145192167D01*
X227603635Y-145020027D01*
X227750027Y-144873635D01*
X227783903Y-144851000D01*
X227922165Y-144758616D01*
X227922167Y-144758615D01*
X228113436Y-144679389D01*
X228316484Y-144639000D01*
X228523516Y-144639000D01*
X228726564Y-144679389D01*
G37*
G36*
X226186564Y-144679389D02*
G01*
X226377833Y-144758615D01*
X226377835Y-144758616D01*
X226516097Y-144851000D01*
X226549973Y-144873635D01*
X226696365Y-145020027D01*
X226811385Y-145192167D01*
X226890611Y-145383436D01*
X226931000Y-145586484D01*
X226931000Y-145793516D01*
X226890611Y-145996564D01*
X226811385Y-146187833D01*
X226811384Y-146187835D01*
X226696365Y-146359973D01*
X226549973Y-146506365D01*
X226377835Y-146621384D01*
X226377834Y-146621385D01*
X226377833Y-146621385D01*
X226186564Y-146700611D01*
X225983516Y-146741000D01*
X225776484Y-146741000D01*
X225573436Y-146700611D01*
X225382167Y-146621385D01*
X225382166Y-146621385D01*
X225382165Y-146621384D01*
X225210027Y-146506365D01*
X225063635Y-146359973D01*
X224948616Y-146187835D01*
X224948615Y-146187833D01*
X224869389Y-145996564D01*
X224829000Y-145793516D01*
X224829000Y-145586484D01*
X224869389Y-145383436D01*
X224948615Y-145192167D01*
X225063635Y-145020027D01*
X225210027Y-144873635D01*
X225243903Y-144851000D01*
X225382165Y-144758616D01*
X225382167Y-144758615D01*
X225573436Y-144679389D01*
X225776484Y-144639000D01*
X225983516Y-144639000D01*
X226186564Y-144679389D01*
G37*
G36*
X194941000Y-144851000D02*
G01*
X193839000Y-144851000D01*
X193839000Y-142549000D01*
X194941000Y-142549000D01*
X194941000Y-144851000D01*
G37*
G36*
X200941000Y-144851000D02*
G01*
X199839000Y-144851000D01*
X199839000Y-142549000D01*
X200941000Y-142549000D01*
X200941000Y-144851000D01*
G37*
G36*
X228726564Y-142139389D02*
G01*
X228915363Y-142217592D01*
X228917835Y-142218616D01*
X228968787Y-142252661D01*
X229089973Y-142333635D01*
X229236365Y-142480027D01*
X229351385Y-142652167D01*
X229430611Y-142843436D01*
X229471000Y-143046484D01*
X229471000Y-143253516D01*
X229430611Y-143456564D01*
X229351385Y-143647833D01*
X229351384Y-143647835D01*
X229236365Y-143819973D01*
X229089973Y-143966365D01*
X228917835Y-144081384D01*
X228917834Y-144081385D01*
X228917833Y-144081385D01*
X228726564Y-144160611D01*
X228523516Y-144201000D01*
X228316484Y-144201000D01*
X228113436Y-144160611D01*
X227922167Y-144081385D01*
X227922166Y-144081385D01*
X227922165Y-144081384D01*
X227750027Y-143966365D01*
X227603635Y-143819973D01*
X227488616Y-143647835D01*
X227488615Y-143647833D01*
X227409389Y-143456564D01*
X227369000Y-143253516D01*
X227369000Y-143046484D01*
X227409389Y-142843436D01*
X227488615Y-142652167D01*
X227603635Y-142480027D01*
X227750027Y-142333635D01*
X227871213Y-142252661D01*
X227922165Y-142218616D01*
X227924637Y-142217592D01*
X228113436Y-142139389D01*
X228316484Y-142099000D01*
X228523516Y-142099000D01*
X228726564Y-142139389D01*
G37*
G36*
X226186564Y-142139389D02*
G01*
X226375363Y-142217592D01*
X226377835Y-142218616D01*
X226428787Y-142252661D01*
X226549973Y-142333635D01*
X226696365Y-142480027D01*
X226811385Y-142652167D01*
X226890611Y-142843436D01*
X226931000Y-143046484D01*
X226931000Y-143253516D01*
X226890611Y-143456564D01*
X226811385Y-143647833D01*
X226811384Y-143647835D01*
X226696365Y-143819973D01*
X226549973Y-143966365D01*
X226377835Y-144081384D01*
X226377834Y-144081385D01*
X226377833Y-144081385D01*
X226186564Y-144160611D01*
X225983516Y-144201000D01*
X225776484Y-144201000D01*
X225573436Y-144160611D01*
X225382167Y-144081385D01*
X225382166Y-144081385D01*
X225382165Y-144081384D01*
X225210027Y-143966365D01*
X225063635Y-143819973D01*
X224948616Y-143647835D01*
X224948615Y-143647833D01*
X224869389Y-143456564D01*
X224829000Y-143253516D01*
X224829000Y-143046484D01*
X224869389Y-142843436D01*
X224948615Y-142652167D01*
X225063635Y-142480027D01*
X225210027Y-142333635D01*
X225331213Y-142252661D01*
X225382165Y-142218616D01*
X225384637Y-142217592D01*
X225573436Y-142139389D01*
X225776484Y-142099000D01*
X225983516Y-142099000D01*
X226186564Y-142139389D01*
G37*
G36*
X220132091Y-142868085D02*
G01*
X220166069Y-142878393D01*
X220197390Y-142895134D01*
X220224839Y-142917661D01*
X220247366Y-142945110D01*
X220264107Y-142976431D01*
X220274415Y-143010409D01*
X220278500Y-143051890D01*
X220278500Y-143728110D01*
X220274415Y-143769591D01*
X220264107Y-143803569D01*
X220247366Y-143834890D01*
X220224839Y-143862339D01*
X220197390Y-143884866D01*
X220166069Y-143901607D01*
X220132091Y-143911915D01*
X220090610Y-143916000D01*
X219489390Y-143916000D01*
X219447909Y-143911915D01*
X219413931Y-143901607D01*
X219382610Y-143884866D01*
X219355161Y-143862339D01*
X219332634Y-143834890D01*
X219315893Y-143803569D01*
X219305585Y-143769591D01*
X219301500Y-143728110D01*
X219301500Y-143051890D01*
X219305585Y-143010409D01*
X219315893Y-142976431D01*
X219332634Y-142945110D01*
X219355161Y-142917661D01*
X219382610Y-142895134D01*
X219413931Y-142878393D01*
X219447909Y-142868085D01*
X219489390Y-142864000D01*
X220090610Y-142864000D01*
X220132091Y-142868085D01*
G37*
G36*
X221707091Y-142868085D02*
G01*
X221741069Y-142878393D01*
X221772390Y-142895134D01*
X221799839Y-142917661D01*
X221822366Y-142945110D01*
X221839107Y-142976431D01*
X221849415Y-143010409D01*
X221853500Y-143051890D01*
X221853500Y-143728110D01*
X221849415Y-143769591D01*
X221839107Y-143803569D01*
X221822366Y-143834890D01*
X221799839Y-143862339D01*
X221772390Y-143884866D01*
X221741069Y-143901607D01*
X221707091Y-143911915D01*
X221665610Y-143916000D01*
X221064390Y-143916000D01*
X221022909Y-143911915D01*
X220988931Y-143901607D01*
X220957610Y-143884866D01*
X220930161Y-143862339D01*
X220907634Y-143834890D01*
X220890893Y-143803569D01*
X220880585Y-143769591D01*
X220876500Y-143728110D01*
X220876500Y-143051890D01*
X220880585Y-143010409D01*
X220890893Y-142976431D01*
X220907634Y-142945110D01*
X220930161Y-142917661D01*
X220957610Y-142895134D01*
X220988931Y-142878393D01*
X221022909Y-142868085D01*
X221064390Y-142864000D01*
X221665610Y-142864000D01*
X221707091Y-142868085D01*
G37*
G36*
X197819591Y-142203085D02*
G01*
X197853569Y-142213393D01*
X197884890Y-142230134D01*
X197912339Y-142252661D01*
X197934866Y-142280110D01*
X197951607Y-142311431D01*
X197961915Y-142345409D01*
X197966000Y-142386890D01*
X197966000Y-142988110D01*
X197961915Y-143029591D01*
X197951607Y-143063569D01*
X197934866Y-143094890D01*
X197912339Y-143122339D01*
X197884890Y-143144866D01*
X197853569Y-143161607D01*
X197819591Y-143171915D01*
X197778110Y-143176000D01*
X197101890Y-143176000D01*
X197060409Y-143171915D01*
X197026431Y-143161607D01*
X196995110Y-143144866D01*
X196967661Y-143122339D01*
X196945134Y-143094890D01*
X196928393Y-143063569D01*
X196918085Y-143029591D01*
X196914000Y-142988110D01*
X196914000Y-142386890D01*
X196918085Y-142345409D01*
X196928393Y-142311431D01*
X196945134Y-142280110D01*
X196967661Y-142252661D01*
X196995110Y-142230134D01*
X197026431Y-142213393D01*
X197060409Y-142203085D01*
X197101890Y-142199000D01*
X197778110Y-142199000D01*
X197819591Y-142203085D01*
G37*
G36*
X204319591Y-141703085D02*
G01*
X204353569Y-141713393D01*
X204384890Y-141730134D01*
X204412339Y-141752661D01*
X204434866Y-141780110D01*
X204451607Y-141811431D01*
X204461915Y-141845409D01*
X204466000Y-141886890D01*
X204466000Y-142488110D01*
X204461915Y-142529591D01*
X204451607Y-142563569D01*
X204434866Y-142594890D01*
X204412339Y-142622339D01*
X204384890Y-142644866D01*
X204353569Y-142661607D01*
X204319591Y-142671915D01*
X204278110Y-142676000D01*
X203601890Y-142676000D01*
X203560409Y-142671915D01*
X203526431Y-142661607D01*
X203495110Y-142644866D01*
X203467661Y-142622339D01*
X203445134Y-142594890D01*
X203428393Y-142563569D01*
X203418085Y-142529591D01*
X203414000Y-142488110D01*
X203414000Y-141886890D01*
X203418085Y-141845409D01*
X203428393Y-141811431D01*
X203445134Y-141780110D01*
X203467661Y-141752661D01*
X203495110Y-141730134D01*
X203526431Y-141713393D01*
X203560409Y-141703085D01*
X203601890Y-141699000D01*
X204278110Y-141699000D01*
X204319591Y-141703085D01*
G37*
G36*
X200941000Y-141751000D02*
G01*
X199839000Y-141751000D01*
X199839000Y-139449000D01*
X200941000Y-139449000D01*
X200941000Y-141751000D01*
G37*
G36*
X194941000Y-141751000D02*
G01*
X193839000Y-141751000D01*
X193839000Y-139449000D01*
X194941000Y-139449000D01*
X194941000Y-141751000D01*
G37*
G36*
X228726564Y-139599389D02*
G01*
X228917833Y-139678615D01*
X228917835Y-139678616D01*
X229089973Y-139793635D01*
X229236365Y-139940027D01*
X229351385Y-140112167D01*
X229430611Y-140303436D01*
X229471000Y-140506484D01*
X229471000Y-140713516D01*
X229430611Y-140916564D01*
X229376442Y-141047339D01*
X229351384Y-141107835D01*
X229236365Y-141279973D01*
X229089973Y-141426365D01*
X228917835Y-141541384D01*
X228917834Y-141541385D01*
X228917833Y-141541385D01*
X228726564Y-141620611D01*
X228523516Y-141661000D01*
X228316484Y-141661000D01*
X228113436Y-141620611D01*
X227922167Y-141541385D01*
X227922166Y-141541385D01*
X227922165Y-141541384D01*
X227750027Y-141426365D01*
X227603635Y-141279973D01*
X227488616Y-141107835D01*
X227463558Y-141047339D01*
X227409389Y-140916564D01*
X227369000Y-140713516D01*
X227369000Y-140506484D01*
X227409389Y-140303436D01*
X227488615Y-140112167D01*
X227603635Y-139940027D01*
X227750027Y-139793635D01*
X227922165Y-139678616D01*
X227922167Y-139678615D01*
X228113436Y-139599389D01*
X228316484Y-139559000D01*
X228523516Y-139559000D01*
X228726564Y-139599389D01*
G37*
G36*
X226186564Y-139599389D02*
G01*
X226377833Y-139678615D01*
X226377835Y-139678616D01*
X226549973Y-139793635D01*
X226696365Y-139940027D01*
X226811385Y-140112167D01*
X226890611Y-140303436D01*
X226931000Y-140506484D01*
X226931000Y-140713516D01*
X226890611Y-140916564D01*
X226836442Y-141047339D01*
X226811384Y-141107835D01*
X226696365Y-141279973D01*
X226549973Y-141426365D01*
X226377835Y-141541384D01*
X226377834Y-141541385D01*
X226377833Y-141541385D01*
X226186564Y-141620611D01*
X225983516Y-141661000D01*
X225776484Y-141661000D01*
X225573436Y-141620611D01*
X225382167Y-141541385D01*
X225382166Y-141541385D01*
X225382165Y-141541384D01*
X225210027Y-141426365D01*
X225063635Y-141279973D01*
X224948616Y-141107835D01*
X224923558Y-141047339D01*
X224869389Y-140916564D01*
X224829000Y-140713516D01*
X224829000Y-140506484D01*
X224869389Y-140303436D01*
X224948615Y-140112167D01*
X225063635Y-139940027D01*
X225210027Y-139793635D01*
X225382165Y-139678616D01*
X225382167Y-139678615D01*
X225573436Y-139599389D01*
X225776484Y-139559000D01*
X225983516Y-139559000D01*
X226186564Y-139599389D01*
G37*
G36*
X197819591Y-140628085D02*
G01*
X197853569Y-140638393D01*
X197884890Y-140655134D01*
X197912339Y-140677661D01*
X197934866Y-140705110D01*
X197951607Y-140736431D01*
X197961915Y-140770409D01*
X197966000Y-140811890D01*
X197966000Y-141413110D01*
X197961915Y-141454591D01*
X197951607Y-141488569D01*
X197934866Y-141519890D01*
X197912339Y-141547339D01*
X197884890Y-141569866D01*
X197853569Y-141586607D01*
X197819591Y-141596915D01*
X197778110Y-141601000D01*
X197101890Y-141601000D01*
X197060409Y-141596915D01*
X197026431Y-141586607D01*
X196995110Y-141569866D01*
X196967661Y-141547339D01*
X196945134Y-141519890D01*
X196928393Y-141488569D01*
X196918085Y-141454591D01*
X196914000Y-141413110D01*
X196914000Y-140811890D01*
X196918085Y-140770409D01*
X196928393Y-140736431D01*
X196945134Y-140705110D01*
X196967661Y-140677661D01*
X196995110Y-140655134D01*
X197026431Y-140638393D01*
X197060409Y-140628085D01*
X197101890Y-140624000D01*
X197778110Y-140624000D01*
X197819591Y-140628085D01*
G37*
G36*
X204319591Y-140128085D02*
G01*
X204353569Y-140138393D01*
X204384890Y-140155134D01*
X204412339Y-140177661D01*
X204434866Y-140205110D01*
X204451607Y-140236431D01*
X204461915Y-140270409D01*
X204466000Y-140311890D01*
X204466000Y-140913110D01*
X204461915Y-140954591D01*
X204451607Y-140988569D01*
X204434866Y-141019890D01*
X204412339Y-141047339D01*
X204384890Y-141069866D01*
X204353569Y-141086607D01*
X204319591Y-141096915D01*
X204278110Y-141101000D01*
X203601890Y-141101000D01*
X203560409Y-141096915D01*
X203526431Y-141086607D01*
X203495110Y-141069866D01*
X203467661Y-141047339D01*
X203445134Y-141019890D01*
X203428393Y-140988569D01*
X203418085Y-140954591D01*
X203414000Y-140913110D01*
X203414000Y-140311890D01*
X203418085Y-140270409D01*
X203428393Y-140236431D01*
X203445134Y-140205110D01*
X203467661Y-140177661D01*
X203495110Y-140155134D01*
X203526431Y-140138393D01*
X203560409Y-140128085D01*
X203601890Y-140124000D01*
X204278110Y-140124000D01*
X204319591Y-140128085D01*
G37*
G36*
X213841000Y-140451000D02*
G01*
X205939000Y-140451000D01*
X205939000Y-138849000D01*
X213841000Y-138849000D01*
X213841000Y-140451000D01*
G37*
G36*
X226186564Y-137059389D02*
G01*
X226377833Y-137138615D01*
X226377835Y-137138616D01*
X226549973Y-137253635D01*
X226696365Y-137400027D01*
X226762497Y-137499000D01*
X226811385Y-137572167D01*
X226890611Y-137763436D01*
X226931000Y-137966484D01*
X226931000Y-138173516D01*
X226890611Y-138376564D01*
X226811385Y-138567833D01*
X226811384Y-138567835D01*
X226696365Y-138739973D01*
X226549973Y-138886365D01*
X226377835Y-139001384D01*
X226377834Y-139001385D01*
X226377833Y-139001385D01*
X226186564Y-139080611D01*
X225983516Y-139121000D01*
X225776484Y-139121000D01*
X225573436Y-139080611D01*
X225382167Y-139001385D01*
X225382166Y-139001385D01*
X225382165Y-139001384D01*
X225210027Y-138886365D01*
X225063635Y-138739973D01*
X224948616Y-138567835D01*
X224948615Y-138567833D01*
X224869389Y-138376564D01*
X224829000Y-138173516D01*
X224829000Y-137966484D01*
X224869389Y-137763436D01*
X224948615Y-137572167D01*
X224997504Y-137499000D01*
X225063635Y-137400027D01*
X225210027Y-137253635D01*
X225382165Y-137138616D01*
X225382167Y-137138615D01*
X225573436Y-137059389D01*
X225776484Y-137019000D01*
X225983516Y-137019000D01*
X226186564Y-137059389D01*
G37*
G36*
X228726564Y-137059389D02*
G01*
X228917833Y-137138615D01*
X228917835Y-137138616D01*
X229089973Y-137253635D01*
X229236365Y-137400027D01*
X229302497Y-137499000D01*
X229351385Y-137572167D01*
X229430611Y-137763436D01*
X229471000Y-137966484D01*
X229471000Y-138173516D01*
X229430611Y-138376564D01*
X229351385Y-138567833D01*
X229351384Y-138567835D01*
X229236365Y-138739973D01*
X229089973Y-138886365D01*
X228917835Y-139001384D01*
X228917834Y-139001385D01*
X228917833Y-139001385D01*
X228726564Y-139080611D01*
X228523516Y-139121000D01*
X228316484Y-139121000D01*
X228113436Y-139080611D01*
X227922167Y-139001385D01*
X227922166Y-139001385D01*
X227922165Y-139001384D01*
X227750027Y-138886365D01*
X227603635Y-138739973D01*
X227488616Y-138567835D01*
X227488615Y-138567833D01*
X227409389Y-138376564D01*
X227369000Y-138173516D01*
X227369000Y-137966484D01*
X227409389Y-137763436D01*
X227488615Y-137572167D01*
X227537504Y-137499000D01*
X227603635Y-137400027D01*
X227750027Y-137253635D01*
X227922165Y-137138616D01*
X227922167Y-137138615D01*
X228113436Y-137059389D01*
X228316484Y-137019000D01*
X228523516Y-137019000D01*
X228726564Y-137059389D01*
G37*
G36*
X216391000Y-137901000D02*
G01*
X214789000Y-137901000D01*
X214789000Y-129999000D01*
X216391000Y-129999000D01*
X216391000Y-137901000D01*
G37*
G36*
X204991000Y-137901000D02*
G01*
X203389000Y-137901000D01*
X203389000Y-129999000D01*
X204991000Y-129999000D01*
X204991000Y-137901000D01*
G37*
G36*
X198494591Y-136378085D02*
G01*
X198528569Y-136388393D01*
X198559890Y-136405134D01*
X198587339Y-136427661D01*
X198609866Y-136455110D01*
X198626607Y-136486431D01*
X198636915Y-136520409D01*
X198641000Y-136561890D01*
X198641000Y-137238110D01*
X198636915Y-137279591D01*
X198626607Y-137313569D01*
X198609866Y-137344890D01*
X198587339Y-137372339D01*
X198559890Y-137394866D01*
X198528569Y-137411607D01*
X198494591Y-137421915D01*
X198453110Y-137426000D01*
X197851890Y-137426000D01*
X197810409Y-137421915D01*
X197776431Y-137411607D01*
X197745110Y-137394866D01*
X197717661Y-137372339D01*
X197695134Y-137344890D01*
X197678393Y-137313569D01*
X197668085Y-137279591D01*
X197664000Y-137238110D01*
X197664000Y-136561890D01*
X197668085Y-136520409D01*
X197678393Y-136486431D01*
X197695134Y-136455110D01*
X197717661Y-136427661D01*
X197745110Y-136405134D01*
X197776431Y-136388393D01*
X197810409Y-136378085D01*
X197851890Y-136374000D01*
X198453110Y-136374000D01*
X198494591Y-136378085D01*
G37*
G36*
X200069591Y-136378085D02*
G01*
X200103569Y-136388393D01*
X200134890Y-136405134D01*
X200162339Y-136427661D01*
X200184866Y-136455110D01*
X200201607Y-136486431D01*
X200211915Y-136520409D01*
X200216000Y-136561890D01*
X200216000Y-137238110D01*
X200211915Y-137279591D01*
X200201607Y-137313569D01*
X200184866Y-137344890D01*
X200162339Y-137372339D01*
X200134890Y-137394866D01*
X200103569Y-137411607D01*
X200069591Y-137421915D01*
X200028110Y-137426000D01*
X199426890Y-137426000D01*
X199385409Y-137421915D01*
X199351431Y-137411607D01*
X199320110Y-137394866D01*
X199292661Y-137372339D01*
X199270134Y-137344890D01*
X199253393Y-137313569D01*
X199243085Y-137279591D01*
X199239000Y-137238110D01*
X199239000Y-136561890D01*
X199243085Y-136520409D01*
X199253393Y-136486431D01*
X199270134Y-136455110D01*
X199292661Y-136427661D01*
X199320110Y-136405134D01*
X199351431Y-136388393D01*
X199385409Y-136378085D01*
X199426890Y-136374000D01*
X200028110Y-136374000D01*
X200069591Y-136378085D01*
G37*
G36*
X228726564Y-134519389D02*
G01*
X228917833Y-134598615D01*
X228917835Y-134598616D01*
X229089973Y-134713635D01*
X229236365Y-134860027D01*
X229351385Y-135032167D01*
X229430611Y-135223436D01*
X229471000Y-135426484D01*
X229471000Y-135633516D01*
X229430611Y-135836564D01*
X229363328Y-135999000D01*
X229351384Y-136027835D01*
X229236365Y-136199973D01*
X229089973Y-136346365D01*
X228917835Y-136461384D01*
X228917834Y-136461385D01*
X228917833Y-136461385D01*
X228726564Y-136540611D01*
X228523516Y-136581000D01*
X228316484Y-136581000D01*
X228113436Y-136540611D01*
X227922167Y-136461385D01*
X227922166Y-136461385D01*
X227922165Y-136461384D01*
X227750027Y-136346365D01*
X227603635Y-136199973D01*
X227488616Y-136027835D01*
X227476672Y-135999000D01*
X227409389Y-135836564D01*
X227369000Y-135633516D01*
X227369000Y-135426484D01*
X227409389Y-135223436D01*
X227488615Y-135032167D01*
X227603635Y-134860027D01*
X227750027Y-134713635D01*
X227922165Y-134598616D01*
X227922167Y-134598615D01*
X228113436Y-134519389D01*
X228316484Y-134479000D01*
X228523516Y-134479000D01*
X228726564Y-134519389D01*
G37*
G36*
X226186564Y-134519389D02*
G01*
X226377833Y-134598615D01*
X226377835Y-134598616D01*
X226549973Y-134713635D01*
X226696365Y-134860027D01*
X226811385Y-135032167D01*
X226890611Y-135223436D01*
X226931000Y-135426484D01*
X226931000Y-135633516D01*
X226890611Y-135836564D01*
X226823328Y-135999000D01*
X226811384Y-136027835D01*
X226696365Y-136199973D01*
X226549973Y-136346365D01*
X226377835Y-136461384D01*
X226377834Y-136461385D01*
X226377833Y-136461385D01*
X226186564Y-136540611D01*
X225983516Y-136581000D01*
X225776484Y-136581000D01*
X225573436Y-136540611D01*
X225382167Y-136461385D01*
X225382166Y-136461385D01*
X225382165Y-136461384D01*
X225210027Y-136346365D01*
X225063635Y-136199973D01*
X224948616Y-136027835D01*
X224936672Y-135999000D01*
X224869389Y-135836564D01*
X224829000Y-135633516D01*
X224829000Y-135426484D01*
X224869389Y-135223436D01*
X224948615Y-135032167D01*
X225063635Y-134860027D01*
X225210027Y-134713635D01*
X225382165Y-134598616D01*
X225382167Y-134598615D01*
X225573436Y-134519389D01*
X225776484Y-134479000D01*
X225983516Y-134479000D01*
X226186564Y-134519389D01*
G37*
G36*
X198291000Y-134901000D02*
G01*
X195989000Y-134901000D01*
X195989000Y-133799000D01*
X198291000Y-133799000D01*
X198291000Y-134901000D01*
G37*
G36*
X201391000Y-134901000D02*
G01*
X199089000Y-134901000D01*
X199089000Y-133799000D01*
X201391000Y-133799000D01*
X201391000Y-134901000D01*
G37*
G36*
X226186564Y-131979389D02*
G01*
X226377833Y-132058615D01*
X226377835Y-132058616D01*
X226549973Y-132173635D01*
X226696365Y-132320027D01*
X226811385Y-132492167D01*
X226890611Y-132683436D01*
X226931000Y-132886484D01*
X226931000Y-133093516D01*
X226890611Y-133296564D01*
X226847352Y-133401000D01*
X226811384Y-133487835D01*
X226696365Y-133659973D01*
X226549973Y-133806365D01*
X226377835Y-133921384D01*
X226377834Y-133921385D01*
X226377833Y-133921385D01*
X226186564Y-134000611D01*
X225983516Y-134041000D01*
X225776484Y-134041000D01*
X225573436Y-134000611D01*
X225382167Y-133921385D01*
X225382166Y-133921385D01*
X225382165Y-133921384D01*
X225210027Y-133806365D01*
X225063635Y-133659973D01*
X224948616Y-133487835D01*
X224912648Y-133401000D01*
X224869389Y-133296564D01*
X224829000Y-133093516D01*
X224829000Y-132886484D01*
X224869389Y-132683436D01*
X224948615Y-132492167D01*
X225063635Y-132320027D01*
X225210027Y-132173635D01*
X225382165Y-132058616D01*
X225382167Y-132058615D01*
X225573436Y-131979389D01*
X225776484Y-131939000D01*
X225983516Y-131939000D01*
X226186564Y-131979389D01*
G37*
G36*
X229471000Y-134041000D02*
G01*
X227369000Y-134041000D01*
X227369000Y-131939000D01*
X229471000Y-131939000D01*
X229471000Y-134041000D01*
G37*
G36*
X200141000Y-127324001D02*
G01*
X200143402Y-127348387D01*
X200150515Y-127371836D01*
X200162066Y-127393447D01*
X200177611Y-127412389D01*
X200196553Y-127427934D01*
X200218164Y-127439485D01*
X200241613Y-127446598D01*
X200265999Y-127449000D01*
X200672500Y-127449000D01*
X200672500Y-128851000D01*
X200265999Y-128851000D01*
X200241613Y-128853402D01*
X200218164Y-128860515D01*
X200196553Y-128872066D01*
X200177611Y-128887611D01*
X200162066Y-128906553D01*
X200150515Y-128928164D01*
X200143402Y-128951613D01*
X200141000Y-128975999D01*
X200141000Y-129882500D01*
X197739000Y-129882500D01*
X197739000Y-128975999D01*
X197736598Y-128951613D01*
X197729485Y-128928164D01*
X197717934Y-128906553D01*
X197702389Y-128887611D01*
X197683447Y-128872066D01*
X197661836Y-128860515D01*
X197638387Y-128853402D01*
X197614001Y-128851000D01*
X197212500Y-128851000D01*
X197212500Y-127452499D01*
X198127500Y-127452499D01*
X198127500Y-128842501D01*
X198129902Y-128866887D01*
X198137015Y-128890336D01*
X198148566Y-128911947D01*
X198164111Y-128930889D01*
X198183053Y-128946434D01*
X198204664Y-128957985D01*
X198228113Y-128965098D01*
X198252499Y-128967500D01*
X199632501Y-128967500D01*
X199656887Y-128965098D01*
X199680336Y-128957985D01*
X199701947Y-128946434D01*
X199720889Y-128930889D01*
X199736434Y-128911947D01*
X199747985Y-128890336D01*
X199755098Y-128866887D01*
X199757500Y-128842501D01*
X199757500Y-127452499D01*
X199755098Y-127428113D01*
X199747985Y-127404664D01*
X199736434Y-127383053D01*
X199720889Y-127364111D01*
X199701947Y-127348566D01*
X199680336Y-127337015D01*
X199656887Y-127329902D01*
X199632501Y-127327500D01*
X198252499Y-127327500D01*
X198228113Y-127329902D01*
X198204664Y-127337015D01*
X198183053Y-127348566D01*
X198164111Y-127364111D01*
X198148566Y-127383053D01*
X198137015Y-127404664D01*
X198129902Y-127428113D01*
X198127500Y-127452499D01*
X197212500Y-127452499D01*
X197212500Y-127449000D01*
X197614001Y-127449000D01*
X197638387Y-127446598D01*
X197661836Y-127439485D01*
X197683447Y-127427934D01*
X197702389Y-127412389D01*
X197717934Y-127393447D01*
X197729485Y-127371836D01*
X197736598Y-127348387D01*
X197739000Y-127324001D01*
X197739000Y-126412500D01*
X200141000Y-126412500D01*
X200141000Y-127324001D01*
G37*
G36*
X213841000Y-129051000D02*
G01*
X205939000Y-129051000D01*
X205939000Y-127449000D01*
X213841000Y-127449000D01*
X213841000Y-129051000D01*
G37*
G36*
X195319591Y-127703085D02*
G01*
X195353569Y-127713393D01*
X195384890Y-127730134D01*
X195412339Y-127752661D01*
X195434866Y-127780110D01*
X195451607Y-127811431D01*
X195461915Y-127845409D01*
X195466000Y-127886890D01*
X195466000Y-128488110D01*
X195461915Y-128529591D01*
X195451607Y-128563569D01*
X195434866Y-128594890D01*
X195412339Y-128622339D01*
X195384890Y-128644866D01*
X195353569Y-128661607D01*
X195319591Y-128671915D01*
X195278110Y-128676000D01*
X194601890Y-128676000D01*
X194560409Y-128671915D01*
X194526431Y-128661607D01*
X194495110Y-128644866D01*
X194467661Y-128622339D01*
X194445134Y-128594890D01*
X194428393Y-128563569D01*
X194418085Y-128529591D01*
X194414000Y-128488110D01*
X194414000Y-127886890D01*
X194418085Y-127845409D01*
X194428393Y-127811431D01*
X194445134Y-127780110D01*
X194467661Y-127752661D01*
X194495110Y-127730134D01*
X194526431Y-127713393D01*
X194560409Y-127703085D01*
X194601890Y-127699000D01*
X195278110Y-127699000D01*
X195319591Y-127703085D01*
G37*
G36*
X219936564Y-126329389D02*
G01*
X220127833Y-126408615D01*
X220127835Y-126408616D01*
X220299973Y-126523635D01*
X220446365Y-126670027D01*
X220561385Y-126842167D01*
X220640611Y-127033436D01*
X220681000Y-127236484D01*
X220681000Y-127443516D01*
X220640611Y-127646564D01*
X220573928Y-127807552D01*
X220561384Y-127837835D01*
X220446365Y-128009973D01*
X220299973Y-128156365D01*
X220127835Y-128271384D01*
X220127834Y-128271385D01*
X220127833Y-128271385D01*
X219936564Y-128350611D01*
X219733516Y-128391000D01*
X219526484Y-128391000D01*
X219323436Y-128350611D01*
X219132167Y-128271385D01*
X219132166Y-128271385D01*
X219132165Y-128271384D01*
X218960027Y-128156365D01*
X218813635Y-128009973D01*
X218698616Y-127837835D01*
X218686072Y-127807552D01*
X218619389Y-127646564D01*
X218579000Y-127443516D01*
X218579000Y-127236484D01*
X218619389Y-127033436D01*
X218698615Y-126842167D01*
X218813635Y-126670027D01*
X218960027Y-126523635D01*
X219132165Y-126408616D01*
X219132167Y-126408615D01*
X219323436Y-126329389D01*
X219526484Y-126289000D01*
X219733516Y-126289000D01*
X219936564Y-126329389D01*
G37*
G36*
X225016564Y-126329389D02*
G01*
X225207833Y-126408615D01*
X225207835Y-126408616D01*
X225379973Y-126523635D01*
X225526365Y-126670027D01*
X225641385Y-126842167D01*
X225720611Y-127033436D01*
X225761000Y-127236484D01*
X225761000Y-127443516D01*
X225720611Y-127646564D01*
X225653928Y-127807552D01*
X225641384Y-127837835D01*
X225526365Y-128009973D01*
X225379973Y-128156365D01*
X225207835Y-128271384D01*
X225207834Y-128271385D01*
X225207833Y-128271385D01*
X225016564Y-128350611D01*
X224813516Y-128391000D01*
X224606484Y-128391000D01*
X224403436Y-128350611D01*
X224212167Y-128271385D01*
X224212166Y-128271385D01*
X224212165Y-128271384D01*
X224040027Y-128156365D01*
X223893635Y-128009973D01*
X223778616Y-127837835D01*
X223766072Y-127807552D01*
X223699389Y-127646564D01*
X223659000Y-127443516D01*
X223659000Y-127236484D01*
X223699389Y-127033436D01*
X223778615Y-126842167D01*
X223893635Y-126670027D01*
X224040027Y-126523635D01*
X224212165Y-126408616D01*
X224212167Y-126408615D01*
X224403436Y-126329389D01*
X224606484Y-126289000D01*
X224813516Y-126289000D01*
X225016564Y-126329389D01*
G37*
G36*
X222476564Y-126329389D02*
G01*
X222667833Y-126408615D01*
X222667835Y-126408616D01*
X222839973Y-126523635D01*
X222986365Y-126670027D01*
X223101385Y-126842167D01*
X223180611Y-127033436D01*
X223221000Y-127236484D01*
X223221000Y-127443516D01*
X223180611Y-127646564D01*
X223113928Y-127807552D01*
X223101384Y-127837835D01*
X222986365Y-128009973D01*
X222839973Y-128156365D01*
X222667835Y-128271384D01*
X222667834Y-128271385D01*
X222667833Y-128271385D01*
X222476564Y-128350611D01*
X222273516Y-128391000D01*
X222066484Y-128391000D01*
X221863436Y-128350611D01*
X221672167Y-128271385D01*
X221672166Y-128271385D01*
X221672165Y-128271384D01*
X221500027Y-128156365D01*
X221353635Y-128009973D01*
X221238616Y-127837835D01*
X221226072Y-127807552D01*
X221159389Y-127646564D01*
X221119000Y-127443516D01*
X221119000Y-127236484D01*
X221159389Y-127033436D01*
X221238615Y-126842167D01*
X221353635Y-126670027D01*
X221500027Y-126523635D01*
X221672165Y-126408616D01*
X221672167Y-126408615D01*
X221863436Y-126329389D01*
X222066484Y-126289000D01*
X222273516Y-126289000D01*
X222476564Y-126329389D01*
G37*
G36*
X195319591Y-126128085D02*
G01*
X195353569Y-126138393D01*
X195384890Y-126155134D01*
X195412339Y-126177661D01*
X195434866Y-126205110D01*
X195451607Y-126236431D01*
X195461915Y-126270409D01*
X195466000Y-126311890D01*
X195466000Y-126913110D01*
X195461915Y-126954591D01*
X195451607Y-126988569D01*
X195434866Y-127019890D01*
X195412339Y-127047339D01*
X195384890Y-127069866D01*
X195353569Y-127086607D01*
X195319591Y-127096915D01*
X195278110Y-127101000D01*
X194601890Y-127101000D01*
X194560409Y-127096915D01*
X194526431Y-127086607D01*
X194495110Y-127069866D01*
X194467661Y-127047339D01*
X194445134Y-127019890D01*
X194428393Y-126988569D01*
X194418085Y-126954591D01*
X194414000Y-126913110D01*
X194414000Y-126311890D01*
X194418085Y-126270409D01*
X194428393Y-126236431D01*
X194445134Y-126205110D01*
X194467661Y-126177661D01*
X194495110Y-126155134D01*
X194526431Y-126138393D01*
X194560409Y-126128085D01*
X194601890Y-126124000D01*
X195278110Y-126124000D01*
X195319591Y-126128085D01*
G37*
G36*
X198819591Y-124703085D02*
G01*
X198853569Y-124713393D01*
X198884890Y-124730134D01*
X198912339Y-124752661D01*
X198934866Y-124780110D01*
X198951607Y-124811431D01*
X198961915Y-124845409D01*
X198966000Y-124886890D01*
X198966000Y-125488110D01*
X198961915Y-125529591D01*
X198951607Y-125563569D01*
X198934866Y-125594890D01*
X198912339Y-125622339D01*
X198884890Y-125644866D01*
X198853569Y-125661607D01*
X198819591Y-125671915D01*
X198778110Y-125676000D01*
X198101890Y-125676000D01*
X198060409Y-125671915D01*
X198026431Y-125661607D01*
X197995110Y-125644866D01*
X197967661Y-125622339D01*
X197945134Y-125594890D01*
X197928393Y-125563569D01*
X197918085Y-125529591D01*
X197914000Y-125488110D01*
X197914000Y-124886890D01*
X197918085Y-124845409D01*
X197928393Y-124811431D01*
X197945134Y-124780110D01*
X197967661Y-124752661D01*
X197995110Y-124730134D01*
X198026431Y-124713393D01*
X198060409Y-124703085D01*
X198101890Y-124699000D01*
X198778110Y-124699000D01*
X198819591Y-124703085D01*
G37*
G36*
X197069591Y-124703085D02*
G01*
X197103569Y-124713393D01*
X197134890Y-124730134D01*
X197162339Y-124752661D01*
X197184866Y-124780110D01*
X197201607Y-124811431D01*
X197211915Y-124845409D01*
X197216000Y-124886890D01*
X197216000Y-125488110D01*
X197211915Y-125529591D01*
X197201607Y-125563569D01*
X197184866Y-125594890D01*
X197162339Y-125622339D01*
X197134890Y-125644866D01*
X197103569Y-125661607D01*
X197069591Y-125671915D01*
X197028110Y-125676000D01*
X196351890Y-125676000D01*
X196310409Y-125671915D01*
X196276431Y-125661607D01*
X196245110Y-125644866D01*
X196217661Y-125622339D01*
X196195134Y-125594890D01*
X196178393Y-125563569D01*
X196168085Y-125529591D01*
X196164000Y-125488110D01*
X196164000Y-124886890D01*
X196168085Y-124845409D01*
X196178393Y-124811431D01*
X196195134Y-124780110D01*
X196217661Y-124752661D01*
X196245110Y-124730134D01*
X196276431Y-124713393D01*
X196310409Y-124703085D01*
X196351890Y-124699000D01*
X197028110Y-124699000D01*
X197069591Y-124703085D01*
G37*
G36*
X224354499Y-123628445D02*
G01*
X224391995Y-123639820D01*
X224426554Y-123658292D01*
X224456847Y-123683153D01*
X224481708Y-123713446D01*
X224500180Y-123748005D01*
X224511555Y-123785501D01*
X224516000Y-123830638D01*
X224516000Y-124469362D01*
X224511555Y-124514499D01*
X224500180Y-124551995D01*
X224481708Y-124586554D01*
X224456847Y-124616847D01*
X224426554Y-124641708D01*
X224391995Y-124660180D01*
X224354499Y-124671555D01*
X224309362Y-124676000D01*
X223570638Y-124676000D01*
X223525501Y-124671555D01*
X223488005Y-124660180D01*
X223453446Y-124641708D01*
X223423153Y-124616847D01*
X223398292Y-124586554D01*
X223379820Y-124551995D01*
X223368445Y-124514499D01*
X223364000Y-124469362D01*
X223364000Y-123830638D01*
X223368445Y-123785501D01*
X223379820Y-123748005D01*
X223398292Y-123713446D01*
X223423153Y-123683153D01*
X223453446Y-123658292D01*
X223488005Y-123639820D01*
X223525501Y-123628445D01*
X223570638Y-123624000D01*
X224309362Y-123624000D01*
X224354499Y-123628445D01*
G37*
G36*
X226104499Y-123628445D02*
G01*
X226141995Y-123639820D01*
X226176554Y-123658292D01*
X226206847Y-123683153D01*
X226231708Y-123713446D01*
X226250180Y-123748005D01*
X226261555Y-123785501D01*
X226266000Y-123830638D01*
X226266000Y-124469362D01*
X226261555Y-124514499D01*
X226250180Y-124551995D01*
X226231708Y-124586554D01*
X226206847Y-124616847D01*
X226176554Y-124641708D01*
X226141995Y-124660180D01*
X226104499Y-124671555D01*
X226059362Y-124676000D01*
X225320638Y-124676000D01*
X225275501Y-124671555D01*
X225238005Y-124660180D01*
X225203446Y-124641708D01*
X225173153Y-124616847D01*
X225148292Y-124586554D01*
X225129820Y-124551995D01*
X225118445Y-124514499D01*
X225114000Y-124469362D01*
X225114000Y-123830638D01*
X225118445Y-123785501D01*
X225129820Y-123748005D01*
X225148292Y-123713446D01*
X225173153Y-123683153D01*
X225203446Y-123658292D01*
X225238005Y-123639820D01*
X225275501Y-123628445D01*
X225320638Y-123624000D01*
X226059362Y-123624000D01*
X226104499Y-123628445D01*
G37*
G36*
X198819591Y-123128085D02*
G01*
X198853569Y-123138393D01*
X198884890Y-123155134D01*
X198912339Y-123177661D01*
X198934866Y-123205110D01*
X198951607Y-123236431D01*
X198961915Y-123270409D01*
X198966000Y-123311890D01*
X198966000Y-123913110D01*
X198961915Y-123954591D01*
X198951607Y-123988569D01*
X198934866Y-124019890D01*
X198912339Y-124047339D01*
X198884890Y-124069866D01*
X198853569Y-124086607D01*
X198819591Y-124096915D01*
X198778110Y-124101000D01*
X198101890Y-124101000D01*
X198060409Y-124096915D01*
X198026431Y-124086607D01*
X197995110Y-124069866D01*
X197967661Y-124047339D01*
X197945134Y-124019890D01*
X197928393Y-123988569D01*
X197918085Y-123954591D01*
X197914000Y-123913110D01*
X197914000Y-123311890D01*
X197918085Y-123270409D01*
X197928393Y-123236431D01*
X197945134Y-123205110D01*
X197967661Y-123177661D01*
X197995110Y-123155134D01*
X198026431Y-123138393D01*
X198060409Y-123128085D01*
X198101890Y-123124000D01*
X198778110Y-123124000D01*
X198819591Y-123128085D01*
G37*
G36*
X197069591Y-123128085D02*
G01*
X197103569Y-123138393D01*
X197134890Y-123155134D01*
X197162339Y-123177661D01*
X197184866Y-123205110D01*
X197201607Y-123236431D01*
X197211915Y-123270409D01*
X197216000Y-123311890D01*
X197216000Y-123913110D01*
X197211915Y-123954591D01*
X197201607Y-123988569D01*
X197184866Y-124019890D01*
X197162339Y-124047339D01*
X197134890Y-124069866D01*
X197103569Y-124086607D01*
X197069591Y-124096915D01*
X197028110Y-124101000D01*
X196351890Y-124101000D01*
X196310409Y-124096915D01*
X196276431Y-124086607D01*
X196245110Y-124069866D01*
X196217661Y-124047339D01*
X196195134Y-124019890D01*
X196178393Y-123988569D01*
X196168085Y-123954591D01*
X196164000Y-123913110D01*
X196164000Y-123311890D01*
X196168085Y-123270409D01*
X196178393Y-123236431D01*
X196195134Y-123205110D01*
X196217661Y-123177661D01*
X196245110Y-123155134D01*
X196276431Y-123138393D01*
X196310409Y-123128085D01*
X196351890Y-123124000D01*
X197028110Y-123124000D01*
X197069591Y-123128085D01*
G37*
G36*
X213019591Y-122703085D02*
G01*
X213053569Y-122713393D01*
X213084890Y-122730134D01*
X213112339Y-122752661D01*
X213134866Y-122780110D01*
X213151607Y-122811431D01*
X213161915Y-122845409D01*
X213166000Y-122886890D01*
X213166000Y-123488110D01*
X213161915Y-123529591D01*
X213151607Y-123563569D01*
X213134866Y-123594890D01*
X213112339Y-123622339D01*
X213084890Y-123644866D01*
X213053569Y-123661607D01*
X213019591Y-123671915D01*
X212978110Y-123676000D01*
X212301890Y-123676000D01*
X212260409Y-123671915D01*
X212226431Y-123661607D01*
X212195110Y-123644866D01*
X212167661Y-123622339D01*
X212145134Y-123594890D01*
X212128393Y-123563569D01*
X212118085Y-123529591D01*
X212114000Y-123488110D01*
X212114000Y-122886890D01*
X212118085Y-122845409D01*
X212128393Y-122811431D01*
X212145134Y-122780110D01*
X212167661Y-122752661D01*
X212195110Y-122730134D01*
X212226431Y-122713393D01*
X212260409Y-122703085D01*
X212301890Y-122699000D01*
X212978110Y-122699000D01*
X213019591Y-122703085D01*
G37*
G36*
X209819591Y-122703085D02*
G01*
X209853569Y-122713393D01*
X209884890Y-122730134D01*
X209912339Y-122752661D01*
X209934866Y-122780110D01*
X209951607Y-122811431D01*
X209961915Y-122845409D01*
X209966000Y-122886890D01*
X209966000Y-123488110D01*
X209961915Y-123529591D01*
X209951607Y-123563569D01*
X209934866Y-123594890D01*
X209912339Y-123622339D01*
X209884890Y-123644866D01*
X209853569Y-123661607D01*
X209819591Y-123671915D01*
X209778110Y-123676000D01*
X209101890Y-123676000D01*
X209060409Y-123671915D01*
X209026431Y-123661607D01*
X208995110Y-123644866D01*
X208967661Y-123622339D01*
X208945134Y-123594890D01*
X208928393Y-123563569D01*
X208918085Y-123529591D01*
X208914000Y-123488110D01*
X208914000Y-122886890D01*
X208918085Y-122845409D01*
X208928393Y-122811431D01*
X208945134Y-122780110D01*
X208967661Y-122752661D01*
X208995110Y-122730134D01*
X209026431Y-122713393D01*
X209060409Y-122703085D01*
X209101890Y-122699000D01*
X209778110Y-122699000D01*
X209819591Y-122703085D01*
G37*
G36*
X213019591Y-121128085D02*
G01*
X213053569Y-121138393D01*
X213084890Y-121155134D01*
X213112339Y-121177661D01*
X213134866Y-121205110D01*
X213151607Y-121236431D01*
X213161915Y-121270409D01*
X213166000Y-121311890D01*
X213166000Y-121913110D01*
X213161915Y-121954591D01*
X213151607Y-121988569D01*
X213134866Y-122019890D01*
X213112339Y-122047339D01*
X213084890Y-122069866D01*
X213053569Y-122086607D01*
X213019591Y-122096915D01*
X212978110Y-122101000D01*
X212301890Y-122101000D01*
X212260409Y-122096915D01*
X212226431Y-122086607D01*
X212195110Y-122069866D01*
X212167661Y-122047339D01*
X212145134Y-122019890D01*
X212128393Y-121988569D01*
X212118085Y-121954591D01*
X212114000Y-121913110D01*
X212114000Y-121311890D01*
X212118085Y-121270409D01*
X212128393Y-121236431D01*
X212145134Y-121205110D01*
X212167661Y-121177661D01*
X212195110Y-121155134D01*
X212226431Y-121138393D01*
X212260409Y-121128085D01*
X212301890Y-121124000D01*
X212978110Y-121124000D01*
X213019591Y-121128085D01*
G37*
G36*
X209819591Y-121128085D02*
G01*
X209853569Y-121138393D01*
X209884890Y-121155134D01*
X209912339Y-121177661D01*
X209934866Y-121205110D01*
X209951607Y-121236431D01*
X209961915Y-121270409D01*
X209966000Y-121311890D01*
X209966000Y-121913110D01*
X209961915Y-121954591D01*
X209951607Y-121988569D01*
X209934866Y-122019890D01*
X209912339Y-122047339D01*
X209884890Y-122069866D01*
X209853569Y-122086607D01*
X209819591Y-122096915D01*
X209778110Y-122101000D01*
X209101890Y-122101000D01*
X209060409Y-122096915D01*
X209026431Y-122086607D01*
X208995110Y-122069866D01*
X208967661Y-122047339D01*
X208945134Y-122019890D01*
X208928393Y-121988569D01*
X208918085Y-121954591D01*
X208914000Y-121913110D01*
X208914000Y-121311890D01*
X208918085Y-121270409D01*
X208928393Y-121236431D01*
X208945134Y-121205110D01*
X208967661Y-121177661D01*
X208995110Y-121155134D01*
X209026431Y-121138393D01*
X209060409Y-121128085D01*
X209101890Y-121124000D01*
X209778110Y-121124000D01*
X209819591Y-121128085D01*
G37*
G36*
X216576000Y-114026000D02*
G01*
X215874000Y-114026000D01*
X215874000Y-112824000D01*
X216576000Y-112824000D01*
X216576000Y-114026000D01*
G37*
G36*
X215601000Y-114026000D02*
G01*
X213974000Y-114026000D01*
X213974000Y-112824000D01*
X215601000Y-112824000D01*
X215601000Y-114026000D01*
G37*
G36*
X214676700Y-111426000D02*
G01*
X213974700Y-111426000D01*
X213974700Y-110224000D01*
X214676700Y-110224000D01*
X214676700Y-111426000D01*
G37*
G36*
X216576000Y-111426000D02*
G01*
X215874000Y-111426000D01*
X215874000Y-110224000D01*
X216576000Y-110224000D01*
X216576000Y-111426000D01*
G37*
M02*
