G04 #@! TF.GenerationSoftware,KiCad,Pcbnew,(5.1.5)-3*
G04 #@! TF.CreationDate,2020-04-30T20:14:28+02:00*
G04 #@! TF.ProjectId,5-pointed-Star,352d706f-696e-4746-9564-2d537461722e,rev?*
G04 #@! TF.SameCoordinates,Original*
G04 #@! TF.FileFunction,Paste,Top*
G04 #@! TF.FilePolarity,Positive*
%FSLAX46Y46*%
G04 Gerber Fmt 4.6, Leading zero omitted, Abs format (unit mm)*
G04 Created by KiCad (PCBNEW (5.1.5)-3) date 2020-04-30 20:14:28*
%MOMM*%
%LPD*%
G04 APERTURE LIST*
%ADD10C,0.100000*%
%ADD11R,0.700000X0.700000*%
%ADD12R,3.000000X2.000000*%
G04 APERTURE END LIST*
D10*
G36*
X215692691Y-65356053D02*
G01*
X215713926Y-65359203D01*
X215734750Y-65364419D01*
X215754962Y-65371651D01*
X215774368Y-65380830D01*
X215792781Y-65391866D01*
X215810024Y-65404654D01*
X215825930Y-65419070D01*
X215840346Y-65434976D01*
X215853134Y-65452219D01*
X215864170Y-65470632D01*
X215873349Y-65490038D01*
X215880581Y-65510250D01*
X215885797Y-65531074D01*
X215888947Y-65552309D01*
X215890000Y-65573750D01*
X215890000Y-66086250D01*
X215888947Y-66107691D01*
X215885797Y-66128926D01*
X215880581Y-66149750D01*
X215873349Y-66169962D01*
X215864170Y-66189368D01*
X215853134Y-66207781D01*
X215840346Y-66225024D01*
X215825930Y-66240930D01*
X215810024Y-66255346D01*
X215792781Y-66268134D01*
X215774368Y-66279170D01*
X215754962Y-66288349D01*
X215734750Y-66295581D01*
X215713926Y-66300797D01*
X215692691Y-66303947D01*
X215671250Y-66305000D01*
X215233750Y-66305000D01*
X215212309Y-66303947D01*
X215191074Y-66300797D01*
X215170250Y-66295581D01*
X215150038Y-66288349D01*
X215130632Y-66279170D01*
X215112219Y-66268134D01*
X215094976Y-66255346D01*
X215079070Y-66240930D01*
X215064654Y-66225024D01*
X215051866Y-66207781D01*
X215040830Y-66189368D01*
X215031651Y-66169962D01*
X215024419Y-66149750D01*
X215019203Y-66128926D01*
X215016053Y-66107691D01*
X215015000Y-66086250D01*
X215015000Y-65573750D01*
X215016053Y-65552309D01*
X215019203Y-65531074D01*
X215024419Y-65510250D01*
X215031651Y-65490038D01*
X215040830Y-65470632D01*
X215051866Y-65452219D01*
X215064654Y-65434976D01*
X215079070Y-65419070D01*
X215094976Y-65404654D01*
X215112219Y-65391866D01*
X215130632Y-65380830D01*
X215150038Y-65371651D01*
X215170250Y-65364419D01*
X215191074Y-65359203D01*
X215212309Y-65356053D01*
X215233750Y-65355000D01*
X215671250Y-65355000D01*
X215692691Y-65356053D01*
G37*
G36*
X217267691Y-65356053D02*
G01*
X217288926Y-65359203D01*
X217309750Y-65364419D01*
X217329962Y-65371651D01*
X217349368Y-65380830D01*
X217367781Y-65391866D01*
X217385024Y-65404654D01*
X217400930Y-65419070D01*
X217415346Y-65434976D01*
X217428134Y-65452219D01*
X217439170Y-65470632D01*
X217448349Y-65490038D01*
X217455581Y-65510250D01*
X217460797Y-65531074D01*
X217463947Y-65552309D01*
X217465000Y-65573750D01*
X217465000Y-66086250D01*
X217463947Y-66107691D01*
X217460797Y-66128926D01*
X217455581Y-66149750D01*
X217448349Y-66169962D01*
X217439170Y-66189368D01*
X217428134Y-66207781D01*
X217415346Y-66225024D01*
X217400930Y-66240930D01*
X217385024Y-66255346D01*
X217367781Y-66268134D01*
X217349368Y-66279170D01*
X217329962Y-66288349D01*
X217309750Y-66295581D01*
X217288926Y-66300797D01*
X217267691Y-66303947D01*
X217246250Y-66305000D01*
X216808750Y-66305000D01*
X216787309Y-66303947D01*
X216766074Y-66300797D01*
X216745250Y-66295581D01*
X216725038Y-66288349D01*
X216705632Y-66279170D01*
X216687219Y-66268134D01*
X216669976Y-66255346D01*
X216654070Y-66240930D01*
X216639654Y-66225024D01*
X216626866Y-66207781D01*
X216615830Y-66189368D01*
X216606651Y-66169962D01*
X216599419Y-66149750D01*
X216594203Y-66128926D01*
X216591053Y-66107691D01*
X216590000Y-66086250D01*
X216590000Y-65573750D01*
X216591053Y-65552309D01*
X216594203Y-65531074D01*
X216599419Y-65510250D01*
X216606651Y-65490038D01*
X216615830Y-65470632D01*
X216626866Y-65452219D01*
X216639654Y-65434976D01*
X216654070Y-65419070D01*
X216669976Y-65404654D01*
X216687219Y-65391866D01*
X216705632Y-65380830D01*
X216725038Y-65371651D01*
X216745250Y-65364419D01*
X216766074Y-65359203D01*
X216787309Y-65356053D01*
X216808750Y-65355000D01*
X217246250Y-65355000D01*
X217267691Y-65356053D01*
G37*
G36*
X224752691Y-88136053D02*
G01*
X224773926Y-88139203D01*
X224794750Y-88144419D01*
X224814962Y-88151651D01*
X224834368Y-88160830D01*
X224852781Y-88171866D01*
X224870024Y-88184654D01*
X224885930Y-88199070D01*
X224900346Y-88214976D01*
X224913134Y-88232219D01*
X224924170Y-88250632D01*
X224933349Y-88270038D01*
X224940581Y-88290250D01*
X224945797Y-88311074D01*
X224948947Y-88332309D01*
X224950000Y-88353750D01*
X224950000Y-88866250D01*
X224948947Y-88887691D01*
X224945797Y-88908926D01*
X224940581Y-88929750D01*
X224933349Y-88949962D01*
X224924170Y-88969368D01*
X224913134Y-88987781D01*
X224900346Y-89005024D01*
X224885930Y-89020930D01*
X224870024Y-89035346D01*
X224852781Y-89048134D01*
X224834368Y-89059170D01*
X224814962Y-89068349D01*
X224794750Y-89075581D01*
X224773926Y-89080797D01*
X224752691Y-89083947D01*
X224731250Y-89085000D01*
X224293750Y-89085000D01*
X224272309Y-89083947D01*
X224251074Y-89080797D01*
X224230250Y-89075581D01*
X224210038Y-89068349D01*
X224190632Y-89059170D01*
X224172219Y-89048134D01*
X224154976Y-89035346D01*
X224139070Y-89020930D01*
X224124654Y-89005024D01*
X224111866Y-88987781D01*
X224100830Y-88969368D01*
X224091651Y-88949962D01*
X224084419Y-88929750D01*
X224079203Y-88908926D01*
X224076053Y-88887691D01*
X224075000Y-88866250D01*
X224075000Y-88353750D01*
X224076053Y-88332309D01*
X224079203Y-88311074D01*
X224084419Y-88290250D01*
X224091651Y-88270038D01*
X224100830Y-88250632D01*
X224111866Y-88232219D01*
X224124654Y-88214976D01*
X224139070Y-88199070D01*
X224154976Y-88184654D01*
X224172219Y-88171866D01*
X224190632Y-88160830D01*
X224210038Y-88151651D01*
X224230250Y-88144419D01*
X224251074Y-88139203D01*
X224272309Y-88136053D01*
X224293750Y-88135000D01*
X224731250Y-88135000D01*
X224752691Y-88136053D01*
G37*
G36*
X226327691Y-88136053D02*
G01*
X226348926Y-88139203D01*
X226369750Y-88144419D01*
X226389962Y-88151651D01*
X226409368Y-88160830D01*
X226427781Y-88171866D01*
X226445024Y-88184654D01*
X226460930Y-88199070D01*
X226475346Y-88214976D01*
X226488134Y-88232219D01*
X226499170Y-88250632D01*
X226508349Y-88270038D01*
X226515581Y-88290250D01*
X226520797Y-88311074D01*
X226523947Y-88332309D01*
X226525000Y-88353750D01*
X226525000Y-88866250D01*
X226523947Y-88887691D01*
X226520797Y-88908926D01*
X226515581Y-88929750D01*
X226508349Y-88949962D01*
X226499170Y-88969368D01*
X226488134Y-88987781D01*
X226475346Y-89005024D01*
X226460930Y-89020930D01*
X226445024Y-89035346D01*
X226427781Y-89048134D01*
X226409368Y-89059170D01*
X226389962Y-89068349D01*
X226369750Y-89075581D01*
X226348926Y-89080797D01*
X226327691Y-89083947D01*
X226306250Y-89085000D01*
X225868750Y-89085000D01*
X225847309Y-89083947D01*
X225826074Y-89080797D01*
X225805250Y-89075581D01*
X225785038Y-89068349D01*
X225765632Y-89059170D01*
X225747219Y-89048134D01*
X225729976Y-89035346D01*
X225714070Y-89020930D01*
X225699654Y-89005024D01*
X225686866Y-88987781D01*
X225675830Y-88969368D01*
X225666651Y-88949962D01*
X225659419Y-88929750D01*
X225654203Y-88908926D01*
X225651053Y-88887691D01*
X225650000Y-88866250D01*
X225650000Y-88353750D01*
X225651053Y-88332309D01*
X225654203Y-88311074D01*
X225659419Y-88290250D01*
X225666651Y-88270038D01*
X225675830Y-88250632D01*
X225686866Y-88232219D01*
X225699654Y-88214976D01*
X225714070Y-88199070D01*
X225729976Y-88184654D01*
X225747219Y-88171866D01*
X225765632Y-88160830D01*
X225785038Y-88151651D01*
X225805250Y-88144419D01*
X225826074Y-88139203D01*
X225847309Y-88136053D01*
X225868750Y-88135000D01*
X226306250Y-88135000D01*
X226327691Y-88136053D01*
G37*
G36*
X233962691Y-112256053D02*
G01*
X233983926Y-112259203D01*
X234004750Y-112264419D01*
X234024962Y-112271651D01*
X234044368Y-112280830D01*
X234062781Y-112291866D01*
X234080024Y-112304654D01*
X234095930Y-112319070D01*
X234110346Y-112334976D01*
X234123134Y-112352219D01*
X234134170Y-112370632D01*
X234143349Y-112390038D01*
X234150581Y-112410250D01*
X234155797Y-112431074D01*
X234158947Y-112452309D01*
X234160000Y-112473750D01*
X234160000Y-112986250D01*
X234158947Y-113007691D01*
X234155797Y-113028926D01*
X234150581Y-113049750D01*
X234143349Y-113069962D01*
X234134170Y-113089368D01*
X234123134Y-113107781D01*
X234110346Y-113125024D01*
X234095930Y-113140930D01*
X234080024Y-113155346D01*
X234062781Y-113168134D01*
X234044368Y-113179170D01*
X234024962Y-113188349D01*
X234004750Y-113195581D01*
X233983926Y-113200797D01*
X233962691Y-113203947D01*
X233941250Y-113205000D01*
X233503750Y-113205000D01*
X233482309Y-113203947D01*
X233461074Y-113200797D01*
X233440250Y-113195581D01*
X233420038Y-113188349D01*
X233400632Y-113179170D01*
X233382219Y-113168134D01*
X233364976Y-113155346D01*
X233349070Y-113140930D01*
X233334654Y-113125024D01*
X233321866Y-113107781D01*
X233310830Y-113089368D01*
X233301651Y-113069962D01*
X233294419Y-113049750D01*
X233289203Y-113028926D01*
X233286053Y-113007691D01*
X233285000Y-112986250D01*
X233285000Y-112473750D01*
X233286053Y-112452309D01*
X233289203Y-112431074D01*
X233294419Y-112410250D01*
X233301651Y-112390038D01*
X233310830Y-112370632D01*
X233321866Y-112352219D01*
X233334654Y-112334976D01*
X233349070Y-112319070D01*
X233364976Y-112304654D01*
X233382219Y-112291866D01*
X233400632Y-112280830D01*
X233420038Y-112271651D01*
X233440250Y-112264419D01*
X233461074Y-112259203D01*
X233482309Y-112256053D01*
X233503750Y-112255000D01*
X233941250Y-112255000D01*
X233962691Y-112256053D01*
G37*
G36*
X235537691Y-112256053D02*
G01*
X235558926Y-112259203D01*
X235579750Y-112264419D01*
X235599962Y-112271651D01*
X235619368Y-112280830D01*
X235637781Y-112291866D01*
X235655024Y-112304654D01*
X235670930Y-112319070D01*
X235685346Y-112334976D01*
X235698134Y-112352219D01*
X235709170Y-112370632D01*
X235718349Y-112390038D01*
X235725581Y-112410250D01*
X235730797Y-112431074D01*
X235733947Y-112452309D01*
X235735000Y-112473750D01*
X235735000Y-112986250D01*
X235733947Y-113007691D01*
X235730797Y-113028926D01*
X235725581Y-113049750D01*
X235718349Y-113069962D01*
X235709170Y-113089368D01*
X235698134Y-113107781D01*
X235685346Y-113125024D01*
X235670930Y-113140930D01*
X235655024Y-113155346D01*
X235637781Y-113168134D01*
X235619368Y-113179170D01*
X235599962Y-113188349D01*
X235579750Y-113195581D01*
X235558926Y-113200797D01*
X235537691Y-113203947D01*
X235516250Y-113205000D01*
X235078750Y-113205000D01*
X235057309Y-113203947D01*
X235036074Y-113200797D01*
X235015250Y-113195581D01*
X234995038Y-113188349D01*
X234975632Y-113179170D01*
X234957219Y-113168134D01*
X234939976Y-113155346D01*
X234924070Y-113140930D01*
X234909654Y-113125024D01*
X234896866Y-113107781D01*
X234885830Y-113089368D01*
X234876651Y-113069962D01*
X234869419Y-113049750D01*
X234864203Y-113028926D01*
X234861053Y-113007691D01*
X234860000Y-112986250D01*
X234860000Y-112473750D01*
X234861053Y-112452309D01*
X234864203Y-112431074D01*
X234869419Y-112410250D01*
X234876651Y-112390038D01*
X234885830Y-112370632D01*
X234896866Y-112352219D01*
X234909654Y-112334976D01*
X234924070Y-112319070D01*
X234939976Y-112304654D01*
X234957219Y-112291866D01*
X234975632Y-112280830D01*
X234995038Y-112271651D01*
X235015250Y-112264419D01*
X235036074Y-112259203D01*
X235057309Y-112256053D01*
X235078750Y-112255000D01*
X235516250Y-112255000D01*
X235537691Y-112256053D01*
G37*
G36*
X259122691Y-114046053D02*
G01*
X259143926Y-114049203D01*
X259164750Y-114054419D01*
X259184962Y-114061651D01*
X259204368Y-114070830D01*
X259222781Y-114081866D01*
X259240024Y-114094654D01*
X259255930Y-114109070D01*
X259270346Y-114124976D01*
X259283134Y-114142219D01*
X259294170Y-114160632D01*
X259303349Y-114180038D01*
X259310581Y-114200250D01*
X259315797Y-114221074D01*
X259318947Y-114242309D01*
X259320000Y-114263750D01*
X259320000Y-114776250D01*
X259318947Y-114797691D01*
X259315797Y-114818926D01*
X259310581Y-114839750D01*
X259303349Y-114859962D01*
X259294170Y-114879368D01*
X259283134Y-114897781D01*
X259270346Y-114915024D01*
X259255930Y-114930930D01*
X259240024Y-114945346D01*
X259222781Y-114958134D01*
X259204368Y-114969170D01*
X259184962Y-114978349D01*
X259164750Y-114985581D01*
X259143926Y-114990797D01*
X259122691Y-114993947D01*
X259101250Y-114995000D01*
X258663750Y-114995000D01*
X258642309Y-114993947D01*
X258621074Y-114990797D01*
X258600250Y-114985581D01*
X258580038Y-114978349D01*
X258560632Y-114969170D01*
X258542219Y-114958134D01*
X258524976Y-114945346D01*
X258509070Y-114930930D01*
X258494654Y-114915024D01*
X258481866Y-114897781D01*
X258470830Y-114879368D01*
X258461651Y-114859962D01*
X258454419Y-114839750D01*
X258449203Y-114818926D01*
X258446053Y-114797691D01*
X258445000Y-114776250D01*
X258445000Y-114263750D01*
X258446053Y-114242309D01*
X258449203Y-114221074D01*
X258454419Y-114200250D01*
X258461651Y-114180038D01*
X258470830Y-114160632D01*
X258481866Y-114142219D01*
X258494654Y-114124976D01*
X258509070Y-114109070D01*
X258524976Y-114094654D01*
X258542219Y-114081866D01*
X258560632Y-114070830D01*
X258580038Y-114061651D01*
X258600250Y-114054419D01*
X258621074Y-114049203D01*
X258642309Y-114046053D01*
X258663750Y-114045000D01*
X259101250Y-114045000D01*
X259122691Y-114046053D01*
G37*
G36*
X260697691Y-114046053D02*
G01*
X260718926Y-114049203D01*
X260739750Y-114054419D01*
X260759962Y-114061651D01*
X260779368Y-114070830D01*
X260797781Y-114081866D01*
X260815024Y-114094654D01*
X260830930Y-114109070D01*
X260845346Y-114124976D01*
X260858134Y-114142219D01*
X260869170Y-114160632D01*
X260878349Y-114180038D01*
X260885581Y-114200250D01*
X260890797Y-114221074D01*
X260893947Y-114242309D01*
X260895000Y-114263750D01*
X260895000Y-114776250D01*
X260893947Y-114797691D01*
X260890797Y-114818926D01*
X260885581Y-114839750D01*
X260878349Y-114859962D01*
X260869170Y-114879368D01*
X260858134Y-114897781D01*
X260845346Y-114915024D01*
X260830930Y-114930930D01*
X260815024Y-114945346D01*
X260797781Y-114958134D01*
X260779368Y-114969170D01*
X260759962Y-114978349D01*
X260739750Y-114985581D01*
X260718926Y-114990797D01*
X260697691Y-114993947D01*
X260676250Y-114995000D01*
X260238750Y-114995000D01*
X260217309Y-114993947D01*
X260196074Y-114990797D01*
X260175250Y-114985581D01*
X260155038Y-114978349D01*
X260135632Y-114969170D01*
X260117219Y-114958134D01*
X260099976Y-114945346D01*
X260084070Y-114930930D01*
X260069654Y-114915024D01*
X260056866Y-114897781D01*
X260045830Y-114879368D01*
X260036651Y-114859962D01*
X260029419Y-114839750D01*
X260024203Y-114818926D01*
X260021053Y-114797691D01*
X260020000Y-114776250D01*
X260020000Y-114263750D01*
X260021053Y-114242309D01*
X260024203Y-114221074D01*
X260029419Y-114200250D01*
X260036651Y-114180038D01*
X260045830Y-114160632D01*
X260056866Y-114142219D01*
X260069654Y-114124976D01*
X260084070Y-114109070D01*
X260099976Y-114094654D01*
X260117219Y-114081866D01*
X260135632Y-114070830D01*
X260155038Y-114061651D01*
X260175250Y-114054419D01*
X260196074Y-114049203D01*
X260217309Y-114046053D01*
X260238750Y-114045000D01*
X260676250Y-114045000D01*
X260697691Y-114046053D01*
G37*
G36*
X284292691Y-116006053D02*
G01*
X284313926Y-116009203D01*
X284334750Y-116014419D01*
X284354962Y-116021651D01*
X284374368Y-116030830D01*
X284392781Y-116041866D01*
X284410024Y-116054654D01*
X284425930Y-116069070D01*
X284440346Y-116084976D01*
X284453134Y-116102219D01*
X284464170Y-116120632D01*
X284473349Y-116140038D01*
X284480581Y-116160250D01*
X284485797Y-116181074D01*
X284488947Y-116202309D01*
X284490000Y-116223750D01*
X284490000Y-116736250D01*
X284488947Y-116757691D01*
X284485797Y-116778926D01*
X284480581Y-116799750D01*
X284473349Y-116819962D01*
X284464170Y-116839368D01*
X284453134Y-116857781D01*
X284440346Y-116875024D01*
X284425930Y-116890930D01*
X284410024Y-116905346D01*
X284392781Y-116918134D01*
X284374368Y-116929170D01*
X284354962Y-116938349D01*
X284334750Y-116945581D01*
X284313926Y-116950797D01*
X284292691Y-116953947D01*
X284271250Y-116955000D01*
X283833750Y-116955000D01*
X283812309Y-116953947D01*
X283791074Y-116950797D01*
X283770250Y-116945581D01*
X283750038Y-116938349D01*
X283730632Y-116929170D01*
X283712219Y-116918134D01*
X283694976Y-116905346D01*
X283679070Y-116890930D01*
X283664654Y-116875024D01*
X283651866Y-116857781D01*
X283640830Y-116839368D01*
X283631651Y-116819962D01*
X283624419Y-116799750D01*
X283619203Y-116778926D01*
X283616053Y-116757691D01*
X283615000Y-116736250D01*
X283615000Y-116223750D01*
X283616053Y-116202309D01*
X283619203Y-116181074D01*
X283624419Y-116160250D01*
X283631651Y-116140038D01*
X283640830Y-116120632D01*
X283651866Y-116102219D01*
X283664654Y-116084976D01*
X283679070Y-116069070D01*
X283694976Y-116054654D01*
X283712219Y-116041866D01*
X283730632Y-116030830D01*
X283750038Y-116021651D01*
X283770250Y-116014419D01*
X283791074Y-116009203D01*
X283812309Y-116006053D01*
X283833750Y-116005000D01*
X284271250Y-116005000D01*
X284292691Y-116006053D01*
G37*
G36*
X285867691Y-116006053D02*
G01*
X285888926Y-116009203D01*
X285909750Y-116014419D01*
X285929962Y-116021651D01*
X285949368Y-116030830D01*
X285967781Y-116041866D01*
X285985024Y-116054654D01*
X286000930Y-116069070D01*
X286015346Y-116084976D01*
X286028134Y-116102219D01*
X286039170Y-116120632D01*
X286048349Y-116140038D01*
X286055581Y-116160250D01*
X286060797Y-116181074D01*
X286063947Y-116202309D01*
X286065000Y-116223750D01*
X286065000Y-116736250D01*
X286063947Y-116757691D01*
X286060797Y-116778926D01*
X286055581Y-116799750D01*
X286048349Y-116819962D01*
X286039170Y-116839368D01*
X286028134Y-116857781D01*
X286015346Y-116875024D01*
X286000930Y-116890930D01*
X285985024Y-116905346D01*
X285967781Y-116918134D01*
X285949368Y-116929170D01*
X285929962Y-116938349D01*
X285909750Y-116945581D01*
X285888926Y-116950797D01*
X285867691Y-116953947D01*
X285846250Y-116955000D01*
X285408750Y-116955000D01*
X285387309Y-116953947D01*
X285366074Y-116950797D01*
X285345250Y-116945581D01*
X285325038Y-116938349D01*
X285305632Y-116929170D01*
X285287219Y-116918134D01*
X285269976Y-116905346D01*
X285254070Y-116890930D01*
X285239654Y-116875024D01*
X285226866Y-116857781D01*
X285215830Y-116839368D01*
X285206651Y-116819962D01*
X285199419Y-116799750D01*
X285194203Y-116778926D01*
X285191053Y-116757691D01*
X285190000Y-116736250D01*
X285190000Y-116223750D01*
X285191053Y-116202309D01*
X285194203Y-116181074D01*
X285199419Y-116160250D01*
X285206651Y-116140038D01*
X285215830Y-116120632D01*
X285226866Y-116102219D01*
X285239654Y-116084976D01*
X285254070Y-116069070D01*
X285269976Y-116054654D01*
X285287219Y-116041866D01*
X285305632Y-116030830D01*
X285325038Y-116021651D01*
X285345250Y-116014419D01*
X285366074Y-116009203D01*
X285387309Y-116006053D01*
X285408750Y-116005000D01*
X285846250Y-116005000D01*
X285867691Y-116006053D01*
G37*
G36*
X309552691Y-118256053D02*
G01*
X309573926Y-118259203D01*
X309594750Y-118264419D01*
X309614962Y-118271651D01*
X309634368Y-118280830D01*
X309652781Y-118291866D01*
X309670024Y-118304654D01*
X309685930Y-118319070D01*
X309700346Y-118334976D01*
X309713134Y-118352219D01*
X309724170Y-118370632D01*
X309733349Y-118390038D01*
X309740581Y-118410250D01*
X309745797Y-118431074D01*
X309748947Y-118452309D01*
X309750000Y-118473750D01*
X309750000Y-118986250D01*
X309748947Y-119007691D01*
X309745797Y-119028926D01*
X309740581Y-119049750D01*
X309733349Y-119069962D01*
X309724170Y-119089368D01*
X309713134Y-119107781D01*
X309700346Y-119125024D01*
X309685930Y-119140930D01*
X309670024Y-119155346D01*
X309652781Y-119168134D01*
X309634368Y-119179170D01*
X309614962Y-119188349D01*
X309594750Y-119195581D01*
X309573926Y-119200797D01*
X309552691Y-119203947D01*
X309531250Y-119205000D01*
X309093750Y-119205000D01*
X309072309Y-119203947D01*
X309051074Y-119200797D01*
X309030250Y-119195581D01*
X309010038Y-119188349D01*
X308990632Y-119179170D01*
X308972219Y-119168134D01*
X308954976Y-119155346D01*
X308939070Y-119140930D01*
X308924654Y-119125024D01*
X308911866Y-119107781D01*
X308900830Y-119089368D01*
X308891651Y-119069962D01*
X308884419Y-119049750D01*
X308879203Y-119028926D01*
X308876053Y-119007691D01*
X308875000Y-118986250D01*
X308875000Y-118473750D01*
X308876053Y-118452309D01*
X308879203Y-118431074D01*
X308884419Y-118410250D01*
X308891651Y-118390038D01*
X308900830Y-118370632D01*
X308911866Y-118352219D01*
X308924654Y-118334976D01*
X308939070Y-118319070D01*
X308954976Y-118304654D01*
X308972219Y-118291866D01*
X308990632Y-118280830D01*
X309010038Y-118271651D01*
X309030250Y-118264419D01*
X309051074Y-118259203D01*
X309072309Y-118256053D01*
X309093750Y-118255000D01*
X309531250Y-118255000D01*
X309552691Y-118256053D01*
G37*
G36*
X311127691Y-118256053D02*
G01*
X311148926Y-118259203D01*
X311169750Y-118264419D01*
X311189962Y-118271651D01*
X311209368Y-118280830D01*
X311227781Y-118291866D01*
X311245024Y-118304654D01*
X311260930Y-118319070D01*
X311275346Y-118334976D01*
X311288134Y-118352219D01*
X311299170Y-118370632D01*
X311308349Y-118390038D01*
X311315581Y-118410250D01*
X311320797Y-118431074D01*
X311323947Y-118452309D01*
X311325000Y-118473750D01*
X311325000Y-118986250D01*
X311323947Y-119007691D01*
X311320797Y-119028926D01*
X311315581Y-119049750D01*
X311308349Y-119069962D01*
X311299170Y-119089368D01*
X311288134Y-119107781D01*
X311275346Y-119125024D01*
X311260930Y-119140930D01*
X311245024Y-119155346D01*
X311227781Y-119168134D01*
X311209368Y-119179170D01*
X311189962Y-119188349D01*
X311169750Y-119195581D01*
X311148926Y-119200797D01*
X311127691Y-119203947D01*
X311106250Y-119205000D01*
X310668750Y-119205000D01*
X310647309Y-119203947D01*
X310626074Y-119200797D01*
X310605250Y-119195581D01*
X310585038Y-119188349D01*
X310565632Y-119179170D01*
X310547219Y-119168134D01*
X310529976Y-119155346D01*
X310514070Y-119140930D01*
X310499654Y-119125024D01*
X310486866Y-119107781D01*
X310475830Y-119089368D01*
X310466651Y-119069962D01*
X310459419Y-119049750D01*
X310454203Y-119028926D01*
X310451053Y-119007691D01*
X310450000Y-118986250D01*
X310450000Y-118473750D01*
X310451053Y-118452309D01*
X310454203Y-118431074D01*
X310459419Y-118410250D01*
X310466651Y-118390038D01*
X310475830Y-118370632D01*
X310486866Y-118352219D01*
X310499654Y-118334976D01*
X310514070Y-118319070D01*
X310529976Y-118304654D01*
X310547219Y-118291866D01*
X310565632Y-118280830D01*
X310585038Y-118271651D01*
X310605250Y-118264419D01*
X310626074Y-118259203D01*
X310647309Y-118256053D01*
X310668750Y-118255000D01*
X311106250Y-118255000D01*
X311127691Y-118256053D01*
G37*
G36*
X292972691Y-129516053D02*
G01*
X292993926Y-129519203D01*
X293014750Y-129524419D01*
X293034962Y-129531651D01*
X293054368Y-129540830D01*
X293072781Y-129551866D01*
X293090024Y-129564654D01*
X293105930Y-129579070D01*
X293120346Y-129594976D01*
X293133134Y-129612219D01*
X293144170Y-129630632D01*
X293153349Y-129650038D01*
X293160581Y-129670250D01*
X293165797Y-129691074D01*
X293168947Y-129712309D01*
X293170000Y-129733750D01*
X293170000Y-130246250D01*
X293168947Y-130267691D01*
X293165797Y-130288926D01*
X293160581Y-130309750D01*
X293153349Y-130329962D01*
X293144170Y-130349368D01*
X293133134Y-130367781D01*
X293120346Y-130385024D01*
X293105930Y-130400930D01*
X293090024Y-130415346D01*
X293072781Y-130428134D01*
X293054368Y-130439170D01*
X293034962Y-130448349D01*
X293014750Y-130455581D01*
X292993926Y-130460797D01*
X292972691Y-130463947D01*
X292951250Y-130465000D01*
X292513750Y-130465000D01*
X292492309Y-130463947D01*
X292471074Y-130460797D01*
X292450250Y-130455581D01*
X292430038Y-130448349D01*
X292410632Y-130439170D01*
X292392219Y-130428134D01*
X292374976Y-130415346D01*
X292359070Y-130400930D01*
X292344654Y-130385024D01*
X292331866Y-130367781D01*
X292320830Y-130349368D01*
X292311651Y-130329962D01*
X292304419Y-130309750D01*
X292299203Y-130288926D01*
X292296053Y-130267691D01*
X292295000Y-130246250D01*
X292295000Y-129733750D01*
X292296053Y-129712309D01*
X292299203Y-129691074D01*
X292304419Y-129670250D01*
X292311651Y-129650038D01*
X292320830Y-129630632D01*
X292331866Y-129612219D01*
X292344654Y-129594976D01*
X292359070Y-129579070D01*
X292374976Y-129564654D01*
X292392219Y-129551866D01*
X292410632Y-129540830D01*
X292430038Y-129531651D01*
X292450250Y-129524419D01*
X292471074Y-129519203D01*
X292492309Y-129516053D01*
X292513750Y-129515000D01*
X292951250Y-129515000D01*
X292972691Y-129516053D01*
G37*
G36*
X294547691Y-129516053D02*
G01*
X294568926Y-129519203D01*
X294589750Y-129524419D01*
X294609962Y-129531651D01*
X294629368Y-129540830D01*
X294647781Y-129551866D01*
X294665024Y-129564654D01*
X294680930Y-129579070D01*
X294695346Y-129594976D01*
X294708134Y-129612219D01*
X294719170Y-129630632D01*
X294728349Y-129650038D01*
X294735581Y-129670250D01*
X294740797Y-129691074D01*
X294743947Y-129712309D01*
X294745000Y-129733750D01*
X294745000Y-130246250D01*
X294743947Y-130267691D01*
X294740797Y-130288926D01*
X294735581Y-130309750D01*
X294728349Y-130329962D01*
X294719170Y-130349368D01*
X294708134Y-130367781D01*
X294695346Y-130385024D01*
X294680930Y-130400930D01*
X294665024Y-130415346D01*
X294647781Y-130428134D01*
X294629368Y-130439170D01*
X294609962Y-130448349D01*
X294589750Y-130455581D01*
X294568926Y-130460797D01*
X294547691Y-130463947D01*
X294526250Y-130465000D01*
X294088750Y-130465000D01*
X294067309Y-130463947D01*
X294046074Y-130460797D01*
X294025250Y-130455581D01*
X294005038Y-130448349D01*
X293985632Y-130439170D01*
X293967219Y-130428134D01*
X293949976Y-130415346D01*
X293934070Y-130400930D01*
X293919654Y-130385024D01*
X293906866Y-130367781D01*
X293895830Y-130349368D01*
X293886651Y-130329962D01*
X293879419Y-130309750D01*
X293874203Y-130288926D01*
X293871053Y-130267691D01*
X293870000Y-130246250D01*
X293870000Y-129733750D01*
X293871053Y-129712309D01*
X293874203Y-129691074D01*
X293879419Y-129670250D01*
X293886651Y-129650038D01*
X293895830Y-129630632D01*
X293906866Y-129612219D01*
X293919654Y-129594976D01*
X293934070Y-129579070D01*
X293949976Y-129564654D01*
X293967219Y-129551866D01*
X293985632Y-129540830D01*
X294005038Y-129531651D01*
X294025250Y-129524419D01*
X294046074Y-129519203D01*
X294067309Y-129516053D01*
X294088750Y-129515000D01*
X294526250Y-129515000D01*
X294547691Y-129516053D01*
G37*
G36*
X273552691Y-145726053D02*
G01*
X273573926Y-145729203D01*
X273594750Y-145734419D01*
X273614962Y-145741651D01*
X273634368Y-145750830D01*
X273652781Y-145761866D01*
X273670024Y-145774654D01*
X273685930Y-145789070D01*
X273700346Y-145804976D01*
X273713134Y-145822219D01*
X273724170Y-145840632D01*
X273733349Y-145860038D01*
X273740581Y-145880250D01*
X273745797Y-145901074D01*
X273748947Y-145922309D01*
X273750000Y-145943750D01*
X273750000Y-146456250D01*
X273748947Y-146477691D01*
X273745797Y-146498926D01*
X273740581Y-146519750D01*
X273733349Y-146539962D01*
X273724170Y-146559368D01*
X273713134Y-146577781D01*
X273700346Y-146595024D01*
X273685930Y-146610930D01*
X273670024Y-146625346D01*
X273652781Y-146638134D01*
X273634368Y-146649170D01*
X273614962Y-146658349D01*
X273594750Y-146665581D01*
X273573926Y-146670797D01*
X273552691Y-146673947D01*
X273531250Y-146675000D01*
X273093750Y-146675000D01*
X273072309Y-146673947D01*
X273051074Y-146670797D01*
X273030250Y-146665581D01*
X273010038Y-146658349D01*
X272990632Y-146649170D01*
X272972219Y-146638134D01*
X272954976Y-146625346D01*
X272939070Y-146610930D01*
X272924654Y-146595024D01*
X272911866Y-146577781D01*
X272900830Y-146559368D01*
X272891651Y-146539962D01*
X272884419Y-146519750D01*
X272879203Y-146498926D01*
X272876053Y-146477691D01*
X272875000Y-146456250D01*
X272875000Y-145943750D01*
X272876053Y-145922309D01*
X272879203Y-145901074D01*
X272884419Y-145880250D01*
X272891651Y-145860038D01*
X272900830Y-145840632D01*
X272911866Y-145822219D01*
X272924654Y-145804976D01*
X272939070Y-145789070D01*
X272954976Y-145774654D01*
X272972219Y-145761866D01*
X272990632Y-145750830D01*
X273010038Y-145741651D01*
X273030250Y-145734419D01*
X273051074Y-145729203D01*
X273072309Y-145726053D01*
X273093750Y-145725000D01*
X273531250Y-145725000D01*
X273552691Y-145726053D01*
G37*
G36*
X275127691Y-145726053D02*
G01*
X275148926Y-145729203D01*
X275169750Y-145734419D01*
X275189962Y-145741651D01*
X275209368Y-145750830D01*
X275227781Y-145761866D01*
X275245024Y-145774654D01*
X275260930Y-145789070D01*
X275275346Y-145804976D01*
X275288134Y-145822219D01*
X275299170Y-145840632D01*
X275308349Y-145860038D01*
X275315581Y-145880250D01*
X275320797Y-145901074D01*
X275323947Y-145922309D01*
X275325000Y-145943750D01*
X275325000Y-146456250D01*
X275323947Y-146477691D01*
X275320797Y-146498926D01*
X275315581Y-146519750D01*
X275308349Y-146539962D01*
X275299170Y-146559368D01*
X275288134Y-146577781D01*
X275275346Y-146595024D01*
X275260930Y-146610930D01*
X275245024Y-146625346D01*
X275227781Y-146638134D01*
X275209368Y-146649170D01*
X275189962Y-146658349D01*
X275169750Y-146665581D01*
X275148926Y-146670797D01*
X275127691Y-146673947D01*
X275106250Y-146675000D01*
X274668750Y-146675000D01*
X274647309Y-146673947D01*
X274626074Y-146670797D01*
X274605250Y-146665581D01*
X274585038Y-146658349D01*
X274565632Y-146649170D01*
X274547219Y-146638134D01*
X274529976Y-146625346D01*
X274514070Y-146610930D01*
X274499654Y-146595024D01*
X274486866Y-146577781D01*
X274475830Y-146559368D01*
X274466651Y-146539962D01*
X274459419Y-146519750D01*
X274454203Y-146498926D01*
X274451053Y-146477691D01*
X274450000Y-146456250D01*
X274450000Y-145943750D01*
X274451053Y-145922309D01*
X274454203Y-145901074D01*
X274459419Y-145880250D01*
X274466651Y-145860038D01*
X274475830Y-145840632D01*
X274486866Y-145822219D01*
X274499654Y-145804976D01*
X274514070Y-145789070D01*
X274529976Y-145774654D01*
X274547219Y-145761866D01*
X274565632Y-145750830D01*
X274585038Y-145741651D01*
X274605250Y-145734419D01*
X274626074Y-145729203D01*
X274647309Y-145726053D01*
X274668750Y-145725000D01*
X275106250Y-145725000D01*
X275127691Y-145726053D01*
G37*
G36*
X254007691Y-160826053D02*
G01*
X254028926Y-160829203D01*
X254049750Y-160834419D01*
X254069962Y-160841651D01*
X254089368Y-160850830D01*
X254107781Y-160861866D01*
X254125024Y-160874654D01*
X254140930Y-160889070D01*
X254155346Y-160904976D01*
X254168134Y-160922219D01*
X254179170Y-160940632D01*
X254188349Y-160960038D01*
X254195581Y-160980250D01*
X254200797Y-161001074D01*
X254203947Y-161022309D01*
X254205000Y-161043750D01*
X254205000Y-161481250D01*
X254203947Y-161502691D01*
X254200797Y-161523926D01*
X254195581Y-161544750D01*
X254188349Y-161564962D01*
X254179170Y-161584368D01*
X254168134Y-161602781D01*
X254155346Y-161620024D01*
X254140930Y-161635930D01*
X254125024Y-161650346D01*
X254107781Y-161663134D01*
X254089368Y-161674170D01*
X254069962Y-161683349D01*
X254049750Y-161690581D01*
X254028926Y-161695797D01*
X254007691Y-161698947D01*
X253986250Y-161700000D01*
X253473750Y-161700000D01*
X253452309Y-161698947D01*
X253431074Y-161695797D01*
X253410250Y-161690581D01*
X253390038Y-161683349D01*
X253370632Y-161674170D01*
X253352219Y-161663134D01*
X253334976Y-161650346D01*
X253319070Y-161635930D01*
X253304654Y-161620024D01*
X253291866Y-161602781D01*
X253280830Y-161584368D01*
X253271651Y-161564962D01*
X253264419Y-161544750D01*
X253259203Y-161523926D01*
X253256053Y-161502691D01*
X253255000Y-161481250D01*
X253255000Y-161043750D01*
X253256053Y-161022309D01*
X253259203Y-161001074D01*
X253264419Y-160980250D01*
X253271651Y-160960038D01*
X253280830Y-160940632D01*
X253291866Y-160922219D01*
X253304654Y-160904976D01*
X253319070Y-160889070D01*
X253334976Y-160874654D01*
X253352219Y-160861866D01*
X253370632Y-160850830D01*
X253390038Y-160841651D01*
X253410250Y-160834419D01*
X253431074Y-160829203D01*
X253452309Y-160826053D01*
X253473750Y-160825000D01*
X253986250Y-160825000D01*
X254007691Y-160826053D01*
G37*
G36*
X254007691Y-162401053D02*
G01*
X254028926Y-162404203D01*
X254049750Y-162409419D01*
X254069962Y-162416651D01*
X254089368Y-162425830D01*
X254107781Y-162436866D01*
X254125024Y-162449654D01*
X254140930Y-162464070D01*
X254155346Y-162479976D01*
X254168134Y-162497219D01*
X254179170Y-162515632D01*
X254188349Y-162535038D01*
X254195581Y-162555250D01*
X254200797Y-162576074D01*
X254203947Y-162597309D01*
X254205000Y-162618750D01*
X254205000Y-163056250D01*
X254203947Y-163077691D01*
X254200797Y-163098926D01*
X254195581Y-163119750D01*
X254188349Y-163139962D01*
X254179170Y-163159368D01*
X254168134Y-163177781D01*
X254155346Y-163195024D01*
X254140930Y-163210930D01*
X254125024Y-163225346D01*
X254107781Y-163238134D01*
X254089368Y-163249170D01*
X254069962Y-163258349D01*
X254049750Y-163265581D01*
X254028926Y-163270797D01*
X254007691Y-163273947D01*
X253986250Y-163275000D01*
X253473750Y-163275000D01*
X253452309Y-163273947D01*
X253431074Y-163270797D01*
X253410250Y-163265581D01*
X253390038Y-163258349D01*
X253370632Y-163249170D01*
X253352219Y-163238134D01*
X253334976Y-163225346D01*
X253319070Y-163210930D01*
X253304654Y-163195024D01*
X253291866Y-163177781D01*
X253280830Y-163159368D01*
X253271651Y-163139962D01*
X253264419Y-163119750D01*
X253259203Y-163098926D01*
X253256053Y-163077691D01*
X253255000Y-163056250D01*
X253255000Y-162618750D01*
X253256053Y-162597309D01*
X253259203Y-162576074D01*
X253264419Y-162555250D01*
X253271651Y-162535038D01*
X253280830Y-162515632D01*
X253291866Y-162497219D01*
X253304654Y-162479976D01*
X253319070Y-162464070D01*
X253334976Y-162449654D01*
X253352219Y-162436866D01*
X253370632Y-162425830D01*
X253390038Y-162416651D01*
X253410250Y-162409419D01*
X253431074Y-162404203D01*
X253452309Y-162401053D01*
X253473750Y-162400000D01*
X253986250Y-162400000D01*
X254007691Y-162401053D01*
G37*
G36*
X257122691Y-188636053D02*
G01*
X257143926Y-188639203D01*
X257164750Y-188644419D01*
X257184962Y-188651651D01*
X257204368Y-188660830D01*
X257222781Y-188671866D01*
X257240024Y-188684654D01*
X257255930Y-188699070D01*
X257270346Y-188714976D01*
X257283134Y-188732219D01*
X257294170Y-188750632D01*
X257303349Y-188770038D01*
X257310581Y-188790250D01*
X257315797Y-188811074D01*
X257318947Y-188832309D01*
X257320000Y-188853750D01*
X257320000Y-189366250D01*
X257318947Y-189387691D01*
X257315797Y-189408926D01*
X257310581Y-189429750D01*
X257303349Y-189449962D01*
X257294170Y-189469368D01*
X257283134Y-189487781D01*
X257270346Y-189505024D01*
X257255930Y-189520930D01*
X257240024Y-189535346D01*
X257222781Y-189548134D01*
X257204368Y-189559170D01*
X257184962Y-189568349D01*
X257164750Y-189575581D01*
X257143926Y-189580797D01*
X257122691Y-189583947D01*
X257101250Y-189585000D01*
X256663750Y-189585000D01*
X256642309Y-189583947D01*
X256621074Y-189580797D01*
X256600250Y-189575581D01*
X256580038Y-189568349D01*
X256560632Y-189559170D01*
X256542219Y-189548134D01*
X256524976Y-189535346D01*
X256509070Y-189520930D01*
X256494654Y-189505024D01*
X256481866Y-189487781D01*
X256470830Y-189469368D01*
X256461651Y-189449962D01*
X256454419Y-189429750D01*
X256449203Y-189408926D01*
X256446053Y-189387691D01*
X256445000Y-189366250D01*
X256445000Y-188853750D01*
X256446053Y-188832309D01*
X256449203Y-188811074D01*
X256454419Y-188790250D01*
X256461651Y-188770038D01*
X256470830Y-188750632D01*
X256481866Y-188732219D01*
X256494654Y-188714976D01*
X256509070Y-188699070D01*
X256524976Y-188684654D01*
X256542219Y-188671866D01*
X256560632Y-188660830D01*
X256580038Y-188651651D01*
X256600250Y-188644419D01*
X256621074Y-188639203D01*
X256642309Y-188636053D01*
X256663750Y-188635000D01*
X257101250Y-188635000D01*
X257122691Y-188636053D01*
G37*
G36*
X258697691Y-188636053D02*
G01*
X258718926Y-188639203D01*
X258739750Y-188644419D01*
X258759962Y-188651651D01*
X258779368Y-188660830D01*
X258797781Y-188671866D01*
X258815024Y-188684654D01*
X258830930Y-188699070D01*
X258845346Y-188714976D01*
X258858134Y-188732219D01*
X258869170Y-188750632D01*
X258878349Y-188770038D01*
X258885581Y-188790250D01*
X258890797Y-188811074D01*
X258893947Y-188832309D01*
X258895000Y-188853750D01*
X258895000Y-189366250D01*
X258893947Y-189387691D01*
X258890797Y-189408926D01*
X258885581Y-189429750D01*
X258878349Y-189449962D01*
X258869170Y-189469368D01*
X258858134Y-189487781D01*
X258845346Y-189505024D01*
X258830930Y-189520930D01*
X258815024Y-189535346D01*
X258797781Y-189548134D01*
X258779368Y-189559170D01*
X258759962Y-189568349D01*
X258739750Y-189575581D01*
X258718926Y-189580797D01*
X258697691Y-189583947D01*
X258676250Y-189585000D01*
X258238750Y-189585000D01*
X258217309Y-189583947D01*
X258196074Y-189580797D01*
X258175250Y-189575581D01*
X258155038Y-189568349D01*
X258135632Y-189559170D01*
X258117219Y-189548134D01*
X258099976Y-189535346D01*
X258084070Y-189520930D01*
X258069654Y-189505024D01*
X258056866Y-189487781D01*
X258045830Y-189469368D01*
X258036651Y-189449962D01*
X258029419Y-189429750D01*
X258024203Y-189408926D01*
X258021053Y-189387691D01*
X258020000Y-189366250D01*
X258020000Y-188853750D01*
X258021053Y-188832309D01*
X258024203Y-188811074D01*
X258029419Y-188790250D01*
X258036651Y-188770038D01*
X258045830Y-188750632D01*
X258056866Y-188732219D01*
X258069654Y-188714976D01*
X258084070Y-188699070D01*
X258099976Y-188684654D01*
X258117219Y-188671866D01*
X258135632Y-188660830D01*
X258155038Y-188651651D01*
X258175250Y-188644419D01*
X258196074Y-188639203D01*
X258217309Y-188636053D01*
X258238750Y-188635000D01*
X258676250Y-188635000D01*
X258697691Y-188636053D01*
G37*
G36*
X262942691Y-213176053D02*
G01*
X262963926Y-213179203D01*
X262984750Y-213184419D01*
X263004962Y-213191651D01*
X263024368Y-213200830D01*
X263042781Y-213211866D01*
X263060024Y-213224654D01*
X263075930Y-213239070D01*
X263090346Y-213254976D01*
X263103134Y-213272219D01*
X263114170Y-213290632D01*
X263123349Y-213310038D01*
X263130581Y-213330250D01*
X263135797Y-213351074D01*
X263138947Y-213372309D01*
X263140000Y-213393750D01*
X263140000Y-213906250D01*
X263138947Y-213927691D01*
X263135797Y-213948926D01*
X263130581Y-213969750D01*
X263123349Y-213989962D01*
X263114170Y-214009368D01*
X263103134Y-214027781D01*
X263090346Y-214045024D01*
X263075930Y-214060930D01*
X263060024Y-214075346D01*
X263042781Y-214088134D01*
X263024368Y-214099170D01*
X263004962Y-214108349D01*
X262984750Y-214115581D01*
X262963926Y-214120797D01*
X262942691Y-214123947D01*
X262921250Y-214125000D01*
X262483750Y-214125000D01*
X262462309Y-214123947D01*
X262441074Y-214120797D01*
X262420250Y-214115581D01*
X262400038Y-214108349D01*
X262380632Y-214099170D01*
X262362219Y-214088134D01*
X262344976Y-214075346D01*
X262329070Y-214060930D01*
X262314654Y-214045024D01*
X262301866Y-214027781D01*
X262290830Y-214009368D01*
X262281651Y-213989962D01*
X262274419Y-213969750D01*
X262269203Y-213948926D01*
X262266053Y-213927691D01*
X262265000Y-213906250D01*
X262265000Y-213393750D01*
X262266053Y-213372309D01*
X262269203Y-213351074D01*
X262274419Y-213330250D01*
X262281651Y-213310038D01*
X262290830Y-213290632D01*
X262301866Y-213272219D01*
X262314654Y-213254976D01*
X262329070Y-213239070D01*
X262344976Y-213224654D01*
X262362219Y-213211866D01*
X262380632Y-213200830D01*
X262400038Y-213191651D01*
X262420250Y-213184419D01*
X262441074Y-213179203D01*
X262462309Y-213176053D01*
X262483750Y-213175000D01*
X262921250Y-213175000D01*
X262942691Y-213176053D01*
G37*
G36*
X264517691Y-213176053D02*
G01*
X264538926Y-213179203D01*
X264559750Y-213184419D01*
X264579962Y-213191651D01*
X264599368Y-213200830D01*
X264617781Y-213211866D01*
X264635024Y-213224654D01*
X264650930Y-213239070D01*
X264665346Y-213254976D01*
X264678134Y-213272219D01*
X264689170Y-213290632D01*
X264698349Y-213310038D01*
X264705581Y-213330250D01*
X264710797Y-213351074D01*
X264713947Y-213372309D01*
X264715000Y-213393750D01*
X264715000Y-213906250D01*
X264713947Y-213927691D01*
X264710797Y-213948926D01*
X264705581Y-213969750D01*
X264698349Y-213989962D01*
X264689170Y-214009368D01*
X264678134Y-214027781D01*
X264665346Y-214045024D01*
X264650930Y-214060930D01*
X264635024Y-214075346D01*
X264617781Y-214088134D01*
X264599368Y-214099170D01*
X264579962Y-214108349D01*
X264559750Y-214115581D01*
X264538926Y-214120797D01*
X264517691Y-214123947D01*
X264496250Y-214125000D01*
X264058750Y-214125000D01*
X264037309Y-214123947D01*
X264016074Y-214120797D01*
X263995250Y-214115581D01*
X263975038Y-214108349D01*
X263955632Y-214099170D01*
X263937219Y-214088134D01*
X263919976Y-214075346D01*
X263904070Y-214060930D01*
X263889654Y-214045024D01*
X263876866Y-214027781D01*
X263865830Y-214009368D01*
X263856651Y-213989962D01*
X263849419Y-213969750D01*
X263844203Y-213948926D01*
X263841053Y-213927691D01*
X263840000Y-213906250D01*
X263840000Y-213393750D01*
X263841053Y-213372309D01*
X263844203Y-213351074D01*
X263849419Y-213330250D01*
X263856651Y-213310038D01*
X263865830Y-213290632D01*
X263876866Y-213272219D01*
X263889654Y-213254976D01*
X263904070Y-213239070D01*
X263919976Y-213224654D01*
X263937219Y-213211866D01*
X263955632Y-213200830D01*
X263975038Y-213191651D01*
X263995250Y-213184419D01*
X264016074Y-213179203D01*
X264037309Y-213176053D01*
X264058750Y-213175000D01*
X264496250Y-213175000D01*
X264517691Y-213176053D01*
G37*
G36*
X270867691Y-233936053D02*
G01*
X270888926Y-233939203D01*
X270909750Y-233944419D01*
X270929962Y-233951651D01*
X270949368Y-233960830D01*
X270967781Y-233971866D01*
X270985024Y-233984654D01*
X271000930Y-233999070D01*
X271015346Y-234014976D01*
X271028134Y-234032219D01*
X271039170Y-234050632D01*
X271048349Y-234070038D01*
X271055581Y-234090250D01*
X271060797Y-234111074D01*
X271063947Y-234132309D01*
X271065000Y-234153750D01*
X271065000Y-234591250D01*
X271063947Y-234612691D01*
X271060797Y-234633926D01*
X271055581Y-234654750D01*
X271048349Y-234674962D01*
X271039170Y-234694368D01*
X271028134Y-234712781D01*
X271015346Y-234730024D01*
X271000930Y-234745930D01*
X270985024Y-234760346D01*
X270967781Y-234773134D01*
X270949368Y-234784170D01*
X270929962Y-234793349D01*
X270909750Y-234800581D01*
X270888926Y-234805797D01*
X270867691Y-234808947D01*
X270846250Y-234810000D01*
X270333750Y-234810000D01*
X270312309Y-234808947D01*
X270291074Y-234805797D01*
X270270250Y-234800581D01*
X270250038Y-234793349D01*
X270230632Y-234784170D01*
X270212219Y-234773134D01*
X270194976Y-234760346D01*
X270179070Y-234745930D01*
X270164654Y-234730024D01*
X270151866Y-234712781D01*
X270140830Y-234694368D01*
X270131651Y-234674962D01*
X270124419Y-234654750D01*
X270119203Y-234633926D01*
X270116053Y-234612691D01*
X270115000Y-234591250D01*
X270115000Y-234153750D01*
X270116053Y-234132309D01*
X270119203Y-234111074D01*
X270124419Y-234090250D01*
X270131651Y-234070038D01*
X270140830Y-234050632D01*
X270151866Y-234032219D01*
X270164654Y-234014976D01*
X270179070Y-233999070D01*
X270194976Y-233984654D01*
X270212219Y-233971866D01*
X270230632Y-233960830D01*
X270250038Y-233951651D01*
X270270250Y-233944419D01*
X270291074Y-233939203D01*
X270312309Y-233936053D01*
X270333750Y-233935000D01*
X270846250Y-233935000D01*
X270867691Y-233936053D01*
G37*
G36*
X270867691Y-235511053D02*
G01*
X270888926Y-235514203D01*
X270909750Y-235519419D01*
X270929962Y-235526651D01*
X270949368Y-235535830D01*
X270967781Y-235546866D01*
X270985024Y-235559654D01*
X271000930Y-235574070D01*
X271015346Y-235589976D01*
X271028134Y-235607219D01*
X271039170Y-235625632D01*
X271048349Y-235645038D01*
X271055581Y-235665250D01*
X271060797Y-235686074D01*
X271063947Y-235707309D01*
X271065000Y-235728750D01*
X271065000Y-236166250D01*
X271063947Y-236187691D01*
X271060797Y-236208926D01*
X271055581Y-236229750D01*
X271048349Y-236249962D01*
X271039170Y-236269368D01*
X271028134Y-236287781D01*
X271015346Y-236305024D01*
X271000930Y-236320930D01*
X270985024Y-236335346D01*
X270967781Y-236348134D01*
X270949368Y-236359170D01*
X270929962Y-236368349D01*
X270909750Y-236375581D01*
X270888926Y-236380797D01*
X270867691Y-236383947D01*
X270846250Y-236385000D01*
X270333750Y-236385000D01*
X270312309Y-236383947D01*
X270291074Y-236380797D01*
X270270250Y-236375581D01*
X270250038Y-236368349D01*
X270230632Y-236359170D01*
X270212219Y-236348134D01*
X270194976Y-236335346D01*
X270179070Y-236320930D01*
X270164654Y-236305024D01*
X270151866Y-236287781D01*
X270140830Y-236269368D01*
X270131651Y-236249962D01*
X270124419Y-236229750D01*
X270119203Y-236208926D01*
X270116053Y-236187691D01*
X270115000Y-236166250D01*
X270115000Y-235728750D01*
X270116053Y-235707309D01*
X270119203Y-235686074D01*
X270124419Y-235665250D01*
X270131651Y-235645038D01*
X270140830Y-235625632D01*
X270151866Y-235607219D01*
X270164654Y-235589976D01*
X270179070Y-235574070D01*
X270194976Y-235559654D01*
X270212219Y-235546866D01*
X270230632Y-235535830D01*
X270250038Y-235526651D01*
X270270250Y-235519419D01*
X270291074Y-235514203D01*
X270312309Y-235511053D01*
X270333750Y-235510000D01*
X270846250Y-235510000D01*
X270867691Y-235511053D01*
G37*
G36*
X256577691Y-224586053D02*
G01*
X256598926Y-224589203D01*
X256619750Y-224594419D01*
X256639962Y-224601651D01*
X256659368Y-224610830D01*
X256677781Y-224621866D01*
X256695024Y-224634654D01*
X256710930Y-224649070D01*
X256725346Y-224664976D01*
X256738134Y-224682219D01*
X256749170Y-224700632D01*
X256758349Y-224720038D01*
X256765581Y-224740250D01*
X256770797Y-224761074D01*
X256773947Y-224782309D01*
X256775000Y-224803750D01*
X256775000Y-225316250D01*
X256773947Y-225337691D01*
X256770797Y-225358926D01*
X256765581Y-225379750D01*
X256758349Y-225399962D01*
X256749170Y-225419368D01*
X256738134Y-225437781D01*
X256725346Y-225455024D01*
X256710930Y-225470930D01*
X256695024Y-225485346D01*
X256677781Y-225498134D01*
X256659368Y-225509170D01*
X256639962Y-225518349D01*
X256619750Y-225525581D01*
X256598926Y-225530797D01*
X256577691Y-225533947D01*
X256556250Y-225535000D01*
X256118750Y-225535000D01*
X256097309Y-225533947D01*
X256076074Y-225530797D01*
X256055250Y-225525581D01*
X256035038Y-225518349D01*
X256015632Y-225509170D01*
X255997219Y-225498134D01*
X255979976Y-225485346D01*
X255964070Y-225470930D01*
X255949654Y-225455024D01*
X255936866Y-225437781D01*
X255925830Y-225419368D01*
X255916651Y-225399962D01*
X255909419Y-225379750D01*
X255904203Y-225358926D01*
X255901053Y-225337691D01*
X255900000Y-225316250D01*
X255900000Y-224803750D01*
X255901053Y-224782309D01*
X255904203Y-224761074D01*
X255909419Y-224740250D01*
X255916651Y-224720038D01*
X255925830Y-224700632D01*
X255936866Y-224682219D01*
X255949654Y-224664976D01*
X255964070Y-224649070D01*
X255979976Y-224634654D01*
X255997219Y-224621866D01*
X256015632Y-224610830D01*
X256035038Y-224601651D01*
X256055250Y-224594419D01*
X256076074Y-224589203D01*
X256097309Y-224586053D01*
X256118750Y-224585000D01*
X256556250Y-224585000D01*
X256577691Y-224586053D01*
G37*
G36*
X255002691Y-224586053D02*
G01*
X255023926Y-224589203D01*
X255044750Y-224594419D01*
X255064962Y-224601651D01*
X255084368Y-224610830D01*
X255102781Y-224621866D01*
X255120024Y-224634654D01*
X255135930Y-224649070D01*
X255150346Y-224664976D01*
X255163134Y-224682219D01*
X255174170Y-224700632D01*
X255183349Y-224720038D01*
X255190581Y-224740250D01*
X255195797Y-224761074D01*
X255198947Y-224782309D01*
X255200000Y-224803750D01*
X255200000Y-225316250D01*
X255198947Y-225337691D01*
X255195797Y-225358926D01*
X255190581Y-225379750D01*
X255183349Y-225399962D01*
X255174170Y-225419368D01*
X255163134Y-225437781D01*
X255150346Y-225455024D01*
X255135930Y-225470930D01*
X255120024Y-225485346D01*
X255102781Y-225498134D01*
X255084368Y-225509170D01*
X255064962Y-225518349D01*
X255044750Y-225525581D01*
X255023926Y-225530797D01*
X255002691Y-225533947D01*
X254981250Y-225535000D01*
X254543750Y-225535000D01*
X254522309Y-225533947D01*
X254501074Y-225530797D01*
X254480250Y-225525581D01*
X254460038Y-225518349D01*
X254440632Y-225509170D01*
X254422219Y-225498134D01*
X254404976Y-225485346D01*
X254389070Y-225470930D01*
X254374654Y-225455024D01*
X254361866Y-225437781D01*
X254350830Y-225419368D01*
X254341651Y-225399962D01*
X254334419Y-225379750D01*
X254329203Y-225358926D01*
X254326053Y-225337691D01*
X254325000Y-225316250D01*
X254325000Y-224803750D01*
X254326053Y-224782309D01*
X254329203Y-224761074D01*
X254334419Y-224740250D01*
X254341651Y-224720038D01*
X254350830Y-224700632D01*
X254361866Y-224682219D01*
X254374654Y-224664976D01*
X254389070Y-224649070D01*
X254404976Y-224634654D01*
X254422219Y-224621866D01*
X254440632Y-224610830D01*
X254460038Y-224601651D01*
X254480250Y-224594419D01*
X254501074Y-224589203D01*
X254522309Y-224586053D01*
X254543750Y-224585000D01*
X254981250Y-224585000D01*
X255002691Y-224586053D01*
G37*
G36*
X235347691Y-210756053D02*
G01*
X235368926Y-210759203D01*
X235389750Y-210764419D01*
X235409962Y-210771651D01*
X235429368Y-210780830D01*
X235447781Y-210791866D01*
X235465024Y-210804654D01*
X235480930Y-210819070D01*
X235495346Y-210834976D01*
X235508134Y-210852219D01*
X235519170Y-210870632D01*
X235528349Y-210890038D01*
X235535581Y-210910250D01*
X235540797Y-210931074D01*
X235543947Y-210952309D01*
X235545000Y-210973750D01*
X235545000Y-211486250D01*
X235543947Y-211507691D01*
X235540797Y-211528926D01*
X235535581Y-211549750D01*
X235528349Y-211569962D01*
X235519170Y-211589368D01*
X235508134Y-211607781D01*
X235495346Y-211625024D01*
X235480930Y-211640930D01*
X235465024Y-211655346D01*
X235447781Y-211668134D01*
X235429368Y-211679170D01*
X235409962Y-211688349D01*
X235389750Y-211695581D01*
X235368926Y-211700797D01*
X235347691Y-211703947D01*
X235326250Y-211705000D01*
X234888750Y-211705000D01*
X234867309Y-211703947D01*
X234846074Y-211700797D01*
X234825250Y-211695581D01*
X234805038Y-211688349D01*
X234785632Y-211679170D01*
X234767219Y-211668134D01*
X234749976Y-211655346D01*
X234734070Y-211640930D01*
X234719654Y-211625024D01*
X234706866Y-211607781D01*
X234695830Y-211589368D01*
X234686651Y-211569962D01*
X234679419Y-211549750D01*
X234674203Y-211528926D01*
X234671053Y-211507691D01*
X234670000Y-211486250D01*
X234670000Y-210973750D01*
X234671053Y-210952309D01*
X234674203Y-210931074D01*
X234679419Y-210910250D01*
X234686651Y-210890038D01*
X234695830Y-210870632D01*
X234706866Y-210852219D01*
X234719654Y-210834976D01*
X234734070Y-210819070D01*
X234749976Y-210804654D01*
X234767219Y-210791866D01*
X234785632Y-210780830D01*
X234805038Y-210771651D01*
X234825250Y-210764419D01*
X234846074Y-210759203D01*
X234867309Y-210756053D01*
X234888750Y-210755000D01*
X235326250Y-210755000D01*
X235347691Y-210756053D01*
G37*
G36*
X233772691Y-210756053D02*
G01*
X233793926Y-210759203D01*
X233814750Y-210764419D01*
X233834962Y-210771651D01*
X233854368Y-210780830D01*
X233872781Y-210791866D01*
X233890024Y-210804654D01*
X233905930Y-210819070D01*
X233920346Y-210834976D01*
X233933134Y-210852219D01*
X233944170Y-210870632D01*
X233953349Y-210890038D01*
X233960581Y-210910250D01*
X233965797Y-210931074D01*
X233968947Y-210952309D01*
X233970000Y-210973750D01*
X233970000Y-211486250D01*
X233968947Y-211507691D01*
X233965797Y-211528926D01*
X233960581Y-211549750D01*
X233953349Y-211569962D01*
X233944170Y-211589368D01*
X233933134Y-211607781D01*
X233920346Y-211625024D01*
X233905930Y-211640930D01*
X233890024Y-211655346D01*
X233872781Y-211668134D01*
X233854368Y-211679170D01*
X233834962Y-211688349D01*
X233814750Y-211695581D01*
X233793926Y-211700797D01*
X233772691Y-211703947D01*
X233751250Y-211705000D01*
X233313750Y-211705000D01*
X233292309Y-211703947D01*
X233271074Y-211700797D01*
X233250250Y-211695581D01*
X233230038Y-211688349D01*
X233210632Y-211679170D01*
X233192219Y-211668134D01*
X233174976Y-211655346D01*
X233159070Y-211640930D01*
X233144654Y-211625024D01*
X233131866Y-211607781D01*
X233120830Y-211589368D01*
X233111651Y-211569962D01*
X233104419Y-211549750D01*
X233099203Y-211528926D01*
X233096053Y-211507691D01*
X233095000Y-211486250D01*
X233095000Y-210973750D01*
X233096053Y-210952309D01*
X233099203Y-210931074D01*
X233104419Y-210910250D01*
X233111651Y-210890038D01*
X233120830Y-210870632D01*
X233131866Y-210852219D01*
X233144654Y-210834976D01*
X233159070Y-210819070D01*
X233174976Y-210804654D01*
X233192219Y-210791866D01*
X233210632Y-210780830D01*
X233230038Y-210771651D01*
X233250250Y-210764419D01*
X233271074Y-210759203D01*
X233292309Y-210756053D01*
X233313750Y-210755000D01*
X233751250Y-210755000D01*
X233772691Y-210756053D01*
G37*
G36*
X213877691Y-196756053D02*
G01*
X213898926Y-196759203D01*
X213919750Y-196764419D01*
X213939962Y-196771651D01*
X213959368Y-196780830D01*
X213977781Y-196791866D01*
X213995024Y-196804654D01*
X214010930Y-196819070D01*
X214025346Y-196834976D01*
X214038134Y-196852219D01*
X214049170Y-196870632D01*
X214058349Y-196890038D01*
X214065581Y-196910250D01*
X214070797Y-196931074D01*
X214073947Y-196952309D01*
X214075000Y-196973750D01*
X214075000Y-197486250D01*
X214073947Y-197507691D01*
X214070797Y-197528926D01*
X214065581Y-197549750D01*
X214058349Y-197569962D01*
X214049170Y-197589368D01*
X214038134Y-197607781D01*
X214025346Y-197625024D01*
X214010930Y-197640930D01*
X213995024Y-197655346D01*
X213977781Y-197668134D01*
X213959368Y-197679170D01*
X213939962Y-197688349D01*
X213919750Y-197695581D01*
X213898926Y-197700797D01*
X213877691Y-197703947D01*
X213856250Y-197705000D01*
X213418750Y-197705000D01*
X213397309Y-197703947D01*
X213376074Y-197700797D01*
X213355250Y-197695581D01*
X213335038Y-197688349D01*
X213315632Y-197679170D01*
X213297219Y-197668134D01*
X213279976Y-197655346D01*
X213264070Y-197640930D01*
X213249654Y-197625024D01*
X213236866Y-197607781D01*
X213225830Y-197589368D01*
X213216651Y-197569962D01*
X213209419Y-197549750D01*
X213204203Y-197528926D01*
X213201053Y-197507691D01*
X213200000Y-197486250D01*
X213200000Y-196973750D01*
X213201053Y-196952309D01*
X213204203Y-196931074D01*
X213209419Y-196910250D01*
X213216651Y-196890038D01*
X213225830Y-196870632D01*
X213236866Y-196852219D01*
X213249654Y-196834976D01*
X213264070Y-196819070D01*
X213279976Y-196804654D01*
X213297219Y-196791866D01*
X213315632Y-196780830D01*
X213335038Y-196771651D01*
X213355250Y-196764419D01*
X213376074Y-196759203D01*
X213397309Y-196756053D01*
X213418750Y-196755000D01*
X213856250Y-196755000D01*
X213877691Y-196756053D01*
G37*
G36*
X212302691Y-196756053D02*
G01*
X212323926Y-196759203D01*
X212344750Y-196764419D01*
X212364962Y-196771651D01*
X212384368Y-196780830D01*
X212402781Y-196791866D01*
X212420024Y-196804654D01*
X212435930Y-196819070D01*
X212450346Y-196834976D01*
X212463134Y-196852219D01*
X212474170Y-196870632D01*
X212483349Y-196890038D01*
X212490581Y-196910250D01*
X212495797Y-196931074D01*
X212498947Y-196952309D01*
X212500000Y-196973750D01*
X212500000Y-197486250D01*
X212498947Y-197507691D01*
X212495797Y-197528926D01*
X212490581Y-197549750D01*
X212483349Y-197569962D01*
X212474170Y-197589368D01*
X212463134Y-197607781D01*
X212450346Y-197625024D01*
X212435930Y-197640930D01*
X212420024Y-197655346D01*
X212402781Y-197668134D01*
X212384368Y-197679170D01*
X212364962Y-197688349D01*
X212344750Y-197695581D01*
X212323926Y-197700797D01*
X212302691Y-197703947D01*
X212281250Y-197705000D01*
X211843750Y-197705000D01*
X211822309Y-197703947D01*
X211801074Y-197700797D01*
X211780250Y-197695581D01*
X211760038Y-197688349D01*
X211740632Y-197679170D01*
X211722219Y-197668134D01*
X211704976Y-197655346D01*
X211689070Y-197640930D01*
X211674654Y-197625024D01*
X211661866Y-197607781D01*
X211650830Y-197589368D01*
X211641651Y-197569962D01*
X211634419Y-197549750D01*
X211629203Y-197528926D01*
X211626053Y-197507691D01*
X211625000Y-197486250D01*
X211625000Y-196973750D01*
X211626053Y-196952309D01*
X211629203Y-196931074D01*
X211634419Y-196910250D01*
X211641651Y-196890038D01*
X211650830Y-196870632D01*
X211661866Y-196852219D01*
X211674654Y-196834976D01*
X211689070Y-196819070D01*
X211704976Y-196804654D01*
X211722219Y-196791866D01*
X211740632Y-196780830D01*
X211760038Y-196771651D01*
X211780250Y-196764419D01*
X211801074Y-196759203D01*
X211822309Y-196756053D01*
X211843750Y-196755000D01*
X212281250Y-196755000D01*
X212302691Y-196756053D01*
G37*
G36*
X188497691Y-206316053D02*
G01*
X188518926Y-206319203D01*
X188539750Y-206324419D01*
X188559962Y-206331651D01*
X188579368Y-206340830D01*
X188597781Y-206351866D01*
X188615024Y-206364654D01*
X188630930Y-206379070D01*
X188645346Y-206394976D01*
X188658134Y-206412219D01*
X188669170Y-206430632D01*
X188678349Y-206450038D01*
X188685581Y-206470250D01*
X188690797Y-206491074D01*
X188693947Y-206512309D01*
X188695000Y-206533750D01*
X188695000Y-206971250D01*
X188693947Y-206992691D01*
X188690797Y-207013926D01*
X188685581Y-207034750D01*
X188678349Y-207054962D01*
X188669170Y-207074368D01*
X188658134Y-207092781D01*
X188645346Y-207110024D01*
X188630930Y-207125930D01*
X188615024Y-207140346D01*
X188597781Y-207153134D01*
X188579368Y-207164170D01*
X188559962Y-207173349D01*
X188539750Y-207180581D01*
X188518926Y-207185797D01*
X188497691Y-207188947D01*
X188476250Y-207190000D01*
X187963750Y-207190000D01*
X187942309Y-207188947D01*
X187921074Y-207185797D01*
X187900250Y-207180581D01*
X187880038Y-207173349D01*
X187860632Y-207164170D01*
X187842219Y-207153134D01*
X187824976Y-207140346D01*
X187809070Y-207125930D01*
X187794654Y-207110024D01*
X187781866Y-207092781D01*
X187770830Y-207074368D01*
X187761651Y-207054962D01*
X187754419Y-207034750D01*
X187749203Y-207013926D01*
X187746053Y-206992691D01*
X187745000Y-206971250D01*
X187745000Y-206533750D01*
X187746053Y-206512309D01*
X187749203Y-206491074D01*
X187754419Y-206470250D01*
X187761651Y-206450038D01*
X187770830Y-206430632D01*
X187781866Y-206412219D01*
X187794654Y-206394976D01*
X187809070Y-206379070D01*
X187824976Y-206364654D01*
X187842219Y-206351866D01*
X187860632Y-206340830D01*
X187880038Y-206331651D01*
X187900250Y-206324419D01*
X187921074Y-206319203D01*
X187942309Y-206316053D01*
X187963750Y-206315000D01*
X188476250Y-206315000D01*
X188497691Y-206316053D01*
G37*
G36*
X188497691Y-207891053D02*
G01*
X188518926Y-207894203D01*
X188539750Y-207899419D01*
X188559962Y-207906651D01*
X188579368Y-207915830D01*
X188597781Y-207926866D01*
X188615024Y-207939654D01*
X188630930Y-207954070D01*
X188645346Y-207969976D01*
X188658134Y-207987219D01*
X188669170Y-208005632D01*
X188678349Y-208025038D01*
X188685581Y-208045250D01*
X188690797Y-208066074D01*
X188693947Y-208087309D01*
X188695000Y-208108750D01*
X188695000Y-208546250D01*
X188693947Y-208567691D01*
X188690797Y-208588926D01*
X188685581Y-208609750D01*
X188678349Y-208629962D01*
X188669170Y-208649368D01*
X188658134Y-208667781D01*
X188645346Y-208685024D01*
X188630930Y-208700930D01*
X188615024Y-208715346D01*
X188597781Y-208728134D01*
X188579368Y-208739170D01*
X188559962Y-208748349D01*
X188539750Y-208755581D01*
X188518926Y-208760797D01*
X188497691Y-208763947D01*
X188476250Y-208765000D01*
X187963750Y-208765000D01*
X187942309Y-208763947D01*
X187921074Y-208760797D01*
X187900250Y-208755581D01*
X187880038Y-208748349D01*
X187860632Y-208739170D01*
X187842219Y-208728134D01*
X187824976Y-208715346D01*
X187809070Y-208700930D01*
X187794654Y-208685024D01*
X187781866Y-208667781D01*
X187770830Y-208649368D01*
X187761651Y-208629962D01*
X187754419Y-208609750D01*
X187749203Y-208588926D01*
X187746053Y-208567691D01*
X187745000Y-208546250D01*
X187745000Y-208108750D01*
X187746053Y-208087309D01*
X187749203Y-208066074D01*
X187754419Y-208045250D01*
X187761651Y-208025038D01*
X187770830Y-208005632D01*
X187781866Y-207987219D01*
X187794654Y-207969976D01*
X187809070Y-207954070D01*
X187824976Y-207939654D01*
X187842219Y-207926866D01*
X187860632Y-207915830D01*
X187880038Y-207906651D01*
X187900250Y-207899419D01*
X187921074Y-207894203D01*
X187942309Y-207891053D01*
X187963750Y-207890000D01*
X188476250Y-207890000D01*
X188497691Y-207891053D01*
G37*
G36*
X167297691Y-219666053D02*
G01*
X167318926Y-219669203D01*
X167339750Y-219674419D01*
X167359962Y-219681651D01*
X167379368Y-219690830D01*
X167397781Y-219701866D01*
X167415024Y-219714654D01*
X167430930Y-219729070D01*
X167445346Y-219744976D01*
X167458134Y-219762219D01*
X167469170Y-219780632D01*
X167478349Y-219800038D01*
X167485581Y-219820250D01*
X167490797Y-219841074D01*
X167493947Y-219862309D01*
X167495000Y-219883750D01*
X167495000Y-220321250D01*
X167493947Y-220342691D01*
X167490797Y-220363926D01*
X167485581Y-220384750D01*
X167478349Y-220404962D01*
X167469170Y-220424368D01*
X167458134Y-220442781D01*
X167445346Y-220460024D01*
X167430930Y-220475930D01*
X167415024Y-220490346D01*
X167397781Y-220503134D01*
X167379368Y-220514170D01*
X167359962Y-220523349D01*
X167339750Y-220530581D01*
X167318926Y-220535797D01*
X167297691Y-220538947D01*
X167276250Y-220540000D01*
X166763750Y-220540000D01*
X166742309Y-220538947D01*
X166721074Y-220535797D01*
X166700250Y-220530581D01*
X166680038Y-220523349D01*
X166660632Y-220514170D01*
X166642219Y-220503134D01*
X166624976Y-220490346D01*
X166609070Y-220475930D01*
X166594654Y-220460024D01*
X166581866Y-220442781D01*
X166570830Y-220424368D01*
X166561651Y-220404962D01*
X166554419Y-220384750D01*
X166549203Y-220363926D01*
X166546053Y-220342691D01*
X166545000Y-220321250D01*
X166545000Y-219883750D01*
X166546053Y-219862309D01*
X166549203Y-219841074D01*
X166554419Y-219820250D01*
X166561651Y-219800038D01*
X166570830Y-219780632D01*
X166581866Y-219762219D01*
X166594654Y-219744976D01*
X166609070Y-219729070D01*
X166624976Y-219714654D01*
X166642219Y-219701866D01*
X166660632Y-219690830D01*
X166680038Y-219681651D01*
X166700250Y-219674419D01*
X166721074Y-219669203D01*
X166742309Y-219666053D01*
X166763750Y-219665000D01*
X167276250Y-219665000D01*
X167297691Y-219666053D01*
G37*
G36*
X167297691Y-221241053D02*
G01*
X167318926Y-221244203D01*
X167339750Y-221249419D01*
X167359962Y-221256651D01*
X167379368Y-221265830D01*
X167397781Y-221276866D01*
X167415024Y-221289654D01*
X167430930Y-221304070D01*
X167445346Y-221319976D01*
X167458134Y-221337219D01*
X167469170Y-221355632D01*
X167478349Y-221375038D01*
X167485581Y-221395250D01*
X167490797Y-221416074D01*
X167493947Y-221437309D01*
X167495000Y-221458750D01*
X167495000Y-221896250D01*
X167493947Y-221917691D01*
X167490797Y-221938926D01*
X167485581Y-221959750D01*
X167478349Y-221979962D01*
X167469170Y-221999368D01*
X167458134Y-222017781D01*
X167445346Y-222035024D01*
X167430930Y-222050930D01*
X167415024Y-222065346D01*
X167397781Y-222078134D01*
X167379368Y-222089170D01*
X167359962Y-222098349D01*
X167339750Y-222105581D01*
X167318926Y-222110797D01*
X167297691Y-222113947D01*
X167276250Y-222115000D01*
X166763750Y-222115000D01*
X166742309Y-222113947D01*
X166721074Y-222110797D01*
X166700250Y-222105581D01*
X166680038Y-222098349D01*
X166660632Y-222089170D01*
X166642219Y-222078134D01*
X166624976Y-222065346D01*
X166609070Y-222050930D01*
X166594654Y-222035024D01*
X166581866Y-222017781D01*
X166570830Y-221999368D01*
X166561651Y-221979962D01*
X166554419Y-221959750D01*
X166549203Y-221938926D01*
X166546053Y-221917691D01*
X166545000Y-221896250D01*
X166545000Y-221458750D01*
X166546053Y-221437309D01*
X166549203Y-221416074D01*
X166554419Y-221395250D01*
X166561651Y-221375038D01*
X166570830Y-221355632D01*
X166581866Y-221337219D01*
X166594654Y-221319976D01*
X166609070Y-221304070D01*
X166624976Y-221289654D01*
X166642219Y-221276866D01*
X166660632Y-221265830D01*
X166680038Y-221256651D01*
X166700250Y-221249419D01*
X166721074Y-221244203D01*
X166742309Y-221241053D01*
X166763750Y-221240000D01*
X167276250Y-221240000D01*
X167297691Y-221241053D01*
G37*
G36*
X145947691Y-232816053D02*
G01*
X145968926Y-232819203D01*
X145989750Y-232824419D01*
X146009962Y-232831651D01*
X146029368Y-232840830D01*
X146047781Y-232851866D01*
X146065024Y-232864654D01*
X146080930Y-232879070D01*
X146095346Y-232894976D01*
X146108134Y-232912219D01*
X146119170Y-232930632D01*
X146128349Y-232950038D01*
X146135581Y-232970250D01*
X146140797Y-232991074D01*
X146143947Y-233012309D01*
X146145000Y-233033750D01*
X146145000Y-233471250D01*
X146143947Y-233492691D01*
X146140797Y-233513926D01*
X146135581Y-233534750D01*
X146128349Y-233554962D01*
X146119170Y-233574368D01*
X146108134Y-233592781D01*
X146095346Y-233610024D01*
X146080930Y-233625930D01*
X146065024Y-233640346D01*
X146047781Y-233653134D01*
X146029368Y-233664170D01*
X146009962Y-233673349D01*
X145989750Y-233680581D01*
X145968926Y-233685797D01*
X145947691Y-233688947D01*
X145926250Y-233690000D01*
X145413750Y-233690000D01*
X145392309Y-233688947D01*
X145371074Y-233685797D01*
X145350250Y-233680581D01*
X145330038Y-233673349D01*
X145310632Y-233664170D01*
X145292219Y-233653134D01*
X145274976Y-233640346D01*
X145259070Y-233625930D01*
X145244654Y-233610024D01*
X145231866Y-233592781D01*
X145220830Y-233574368D01*
X145211651Y-233554962D01*
X145204419Y-233534750D01*
X145199203Y-233513926D01*
X145196053Y-233492691D01*
X145195000Y-233471250D01*
X145195000Y-233033750D01*
X145196053Y-233012309D01*
X145199203Y-232991074D01*
X145204419Y-232970250D01*
X145211651Y-232950038D01*
X145220830Y-232930632D01*
X145231866Y-232912219D01*
X145244654Y-232894976D01*
X145259070Y-232879070D01*
X145274976Y-232864654D01*
X145292219Y-232851866D01*
X145310632Y-232840830D01*
X145330038Y-232831651D01*
X145350250Y-232824419D01*
X145371074Y-232819203D01*
X145392309Y-232816053D01*
X145413750Y-232815000D01*
X145926250Y-232815000D01*
X145947691Y-232816053D01*
G37*
G36*
X145947691Y-234391053D02*
G01*
X145968926Y-234394203D01*
X145989750Y-234399419D01*
X146009962Y-234406651D01*
X146029368Y-234415830D01*
X146047781Y-234426866D01*
X146065024Y-234439654D01*
X146080930Y-234454070D01*
X146095346Y-234469976D01*
X146108134Y-234487219D01*
X146119170Y-234505632D01*
X146128349Y-234525038D01*
X146135581Y-234545250D01*
X146140797Y-234566074D01*
X146143947Y-234587309D01*
X146145000Y-234608750D01*
X146145000Y-235046250D01*
X146143947Y-235067691D01*
X146140797Y-235088926D01*
X146135581Y-235109750D01*
X146128349Y-235129962D01*
X146119170Y-235149368D01*
X146108134Y-235167781D01*
X146095346Y-235185024D01*
X146080930Y-235200930D01*
X146065024Y-235215346D01*
X146047781Y-235228134D01*
X146029368Y-235239170D01*
X146009962Y-235248349D01*
X145989750Y-235255581D01*
X145968926Y-235260797D01*
X145947691Y-235263947D01*
X145926250Y-235265000D01*
X145413750Y-235265000D01*
X145392309Y-235263947D01*
X145371074Y-235260797D01*
X145350250Y-235255581D01*
X145330038Y-235248349D01*
X145310632Y-235239170D01*
X145292219Y-235228134D01*
X145274976Y-235215346D01*
X145259070Y-235200930D01*
X145244654Y-235185024D01*
X145231866Y-235167781D01*
X145220830Y-235149368D01*
X145211651Y-235129962D01*
X145204419Y-235109750D01*
X145199203Y-235088926D01*
X145196053Y-235067691D01*
X145195000Y-235046250D01*
X145195000Y-234608750D01*
X145196053Y-234587309D01*
X145199203Y-234566074D01*
X145204419Y-234545250D01*
X145211651Y-234525038D01*
X145220830Y-234505632D01*
X145231866Y-234487219D01*
X145244654Y-234469976D01*
X145259070Y-234454070D01*
X145274976Y-234439654D01*
X145292219Y-234426866D01*
X145310632Y-234415830D01*
X145330038Y-234406651D01*
X145350250Y-234399419D01*
X145371074Y-234394203D01*
X145392309Y-234391053D01*
X145413750Y-234390000D01*
X145926250Y-234390000D01*
X145947691Y-234391053D01*
G37*
G36*
X156577691Y-213806053D02*
G01*
X156598926Y-213809203D01*
X156619750Y-213814419D01*
X156639962Y-213821651D01*
X156659368Y-213830830D01*
X156677781Y-213841866D01*
X156695024Y-213854654D01*
X156710930Y-213869070D01*
X156725346Y-213884976D01*
X156738134Y-213902219D01*
X156749170Y-213920632D01*
X156758349Y-213940038D01*
X156765581Y-213960250D01*
X156770797Y-213981074D01*
X156773947Y-214002309D01*
X156775000Y-214023750D01*
X156775000Y-214536250D01*
X156773947Y-214557691D01*
X156770797Y-214578926D01*
X156765581Y-214599750D01*
X156758349Y-214619962D01*
X156749170Y-214639368D01*
X156738134Y-214657781D01*
X156725346Y-214675024D01*
X156710930Y-214690930D01*
X156695024Y-214705346D01*
X156677781Y-214718134D01*
X156659368Y-214729170D01*
X156639962Y-214738349D01*
X156619750Y-214745581D01*
X156598926Y-214750797D01*
X156577691Y-214753947D01*
X156556250Y-214755000D01*
X156118750Y-214755000D01*
X156097309Y-214753947D01*
X156076074Y-214750797D01*
X156055250Y-214745581D01*
X156035038Y-214738349D01*
X156015632Y-214729170D01*
X155997219Y-214718134D01*
X155979976Y-214705346D01*
X155964070Y-214690930D01*
X155949654Y-214675024D01*
X155936866Y-214657781D01*
X155925830Y-214639368D01*
X155916651Y-214619962D01*
X155909419Y-214599750D01*
X155904203Y-214578926D01*
X155901053Y-214557691D01*
X155900000Y-214536250D01*
X155900000Y-214023750D01*
X155901053Y-214002309D01*
X155904203Y-213981074D01*
X155909419Y-213960250D01*
X155916651Y-213940038D01*
X155925830Y-213920632D01*
X155936866Y-213902219D01*
X155949654Y-213884976D01*
X155964070Y-213869070D01*
X155979976Y-213854654D01*
X155997219Y-213841866D01*
X156015632Y-213830830D01*
X156035038Y-213821651D01*
X156055250Y-213814419D01*
X156076074Y-213809203D01*
X156097309Y-213806053D01*
X156118750Y-213805000D01*
X156556250Y-213805000D01*
X156577691Y-213806053D01*
G37*
G36*
X155002691Y-213806053D02*
G01*
X155023926Y-213809203D01*
X155044750Y-213814419D01*
X155064962Y-213821651D01*
X155084368Y-213830830D01*
X155102781Y-213841866D01*
X155120024Y-213854654D01*
X155135930Y-213869070D01*
X155150346Y-213884976D01*
X155163134Y-213902219D01*
X155174170Y-213920632D01*
X155183349Y-213940038D01*
X155190581Y-213960250D01*
X155195797Y-213981074D01*
X155198947Y-214002309D01*
X155200000Y-214023750D01*
X155200000Y-214536250D01*
X155198947Y-214557691D01*
X155195797Y-214578926D01*
X155190581Y-214599750D01*
X155183349Y-214619962D01*
X155174170Y-214639368D01*
X155163134Y-214657781D01*
X155150346Y-214675024D01*
X155135930Y-214690930D01*
X155120024Y-214705346D01*
X155102781Y-214718134D01*
X155084368Y-214729170D01*
X155064962Y-214738349D01*
X155044750Y-214745581D01*
X155023926Y-214750797D01*
X155002691Y-214753947D01*
X154981250Y-214755000D01*
X154543750Y-214755000D01*
X154522309Y-214753947D01*
X154501074Y-214750797D01*
X154480250Y-214745581D01*
X154460038Y-214738349D01*
X154440632Y-214729170D01*
X154422219Y-214718134D01*
X154404976Y-214705346D01*
X154389070Y-214690930D01*
X154374654Y-214675024D01*
X154361866Y-214657781D01*
X154350830Y-214639368D01*
X154341651Y-214619962D01*
X154334419Y-214599750D01*
X154329203Y-214578926D01*
X154326053Y-214557691D01*
X154325000Y-214536250D01*
X154325000Y-214023750D01*
X154326053Y-214002309D01*
X154329203Y-213981074D01*
X154334419Y-213960250D01*
X154341651Y-213940038D01*
X154350830Y-213920632D01*
X154361866Y-213902219D01*
X154374654Y-213884976D01*
X154389070Y-213869070D01*
X154404976Y-213854654D01*
X154422219Y-213841866D01*
X154440632Y-213830830D01*
X154460038Y-213821651D01*
X154480250Y-213814419D01*
X154501074Y-213809203D01*
X154522309Y-213806053D01*
X154543750Y-213805000D01*
X154981250Y-213805000D01*
X155002691Y-213806053D01*
G37*
G36*
X162867691Y-189646053D02*
G01*
X162888926Y-189649203D01*
X162909750Y-189654419D01*
X162929962Y-189661651D01*
X162949368Y-189670830D01*
X162967781Y-189681866D01*
X162985024Y-189694654D01*
X163000930Y-189709070D01*
X163015346Y-189724976D01*
X163028134Y-189742219D01*
X163039170Y-189760632D01*
X163048349Y-189780038D01*
X163055581Y-189800250D01*
X163060797Y-189821074D01*
X163063947Y-189842309D01*
X163065000Y-189863750D01*
X163065000Y-190376250D01*
X163063947Y-190397691D01*
X163060797Y-190418926D01*
X163055581Y-190439750D01*
X163048349Y-190459962D01*
X163039170Y-190479368D01*
X163028134Y-190497781D01*
X163015346Y-190515024D01*
X163000930Y-190530930D01*
X162985024Y-190545346D01*
X162967781Y-190558134D01*
X162949368Y-190569170D01*
X162929962Y-190578349D01*
X162909750Y-190585581D01*
X162888926Y-190590797D01*
X162867691Y-190593947D01*
X162846250Y-190595000D01*
X162408750Y-190595000D01*
X162387309Y-190593947D01*
X162366074Y-190590797D01*
X162345250Y-190585581D01*
X162325038Y-190578349D01*
X162305632Y-190569170D01*
X162287219Y-190558134D01*
X162269976Y-190545346D01*
X162254070Y-190530930D01*
X162239654Y-190515024D01*
X162226866Y-190497781D01*
X162215830Y-190479368D01*
X162206651Y-190459962D01*
X162199419Y-190439750D01*
X162194203Y-190418926D01*
X162191053Y-190397691D01*
X162190000Y-190376250D01*
X162190000Y-189863750D01*
X162191053Y-189842309D01*
X162194203Y-189821074D01*
X162199419Y-189800250D01*
X162206651Y-189780038D01*
X162215830Y-189760632D01*
X162226866Y-189742219D01*
X162239654Y-189724976D01*
X162254070Y-189709070D01*
X162269976Y-189694654D01*
X162287219Y-189681866D01*
X162305632Y-189670830D01*
X162325038Y-189661651D01*
X162345250Y-189654419D01*
X162366074Y-189649203D01*
X162387309Y-189646053D01*
X162408750Y-189645000D01*
X162846250Y-189645000D01*
X162867691Y-189646053D01*
G37*
G36*
X161292691Y-189646053D02*
G01*
X161313926Y-189649203D01*
X161334750Y-189654419D01*
X161354962Y-189661651D01*
X161374368Y-189670830D01*
X161392781Y-189681866D01*
X161410024Y-189694654D01*
X161425930Y-189709070D01*
X161440346Y-189724976D01*
X161453134Y-189742219D01*
X161464170Y-189760632D01*
X161473349Y-189780038D01*
X161480581Y-189800250D01*
X161485797Y-189821074D01*
X161488947Y-189842309D01*
X161490000Y-189863750D01*
X161490000Y-190376250D01*
X161488947Y-190397691D01*
X161485797Y-190418926D01*
X161480581Y-190439750D01*
X161473349Y-190459962D01*
X161464170Y-190479368D01*
X161453134Y-190497781D01*
X161440346Y-190515024D01*
X161425930Y-190530930D01*
X161410024Y-190545346D01*
X161392781Y-190558134D01*
X161374368Y-190569170D01*
X161354962Y-190578349D01*
X161334750Y-190585581D01*
X161313926Y-190590797D01*
X161292691Y-190593947D01*
X161271250Y-190595000D01*
X160833750Y-190595000D01*
X160812309Y-190593947D01*
X160791074Y-190590797D01*
X160770250Y-190585581D01*
X160750038Y-190578349D01*
X160730632Y-190569170D01*
X160712219Y-190558134D01*
X160694976Y-190545346D01*
X160679070Y-190530930D01*
X160664654Y-190515024D01*
X160651866Y-190497781D01*
X160640830Y-190479368D01*
X160631651Y-190459962D01*
X160624419Y-190439750D01*
X160619203Y-190418926D01*
X160616053Y-190397691D01*
X160615000Y-190376250D01*
X160615000Y-189863750D01*
X160616053Y-189842309D01*
X160619203Y-189821074D01*
X160624419Y-189800250D01*
X160631651Y-189780038D01*
X160640830Y-189760632D01*
X160651866Y-189742219D01*
X160664654Y-189724976D01*
X160679070Y-189709070D01*
X160694976Y-189694654D01*
X160712219Y-189681866D01*
X160730632Y-189670830D01*
X160750038Y-189661651D01*
X160770250Y-189654419D01*
X160791074Y-189649203D01*
X160812309Y-189646053D01*
X160833750Y-189645000D01*
X161271250Y-189645000D01*
X161292691Y-189646053D01*
G37*
G36*
X168947691Y-164846053D02*
G01*
X168968926Y-164849203D01*
X168989750Y-164854419D01*
X169009962Y-164861651D01*
X169029368Y-164870830D01*
X169047781Y-164881866D01*
X169065024Y-164894654D01*
X169080930Y-164909070D01*
X169095346Y-164924976D01*
X169108134Y-164942219D01*
X169119170Y-164960632D01*
X169128349Y-164980038D01*
X169135581Y-165000250D01*
X169140797Y-165021074D01*
X169143947Y-165042309D01*
X169145000Y-165063750D01*
X169145000Y-165576250D01*
X169143947Y-165597691D01*
X169140797Y-165618926D01*
X169135581Y-165639750D01*
X169128349Y-165659962D01*
X169119170Y-165679368D01*
X169108134Y-165697781D01*
X169095346Y-165715024D01*
X169080930Y-165730930D01*
X169065024Y-165745346D01*
X169047781Y-165758134D01*
X169029368Y-165769170D01*
X169009962Y-165778349D01*
X168989750Y-165785581D01*
X168968926Y-165790797D01*
X168947691Y-165793947D01*
X168926250Y-165795000D01*
X168488750Y-165795000D01*
X168467309Y-165793947D01*
X168446074Y-165790797D01*
X168425250Y-165785581D01*
X168405038Y-165778349D01*
X168385632Y-165769170D01*
X168367219Y-165758134D01*
X168349976Y-165745346D01*
X168334070Y-165730930D01*
X168319654Y-165715024D01*
X168306866Y-165697781D01*
X168295830Y-165679368D01*
X168286651Y-165659962D01*
X168279419Y-165639750D01*
X168274203Y-165618926D01*
X168271053Y-165597691D01*
X168270000Y-165576250D01*
X168270000Y-165063750D01*
X168271053Y-165042309D01*
X168274203Y-165021074D01*
X168279419Y-165000250D01*
X168286651Y-164980038D01*
X168295830Y-164960632D01*
X168306866Y-164942219D01*
X168319654Y-164924976D01*
X168334070Y-164909070D01*
X168349976Y-164894654D01*
X168367219Y-164881866D01*
X168385632Y-164870830D01*
X168405038Y-164861651D01*
X168425250Y-164854419D01*
X168446074Y-164849203D01*
X168467309Y-164846053D01*
X168488750Y-164845000D01*
X168926250Y-164845000D01*
X168947691Y-164846053D01*
G37*
G36*
X167372691Y-164846053D02*
G01*
X167393926Y-164849203D01*
X167414750Y-164854419D01*
X167434962Y-164861651D01*
X167454368Y-164870830D01*
X167472781Y-164881866D01*
X167490024Y-164894654D01*
X167505930Y-164909070D01*
X167520346Y-164924976D01*
X167533134Y-164942219D01*
X167544170Y-164960632D01*
X167553349Y-164980038D01*
X167560581Y-165000250D01*
X167565797Y-165021074D01*
X167568947Y-165042309D01*
X167570000Y-165063750D01*
X167570000Y-165576250D01*
X167568947Y-165597691D01*
X167565797Y-165618926D01*
X167560581Y-165639750D01*
X167553349Y-165659962D01*
X167544170Y-165679368D01*
X167533134Y-165697781D01*
X167520346Y-165715024D01*
X167505930Y-165730930D01*
X167490024Y-165745346D01*
X167472781Y-165758134D01*
X167454368Y-165769170D01*
X167434962Y-165778349D01*
X167414750Y-165785581D01*
X167393926Y-165790797D01*
X167372691Y-165793947D01*
X167351250Y-165795000D01*
X166913750Y-165795000D01*
X166892309Y-165793947D01*
X166871074Y-165790797D01*
X166850250Y-165785581D01*
X166830038Y-165778349D01*
X166810632Y-165769170D01*
X166792219Y-165758134D01*
X166774976Y-165745346D01*
X166759070Y-165730930D01*
X166744654Y-165715024D01*
X166731866Y-165697781D01*
X166720830Y-165679368D01*
X166711651Y-165659962D01*
X166704419Y-165639750D01*
X166699203Y-165618926D01*
X166696053Y-165597691D01*
X166695000Y-165576250D01*
X166695000Y-165063750D01*
X166696053Y-165042309D01*
X166699203Y-165021074D01*
X166704419Y-165000250D01*
X166711651Y-164980038D01*
X166720830Y-164960632D01*
X166731866Y-164942219D01*
X166744654Y-164924976D01*
X166759070Y-164909070D01*
X166774976Y-164894654D01*
X166792219Y-164881866D01*
X166810632Y-164870830D01*
X166830038Y-164861651D01*
X166850250Y-164854419D01*
X166871074Y-164849203D01*
X166892309Y-164846053D01*
X166913750Y-164845000D01*
X167351250Y-164845000D01*
X167372691Y-164846053D01*
G37*
G36*
X150237691Y-148856053D02*
G01*
X150258926Y-148859203D01*
X150279750Y-148864419D01*
X150299962Y-148871651D01*
X150319368Y-148880830D01*
X150337781Y-148891866D01*
X150355024Y-148904654D01*
X150370930Y-148919070D01*
X150385346Y-148934976D01*
X150398134Y-148952219D01*
X150409170Y-148970632D01*
X150418349Y-148990038D01*
X150425581Y-149010250D01*
X150430797Y-149031074D01*
X150433947Y-149052309D01*
X150435000Y-149073750D01*
X150435000Y-149586250D01*
X150433947Y-149607691D01*
X150430797Y-149628926D01*
X150425581Y-149649750D01*
X150418349Y-149669962D01*
X150409170Y-149689368D01*
X150398134Y-149707781D01*
X150385346Y-149725024D01*
X150370930Y-149740930D01*
X150355024Y-149755346D01*
X150337781Y-149768134D01*
X150319368Y-149779170D01*
X150299962Y-149788349D01*
X150279750Y-149795581D01*
X150258926Y-149800797D01*
X150237691Y-149803947D01*
X150216250Y-149805000D01*
X149778750Y-149805000D01*
X149757309Y-149803947D01*
X149736074Y-149800797D01*
X149715250Y-149795581D01*
X149695038Y-149788349D01*
X149675632Y-149779170D01*
X149657219Y-149768134D01*
X149639976Y-149755346D01*
X149624070Y-149740930D01*
X149609654Y-149725024D01*
X149596866Y-149707781D01*
X149585830Y-149689368D01*
X149576651Y-149669962D01*
X149569419Y-149649750D01*
X149564203Y-149628926D01*
X149561053Y-149607691D01*
X149560000Y-149586250D01*
X149560000Y-149073750D01*
X149561053Y-149052309D01*
X149564203Y-149031074D01*
X149569419Y-149010250D01*
X149576651Y-148990038D01*
X149585830Y-148970632D01*
X149596866Y-148952219D01*
X149609654Y-148934976D01*
X149624070Y-148919070D01*
X149639976Y-148904654D01*
X149657219Y-148891866D01*
X149675632Y-148880830D01*
X149695038Y-148871651D01*
X149715250Y-148864419D01*
X149736074Y-148859203D01*
X149757309Y-148856053D01*
X149778750Y-148855000D01*
X150216250Y-148855000D01*
X150237691Y-148856053D01*
G37*
G36*
X148662691Y-148856053D02*
G01*
X148683926Y-148859203D01*
X148704750Y-148864419D01*
X148724962Y-148871651D01*
X148744368Y-148880830D01*
X148762781Y-148891866D01*
X148780024Y-148904654D01*
X148795930Y-148919070D01*
X148810346Y-148934976D01*
X148823134Y-148952219D01*
X148834170Y-148970632D01*
X148843349Y-148990038D01*
X148850581Y-149010250D01*
X148855797Y-149031074D01*
X148858947Y-149052309D01*
X148860000Y-149073750D01*
X148860000Y-149586250D01*
X148858947Y-149607691D01*
X148855797Y-149628926D01*
X148850581Y-149649750D01*
X148843349Y-149669962D01*
X148834170Y-149689368D01*
X148823134Y-149707781D01*
X148810346Y-149725024D01*
X148795930Y-149740930D01*
X148780024Y-149755346D01*
X148762781Y-149768134D01*
X148744368Y-149779170D01*
X148724962Y-149788349D01*
X148704750Y-149795581D01*
X148683926Y-149800797D01*
X148662691Y-149803947D01*
X148641250Y-149805000D01*
X148203750Y-149805000D01*
X148182309Y-149803947D01*
X148161074Y-149800797D01*
X148140250Y-149795581D01*
X148120038Y-149788349D01*
X148100632Y-149779170D01*
X148082219Y-149768134D01*
X148064976Y-149755346D01*
X148049070Y-149740930D01*
X148034654Y-149725024D01*
X148021866Y-149707781D01*
X148010830Y-149689368D01*
X148001651Y-149669962D01*
X147994419Y-149649750D01*
X147989203Y-149628926D01*
X147986053Y-149607691D01*
X147985000Y-149586250D01*
X147985000Y-149073750D01*
X147986053Y-149052309D01*
X147989203Y-149031074D01*
X147994419Y-149010250D01*
X148001651Y-148990038D01*
X148010830Y-148970632D01*
X148021866Y-148952219D01*
X148034654Y-148934976D01*
X148049070Y-148919070D01*
X148064976Y-148904654D01*
X148082219Y-148891866D01*
X148100632Y-148880830D01*
X148120038Y-148871651D01*
X148140250Y-148864419D01*
X148161074Y-148859203D01*
X148182309Y-148856053D01*
X148203750Y-148855000D01*
X148641250Y-148855000D01*
X148662691Y-148856053D01*
G37*
G36*
X131057691Y-132266053D02*
G01*
X131078926Y-132269203D01*
X131099750Y-132274419D01*
X131119962Y-132281651D01*
X131139368Y-132290830D01*
X131157781Y-132301866D01*
X131175024Y-132314654D01*
X131190930Y-132329070D01*
X131205346Y-132344976D01*
X131218134Y-132362219D01*
X131229170Y-132380632D01*
X131238349Y-132400038D01*
X131245581Y-132420250D01*
X131250797Y-132441074D01*
X131253947Y-132462309D01*
X131255000Y-132483750D01*
X131255000Y-132996250D01*
X131253947Y-133017691D01*
X131250797Y-133038926D01*
X131245581Y-133059750D01*
X131238349Y-133079962D01*
X131229170Y-133099368D01*
X131218134Y-133117781D01*
X131205346Y-133135024D01*
X131190930Y-133150930D01*
X131175024Y-133165346D01*
X131157781Y-133178134D01*
X131139368Y-133189170D01*
X131119962Y-133198349D01*
X131099750Y-133205581D01*
X131078926Y-133210797D01*
X131057691Y-133213947D01*
X131036250Y-133215000D01*
X130598750Y-133215000D01*
X130577309Y-133213947D01*
X130556074Y-133210797D01*
X130535250Y-133205581D01*
X130515038Y-133198349D01*
X130495632Y-133189170D01*
X130477219Y-133178134D01*
X130459976Y-133165346D01*
X130444070Y-133150930D01*
X130429654Y-133135024D01*
X130416866Y-133117781D01*
X130405830Y-133099368D01*
X130396651Y-133079962D01*
X130389419Y-133059750D01*
X130384203Y-133038926D01*
X130381053Y-133017691D01*
X130380000Y-132996250D01*
X130380000Y-132483750D01*
X130381053Y-132462309D01*
X130384203Y-132441074D01*
X130389419Y-132420250D01*
X130396651Y-132400038D01*
X130405830Y-132380632D01*
X130416866Y-132362219D01*
X130429654Y-132344976D01*
X130444070Y-132329070D01*
X130459976Y-132314654D01*
X130477219Y-132301866D01*
X130495632Y-132290830D01*
X130515038Y-132281651D01*
X130535250Y-132274419D01*
X130556074Y-132269203D01*
X130577309Y-132266053D01*
X130598750Y-132265000D01*
X131036250Y-132265000D01*
X131057691Y-132266053D01*
G37*
G36*
X129482691Y-132266053D02*
G01*
X129503926Y-132269203D01*
X129524750Y-132274419D01*
X129544962Y-132281651D01*
X129564368Y-132290830D01*
X129582781Y-132301866D01*
X129600024Y-132314654D01*
X129615930Y-132329070D01*
X129630346Y-132344976D01*
X129643134Y-132362219D01*
X129654170Y-132380632D01*
X129663349Y-132400038D01*
X129670581Y-132420250D01*
X129675797Y-132441074D01*
X129678947Y-132462309D01*
X129680000Y-132483750D01*
X129680000Y-132996250D01*
X129678947Y-133017691D01*
X129675797Y-133038926D01*
X129670581Y-133059750D01*
X129663349Y-133079962D01*
X129654170Y-133099368D01*
X129643134Y-133117781D01*
X129630346Y-133135024D01*
X129615930Y-133150930D01*
X129600024Y-133165346D01*
X129582781Y-133178134D01*
X129564368Y-133189170D01*
X129544962Y-133198349D01*
X129524750Y-133205581D01*
X129503926Y-133210797D01*
X129482691Y-133213947D01*
X129461250Y-133215000D01*
X129023750Y-133215000D01*
X129002309Y-133213947D01*
X128981074Y-133210797D01*
X128960250Y-133205581D01*
X128940038Y-133198349D01*
X128920632Y-133189170D01*
X128902219Y-133178134D01*
X128884976Y-133165346D01*
X128869070Y-133150930D01*
X128854654Y-133135024D01*
X128841866Y-133117781D01*
X128830830Y-133099368D01*
X128821651Y-133079962D01*
X128814419Y-133059750D01*
X128809203Y-133038926D01*
X128806053Y-133017691D01*
X128805000Y-132996250D01*
X128805000Y-132483750D01*
X128806053Y-132462309D01*
X128809203Y-132441074D01*
X128814419Y-132420250D01*
X128821651Y-132400038D01*
X128830830Y-132380632D01*
X128841866Y-132362219D01*
X128854654Y-132344976D01*
X128869070Y-132329070D01*
X128884976Y-132314654D01*
X128902219Y-132301866D01*
X128920632Y-132290830D01*
X128940038Y-132281651D01*
X128960250Y-132274419D01*
X128981074Y-132269203D01*
X129002309Y-132266053D01*
X129023750Y-132265000D01*
X129461250Y-132265000D01*
X129482691Y-132266053D01*
G37*
G36*
X112297691Y-115926053D02*
G01*
X112318926Y-115929203D01*
X112339750Y-115934419D01*
X112359962Y-115941651D01*
X112379368Y-115950830D01*
X112397781Y-115961866D01*
X112415024Y-115974654D01*
X112430930Y-115989070D01*
X112445346Y-116004976D01*
X112458134Y-116022219D01*
X112469170Y-116040632D01*
X112478349Y-116060038D01*
X112485581Y-116080250D01*
X112490797Y-116101074D01*
X112493947Y-116122309D01*
X112495000Y-116143750D01*
X112495000Y-116656250D01*
X112493947Y-116677691D01*
X112490797Y-116698926D01*
X112485581Y-116719750D01*
X112478349Y-116739962D01*
X112469170Y-116759368D01*
X112458134Y-116777781D01*
X112445346Y-116795024D01*
X112430930Y-116810930D01*
X112415024Y-116825346D01*
X112397781Y-116838134D01*
X112379368Y-116849170D01*
X112359962Y-116858349D01*
X112339750Y-116865581D01*
X112318926Y-116870797D01*
X112297691Y-116873947D01*
X112276250Y-116875000D01*
X111838750Y-116875000D01*
X111817309Y-116873947D01*
X111796074Y-116870797D01*
X111775250Y-116865581D01*
X111755038Y-116858349D01*
X111735632Y-116849170D01*
X111717219Y-116838134D01*
X111699976Y-116825346D01*
X111684070Y-116810930D01*
X111669654Y-116795024D01*
X111656866Y-116777781D01*
X111645830Y-116759368D01*
X111636651Y-116739962D01*
X111629419Y-116719750D01*
X111624203Y-116698926D01*
X111621053Y-116677691D01*
X111620000Y-116656250D01*
X111620000Y-116143750D01*
X111621053Y-116122309D01*
X111624203Y-116101074D01*
X111629419Y-116080250D01*
X111636651Y-116060038D01*
X111645830Y-116040632D01*
X111656866Y-116022219D01*
X111669654Y-116004976D01*
X111684070Y-115989070D01*
X111699976Y-115974654D01*
X111717219Y-115961866D01*
X111735632Y-115950830D01*
X111755038Y-115941651D01*
X111775250Y-115934419D01*
X111796074Y-115929203D01*
X111817309Y-115926053D01*
X111838750Y-115925000D01*
X112276250Y-115925000D01*
X112297691Y-115926053D01*
G37*
G36*
X110722691Y-115926053D02*
G01*
X110743926Y-115929203D01*
X110764750Y-115934419D01*
X110784962Y-115941651D01*
X110804368Y-115950830D01*
X110822781Y-115961866D01*
X110840024Y-115974654D01*
X110855930Y-115989070D01*
X110870346Y-116004976D01*
X110883134Y-116022219D01*
X110894170Y-116040632D01*
X110903349Y-116060038D01*
X110910581Y-116080250D01*
X110915797Y-116101074D01*
X110918947Y-116122309D01*
X110920000Y-116143750D01*
X110920000Y-116656250D01*
X110918947Y-116677691D01*
X110915797Y-116698926D01*
X110910581Y-116719750D01*
X110903349Y-116739962D01*
X110894170Y-116759368D01*
X110883134Y-116777781D01*
X110870346Y-116795024D01*
X110855930Y-116810930D01*
X110840024Y-116825346D01*
X110822781Y-116838134D01*
X110804368Y-116849170D01*
X110784962Y-116858349D01*
X110764750Y-116865581D01*
X110743926Y-116870797D01*
X110722691Y-116873947D01*
X110701250Y-116875000D01*
X110263750Y-116875000D01*
X110242309Y-116873947D01*
X110221074Y-116870797D01*
X110200250Y-116865581D01*
X110180038Y-116858349D01*
X110160632Y-116849170D01*
X110142219Y-116838134D01*
X110124976Y-116825346D01*
X110109070Y-116810930D01*
X110094654Y-116795024D01*
X110081866Y-116777781D01*
X110070830Y-116759368D01*
X110061651Y-116739962D01*
X110054419Y-116719750D01*
X110049203Y-116698926D01*
X110046053Y-116677691D01*
X110045000Y-116656250D01*
X110045000Y-116143750D01*
X110046053Y-116122309D01*
X110049203Y-116101074D01*
X110054419Y-116080250D01*
X110061651Y-116060038D01*
X110070830Y-116040632D01*
X110081866Y-116022219D01*
X110094654Y-116004976D01*
X110109070Y-115989070D01*
X110124976Y-115974654D01*
X110142219Y-115961866D01*
X110160632Y-115950830D01*
X110180038Y-115941651D01*
X110200250Y-115934419D01*
X110221074Y-115929203D01*
X110242309Y-115926053D01*
X110263750Y-115925000D01*
X110701250Y-115925000D01*
X110722691Y-115926053D01*
G37*
G36*
X128462691Y-114826053D02*
G01*
X128483926Y-114829203D01*
X128504750Y-114834419D01*
X128524962Y-114841651D01*
X128544368Y-114850830D01*
X128562781Y-114861866D01*
X128580024Y-114874654D01*
X128595930Y-114889070D01*
X128610346Y-114904976D01*
X128623134Y-114922219D01*
X128634170Y-114940632D01*
X128643349Y-114960038D01*
X128650581Y-114980250D01*
X128655797Y-115001074D01*
X128658947Y-115022309D01*
X128660000Y-115043750D01*
X128660000Y-115556250D01*
X128658947Y-115577691D01*
X128655797Y-115598926D01*
X128650581Y-115619750D01*
X128643349Y-115639962D01*
X128634170Y-115659368D01*
X128623134Y-115677781D01*
X128610346Y-115695024D01*
X128595930Y-115710930D01*
X128580024Y-115725346D01*
X128562781Y-115738134D01*
X128544368Y-115749170D01*
X128524962Y-115758349D01*
X128504750Y-115765581D01*
X128483926Y-115770797D01*
X128462691Y-115773947D01*
X128441250Y-115775000D01*
X128003750Y-115775000D01*
X127982309Y-115773947D01*
X127961074Y-115770797D01*
X127940250Y-115765581D01*
X127920038Y-115758349D01*
X127900632Y-115749170D01*
X127882219Y-115738134D01*
X127864976Y-115725346D01*
X127849070Y-115710930D01*
X127834654Y-115695024D01*
X127821866Y-115677781D01*
X127810830Y-115659368D01*
X127801651Y-115639962D01*
X127794419Y-115619750D01*
X127789203Y-115598926D01*
X127786053Y-115577691D01*
X127785000Y-115556250D01*
X127785000Y-115043750D01*
X127786053Y-115022309D01*
X127789203Y-115001074D01*
X127794419Y-114980250D01*
X127801651Y-114960038D01*
X127810830Y-114940632D01*
X127821866Y-114922219D01*
X127834654Y-114904976D01*
X127849070Y-114889070D01*
X127864976Y-114874654D01*
X127882219Y-114861866D01*
X127900632Y-114850830D01*
X127920038Y-114841651D01*
X127940250Y-114834419D01*
X127961074Y-114829203D01*
X127982309Y-114826053D01*
X128003750Y-114825000D01*
X128441250Y-114825000D01*
X128462691Y-114826053D01*
G37*
G36*
X130037691Y-114826053D02*
G01*
X130058926Y-114829203D01*
X130079750Y-114834419D01*
X130099962Y-114841651D01*
X130119368Y-114850830D01*
X130137781Y-114861866D01*
X130155024Y-114874654D01*
X130170930Y-114889070D01*
X130185346Y-114904976D01*
X130198134Y-114922219D01*
X130209170Y-114940632D01*
X130218349Y-114960038D01*
X130225581Y-114980250D01*
X130230797Y-115001074D01*
X130233947Y-115022309D01*
X130235000Y-115043750D01*
X130235000Y-115556250D01*
X130233947Y-115577691D01*
X130230797Y-115598926D01*
X130225581Y-115619750D01*
X130218349Y-115639962D01*
X130209170Y-115659368D01*
X130198134Y-115677781D01*
X130185346Y-115695024D01*
X130170930Y-115710930D01*
X130155024Y-115725346D01*
X130137781Y-115738134D01*
X130119368Y-115749170D01*
X130099962Y-115758349D01*
X130079750Y-115765581D01*
X130058926Y-115770797D01*
X130037691Y-115773947D01*
X130016250Y-115775000D01*
X129578750Y-115775000D01*
X129557309Y-115773947D01*
X129536074Y-115770797D01*
X129515250Y-115765581D01*
X129495038Y-115758349D01*
X129475632Y-115749170D01*
X129457219Y-115738134D01*
X129439976Y-115725346D01*
X129424070Y-115710930D01*
X129409654Y-115695024D01*
X129396866Y-115677781D01*
X129385830Y-115659368D01*
X129376651Y-115639962D01*
X129369419Y-115619750D01*
X129364203Y-115598926D01*
X129361053Y-115577691D01*
X129360000Y-115556250D01*
X129360000Y-115043750D01*
X129361053Y-115022309D01*
X129364203Y-115001074D01*
X129369419Y-114980250D01*
X129376651Y-114960038D01*
X129385830Y-114940632D01*
X129396866Y-114922219D01*
X129409654Y-114904976D01*
X129424070Y-114889070D01*
X129439976Y-114874654D01*
X129457219Y-114861866D01*
X129475632Y-114850830D01*
X129495038Y-114841651D01*
X129515250Y-114834419D01*
X129536074Y-114829203D01*
X129557309Y-114826053D01*
X129578750Y-114825000D01*
X130016250Y-114825000D01*
X130037691Y-114826053D01*
G37*
G36*
X153172691Y-113366053D02*
G01*
X153193926Y-113369203D01*
X153214750Y-113374419D01*
X153234962Y-113381651D01*
X153254368Y-113390830D01*
X153272781Y-113401866D01*
X153290024Y-113414654D01*
X153305930Y-113429070D01*
X153320346Y-113444976D01*
X153333134Y-113462219D01*
X153344170Y-113480632D01*
X153353349Y-113500038D01*
X153360581Y-113520250D01*
X153365797Y-113541074D01*
X153368947Y-113562309D01*
X153370000Y-113583750D01*
X153370000Y-114096250D01*
X153368947Y-114117691D01*
X153365797Y-114138926D01*
X153360581Y-114159750D01*
X153353349Y-114179962D01*
X153344170Y-114199368D01*
X153333134Y-114217781D01*
X153320346Y-114235024D01*
X153305930Y-114250930D01*
X153290024Y-114265346D01*
X153272781Y-114278134D01*
X153254368Y-114289170D01*
X153234962Y-114298349D01*
X153214750Y-114305581D01*
X153193926Y-114310797D01*
X153172691Y-114313947D01*
X153151250Y-114315000D01*
X152713750Y-114315000D01*
X152692309Y-114313947D01*
X152671074Y-114310797D01*
X152650250Y-114305581D01*
X152630038Y-114298349D01*
X152610632Y-114289170D01*
X152592219Y-114278134D01*
X152574976Y-114265346D01*
X152559070Y-114250930D01*
X152544654Y-114235024D01*
X152531866Y-114217781D01*
X152520830Y-114199368D01*
X152511651Y-114179962D01*
X152504419Y-114159750D01*
X152499203Y-114138926D01*
X152496053Y-114117691D01*
X152495000Y-114096250D01*
X152495000Y-113583750D01*
X152496053Y-113562309D01*
X152499203Y-113541074D01*
X152504419Y-113520250D01*
X152511651Y-113500038D01*
X152520830Y-113480632D01*
X152531866Y-113462219D01*
X152544654Y-113444976D01*
X152559070Y-113429070D01*
X152574976Y-113414654D01*
X152592219Y-113401866D01*
X152610632Y-113390830D01*
X152630038Y-113381651D01*
X152650250Y-113374419D01*
X152671074Y-113369203D01*
X152692309Y-113366053D01*
X152713750Y-113365000D01*
X153151250Y-113365000D01*
X153172691Y-113366053D01*
G37*
G36*
X154747691Y-113366053D02*
G01*
X154768926Y-113369203D01*
X154789750Y-113374419D01*
X154809962Y-113381651D01*
X154829368Y-113390830D01*
X154847781Y-113401866D01*
X154865024Y-113414654D01*
X154880930Y-113429070D01*
X154895346Y-113444976D01*
X154908134Y-113462219D01*
X154919170Y-113480632D01*
X154928349Y-113500038D01*
X154935581Y-113520250D01*
X154940797Y-113541074D01*
X154943947Y-113562309D01*
X154945000Y-113583750D01*
X154945000Y-114096250D01*
X154943947Y-114117691D01*
X154940797Y-114138926D01*
X154935581Y-114159750D01*
X154928349Y-114179962D01*
X154919170Y-114199368D01*
X154908134Y-114217781D01*
X154895346Y-114235024D01*
X154880930Y-114250930D01*
X154865024Y-114265346D01*
X154847781Y-114278134D01*
X154829368Y-114289170D01*
X154809962Y-114298349D01*
X154789750Y-114305581D01*
X154768926Y-114310797D01*
X154747691Y-114313947D01*
X154726250Y-114315000D01*
X154288750Y-114315000D01*
X154267309Y-114313947D01*
X154246074Y-114310797D01*
X154225250Y-114305581D01*
X154205038Y-114298349D01*
X154185632Y-114289170D01*
X154167219Y-114278134D01*
X154149976Y-114265346D01*
X154134070Y-114250930D01*
X154119654Y-114235024D01*
X154106866Y-114217781D01*
X154095830Y-114199368D01*
X154086651Y-114179962D01*
X154079419Y-114159750D01*
X154074203Y-114138926D01*
X154071053Y-114117691D01*
X154070000Y-114096250D01*
X154070000Y-113583750D01*
X154071053Y-113562309D01*
X154074203Y-113541074D01*
X154079419Y-113520250D01*
X154086651Y-113500038D01*
X154095830Y-113480632D01*
X154106866Y-113462219D01*
X154119654Y-113444976D01*
X154134070Y-113429070D01*
X154149976Y-113414654D01*
X154167219Y-113401866D01*
X154185632Y-113390830D01*
X154205038Y-113381651D01*
X154225250Y-113374419D01*
X154246074Y-113369203D01*
X154267309Y-113366053D01*
X154288750Y-113365000D01*
X154726250Y-113365000D01*
X154747691Y-113366053D01*
G37*
G36*
X178002691Y-112126053D02*
G01*
X178023926Y-112129203D01*
X178044750Y-112134419D01*
X178064962Y-112141651D01*
X178084368Y-112150830D01*
X178102781Y-112161866D01*
X178120024Y-112174654D01*
X178135930Y-112189070D01*
X178150346Y-112204976D01*
X178163134Y-112222219D01*
X178174170Y-112240632D01*
X178183349Y-112260038D01*
X178190581Y-112280250D01*
X178195797Y-112301074D01*
X178198947Y-112322309D01*
X178200000Y-112343750D01*
X178200000Y-112856250D01*
X178198947Y-112877691D01*
X178195797Y-112898926D01*
X178190581Y-112919750D01*
X178183349Y-112939962D01*
X178174170Y-112959368D01*
X178163134Y-112977781D01*
X178150346Y-112995024D01*
X178135930Y-113010930D01*
X178120024Y-113025346D01*
X178102781Y-113038134D01*
X178084368Y-113049170D01*
X178064962Y-113058349D01*
X178044750Y-113065581D01*
X178023926Y-113070797D01*
X178002691Y-113073947D01*
X177981250Y-113075000D01*
X177543750Y-113075000D01*
X177522309Y-113073947D01*
X177501074Y-113070797D01*
X177480250Y-113065581D01*
X177460038Y-113058349D01*
X177440632Y-113049170D01*
X177422219Y-113038134D01*
X177404976Y-113025346D01*
X177389070Y-113010930D01*
X177374654Y-112995024D01*
X177361866Y-112977781D01*
X177350830Y-112959368D01*
X177341651Y-112939962D01*
X177334419Y-112919750D01*
X177329203Y-112898926D01*
X177326053Y-112877691D01*
X177325000Y-112856250D01*
X177325000Y-112343750D01*
X177326053Y-112322309D01*
X177329203Y-112301074D01*
X177334419Y-112280250D01*
X177341651Y-112260038D01*
X177350830Y-112240632D01*
X177361866Y-112222219D01*
X177374654Y-112204976D01*
X177389070Y-112189070D01*
X177404976Y-112174654D01*
X177422219Y-112161866D01*
X177440632Y-112150830D01*
X177460038Y-112141651D01*
X177480250Y-112134419D01*
X177501074Y-112129203D01*
X177522309Y-112126053D01*
X177543750Y-112125000D01*
X177981250Y-112125000D01*
X178002691Y-112126053D01*
G37*
G36*
X179577691Y-112126053D02*
G01*
X179598926Y-112129203D01*
X179619750Y-112134419D01*
X179639962Y-112141651D01*
X179659368Y-112150830D01*
X179677781Y-112161866D01*
X179695024Y-112174654D01*
X179710930Y-112189070D01*
X179725346Y-112204976D01*
X179738134Y-112222219D01*
X179749170Y-112240632D01*
X179758349Y-112260038D01*
X179765581Y-112280250D01*
X179770797Y-112301074D01*
X179773947Y-112322309D01*
X179775000Y-112343750D01*
X179775000Y-112856250D01*
X179773947Y-112877691D01*
X179770797Y-112898926D01*
X179765581Y-112919750D01*
X179758349Y-112939962D01*
X179749170Y-112959368D01*
X179738134Y-112977781D01*
X179725346Y-112995024D01*
X179710930Y-113010930D01*
X179695024Y-113025346D01*
X179677781Y-113038134D01*
X179659368Y-113049170D01*
X179639962Y-113058349D01*
X179619750Y-113065581D01*
X179598926Y-113070797D01*
X179577691Y-113073947D01*
X179556250Y-113075000D01*
X179118750Y-113075000D01*
X179097309Y-113073947D01*
X179076074Y-113070797D01*
X179055250Y-113065581D01*
X179035038Y-113058349D01*
X179015632Y-113049170D01*
X178997219Y-113038134D01*
X178979976Y-113025346D01*
X178964070Y-113010930D01*
X178949654Y-112995024D01*
X178936866Y-112977781D01*
X178925830Y-112959368D01*
X178916651Y-112939962D01*
X178909419Y-112919750D01*
X178904203Y-112898926D01*
X178901053Y-112877691D01*
X178900000Y-112856250D01*
X178900000Y-112343750D01*
X178901053Y-112322309D01*
X178904203Y-112301074D01*
X178909419Y-112280250D01*
X178916651Y-112260038D01*
X178925830Y-112240632D01*
X178936866Y-112222219D01*
X178949654Y-112204976D01*
X178964070Y-112189070D01*
X178979976Y-112174654D01*
X178997219Y-112161866D01*
X179015632Y-112150830D01*
X179035038Y-112141651D01*
X179055250Y-112134419D01*
X179076074Y-112129203D01*
X179097309Y-112126053D01*
X179118750Y-112125000D01*
X179556250Y-112125000D01*
X179577691Y-112126053D01*
G37*
G36*
X190902691Y-91226053D02*
G01*
X190923926Y-91229203D01*
X190944750Y-91234419D01*
X190964962Y-91241651D01*
X190984368Y-91250830D01*
X191002781Y-91261866D01*
X191020024Y-91274654D01*
X191035930Y-91289070D01*
X191050346Y-91304976D01*
X191063134Y-91322219D01*
X191074170Y-91340632D01*
X191083349Y-91360038D01*
X191090581Y-91380250D01*
X191095797Y-91401074D01*
X191098947Y-91422309D01*
X191100000Y-91443750D01*
X191100000Y-91956250D01*
X191098947Y-91977691D01*
X191095797Y-91998926D01*
X191090581Y-92019750D01*
X191083349Y-92039962D01*
X191074170Y-92059368D01*
X191063134Y-92077781D01*
X191050346Y-92095024D01*
X191035930Y-92110930D01*
X191020024Y-92125346D01*
X191002781Y-92138134D01*
X190984368Y-92149170D01*
X190964962Y-92158349D01*
X190944750Y-92165581D01*
X190923926Y-92170797D01*
X190902691Y-92173947D01*
X190881250Y-92175000D01*
X190443750Y-92175000D01*
X190422309Y-92173947D01*
X190401074Y-92170797D01*
X190380250Y-92165581D01*
X190360038Y-92158349D01*
X190340632Y-92149170D01*
X190322219Y-92138134D01*
X190304976Y-92125346D01*
X190289070Y-92110930D01*
X190274654Y-92095024D01*
X190261866Y-92077781D01*
X190250830Y-92059368D01*
X190241651Y-92039962D01*
X190234419Y-92019750D01*
X190229203Y-91998926D01*
X190226053Y-91977691D01*
X190225000Y-91956250D01*
X190225000Y-91443750D01*
X190226053Y-91422309D01*
X190229203Y-91401074D01*
X190234419Y-91380250D01*
X190241651Y-91360038D01*
X190250830Y-91340632D01*
X190261866Y-91322219D01*
X190274654Y-91304976D01*
X190289070Y-91289070D01*
X190304976Y-91274654D01*
X190322219Y-91261866D01*
X190340632Y-91250830D01*
X190360038Y-91241651D01*
X190380250Y-91234419D01*
X190401074Y-91229203D01*
X190422309Y-91226053D01*
X190443750Y-91225000D01*
X190881250Y-91225000D01*
X190902691Y-91226053D01*
G37*
G36*
X192477691Y-91226053D02*
G01*
X192498926Y-91229203D01*
X192519750Y-91234419D01*
X192539962Y-91241651D01*
X192559368Y-91250830D01*
X192577781Y-91261866D01*
X192595024Y-91274654D01*
X192610930Y-91289070D01*
X192625346Y-91304976D01*
X192638134Y-91322219D01*
X192649170Y-91340632D01*
X192658349Y-91360038D01*
X192665581Y-91380250D01*
X192670797Y-91401074D01*
X192673947Y-91422309D01*
X192675000Y-91443750D01*
X192675000Y-91956250D01*
X192673947Y-91977691D01*
X192670797Y-91998926D01*
X192665581Y-92019750D01*
X192658349Y-92039962D01*
X192649170Y-92059368D01*
X192638134Y-92077781D01*
X192625346Y-92095024D01*
X192610930Y-92110930D01*
X192595024Y-92125346D01*
X192577781Y-92138134D01*
X192559368Y-92149170D01*
X192539962Y-92158349D01*
X192519750Y-92165581D01*
X192498926Y-92170797D01*
X192477691Y-92173947D01*
X192456250Y-92175000D01*
X192018750Y-92175000D01*
X191997309Y-92173947D01*
X191976074Y-92170797D01*
X191955250Y-92165581D01*
X191935038Y-92158349D01*
X191915632Y-92149170D01*
X191897219Y-92138134D01*
X191879976Y-92125346D01*
X191864070Y-92110930D01*
X191849654Y-92095024D01*
X191836866Y-92077781D01*
X191825830Y-92059368D01*
X191816651Y-92039962D01*
X191809419Y-92019750D01*
X191804203Y-91998926D01*
X191801053Y-91977691D01*
X191800000Y-91956250D01*
X191800000Y-91443750D01*
X191801053Y-91422309D01*
X191804203Y-91401074D01*
X191809419Y-91380250D01*
X191816651Y-91360038D01*
X191825830Y-91340632D01*
X191836866Y-91322219D01*
X191849654Y-91304976D01*
X191864070Y-91289070D01*
X191879976Y-91274654D01*
X191897219Y-91261866D01*
X191915632Y-91250830D01*
X191935038Y-91241651D01*
X191955250Y-91234419D01*
X191976074Y-91229203D01*
X191997309Y-91226053D01*
X192018750Y-91225000D01*
X192456250Y-91225000D01*
X192477691Y-91226053D01*
G37*
G36*
X200452691Y-67726053D02*
G01*
X200473926Y-67729203D01*
X200494750Y-67734419D01*
X200514962Y-67741651D01*
X200534368Y-67750830D01*
X200552781Y-67761866D01*
X200570024Y-67774654D01*
X200585930Y-67789070D01*
X200600346Y-67804976D01*
X200613134Y-67822219D01*
X200624170Y-67840632D01*
X200633349Y-67860038D01*
X200640581Y-67880250D01*
X200645797Y-67901074D01*
X200648947Y-67922309D01*
X200650000Y-67943750D01*
X200650000Y-68456250D01*
X200648947Y-68477691D01*
X200645797Y-68498926D01*
X200640581Y-68519750D01*
X200633349Y-68539962D01*
X200624170Y-68559368D01*
X200613134Y-68577781D01*
X200600346Y-68595024D01*
X200585930Y-68610930D01*
X200570024Y-68625346D01*
X200552781Y-68638134D01*
X200534368Y-68649170D01*
X200514962Y-68658349D01*
X200494750Y-68665581D01*
X200473926Y-68670797D01*
X200452691Y-68673947D01*
X200431250Y-68675000D01*
X199993750Y-68675000D01*
X199972309Y-68673947D01*
X199951074Y-68670797D01*
X199930250Y-68665581D01*
X199910038Y-68658349D01*
X199890632Y-68649170D01*
X199872219Y-68638134D01*
X199854976Y-68625346D01*
X199839070Y-68610930D01*
X199824654Y-68595024D01*
X199811866Y-68577781D01*
X199800830Y-68559368D01*
X199791651Y-68539962D01*
X199784419Y-68519750D01*
X199779203Y-68498926D01*
X199776053Y-68477691D01*
X199775000Y-68456250D01*
X199775000Y-67943750D01*
X199776053Y-67922309D01*
X199779203Y-67901074D01*
X199784419Y-67880250D01*
X199791651Y-67860038D01*
X199800830Y-67840632D01*
X199811866Y-67822219D01*
X199824654Y-67804976D01*
X199839070Y-67789070D01*
X199854976Y-67774654D01*
X199872219Y-67761866D01*
X199890632Y-67750830D01*
X199910038Y-67741651D01*
X199930250Y-67734419D01*
X199951074Y-67729203D01*
X199972309Y-67726053D01*
X199993750Y-67725000D01*
X200431250Y-67725000D01*
X200452691Y-67726053D01*
G37*
G36*
X202027691Y-67726053D02*
G01*
X202048926Y-67729203D01*
X202069750Y-67734419D01*
X202089962Y-67741651D01*
X202109368Y-67750830D01*
X202127781Y-67761866D01*
X202145024Y-67774654D01*
X202160930Y-67789070D01*
X202175346Y-67804976D01*
X202188134Y-67822219D01*
X202199170Y-67840632D01*
X202208349Y-67860038D01*
X202215581Y-67880250D01*
X202220797Y-67901074D01*
X202223947Y-67922309D01*
X202225000Y-67943750D01*
X202225000Y-68456250D01*
X202223947Y-68477691D01*
X202220797Y-68498926D01*
X202215581Y-68519750D01*
X202208349Y-68539962D01*
X202199170Y-68559368D01*
X202188134Y-68577781D01*
X202175346Y-68595024D01*
X202160930Y-68610930D01*
X202145024Y-68625346D01*
X202127781Y-68638134D01*
X202109368Y-68649170D01*
X202089962Y-68658349D01*
X202069750Y-68665581D01*
X202048926Y-68670797D01*
X202027691Y-68673947D01*
X202006250Y-68675000D01*
X201568750Y-68675000D01*
X201547309Y-68673947D01*
X201526074Y-68670797D01*
X201505250Y-68665581D01*
X201485038Y-68658349D01*
X201465632Y-68649170D01*
X201447219Y-68638134D01*
X201429976Y-68625346D01*
X201414070Y-68610930D01*
X201399654Y-68595024D01*
X201386866Y-68577781D01*
X201375830Y-68559368D01*
X201366651Y-68539962D01*
X201359419Y-68519750D01*
X201354203Y-68498926D01*
X201351053Y-68477691D01*
X201350000Y-68456250D01*
X201350000Y-67943750D01*
X201351053Y-67922309D01*
X201354203Y-67901074D01*
X201359419Y-67880250D01*
X201366651Y-67860038D01*
X201375830Y-67840632D01*
X201386866Y-67822219D01*
X201399654Y-67804976D01*
X201414070Y-67789070D01*
X201429976Y-67774654D01*
X201447219Y-67761866D01*
X201465632Y-67750830D01*
X201485038Y-67741651D01*
X201505250Y-67734419D01*
X201526074Y-67729203D01*
X201547309Y-67726053D01*
X201568750Y-67725000D01*
X202006250Y-67725000D01*
X202027691Y-67726053D01*
G37*
G36*
X210232691Y-44446053D02*
G01*
X210253926Y-44449203D01*
X210274750Y-44454419D01*
X210294962Y-44461651D01*
X210314368Y-44470830D01*
X210332781Y-44481866D01*
X210350024Y-44494654D01*
X210365930Y-44509070D01*
X210380346Y-44524976D01*
X210393134Y-44542219D01*
X210404170Y-44560632D01*
X210413349Y-44580038D01*
X210420581Y-44600250D01*
X210425797Y-44621074D01*
X210428947Y-44642309D01*
X210430000Y-44663750D01*
X210430000Y-45176250D01*
X210428947Y-45197691D01*
X210425797Y-45218926D01*
X210420581Y-45239750D01*
X210413349Y-45259962D01*
X210404170Y-45279368D01*
X210393134Y-45297781D01*
X210380346Y-45315024D01*
X210365930Y-45330930D01*
X210350024Y-45345346D01*
X210332781Y-45358134D01*
X210314368Y-45369170D01*
X210294962Y-45378349D01*
X210274750Y-45385581D01*
X210253926Y-45390797D01*
X210232691Y-45393947D01*
X210211250Y-45395000D01*
X209773750Y-45395000D01*
X209752309Y-45393947D01*
X209731074Y-45390797D01*
X209710250Y-45385581D01*
X209690038Y-45378349D01*
X209670632Y-45369170D01*
X209652219Y-45358134D01*
X209634976Y-45345346D01*
X209619070Y-45330930D01*
X209604654Y-45315024D01*
X209591866Y-45297781D01*
X209580830Y-45279368D01*
X209571651Y-45259962D01*
X209564419Y-45239750D01*
X209559203Y-45218926D01*
X209556053Y-45197691D01*
X209555000Y-45176250D01*
X209555000Y-44663750D01*
X209556053Y-44642309D01*
X209559203Y-44621074D01*
X209564419Y-44600250D01*
X209571651Y-44580038D01*
X209580830Y-44560632D01*
X209591866Y-44542219D01*
X209604654Y-44524976D01*
X209619070Y-44509070D01*
X209634976Y-44494654D01*
X209652219Y-44481866D01*
X209670632Y-44470830D01*
X209690038Y-44461651D01*
X209710250Y-44454419D01*
X209731074Y-44449203D01*
X209752309Y-44446053D01*
X209773750Y-44445000D01*
X210211250Y-44445000D01*
X210232691Y-44446053D01*
G37*
G36*
X211807691Y-44446053D02*
G01*
X211828926Y-44449203D01*
X211849750Y-44454419D01*
X211869962Y-44461651D01*
X211889368Y-44470830D01*
X211907781Y-44481866D01*
X211925024Y-44494654D01*
X211940930Y-44509070D01*
X211955346Y-44524976D01*
X211968134Y-44542219D01*
X211979170Y-44560632D01*
X211988349Y-44580038D01*
X211995581Y-44600250D01*
X212000797Y-44621074D01*
X212003947Y-44642309D01*
X212005000Y-44663750D01*
X212005000Y-45176250D01*
X212003947Y-45197691D01*
X212000797Y-45218926D01*
X211995581Y-45239750D01*
X211988349Y-45259962D01*
X211979170Y-45279368D01*
X211968134Y-45297781D01*
X211955346Y-45315024D01*
X211940930Y-45330930D01*
X211925024Y-45345346D01*
X211907781Y-45358134D01*
X211889368Y-45369170D01*
X211869962Y-45378349D01*
X211849750Y-45385581D01*
X211828926Y-45390797D01*
X211807691Y-45393947D01*
X211786250Y-45395000D01*
X211348750Y-45395000D01*
X211327309Y-45393947D01*
X211306074Y-45390797D01*
X211285250Y-45385581D01*
X211265038Y-45378349D01*
X211245632Y-45369170D01*
X211227219Y-45358134D01*
X211209976Y-45345346D01*
X211194070Y-45330930D01*
X211179654Y-45315024D01*
X211166866Y-45297781D01*
X211155830Y-45279368D01*
X211146651Y-45259962D01*
X211139419Y-45239750D01*
X211134203Y-45218926D01*
X211131053Y-45197691D01*
X211130000Y-45176250D01*
X211130000Y-44663750D01*
X211131053Y-44642309D01*
X211134203Y-44621074D01*
X211139419Y-44600250D01*
X211146651Y-44580038D01*
X211155830Y-44560632D01*
X211166866Y-44542219D01*
X211179654Y-44524976D01*
X211194070Y-44509070D01*
X211209976Y-44494654D01*
X211227219Y-44481866D01*
X211245632Y-44470830D01*
X211265038Y-44461651D01*
X211285250Y-44454419D01*
X211306074Y-44449203D01*
X211327309Y-44446053D01*
X211348750Y-44445000D01*
X211786250Y-44445000D01*
X211807691Y-44446053D01*
G37*
G36*
X219892691Y-149676053D02*
G01*
X219913926Y-149679203D01*
X219934750Y-149684419D01*
X219954962Y-149691651D01*
X219974368Y-149700830D01*
X219992781Y-149711866D01*
X220010024Y-149724654D01*
X220025930Y-149739070D01*
X220040346Y-149754976D01*
X220053134Y-149772219D01*
X220064170Y-149790632D01*
X220073349Y-149810038D01*
X220080581Y-149830250D01*
X220085797Y-149851074D01*
X220088947Y-149872309D01*
X220090000Y-149893750D01*
X220090000Y-150406250D01*
X220088947Y-150427691D01*
X220085797Y-150448926D01*
X220080581Y-150469750D01*
X220073349Y-150489962D01*
X220064170Y-150509368D01*
X220053134Y-150527781D01*
X220040346Y-150545024D01*
X220025930Y-150560930D01*
X220010024Y-150575346D01*
X219992781Y-150588134D01*
X219974368Y-150599170D01*
X219954962Y-150608349D01*
X219934750Y-150615581D01*
X219913926Y-150620797D01*
X219892691Y-150623947D01*
X219871250Y-150625000D01*
X219433750Y-150625000D01*
X219412309Y-150623947D01*
X219391074Y-150620797D01*
X219370250Y-150615581D01*
X219350038Y-150608349D01*
X219330632Y-150599170D01*
X219312219Y-150588134D01*
X219294976Y-150575346D01*
X219279070Y-150560930D01*
X219264654Y-150545024D01*
X219251866Y-150527781D01*
X219240830Y-150509368D01*
X219231651Y-150489962D01*
X219224419Y-150469750D01*
X219219203Y-150448926D01*
X219216053Y-150427691D01*
X219215000Y-150406250D01*
X219215000Y-149893750D01*
X219216053Y-149872309D01*
X219219203Y-149851074D01*
X219224419Y-149830250D01*
X219231651Y-149810038D01*
X219240830Y-149790632D01*
X219251866Y-149772219D01*
X219264654Y-149754976D01*
X219279070Y-149739070D01*
X219294976Y-149724654D01*
X219312219Y-149711866D01*
X219330632Y-149700830D01*
X219350038Y-149691651D01*
X219370250Y-149684419D01*
X219391074Y-149679203D01*
X219412309Y-149676053D01*
X219433750Y-149675000D01*
X219871250Y-149675000D01*
X219892691Y-149676053D01*
G37*
G36*
X221467691Y-149676053D02*
G01*
X221488926Y-149679203D01*
X221509750Y-149684419D01*
X221529962Y-149691651D01*
X221549368Y-149700830D01*
X221567781Y-149711866D01*
X221585024Y-149724654D01*
X221600930Y-149739070D01*
X221615346Y-149754976D01*
X221628134Y-149772219D01*
X221639170Y-149790632D01*
X221648349Y-149810038D01*
X221655581Y-149830250D01*
X221660797Y-149851074D01*
X221663947Y-149872309D01*
X221665000Y-149893750D01*
X221665000Y-150406250D01*
X221663947Y-150427691D01*
X221660797Y-150448926D01*
X221655581Y-150469750D01*
X221648349Y-150489962D01*
X221639170Y-150509368D01*
X221628134Y-150527781D01*
X221615346Y-150545024D01*
X221600930Y-150560930D01*
X221585024Y-150575346D01*
X221567781Y-150588134D01*
X221549368Y-150599170D01*
X221529962Y-150608349D01*
X221509750Y-150615581D01*
X221488926Y-150620797D01*
X221467691Y-150623947D01*
X221446250Y-150625000D01*
X221008750Y-150625000D01*
X220987309Y-150623947D01*
X220966074Y-150620797D01*
X220945250Y-150615581D01*
X220925038Y-150608349D01*
X220905632Y-150599170D01*
X220887219Y-150588134D01*
X220869976Y-150575346D01*
X220854070Y-150560930D01*
X220839654Y-150545024D01*
X220826866Y-150527781D01*
X220815830Y-150509368D01*
X220806651Y-150489962D01*
X220799419Y-150469750D01*
X220794203Y-150448926D01*
X220791053Y-150427691D01*
X220790000Y-150406250D01*
X220790000Y-149893750D01*
X220791053Y-149872309D01*
X220794203Y-149851074D01*
X220799419Y-149830250D01*
X220806651Y-149810038D01*
X220815830Y-149790632D01*
X220826866Y-149772219D01*
X220839654Y-149754976D01*
X220854070Y-149739070D01*
X220869976Y-149724654D01*
X220887219Y-149711866D01*
X220905632Y-149700830D01*
X220925038Y-149691651D01*
X220945250Y-149684419D01*
X220966074Y-149679203D01*
X220987309Y-149676053D01*
X221008750Y-149675000D01*
X221446250Y-149675000D01*
X221467691Y-149676053D01*
G37*
G36*
X218793700Y-64706438D02*
G01*
X219055925Y-65355467D01*
X218406896Y-65617692D01*
X218144671Y-64968663D01*
X218793700Y-64706438D01*
G37*
G36*
X219205767Y-65726340D02*
G01*
X219467992Y-66375369D01*
X218818963Y-66637594D01*
X218556738Y-65988565D01*
X219205767Y-65726340D01*
G37*
G36*
X220490446Y-64020908D02*
G01*
X220752671Y-64669937D01*
X220103642Y-64932162D01*
X219841417Y-64283133D01*
X220490446Y-64020908D01*
G37*
G36*
X220902513Y-65040810D02*
G01*
X221164738Y-65689839D01*
X220515709Y-65952064D01*
X220253484Y-65303035D01*
X220902513Y-65040810D01*
G37*
G36*
X227941425Y-87960041D02*
G01*
X228192283Y-88613547D01*
X227538777Y-88864405D01*
X227287919Y-88210899D01*
X227941425Y-87960041D01*
G37*
G36*
X228335630Y-88986979D02*
G01*
X228586488Y-89640485D01*
X227932982Y-89891343D01*
X227682124Y-89237837D01*
X228335630Y-88986979D01*
G37*
G36*
X229649877Y-87304227D02*
G01*
X229900735Y-87957733D01*
X229247229Y-88208591D01*
X228996371Y-87555085D01*
X229649877Y-87304227D01*
G37*
G36*
X230044082Y-88331166D02*
G01*
X230294940Y-88984672D01*
X229641434Y-89235530D01*
X229390576Y-88582024D01*
X230044082Y-88331166D01*
G37*
G36*
X236912239Y-111775792D02*
G01*
X237478551Y-112187242D01*
X237067101Y-112753554D01*
X236500789Y-112342104D01*
X236912239Y-111775792D01*
G37*
G36*
X237802158Y-112422355D02*
G01*
X238368470Y-112833805D01*
X237957020Y-113400117D01*
X237390708Y-112988667D01*
X237802158Y-112422355D01*
G37*
G36*
X237987886Y-110295291D02*
G01*
X238554198Y-110706741D01*
X238142748Y-111273053D01*
X237576436Y-110861603D01*
X237987886Y-110295291D01*
G37*
G36*
X238877805Y-110941854D02*
G01*
X239444117Y-111353304D01*
X239032667Y-111919616D01*
X238466355Y-111508166D01*
X238877805Y-110941854D01*
G37*
G36*
X261924505Y-114267379D02*
G01*
X262621842Y-114328388D01*
X262560833Y-115025725D01*
X261863496Y-114964716D01*
X261924505Y-114267379D01*
G37*
G36*
X263020319Y-114363251D02*
G01*
X263717656Y-114424260D01*
X263656647Y-115121597D01*
X262959310Y-115060588D01*
X263020319Y-114363251D01*
G37*
G36*
X262084000Y-112444343D02*
G01*
X262781337Y-112505352D01*
X262720328Y-113202689D01*
X262022991Y-113141680D01*
X262084000Y-112444343D01*
G37*
G36*
X263179814Y-112540214D02*
G01*
X263877151Y-112601223D01*
X263816142Y-113298560D01*
X263118805Y-113237551D01*
X263179814Y-112540214D01*
G37*
G36*
X286863612Y-116237920D02*
G01*
X287561907Y-116286749D01*
X287513078Y-116985044D01*
X286814783Y-116936215D01*
X286863612Y-116237920D01*
G37*
G36*
X287960932Y-116314652D02*
G01*
X288659227Y-116363481D01*
X288610398Y-117061776D01*
X287912103Y-117012947D01*
X287960932Y-116314652D01*
G37*
G36*
X286991266Y-114412378D02*
G01*
X287689561Y-114461207D01*
X287640732Y-115159502D01*
X286942437Y-115110673D01*
X286991266Y-114412378D01*
G37*
G36*
X288088586Y-114489110D02*
G01*
X288786881Y-114537939D01*
X288738052Y-115236234D01*
X288039757Y-115187405D01*
X288088586Y-114489110D01*
G37*
G36*
X312085062Y-118492937D02*
G01*
X312757946Y-118299991D01*
X312950892Y-118972875D01*
X312278008Y-119165821D01*
X312085062Y-118492937D01*
G37*
G36*
X313142450Y-118189735D02*
G01*
X313815334Y-117996789D01*
X314008280Y-118669673D01*
X313335396Y-118862619D01*
X313142450Y-118189735D01*
G37*
G36*
X311580646Y-116733828D02*
G01*
X312253530Y-116540882D01*
X312446476Y-117213766D01*
X311773592Y-117406712D01*
X311580646Y-116733828D01*
G37*
G36*
X312638034Y-116430627D02*
G01*
X313310918Y-116237681D01*
X313503864Y-116910565D01*
X312830980Y-117103511D01*
X312638034Y-116430627D01*
G37*
G36*
X294123154Y-132278815D02*
G01*
X293586923Y-132728766D01*
X293136972Y-132192535D01*
X293673203Y-131742584D01*
X294123154Y-132278815D01*
G37*
G36*
X293280505Y-132985881D02*
G01*
X292744274Y-133435832D01*
X292294323Y-132899601D01*
X292830554Y-132449650D01*
X293280505Y-132985881D01*
G37*
G36*
X295299455Y-133680676D02*
G01*
X294763224Y-134130627D01*
X294313273Y-133594396D01*
X294849504Y-133144445D01*
X295299455Y-133680676D01*
G37*
G36*
X294456806Y-134387743D02*
G01*
X293920575Y-134837694D01*
X293470624Y-134301463D01*
X294006855Y-133851512D01*
X294456806Y-134387743D01*
G37*
G36*
X274883154Y-148228815D02*
G01*
X274346923Y-148678766D01*
X273896972Y-148142535D01*
X274433203Y-147692584D01*
X274883154Y-148228815D01*
G37*
G36*
X274040505Y-148935881D02*
G01*
X273504274Y-149385832D01*
X273054323Y-148849601D01*
X273590554Y-148399650D01*
X274040505Y-148935881D01*
G37*
G36*
X276059455Y-149630676D02*
G01*
X275523224Y-150080627D01*
X275073273Y-149544396D01*
X275609504Y-149094445D01*
X276059455Y-149630676D01*
G37*
G36*
X275216806Y-150337743D02*
G01*
X274680575Y-150787694D01*
X274230624Y-150251463D01*
X274766855Y-149801512D01*
X275216806Y-150337743D01*
G37*
G36*
X254983341Y-164111004D02*
G01*
X254767029Y-164776744D01*
X254101289Y-164560432D01*
X254317601Y-163894692D01*
X254983341Y-164111004D01*
G37*
G36*
X254643423Y-165157166D02*
G01*
X254427111Y-165822906D01*
X253761371Y-165606594D01*
X253977683Y-164940854D01*
X254643423Y-165157166D01*
G37*
G36*
X256723775Y-164676505D02*
G01*
X256507463Y-165342245D01*
X255841723Y-165125933D01*
X256058035Y-164460193D01*
X256723775Y-164676505D01*
G37*
G36*
X256383856Y-165722667D02*
G01*
X256167544Y-166388407D01*
X255501804Y-166172095D01*
X255718116Y-165506355D01*
X256383856Y-165722667D01*
G37*
G36*
X260320169Y-188681981D02*
G01*
X260477634Y-189364040D01*
X259795575Y-189521505D01*
X259638110Y-188839446D01*
X260320169Y-188681981D01*
G37*
G36*
X260567615Y-189753788D02*
G01*
X260725080Y-190435847D01*
X260043021Y-190593312D01*
X259885556Y-189911253D01*
X260567615Y-189753788D01*
G37*
G36*
X262103267Y-188270320D02*
G01*
X262260732Y-188952379D01*
X261578673Y-189109844D01*
X261421208Y-188427785D01*
X262103267Y-188270320D01*
G37*
G36*
X262350713Y-189342128D02*
G01*
X262508178Y-190024187D01*
X261826119Y-190181652D01*
X261668654Y-189499593D01*
X262350713Y-189342128D01*
G37*
G36*
X266102176Y-213003987D02*
G01*
X266247714Y-213688691D01*
X265563010Y-213834229D01*
X265417472Y-213149525D01*
X266102176Y-213003987D01*
G37*
G36*
X266330879Y-214079950D02*
G01*
X266476417Y-214764654D01*
X265791713Y-214910192D01*
X265646175Y-214225488D01*
X266330879Y-214079950D01*
G37*
G36*
X267892186Y-212623509D02*
G01*
X268037724Y-213308213D01*
X267353020Y-213453751D01*
X267207482Y-212769047D01*
X267892186Y-212623509D01*
G37*
G36*
X268120889Y-213699471D02*
G01*
X268266427Y-214384175D01*
X267581723Y-214529713D01*
X267436185Y-213845009D01*
X268120889Y-213699471D01*
G37*
G36*
X271721765Y-237679564D02*
G01*
X272133215Y-238245876D01*
X271566903Y-238657326D01*
X271155453Y-238091014D01*
X271721765Y-237679564D01*
G37*
G36*
X272368329Y-238569483D02*
G01*
X272779779Y-239135795D01*
X272213467Y-239547245D01*
X271802017Y-238980933D01*
X272368329Y-238569483D01*
G37*
G36*
X273202266Y-236603917D02*
G01*
X273613716Y-237170229D01*
X273047404Y-237581679D01*
X272635954Y-237015367D01*
X273202266Y-236603917D01*
G37*
G36*
X273848830Y-237493836D02*
G01*
X274260280Y-238060148D01*
X273693968Y-238471598D01*
X273282518Y-237905286D01*
X273848830Y-237493836D01*
G37*
G36*
X253106388Y-225000993D02*
G01*
X252526061Y-224609558D01*
X252917496Y-224029231D01*
X253497823Y-224420666D01*
X253106388Y-225000993D01*
G37*
G36*
X252194446Y-224385881D02*
G01*
X251614119Y-223994446D01*
X252005554Y-223414119D01*
X252585881Y-223805554D01*
X252194446Y-224385881D01*
G37*
G36*
X252083065Y-226518132D02*
G01*
X251502738Y-226126697D01*
X251894173Y-225546370D01*
X252474500Y-225937805D01*
X252083065Y-226518132D01*
G37*
G36*
X251171123Y-225903020D02*
G01*
X250590796Y-225511585D01*
X250982231Y-224931258D01*
X251562558Y-225322693D01*
X251171123Y-225903020D01*
G37*
G36*
X232038153Y-211553733D02*
G01*
X231457826Y-211162298D01*
X231849261Y-210581971D01*
X232429588Y-210973406D01*
X232038153Y-211553733D01*
G37*
G36*
X231126211Y-210938621D02*
G01*
X230545884Y-210547186D01*
X230937319Y-209966859D01*
X231517646Y-210358294D01*
X231126211Y-210938621D01*
G37*
G36*
X231014830Y-213070872D02*
G01*
X230434503Y-212679437D01*
X230825938Y-212099110D01*
X231406265Y-212490545D01*
X231014830Y-213070872D01*
G37*
G36*
X230102888Y-212455760D02*
G01*
X229522561Y-212064325D01*
X229913996Y-211483998D01*
X230494323Y-211875433D01*
X230102888Y-212455760D01*
G37*
D11*
X210470000Y-197125000D03*
X209370000Y-197125000D03*
X210470000Y-198955000D03*
X209370000Y-198955000D03*
D10*
G36*
X189107752Y-210171129D02*
G01*
X188507735Y-210531656D01*
X188147208Y-209931639D01*
X188747225Y-209571112D01*
X189107752Y-210171129D01*
G37*
G36*
X188164868Y-210737671D02*
G01*
X187564851Y-211098198D01*
X187204324Y-210498181D01*
X187804341Y-210137654D01*
X188164868Y-210737671D01*
G37*
G36*
X190050272Y-211739745D02*
G01*
X189450255Y-212100272D01*
X189089728Y-211500255D01*
X189689745Y-211139728D01*
X190050272Y-211739745D01*
G37*
G36*
X189107388Y-212306287D02*
G01*
X188507371Y-212666814D01*
X188146844Y-212066797D01*
X188746861Y-211706270D01*
X189107388Y-212306287D01*
G37*
G36*
X167792880Y-223250992D02*
G01*
X167199246Y-223621936D01*
X166828302Y-223028302D01*
X167421936Y-222657358D01*
X167792880Y-223250992D01*
G37*
G36*
X166860027Y-223833903D02*
G01*
X166266393Y-224204847D01*
X165895449Y-223611213D01*
X166489083Y-223240269D01*
X166860027Y-223833903D01*
G37*
G36*
X168762632Y-224802920D02*
G01*
X168168998Y-225173864D01*
X167798054Y-224580230D01*
X168391688Y-224209286D01*
X168762632Y-224802920D01*
G37*
G36*
X167829779Y-225385831D02*
G01*
X167236145Y-225756775D01*
X166865201Y-225163141D01*
X167458835Y-224792197D01*
X167829779Y-225385831D01*
G37*
G36*
X146050257Y-236236363D02*
G01*
X145600306Y-236772594D01*
X145064075Y-236322643D01*
X145514026Y-235786412D01*
X146050257Y-236236363D01*
G37*
G36*
X145343191Y-237079012D02*
G01*
X144893240Y-237615243D01*
X144357009Y-237165292D01*
X144806960Y-236629061D01*
X145343191Y-237079012D01*
G37*
G36*
X147452118Y-237412664D02*
G01*
X147002167Y-237948895D01*
X146465936Y-237498944D01*
X146915887Y-236962713D01*
X147452118Y-237412664D01*
G37*
G36*
X146745052Y-238255313D02*
G01*
X146295101Y-238791544D01*
X145758870Y-238341593D01*
X146208821Y-237805362D01*
X146745052Y-238255313D01*
G37*
G36*
X152426638Y-214570006D02*
G01*
X152607812Y-213893858D01*
X153283960Y-214075032D01*
X153102786Y-214751180D01*
X152426638Y-214570006D01*
G37*
G36*
X152711339Y-213507487D02*
G01*
X152892513Y-212831339D01*
X153568661Y-213012513D01*
X153387487Y-213688661D01*
X152711339Y-213507487D01*
G37*
G36*
X150658994Y-214096367D02*
G01*
X150840168Y-213420219D01*
X151516316Y-213601393D01*
X151335142Y-214277541D01*
X150658994Y-214096367D01*
G37*
G36*
X150943695Y-213033848D02*
G01*
X151124869Y-212357700D01*
X151801017Y-212538874D01*
X151619843Y-213215022D01*
X150943695Y-213033848D01*
G37*
G36*
X158684148Y-190354341D02*
G01*
X158865322Y-189678193D01*
X159541470Y-189859367D01*
X159360296Y-190535515D01*
X158684148Y-190354341D01*
G37*
G36*
X158968849Y-189291822D02*
G01*
X159150023Y-188615674D01*
X159826171Y-188796848D01*
X159644997Y-189472996D01*
X158968849Y-189291822D01*
G37*
G36*
X156916504Y-189880702D02*
G01*
X157097678Y-189204554D01*
X157773826Y-189385728D01*
X157592652Y-190061876D01*
X156916504Y-189880702D01*
G37*
G36*
X157201205Y-188818183D02*
G01*
X157382379Y-188142035D01*
X158058527Y-188323209D01*
X157877353Y-188999357D01*
X157201205Y-188818183D01*
G37*
G36*
X165402607Y-165790381D02*
G01*
X165186295Y-165124641D01*
X165852035Y-164908329D01*
X166068347Y-165574069D01*
X165402607Y-165790381D01*
G37*
G36*
X165062689Y-164744219D02*
G01*
X164846377Y-164078479D01*
X165512117Y-163862167D01*
X165728429Y-164527907D01*
X165062689Y-164744219D01*
G37*
G36*
X163662174Y-166355882D02*
G01*
X163445862Y-165690142D01*
X164111602Y-165473830D01*
X164327914Y-166139570D01*
X163662174Y-166355882D01*
G37*
G36*
X163322255Y-165309720D02*
G01*
X163105943Y-164643980D01*
X163771683Y-164427668D01*
X163987995Y-165093408D01*
X163322255Y-165309720D01*
G37*
G36*
X146633140Y-149053091D02*
G01*
X146096909Y-148603140D01*
X146546860Y-148066909D01*
X147083091Y-148516860D01*
X146633140Y-149053091D01*
G37*
G36*
X145790491Y-148346025D02*
G01*
X145254260Y-147896074D01*
X145704211Y-147359843D01*
X146240442Y-147809794D01*
X145790491Y-148346025D01*
G37*
G36*
X145456839Y-150454952D02*
G01*
X144920608Y-150005001D01*
X145370559Y-149468770D01*
X145906790Y-149918721D01*
X145456839Y-150454952D01*
G37*
G36*
X144614190Y-149747886D02*
G01*
X144077959Y-149297935D01*
X144527910Y-148761704D01*
X145064141Y-149211655D01*
X144614190Y-149747886D01*
G37*
G36*
X127633637Y-132830257D02*
G01*
X127097406Y-132380306D01*
X127547357Y-131844075D01*
X128083588Y-132294026D01*
X127633637Y-132830257D01*
G37*
G36*
X126790988Y-132123191D02*
G01*
X126254757Y-131673240D01*
X126704708Y-131137009D01*
X127240939Y-131586960D01*
X126790988Y-132123191D01*
G37*
G36*
X126457336Y-134232118D02*
G01*
X125921105Y-133782167D01*
X126371056Y-133245936D01*
X126907287Y-133695887D01*
X126457336Y-134232118D01*
G37*
G36*
X125614687Y-133525052D02*
G01*
X125078456Y-133075101D01*
X125528407Y-132538870D01*
X126064638Y-132988821D01*
X125614687Y-133525052D01*
G37*
G36*
X108577487Y-116108661D02*
G01*
X107901339Y-115927487D01*
X108082513Y-115251339D01*
X108758661Y-115432513D01*
X108577487Y-116108661D01*
G37*
G36*
X107514968Y-115823960D02*
G01*
X106838820Y-115642786D01*
X107019994Y-114966638D01*
X107696142Y-115147812D01*
X107514968Y-115823960D01*
G37*
G36*
X108103848Y-117876305D02*
G01*
X107427700Y-117695131D01*
X107608874Y-117018983D01*
X108285022Y-117200157D01*
X108103848Y-117876305D01*
G37*
G36*
X107041329Y-117591604D02*
G01*
X106365181Y-117410430D01*
X106546355Y-116734282D01*
X107222503Y-116915456D01*
X107041329Y-117591604D01*
G37*
G36*
X131687002Y-115557484D02*
G01*
X132386043Y-115520849D01*
X132422678Y-116219890D01*
X131723637Y-116256525D01*
X131687002Y-115557484D01*
G37*
G36*
X132785495Y-115499915D02*
G01*
X133484536Y-115463280D01*
X133521171Y-116162321D01*
X132822130Y-116198956D01*
X132785495Y-115499915D01*
G37*
G36*
X131591227Y-113729992D02*
G01*
X132290268Y-113693357D01*
X132326903Y-114392398D01*
X131627862Y-114429033D01*
X131591227Y-113729992D01*
G37*
G36*
X132689720Y-113672423D02*
G01*
X133388761Y-113635788D01*
X133425396Y-114334829D01*
X132726355Y-114371464D01*
X132689720Y-113672423D01*
G37*
G36*
X156647002Y-114017484D02*
G01*
X157346043Y-113980849D01*
X157382678Y-114679890D01*
X156683637Y-114716525D01*
X156647002Y-114017484D01*
G37*
G36*
X157745495Y-113959915D02*
G01*
X158444536Y-113923280D01*
X158481171Y-114622321D01*
X157782130Y-114658956D01*
X157745495Y-113959915D01*
G37*
G36*
X156551227Y-112189992D02*
G01*
X157250268Y-112153357D01*
X157286903Y-112852398D01*
X156587862Y-112889033D01*
X156551227Y-112189992D01*
G37*
G36*
X157649720Y-112132423D02*
G01*
X158348761Y-112095788D01*
X158385396Y-112794829D01*
X157686355Y-112831464D01*
X157649720Y-112132423D01*
G37*
G36*
X181541478Y-112824983D02*
G01*
X182114884Y-112423479D01*
X182516388Y-112996885D01*
X181942982Y-113398389D01*
X181541478Y-112824983D01*
G37*
G36*
X182442545Y-112194049D02*
G01*
X183015951Y-111792545D01*
X183417455Y-112365951D01*
X182844049Y-112767455D01*
X182442545Y-112194049D01*
G37*
G36*
X180491833Y-111325935D02*
G01*
X181065239Y-110924431D01*
X181466743Y-111497837D01*
X180893337Y-111899341D01*
X180491833Y-111325935D01*
G37*
G36*
X181392900Y-110695001D02*
G01*
X181966306Y-110293497D01*
X182367810Y-110866903D01*
X181794404Y-111268407D01*
X181392900Y-110695001D01*
G37*
G36*
X191691262Y-89807976D02*
G01*
X191964774Y-89163622D01*
X192609128Y-89437134D01*
X192335616Y-90081488D01*
X191691262Y-89807976D01*
G37*
G36*
X192121067Y-88795421D02*
G01*
X192394579Y-88151067D01*
X193038933Y-88424579D01*
X192765421Y-89068933D01*
X192121067Y-88795421D01*
G37*
G36*
X190006738Y-89092938D02*
G01*
X190280250Y-88448584D01*
X190924604Y-88722096D01*
X190651092Y-89366450D01*
X190006738Y-89092938D01*
G37*
G36*
X190436543Y-88080383D02*
G01*
X190710055Y-87436029D01*
X191354409Y-87709541D01*
X191080897Y-88353895D01*
X190436543Y-88080383D01*
G37*
G36*
X201251713Y-66708517D02*
G01*
X201525225Y-66064163D01*
X202169579Y-66337675D01*
X201896067Y-66982029D01*
X201251713Y-66708517D01*
G37*
G36*
X201681518Y-65695962D02*
G01*
X201955030Y-65051608D01*
X202599384Y-65325120D01*
X202325872Y-65969474D01*
X201681518Y-65695962D01*
G37*
G36*
X199567189Y-65993479D02*
G01*
X199840701Y-65349125D01*
X200485055Y-65622637D01*
X200211543Y-66266991D01*
X199567189Y-65993479D01*
G37*
G36*
X199996994Y-64980924D02*
G01*
X200270506Y-64336570D01*
X200914860Y-64610082D01*
X200641348Y-65254436D01*
X199996994Y-64980924D01*
G37*
D11*
X211575000Y-43100000D03*
X211575000Y-42000000D03*
X209745000Y-43100000D03*
X209745000Y-42000000D03*
D12*
X202940000Y-146650000D03*
X202940000Y-154150000D03*
X216940000Y-146650000D03*
X216940000Y-154150000D03*
D10*
G36*
X215027691Y-47101053D02*
G01*
X215048926Y-47104203D01*
X215069750Y-47109419D01*
X215089962Y-47116651D01*
X215109368Y-47125830D01*
X215127781Y-47136866D01*
X215145024Y-47149654D01*
X215160930Y-47164070D01*
X215175346Y-47179976D01*
X215188134Y-47197219D01*
X215199170Y-47215632D01*
X215208349Y-47235038D01*
X215215581Y-47255250D01*
X215220797Y-47276074D01*
X215223947Y-47297309D01*
X215225000Y-47318750D01*
X215225000Y-47756250D01*
X215223947Y-47777691D01*
X215220797Y-47798926D01*
X215215581Y-47819750D01*
X215208349Y-47839962D01*
X215199170Y-47859368D01*
X215188134Y-47877781D01*
X215175346Y-47895024D01*
X215160930Y-47910930D01*
X215145024Y-47925346D01*
X215127781Y-47938134D01*
X215109368Y-47949170D01*
X215089962Y-47958349D01*
X215069750Y-47965581D01*
X215048926Y-47970797D01*
X215027691Y-47973947D01*
X215006250Y-47975000D01*
X214493750Y-47975000D01*
X214472309Y-47973947D01*
X214451074Y-47970797D01*
X214430250Y-47965581D01*
X214410038Y-47958349D01*
X214390632Y-47949170D01*
X214372219Y-47938134D01*
X214354976Y-47925346D01*
X214339070Y-47910930D01*
X214324654Y-47895024D01*
X214311866Y-47877781D01*
X214300830Y-47859368D01*
X214291651Y-47839962D01*
X214284419Y-47819750D01*
X214279203Y-47798926D01*
X214276053Y-47777691D01*
X214275000Y-47756250D01*
X214275000Y-47318750D01*
X214276053Y-47297309D01*
X214279203Y-47276074D01*
X214284419Y-47255250D01*
X214291651Y-47235038D01*
X214300830Y-47215632D01*
X214311866Y-47197219D01*
X214324654Y-47179976D01*
X214339070Y-47164070D01*
X214354976Y-47149654D01*
X214372219Y-47136866D01*
X214390632Y-47125830D01*
X214410038Y-47116651D01*
X214430250Y-47109419D01*
X214451074Y-47104203D01*
X214472309Y-47101053D01*
X214493750Y-47100000D01*
X215006250Y-47100000D01*
X215027691Y-47101053D01*
G37*
G36*
X215027691Y-45526053D02*
G01*
X215048926Y-45529203D01*
X215069750Y-45534419D01*
X215089962Y-45541651D01*
X215109368Y-45550830D01*
X215127781Y-45561866D01*
X215145024Y-45574654D01*
X215160930Y-45589070D01*
X215175346Y-45604976D01*
X215188134Y-45622219D01*
X215199170Y-45640632D01*
X215208349Y-45660038D01*
X215215581Y-45680250D01*
X215220797Y-45701074D01*
X215223947Y-45722309D01*
X215225000Y-45743750D01*
X215225000Y-46181250D01*
X215223947Y-46202691D01*
X215220797Y-46223926D01*
X215215581Y-46244750D01*
X215208349Y-46264962D01*
X215199170Y-46284368D01*
X215188134Y-46302781D01*
X215175346Y-46320024D01*
X215160930Y-46335930D01*
X215145024Y-46350346D01*
X215127781Y-46363134D01*
X215109368Y-46374170D01*
X215089962Y-46383349D01*
X215069750Y-46390581D01*
X215048926Y-46395797D01*
X215027691Y-46398947D01*
X215006250Y-46400000D01*
X214493750Y-46400000D01*
X214472309Y-46398947D01*
X214451074Y-46395797D01*
X214430250Y-46390581D01*
X214410038Y-46383349D01*
X214390632Y-46374170D01*
X214372219Y-46363134D01*
X214354976Y-46350346D01*
X214339070Y-46335930D01*
X214324654Y-46320024D01*
X214311866Y-46302781D01*
X214300830Y-46284368D01*
X214291651Y-46264962D01*
X214284419Y-46244750D01*
X214279203Y-46223926D01*
X214276053Y-46202691D01*
X214275000Y-46181250D01*
X214275000Y-45743750D01*
X214276053Y-45722309D01*
X214279203Y-45701074D01*
X214284419Y-45680250D01*
X214291651Y-45660038D01*
X214300830Y-45640632D01*
X214311866Y-45622219D01*
X214324654Y-45604976D01*
X214339070Y-45589070D01*
X214354976Y-45574654D01*
X214372219Y-45561866D01*
X214390632Y-45550830D01*
X214410038Y-45541651D01*
X214430250Y-45534419D01*
X214451074Y-45529203D01*
X214472309Y-45526053D01*
X214493750Y-45525000D01*
X215006250Y-45525000D01*
X215027691Y-45526053D01*
G37*
G36*
X219892691Y-151526053D02*
G01*
X219913926Y-151529203D01*
X219934750Y-151534419D01*
X219954962Y-151541651D01*
X219974368Y-151550830D01*
X219992781Y-151561866D01*
X220010024Y-151574654D01*
X220025930Y-151589070D01*
X220040346Y-151604976D01*
X220053134Y-151622219D01*
X220064170Y-151640632D01*
X220073349Y-151660038D01*
X220080581Y-151680250D01*
X220085797Y-151701074D01*
X220088947Y-151722309D01*
X220090000Y-151743750D01*
X220090000Y-152256250D01*
X220088947Y-152277691D01*
X220085797Y-152298926D01*
X220080581Y-152319750D01*
X220073349Y-152339962D01*
X220064170Y-152359368D01*
X220053134Y-152377781D01*
X220040346Y-152395024D01*
X220025930Y-152410930D01*
X220010024Y-152425346D01*
X219992781Y-152438134D01*
X219974368Y-152449170D01*
X219954962Y-152458349D01*
X219934750Y-152465581D01*
X219913926Y-152470797D01*
X219892691Y-152473947D01*
X219871250Y-152475000D01*
X219433750Y-152475000D01*
X219412309Y-152473947D01*
X219391074Y-152470797D01*
X219370250Y-152465581D01*
X219350038Y-152458349D01*
X219330632Y-152449170D01*
X219312219Y-152438134D01*
X219294976Y-152425346D01*
X219279070Y-152410930D01*
X219264654Y-152395024D01*
X219251866Y-152377781D01*
X219240830Y-152359368D01*
X219231651Y-152339962D01*
X219224419Y-152319750D01*
X219219203Y-152298926D01*
X219216053Y-152277691D01*
X219215000Y-152256250D01*
X219215000Y-151743750D01*
X219216053Y-151722309D01*
X219219203Y-151701074D01*
X219224419Y-151680250D01*
X219231651Y-151660038D01*
X219240830Y-151640632D01*
X219251866Y-151622219D01*
X219264654Y-151604976D01*
X219279070Y-151589070D01*
X219294976Y-151574654D01*
X219312219Y-151561866D01*
X219330632Y-151550830D01*
X219350038Y-151541651D01*
X219370250Y-151534419D01*
X219391074Y-151529203D01*
X219412309Y-151526053D01*
X219433750Y-151525000D01*
X219871250Y-151525000D01*
X219892691Y-151526053D01*
G37*
G36*
X221467691Y-151526053D02*
G01*
X221488926Y-151529203D01*
X221509750Y-151534419D01*
X221529962Y-151541651D01*
X221549368Y-151550830D01*
X221567781Y-151561866D01*
X221585024Y-151574654D01*
X221600930Y-151589070D01*
X221615346Y-151604976D01*
X221628134Y-151622219D01*
X221639170Y-151640632D01*
X221648349Y-151660038D01*
X221655581Y-151680250D01*
X221660797Y-151701074D01*
X221663947Y-151722309D01*
X221665000Y-151743750D01*
X221665000Y-152256250D01*
X221663947Y-152277691D01*
X221660797Y-152298926D01*
X221655581Y-152319750D01*
X221648349Y-152339962D01*
X221639170Y-152359368D01*
X221628134Y-152377781D01*
X221615346Y-152395024D01*
X221600930Y-152410930D01*
X221585024Y-152425346D01*
X221567781Y-152438134D01*
X221549368Y-152449170D01*
X221529962Y-152458349D01*
X221509750Y-152465581D01*
X221488926Y-152470797D01*
X221467691Y-152473947D01*
X221446250Y-152475000D01*
X221008750Y-152475000D01*
X220987309Y-152473947D01*
X220966074Y-152470797D01*
X220945250Y-152465581D01*
X220925038Y-152458349D01*
X220905632Y-152449170D01*
X220887219Y-152438134D01*
X220869976Y-152425346D01*
X220854070Y-152410930D01*
X220839654Y-152395024D01*
X220826866Y-152377781D01*
X220815830Y-152359368D01*
X220806651Y-152339962D01*
X220799419Y-152319750D01*
X220794203Y-152298926D01*
X220791053Y-152277691D01*
X220790000Y-152256250D01*
X220790000Y-151743750D01*
X220791053Y-151722309D01*
X220794203Y-151701074D01*
X220799419Y-151680250D01*
X220806651Y-151660038D01*
X220815830Y-151640632D01*
X220826866Y-151622219D01*
X220839654Y-151604976D01*
X220854070Y-151589070D01*
X220869976Y-151574654D01*
X220887219Y-151561866D01*
X220905632Y-151550830D01*
X220925038Y-151541651D01*
X220945250Y-151534419D01*
X220966074Y-151529203D01*
X220987309Y-151526053D01*
X221008750Y-151525000D01*
X221446250Y-151525000D01*
X221467691Y-151526053D01*
G37*
G36*
X208467691Y-142926053D02*
G01*
X208488926Y-142929203D01*
X208509750Y-142934419D01*
X208529962Y-142941651D01*
X208549368Y-142950830D01*
X208567781Y-142961866D01*
X208585024Y-142974654D01*
X208600930Y-142989070D01*
X208615346Y-143004976D01*
X208628134Y-143022219D01*
X208639170Y-143040632D01*
X208648349Y-143060038D01*
X208655581Y-143080250D01*
X208660797Y-143101074D01*
X208663947Y-143122309D01*
X208665000Y-143143750D01*
X208665000Y-143656250D01*
X208663947Y-143677691D01*
X208660797Y-143698926D01*
X208655581Y-143719750D01*
X208648349Y-143739962D01*
X208639170Y-143759368D01*
X208628134Y-143777781D01*
X208615346Y-143795024D01*
X208600930Y-143810930D01*
X208585024Y-143825346D01*
X208567781Y-143838134D01*
X208549368Y-143849170D01*
X208529962Y-143858349D01*
X208509750Y-143865581D01*
X208488926Y-143870797D01*
X208467691Y-143873947D01*
X208446250Y-143875000D01*
X208008750Y-143875000D01*
X207987309Y-143873947D01*
X207966074Y-143870797D01*
X207945250Y-143865581D01*
X207925038Y-143858349D01*
X207905632Y-143849170D01*
X207887219Y-143838134D01*
X207869976Y-143825346D01*
X207854070Y-143810930D01*
X207839654Y-143795024D01*
X207826866Y-143777781D01*
X207815830Y-143759368D01*
X207806651Y-143739962D01*
X207799419Y-143719750D01*
X207794203Y-143698926D01*
X207791053Y-143677691D01*
X207790000Y-143656250D01*
X207790000Y-143143750D01*
X207791053Y-143122309D01*
X207794203Y-143101074D01*
X207799419Y-143080250D01*
X207806651Y-143060038D01*
X207815830Y-143040632D01*
X207826866Y-143022219D01*
X207839654Y-143004976D01*
X207854070Y-142989070D01*
X207869976Y-142974654D01*
X207887219Y-142961866D01*
X207905632Y-142950830D01*
X207925038Y-142941651D01*
X207945250Y-142934419D01*
X207966074Y-142929203D01*
X207987309Y-142926053D01*
X208008750Y-142925000D01*
X208446250Y-142925000D01*
X208467691Y-142926053D01*
G37*
G36*
X206892691Y-142926053D02*
G01*
X206913926Y-142929203D01*
X206934750Y-142934419D01*
X206954962Y-142941651D01*
X206974368Y-142950830D01*
X206992781Y-142961866D01*
X207010024Y-142974654D01*
X207025930Y-142989070D01*
X207040346Y-143004976D01*
X207053134Y-143022219D01*
X207064170Y-143040632D01*
X207073349Y-143060038D01*
X207080581Y-143080250D01*
X207085797Y-143101074D01*
X207088947Y-143122309D01*
X207090000Y-143143750D01*
X207090000Y-143656250D01*
X207088947Y-143677691D01*
X207085797Y-143698926D01*
X207080581Y-143719750D01*
X207073349Y-143739962D01*
X207064170Y-143759368D01*
X207053134Y-143777781D01*
X207040346Y-143795024D01*
X207025930Y-143810930D01*
X207010024Y-143825346D01*
X206992781Y-143838134D01*
X206974368Y-143849170D01*
X206954962Y-143858349D01*
X206934750Y-143865581D01*
X206913926Y-143870797D01*
X206892691Y-143873947D01*
X206871250Y-143875000D01*
X206433750Y-143875000D01*
X206412309Y-143873947D01*
X206391074Y-143870797D01*
X206370250Y-143865581D01*
X206350038Y-143858349D01*
X206330632Y-143849170D01*
X206312219Y-143838134D01*
X206294976Y-143825346D01*
X206279070Y-143810930D01*
X206264654Y-143795024D01*
X206251866Y-143777781D01*
X206240830Y-143759368D01*
X206231651Y-143739962D01*
X206224419Y-143719750D01*
X206219203Y-143698926D01*
X206216053Y-143677691D01*
X206215000Y-143656250D01*
X206215000Y-143143750D01*
X206216053Y-143122309D01*
X206219203Y-143101074D01*
X206224419Y-143080250D01*
X206231651Y-143060038D01*
X206240830Y-143040632D01*
X206251866Y-143022219D01*
X206264654Y-143004976D01*
X206279070Y-142989070D01*
X206294976Y-142974654D01*
X206312219Y-142961866D01*
X206330632Y-142950830D01*
X206350038Y-142941651D01*
X206370250Y-142934419D01*
X206391074Y-142929203D01*
X206412309Y-142926053D01*
X206433750Y-142925000D01*
X206871250Y-142925000D01*
X206892691Y-142926053D01*
G37*
G36*
X209170142Y-135226174D02*
G01*
X209193803Y-135229684D01*
X209217007Y-135235496D01*
X209239529Y-135243554D01*
X209261153Y-135253782D01*
X209281670Y-135266079D01*
X209300883Y-135280329D01*
X209318607Y-135296393D01*
X209334671Y-135314117D01*
X209348921Y-135333330D01*
X209361218Y-135353847D01*
X209371446Y-135375471D01*
X209379504Y-135397993D01*
X209385316Y-135421197D01*
X209388826Y-135444858D01*
X209390000Y-135468750D01*
X209390000Y-135956250D01*
X209388826Y-135980142D01*
X209385316Y-136003803D01*
X209379504Y-136027007D01*
X209371446Y-136049529D01*
X209361218Y-136071153D01*
X209348921Y-136091670D01*
X209334671Y-136110883D01*
X209318607Y-136128607D01*
X209300883Y-136144671D01*
X209281670Y-136158921D01*
X209261153Y-136171218D01*
X209239529Y-136181446D01*
X209217007Y-136189504D01*
X209193803Y-136195316D01*
X209170142Y-136198826D01*
X209146250Y-136200000D01*
X208233750Y-136200000D01*
X208209858Y-136198826D01*
X208186197Y-136195316D01*
X208162993Y-136189504D01*
X208140471Y-136181446D01*
X208118847Y-136171218D01*
X208098330Y-136158921D01*
X208079117Y-136144671D01*
X208061393Y-136128607D01*
X208045329Y-136110883D01*
X208031079Y-136091670D01*
X208018782Y-136071153D01*
X208008554Y-136049529D01*
X208000496Y-136027007D01*
X207994684Y-136003803D01*
X207991174Y-135980142D01*
X207990000Y-135956250D01*
X207990000Y-135468750D01*
X207991174Y-135444858D01*
X207994684Y-135421197D01*
X208000496Y-135397993D01*
X208008554Y-135375471D01*
X208018782Y-135353847D01*
X208031079Y-135333330D01*
X208045329Y-135314117D01*
X208061393Y-135296393D01*
X208079117Y-135280329D01*
X208098330Y-135266079D01*
X208118847Y-135253782D01*
X208140471Y-135243554D01*
X208162993Y-135235496D01*
X208186197Y-135229684D01*
X208209858Y-135226174D01*
X208233750Y-135225000D01*
X209146250Y-135225000D01*
X209170142Y-135226174D01*
G37*
G36*
X209170142Y-137101174D02*
G01*
X209193803Y-137104684D01*
X209217007Y-137110496D01*
X209239529Y-137118554D01*
X209261153Y-137128782D01*
X209281670Y-137141079D01*
X209300883Y-137155329D01*
X209318607Y-137171393D01*
X209334671Y-137189117D01*
X209348921Y-137208330D01*
X209361218Y-137228847D01*
X209371446Y-137250471D01*
X209379504Y-137272993D01*
X209385316Y-137296197D01*
X209388826Y-137319858D01*
X209390000Y-137343750D01*
X209390000Y-137831250D01*
X209388826Y-137855142D01*
X209385316Y-137878803D01*
X209379504Y-137902007D01*
X209371446Y-137924529D01*
X209361218Y-137946153D01*
X209348921Y-137966670D01*
X209334671Y-137985883D01*
X209318607Y-138003607D01*
X209300883Y-138019671D01*
X209281670Y-138033921D01*
X209261153Y-138046218D01*
X209239529Y-138056446D01*
X209217007Y-138064504D01*
X209193803Y-138070316D01*
X209170142Y-138073826D01*
X209146250Y-138075000D01*
X208233750Y-138075000D01*
X208209858Y-138073826D01*
X208186197Y-138070316D01*
X208162993Y-138064504D01*
X208140471Y-138056446D01*
X208118847Y-138046218D01*
X208098330Y-138033921D01*
X208079117Y-138019671D01*
X208061393Y-138003607D01*
X208045329Y-137985883D01*
X208031079Y-137966670D01*
X208018782Y-137946153D01*
X208008554Y-137924529D01*
X208000496Y-137902007D01*
X207994684Y-137878803D01*
X207991174Y-137855142D01*
X207990000Y-137831250D01*
X207990000Y-137343750D01*
X207991174Y-137319858D01*
X207994684Y-137296197D01*
X208000496Y-137272993D01*
X208008554Y-137250471D01*
X208018782Y-137228847D01*
X208031079Y-137208330D01*
X208045329Y-137189117D01*
X208061393Y-137171393D01*
X208079117Y-137155329D01*
X208098330Y-137141079D01*
X208118847Y-137128782D01*
X208140471Y-137118554D01*
X208162993Y-137110496D01*
X208186197Y-137104684D01*
X208209858Y-137101174D01*
X208233750Y-137100000D01*
X209146250Y-137100000D01*
X209170142Y-137101174D01*
G37*
M02*
