G04 #@! TF.GenerationSoftware,KiCad,Pcbnew,(5.1.5)-3*
G04 #@! TF.CreationDate,2020-04-30T20:14:28+02:00*
G04 #@! TF.ProjectId,5-pointed-Star,352d706f-696e-4746-9564-2d537461722e,rev?*
G04 #@! TF.SameCoordinates,Original*
G04 #@! TF.FileFunction,Copper,L2,Bot*
G04 #@! TF.FilePolarity,Positive*
%FSLAX46Y46*%
G04 Gerber Fmt 4.6, Leading zero omitted, Abs format (unit mm)*
G04 Created by KiCad (PCBNEW (5.1.5)-3) date 2020-04-30 20:14:28*
%MOMM*%
%LPD*%
G04 APERTURE LIST*
%ADD10R,0.300000X0.813000*%
%ADD11R,0.813000X0.300000*%
%ADD12C,2.000000*%
%ADD13R,2.000000X2.000000*%
%ADD14C,3.000000*%
%ADD15C,0.100000*%
%ADD16R,1.500000X0.300000*%
%ADD17R,0.300000X1.500000*%
%ADD18R,1.000000X2.200000*%
%ADD19R,2.200000X1.000000*%
%ADD20R,0.600000X1.100000*%
%ADD21R,1.000000X1.600000*%
%ADD22C,0.800000*%
%ADD23C,0.250000*%
%ADD24C,0.800000*%
%ADD25C,0.254000*%
%ADD26C,0.256000*%
G04 APERTURE END LIST*
D10*
X199940000Y-129425000D03*
X199440000Y-129425000D03*
X198940000Y-129425000D03*
X198440000Y-129425000D03*
X197940000Y-129425000D03*
D11*
X200215000Y-128650000D03*
X200215000Y-128150000D03*
X200215000Y-127650000D03*
X197670000Y-128650000D03*
X197670000Y-128150000D03*
X197670000Y-127650000D03*
D10*
X197940000Y-126870000D03*
X198440000Y-126870000D03*
X198940000Y-126870000D03*
X199440000Y-126870000D03*
X199940000Y-126870000D03*
D12*
X225880000Y-132990000D03*
X225880000Y-138070000D03*
X225880000Y-135530000D03*
X225880000Y-140610000D03*
X225880000Y-143150000D03*
X225880000Y-145690000D03*
X225880000Y-148230000D03*
X228420000Y-148230000D03*
X228420000Y-145690000D03*
X228420000Y-143150000D03*
X228420000Y-140610000D03*
X228420000Y-138070000D03*
X228420000Y-135530000D03*
D13*
X228420000Y-132990000D03*
D12*
X219630000Y-127340000D03*
X222170000Y-127340000D03*
X224710000Y-127340000D03*
D14*
X197113294Y-177676670D02*
X196407952Y-178647490D01*
X191261257Y-178245580D02*
X190290437Y-177540238D01*
X194964304Y-173148773D02*
X193993484Y-172443431D01*
G04 #@! TA.AperFunction,SMDPad,CuDef*
D15*
G36*
X220030191Y-142916053D02*
G01*
X220051426Y-142919203D01*
X220072250Y-142924419D01*
X220092462Y-142931651D01*
X220111868Y-142940830D01*
X220130281Y-142951866D01*
X220147524Y-142964654D01*
X220163430Y-142979070D01*
X220177846Y-142994976D01*
X220190634Y-143012219D01*
X220201670Y-143030632D01*
X220210849Y-143050038D01*
X220218081Y-143070250D01*
X220223297Y-143091074D01*
X220226447Y-143112309D01*
X220227500Y-143133750D01*
X220227500Y-143646250D01*
X220226447Y-143667691D01*
X220223297Y-143688926D01*
X220218081Y-143709750D01*
X220210849Y-143729962D01*
X220201670Y-143749368D01*
X220190634Y-143767781D01*
X220177846Y-143785024D01*
X220163430Y-143800930D01*
X220147524Y-143815346D01*
X220130281Y-143828134D01*
X220111868Y-143839170D01*
X220092462Y-143848349D01*
X220072250Y-143855581D01*
X220051426Y-143860797D01*
X220030191Y-143863947D01*
X220008750Y-143865000D01*
X219571250Y-143865000D01*
X219549809Y-143863947D01*
X219528574Y-143860797D01*
X219507750Y-143855581D01*
X219487538Y-143848349D01*
X219468132Y-143839170D01*
X219449719Y-143828134D01*
X219432476Y-143815346D01*
X219416570Y-143800930D01*
X219402154Y-143785024D01*
X219389366Y-143767781D01*
X219378330Y-143749368D01*
X219369151Y-143729962D01*
X219361919Y-143709750D01*
X219356703Y-143688926D01*
X219353553Y-143667691D01*
X219352500Y-143646250D01*
X219352500Y-143133750D01*
X219353553Y-143112309D01*
X219356703Y-143091074D01*
X219361919Y-143070250D01*
X219369151Y-143050038D01*
X219378330Y-143030632D01*
X219389366Y-143012219D01*
X219402154Y-142994976D01*
X219416570Y-142979070D01*
X219432476Y-142964654D01*
X219449719Y-142951866D01*
X219468132Y-142940830D01*
X219487538Y-142931651D01*
X219507750Y-142924419D01*
X219528574Y-142919203D01*
X219549809Y-142916053D01*
X219571250Y-142915000D01*
X220008750Y-142915000D01*
X220030191Y-142916053D01*
G37*
G04 #@! TD.AperFunction*
G04 #@! TA.AperFunction,SMDPad,CuDef*
G36*
X221605191Y-142916053D02*
G01*
X221626426Y-142919203D01*
X221647250Y-142924419D01*
X221667462Y-142931651D01*
X221686868Y-142940830D01*
X221705281Y-142951866D01*
X221722524Y-142964654D01*
X221738430Y-142979070D01*
X221752846Y-142994976D01*
X221765634Y-143012219D01*
X221776670Y-143030632D01*
X221785849Y-143050038D01*
X221793081Y-143070250D01*
X221798297Y-143091074D01*
X221801447Y-143112309D01*
X221802500Y-143133750D01*
X221802500Y-143646250D01*
X221801447Y-143667691D01*
X221798297Y-143688926D01*
X221793081Y-143709750D01*
X221785849Y-143729962D01*
X221776670Y-143749368D01*
X221765634Y-143767781D01*
X221752846Y-143785024D01*
X221738430Y-143800930D01*
X221722524Y-143815346D01*
X221705281Y-143828134D01*
X221686868Y-143839170D01*
X221667462Y-143848349D01*
X221647250Y-143855581D01*
X221626426Y-143860797D01*
X221605191Y-143863947D01*
X221583750Y-143865000D01*
X221146250Y-143865000D01*
X221124809Y-143863947D01*
X221103574Y-143860797D01*
X221082750Y-143855581D01*
X221062538Y-143848349D01*
X221043132Y-143839170D01*
X221024719Y-143828134D01*
X221007476Y-143815346D01*
X220991570Y-143800930D01*
X220977154Y-143785024D01*
X220964366Y-143767781D01*
X220953330Y-143749368D01*
X220944151Y-143729962D01*
X220936919Y-143709750D01*
X220931703Y-143688926D01*
X220928553Y-143667691D01*
X220927500Y-143646250D01*
X220927500Y-143133750D01*
X220928553Y-143112309D01*
X220931703Y-143091074D01*
X220936919Y-143070250D01*
X220944151Y-143050038D01*
X220953330Y-143030632D01*
X220964366Y-143012219D01*
X220977154Y-142994976D01*
X220991570Y-142979070D01*
X221007476Y-142964654D01*
X221024719Y-142951866D01*
X221043132Y-142940830D01*
X221062538Y-142931651D01*
X221082750Y-142924419D01*
X221103574Y-142919203D01*
X221124809Y-142916053D01*
X221146250Y-142915000D01*
X221583750Y-142915000D01*
X221605191Y-142916053D01*
G37*
G04 #@! TD.AperFunction*
G04 #@! TA.AperFunction,SMDPad,CuDef*
G36*
X197717691Y-142251053D02*
G01*
X197738926Y-142254203D01*
X197759750Y-142259419D01*
X197779962Y-142266651D01*
X197799368Y-142275830D01*
X197817781Y-142286866D01*
X197835024Y-142299654D01*
X197850930Y-142314070D01*
X197865346Y-142329976D01*
X197878134Y-142347219D01*
X197889170Y-142365632D01*
X197898349Y-142385038D01*
X197905581Y-142405250D01*
X197910797Y-142426074D01*
X197913947Y-142447309D01*
X197915000Y-142468750D01*
X197915000Y-142906250D01*
X197913947Y-142927691D01*
X197910797Y-142948926D01*
X197905581Y-142969750D01*
X197898349Y-142989962D01*
X197889170Y-143009368D01*
X197878134Y-143027781D01*
X197865346Y-143045024D01*
X197850930Y-143060930D01*
X197835024Y-143075346D01*
X197817781Y-143088134D01*
X197799368Y-143099170D01*
X197779962Y-143108349D01*
X197759750Y-143115581D01*
X197738926Y-143120797D01*
X197717691Y-143123947D01*
X197696250Y-143125000D01*
X197183750Y-143125000D01*
X197162309Y-143123947D01*
X197141074Y-143120797D01*
X197120250Y-143115581D01*
X197100038Y-143108349D01*
X197080632Y-143099170D01*
X197062219Y-143088134D01*
X197044976Y-143075346D01*
X197029070Y-143060930D01*
X197014654Y-143045024D01*
X197001866Y-143027781D01*
X196990830Y-143009368D01*
X196981651Y-142989962D01*
X196974419Y-142969750D01*
X196969203Y-142948926D01*
X196966053Y-142927691D01*
X196965000Y-142906250D01*
X196965000Y-142468750D01*
X196966053Y-142447309D01*
X196969203Y-142426074D01*
X196974419Y-142405250D01*
X196981651Y-142385038D01*
X196990830Y-142365632D01*
X197001866Y-142347219D01*
X197014654Y-142329976D01*
X197029070Y-142314070D01*
X197044976Y-142299654D01*
X197062219Y-142286866D01*
X197080632Y-142275830D01*
X197100038Y-142266651D01*
X197120250Y-142259419D01*
X197141074Y-142254203D01*
X197162309Y-142251053D01*
X197183750Y-142250000D01*
X197696250Y-142250000D01*
X197717691Y-142251053D01*
G37*
G04 #@! TD.AperFunction*
G04 #@! TA.AperFunction,SMDPad,CuDef*
G36*
X197717691Y-140676053D02*
G01*
X197738926Y-140679203D01*
X197759750Y-140684419D01*
X197779962Y-140691651D01*
X197799368Y-140700830D01*
X197817781Y-140711866D01*
X197835024Y-140724654D01*
X197850930Y-140739070D01*
X197865346Y-140754976D01*
X197878134Y-140772219D01*
X197889170Y-140790632D01*
X197898349Y-140810038D01*
X197905581Y-140830250D01*
X197910797Y-140851074D01*
X197913947Y-140872309D01*
X197915000Y-140893750D01*
X197915000Y-141331250D01*
X197913947Y-141352691D01*
X197910797Y-141373926D01*
X197905581Y-141394750D01*
X197898349Y-141414962D01*
X197889170Y-141434368D01*
X197878134Y-141452781D01*
X197865346Y-141470024D01*
X197850930Y-141485930D01*
X197835024Y-141500346D01*
X197817781Y-141513134D01*
X197799368Y-141524170D01*
X197779962Y-141533349D01*
X197759750Y-141540581D01*
X197738926Y-141545797D01*
X197717691Y-141548947D01*
X197696250Y-141550000D01*
X197183750Y-141550000D01*
X197162309Y-141548947D01*
X197141074Y-141545797D01*
X197120250Y-141540581D01*
X197100038Y-141533349D01*
X197080632Y-141524170D01*
X197062219Y-141513134D01*
X197044976Y-141500346D01*
X197029070Y-141485930D01*
X197014654Y-141470024D01*
X197001866Y-141452781D01*
X196990830Y-141434368D01*
X196981651Y-141414962D01*
X196974419Y-141394750D01*
X196969203Y-141373926D01*
X196966053Y-141352691D01*
X196965000Y-141331250D01*
X196965000Y-140893750D01*
X196966053Y-140872309D01*
X196969203Y-140851074D01*
X196974419Y-140830250D01*
X196981651Y-140810038D01*
X196990830Y-140790632D01*
X197001866Y-140772219D01*
X197014654Y-140754976D01*
X197029070Y-140739070D01*
X197044976Y-140724654D01*
X197062219Y-140711866D01*
X197080632Y-140700830D01*
X197100038Y-140691651D01*
X197120250Y-140684419D01*
X197141074Y-140679203D01*
X197162309Y-140676053D01*
X197183750Y-140675000D01*
X197696250Y-140675000D01*
X197717691Y-140676053D01*
G37*
G04 #@! TD.AperFunction*
G04 #@! TA.AperFunction,SMDPad,CuDef*
G36*
X204217691Y-140176053D02*
G01*
X204238926Y-140179203D01*
X204259750Y-140184419D01*
X204279962Y-140191651D01*
X204299368Y-140200830D01*
X204317781Y-140211866D01*
X204335024Y-140224654D01*
X204350930Y-140239070D01*
X204365346Y-140254976D01*
X204378134Y-140272219D01*
X204389170Y-140290632D01*
X204398349Y-140310038D01*
X204405581Y-140330250D01*
X204410797Y-140351074D01*
X204413947Y-140372309D01*
X204415000Y-140393750D01*
X204415000Y-140831250D01*
X204413947Y-140852691D01*
X204410797Y-140873926D01*
X204405581Y-140894750D01*
X204398349Y-140914962D01*
X204389170Y-140934368D01*
X204378134Y-140952781D01*
X204365346Y-140970024D01*
X204350930Y-140985930D01*
X204335024Y-141000346D01*
X204317781Y-141013134D01*
X204299368Y-141024170D01*
X204279962Y-141033349D01*
X204259750Y-141040581D01*
X204238926Y-141045797D01*
X204217691Y-141048947D01*
X204196250Y-141050000D01*
X203683750Y-141050000D01*
X203662309Y-141048947D01*
X203641074Y-141045797D01*
X203620250Y-141040581D01*
X203600038Y-141033349D01*
X203580632Y-141024170D01*
X203562219Y-141013134D01*
X203544976Y-141000346D01*
X203529070Y-140985930D01*
X203514654Y-140970024D01*
X203501866Y-140952781D01*
X203490830Y-140934368D01*
X203481651Y-140914962D01*
X203474419Y-140894750D01*
X203469203Y-140873926D01*
X203466053Y-140852691D01*
X203465000Y-140831250D01*
X203465000Y-140393750D01*
X203466053Y-140372309D01*
X203469203Y-140351074D01*
X203474419Y-140330250D01*
X203481651Y-140310038D01*
X203490830Y-140290632D01*
X203501866Y-140272219D01*
X203514654Y-140254976D01*
X203529070Y-140239070D01*
X203544976Y-140224654D01*
X203562219Y-140211866D01*
X203580632Y-140200830D01*
X203600038Y-140191651D01*
X203620250Y-140184419D01*
X203641074Y-140179203D01*
X203662309Y-140176053D01*
X203683750Y-140175000D01*
X204196250Y-140175000D01*
X204217691Y-140176053D01*
G37*
G04 #@! TD.AperFunction*
G04 #@! TA.AperFunction,SMDPad,CuDef*
G36*
X204217691Y-141751053D02*
G01*
X204238926Y-141754203D01*
X204259750Y-141759419D01*
X204279962Y-141766651D01*
X204299368Y-141775830D01*
X204317781Y-141786866D01*
X204335024Y-141799654D01*
X204350930Y-141814070D01*
X204365346Y-141829976D01*
X204378134Y-141847219D01*
X204389170Y-141865632D01*
X204398349Y-141885038D01*
X204405581Y-141905250D01*
X204410797Y-141926074D01*
X204413947Y-141947309D01*
X204415000Y-141968750D01*
X204415000Y-142406250D01*
X204413947Y-142427691D01*
X204410797Y-142448926D01*
X204405581Y-142469750D01*
X204398349Y-142489962D01*
X204389170Y-142509368D01*
X204378134Y-142527781D01*
X204365346Y-142545024D01*
X204350930Y-142560930D01*
X204335024Y-142575346D01*
X204317781Y-142588134D01*
X204299368Y-142599170D01*
X204279962Y-142608349D01*
X204259750Y-142615581D01*
X204238926Y-142620797D01*
X204217691Y-142623947D01*
X204196250Y-142625000D01*
X203683750Y-142625000D01*
X203662309Y-142623947D01*
X203641074Y-142620797D01*
X203620250Y-142615581D01*
X203600038Y-142608349D01*
X203580632Y-142599170D01*
X203562219Y-142588134D01*
X203544976Y-142575346D01*
X203529070Y-142560930D01*
X203514654Y-142545024D01*
X203501866Y-142527781D01*
X203490830Y-142509368D01*
X203481651Y-142489962D01*
X203474419Y-142469750D01*
X203469203Y-142448926D01*
X203466053Y-142427691D01*
X203465000Y-142406250D01*
X203465000Y-141968750D01*
X203466053Y-141947309D01*
X203469203Y-141926074D01*
X203474419Y-141905250D01*
X203481651Y-141885038D01*
X203490830Y-141865632D01*
X203501866Y-141847219D01*
X203514654Y-141829976D01*
X203529070Y-141814070D01*
X203544976Y-141799654D01*
X203562219Y-141786866D01*
X203580632Y-141775830D01*
X203600038Y-141766651D01*
X203620250Y-141759419D01*
X203641074Y-141754203D01*
X203662309Y-141751053D01*
X203683750Y-141750000D01*
X204196250Y-141750000D01*
X204217691Y-141751053D01*
G37*
G04 #@! TD.AperFunction*
G04 #@! TA.AperFunction,SMDPad,CuDef*
G36*
X198392691Y-136426053D02*
G01*
X198413926Y-136429203D01*
X198434750Y-136434419D01*
X198454962Y-136441651D01*
X198474368Y-136450830D01*
X198492781Y-136461866D01*
X198510024Y-136474654D01*
X198525930Y-136489070D01*
X198540346Y-136504976D01*
X198553134Y-136522219D01*
X198564170Y-136540632D01*
X198573349Y-136560038D01*
X198580581Y-136580250D01*
X198585797Y-136601074D01*
X198588947Y-136622309D01*
X198590000Y-136643750D01*
X198590000Y-137156250D01*
X198588947Y-137177691D01*
X198585797Y-137198926D01*
X198580581Y-137219750D01*
X198573349Y-137239962D01*
X198564170Y-137259368D01*
X198553134Y-137277781D01*
X198540346Y-137295024D01*
X198525930Y-137310930D01*
X198510024Y-137325346D01*
X198492781Y-137338134D01*
X198474368Y-137349170D01*
X198454962Y-137358349D01*
X198434750Y-137365581D01*
X198413926Y-137370797D01*
X198392691Y-137373947D01*
X198371250Y-137375000D01*
X197933750Y-137375000D01*
X197912309Y-137373947D01*
X197891074Y-137370797D01*
X197870250Y-137365581D01*
X197850038Y-137358349D01*
X197830632Y-137349170D01*
X197812219Y-137338134D01*
X197794976Y-137325346D01*
X197779070Y-137310930D01*
X197764654Y-137295024D01*
X197751866Y-137277781D01*
X197740830Y-137259368D01*
X197731651Y-137239962D01*
X197724419Y-137219750D01*
X197719203Y-137198926D01*
X197716053Y-137177691D01*
X197715000Y-137156250D01*
X197715000Y-136643750D01*
X197716053Y-136622309D01*
X197719203Y-136601074D01*
X197724419Y-136580250D01*
X197731651Y-136560038D01*
X197740830Y-136540632D01*
X197751866Y-136522219D01*
X197764654Y-136504976D01*
X197779070Y-136489070D01*
X197794976Y-136474654D01*
X197812219Y-136461866D01*
X197830632Y-136450830D01*
X197850038Y-136441651D01*
X197870250Y-136434419D01*
X197891074Y-136429203D01*
X197912309Y-136426053D01*
X197933750Y-136425000D01*
X198371250Y-136425000D01*
X198392691Y-136426053D01*
G37*
G04 #@! TD.AperFunction*
G04 #@! TA.AperFunction,SMDPad,CuDef*
G36*
X199967691Y-136426053D02*
G01*
X199988926Y-136429203D01*
X200009750Y-136434419D01*
X200029962Y-136441651D01*
X200049368Y-136450830D01*
X200067781Y-136461866D01*
X200085024Y-136474654D01*
X200100930Y-136489070D01*
X200115346Y-136504976D01*
X200128134Y-136522219D01*
X200139170Y-136540632D01*
X200148349Y-136560038D01*
X200155581Y-136580250D01*
X200160797Y-136601074D01*
X200163947Y-136622309D01*
X200165000Y-136643750D01*
X200165000Y-137156250D01*
X200163947Y-137177691D01*
X200160797Y-137198926D01*
X200155581Y-137219750D01*
X200148349Y-137239962D01*
X200139170Y-137259368D01*
X200128134Y-137277781D01*
X200115346Y-137295024D01*
X200100930Y-137310930D01*
X200085024Y-137325346D01*
X200067781Y-137338134D01*
X200049368Y-137349170D01*
X200029962Y-137358349D01*
X200009750Y-137365581D01*
X199988926Y-137370797D01*
X199967691Y-137373947D01*
X199946250Y-137375000D01*
X199508750Y-137375000D01*
X199487309Y-137373947D01*
X199466074Y-137370797D01*
X199445250Y-137365581D01*
X199425038Y-137358349D01*
X199405632Y-137349170D01*
X199387219Y-137338134D01*
X199369976Y-137325346D01*
X199354070Y-137310930D01*
X199339654Y-137295024D01*
X199326866Y-137277781D01*
X199315830Y-137259368D01*
X199306651Y-137239962D01*
X199299419Y-137219750D01*
X199294203Y-137198926D01*
X199291053Y-137177691D01*
X199290000Y-137156250D01*
X199290000Y-136643750D01*
X199291053Y-136622309D01*
X199294203Y-136601074D01*
X199299419Y-136580250D01*
X199306651Y-136560038D01*
X199315830Y-136540632D01*
X199326866Y-136522219D01*
X199339654Y-136504976D01*
X199354070Y-136489070D01*
X199369976Y-136474654D01*
X199387219Y-136461866D01*
X199405632Y-136450830D01*
X199425038Y-136441651D01*
X199445250Y-136434419D01*
X199466074Y-136429203D01*
X199487309Y-136426053D01*
X199508750Y-136425000D01*
X199946250Y-136425000D01*
X199967691Y-136426053D01*
G37*
G04 #@! TD.AperFunction*
G04 #@! TA.AperFunction,SMDPad,CuDef*
G36*
X198717691Y-123176053D02*
G01*
X198738926Y-123179203D01*
X198759750Y-123184419D01*
X198779962Y-123191651D01*
X198799368Y-123200830D01*
X198817781Y-123211866D01*
X198835024Y-123224654D01*
X198850930Y-123239070D01*
X198865346Y-123254976D01*
X198878134Y-123272219D01*
X198889170Y-123290632D01*
X198898349Y-123310038D01*
X198905581Y-123330250D01*
X198910797Y-123351074D01*
X198913947Y-123372309D01*
X198915000Y-123393750D01*
X198915000Y-123831250D01*
X198913947Y-123852691D01*
X198910797Y-123873926D01*
X198905581Y-123894750D01*
X198898349Y-123914962D01*
X198889170Y-123934368D01*
X198878134Y-123952781D01*
X198865346Y-123970024D01*
X198850930Y-123985930D01*
X198835024Y-124000346D01*
X198817781Y-124013134D01*
X198799368Y-124024170D01*
X198779962Y-124033349D01*
X198759750Y-124040581D01*
X198738926Y-124045797D01*
X198717691Y-124048947D01*
X198696250Y-124050000D01*
X198183750Y-124050000D01*
X198162309Y-124048947D01*
X198141074Y-124045797D01*
X198120250Y-124040581D01*
X198100038Y-124033349D01*
X198080632Y-124024170D01*
X198062219Y-124013134D01*
X198044976Y-124000346D01*
X198029070Y-123985930D01*
X198014654Y-123970024D01*
X198001866Y-123952781D01*
X197990830Y-123934368D01*
X197981651Y-123914962D01*
X197974419Y-123894750D01*
X197969203Y-123873926D01*
X197966053Y-123852691D01*
X197965000Y-123831250D01*
X197965000Y-123393750D01*
X197966053Y-123372309D01*
X197969203Y-123351074D01*
X197974419Y-123330250D01*
X197981651Y-123310038D01*
X197990830Y-123290632D01*
X198001866Y-123272219D01*
X198014654Y-123254976D01*
X198029070Y-123239070D01*
X198044976Y-123224654D01*
X198062219Y-123211866D01*
X198080632Y-123200830D01*
X198100038Y-123191651D01*
X198120250Y-123184419D01*
X198141074Y-123179203D01*
X198162309Y-123176053D01*
X198183750Y-123175000D01*
X198696250Y-123175000D01*
X198717691Y-123176053D01*
G37*
G04 #@! TD.AperFunction*
G04 #@! TA.AperFunction,SMDPad,CuDef*
G36*
X198717691Y-124751053D02*
G01*
X198738926Y-124754203D01*
X198759750Y-124759419D01*
X198779962Y-124766651D01*
X198799368Y-124775830D01*
X198817781Y-124786866D01*
X198835024Y-124799654D01*
X198850930Y-124814070D01*
X198865346Y-124829976D01*
X198878134Y-124847219D01*
X198889170Y-124865632D01*
X198898349Y-124885038D01*
X198905581Y-124905250D01*
X198910797Y-124926074D01*
X198913947Y-124947309D01*
X198915000Y-124968750D01*
X198915000Y-125406250D01*
X198913947Y-125427691D01*
X198910797Y-125448926D01*
X198905581Y-125469750D01*
X198898349Y-125489962D01*
X198889170Y-125509368D01*
X198878134Y-125527781D01*
X198865346Y-125545024D01*
X198850930Y-125560930D01*
X198835024Y-125575346D01*
X198817781Y-125588134D01*
X198799368Y-125599170D01*
X198779962Y-125608349D01*
X198759750Y-125615581D01*
X198738926Y-125620797D01*
X198717691Y-125623947D01*
X198696250Y-125625000D01*
X198183750Y-125625000D01*
X198162309Y-125623947D01*
X198141074Y-125620797D01*
X198120250Y-125615581D01*
X198100038Y-125608349D01*
X198080632Y-125599170D01*
X198062219Y-125588134D01*
X198044976Y-125575346D01*
X198029070Y-125560930D01*
X198014654Y-125545024D01*
X198001866Y-125527781D01*
X197990830Y-125509368D01*
X197981651Y-125489962D01*
X197974419Y-125469750D01*
X197969203Y-125448926D01*
X197966053Y-125427691D01*
X197965000Y-125406250D01*
X197965000Y-124968750D01*
X197966053Y-124947309D01*
X197969203Y-124926074D01*
X197974419Y-124905250D01*
X197981651Y-124885038D01*
X197990830Y-124865632D01*
X198001866Y-124847219D01*
X198014654Y-124829976D01*
X198029070Y-124814070D01*
X198044976Y-124799654D01*
X198062219Y-124786866D01*
X198080632Y-124775830D01*
X198100038Y-124766651D01*
X198120250Y-124759419D01*
X198141074Y-124754203D01*
X198162309Y-124751053D01*
X198183750Y-124750000D01*
X198696250Y-124750000D01*
X198717691Y-124751053D01*
G37*
G04 #@! TD.AperFunction*
G04 #@! TA.AperFunction,SMDPad,CuDef*
G36*
X196967691Y-123176053D02*
G01*
X196988926Y-123179203D01*
X197009750Y-123184419D01*
X197029962Y-123191651D01*
X197049368Y-123200830D01*
X197067781Y-123211866D01*
X197085024Y-123224654D01*
X197100930Y-123239070D01*
X197115346Y-123254976D01*
X197128134Y-123272219D01*
X197139170Y-123290632D01*
X197148349Y-123310038D01*
X197155581Y-123330250D01*
X197160797Y-123351074D01*
X197163947Y-123372309D01*
X197165000Y-123393750D01*
X197165000Y-123831250D01*
X197163947Y-123852691D01*
X197160797Y-123873926D01*
X197155581Y-123894750D01*
X197148349Y-123914962D01*
X197139170Y-123934368D01*
X197128134Y-123952781D01*
X197115346Y-123970024D01*
X197100930Y-123985930D01*
X197085024Y-124000346D01*
X197067781Y-124013134D01*
X197049368Y-124024170D01*
X197029962Y-124033349D01*
X197009750Y-124040581D01*
X196988926Y-124045797D01*
X196967691Y-124048947D01*
X196946250Y-124050000D01*
X196433750Y-124050000D01*
X196412309Y-124048947D01*
X196391074Y-124045797D01*
X196370250Y-124040581D01*
X196350038Y-124033349D01*
X196330632Y-124024170D01*
X196312219Y-124013134D01*
X196294976Y-124000346D01*
X196279070Y-123985930D01*
X196264654Y-123970024D01*
X196251866Y-123952781D01*
X196240830Y-123934368D01*
X196231651Y-123914962D01*
X196224419Y-123894750D01*
X196219203Y-123873926D01*
X196216053Y-123852691D01*
X196215000Y-123831250D01*
X196215000Y-123393750D01*
X196216053Y-123372309D01*
X196219203Y-123351074D01*
X196224419Y-123330250D01*
X196231651Y-123310038D01*
X196240830Y-123290632D01*
X196251866Y-123272219D01*
X196264654Y-123254976D01*
X196279070Y-123239070D01*
X196294976Y-123224654D01*
X196312219Y-123211866D01*
X196330632Y-123200830D01*
X196350038Y-123191651D01*
X196370250Y-123184419D01*
X196391074Y-123179203D01*
X196412309Y-123176053D01*
X196433750Y-123175000D01*
X196946250Y-123175000D01*
X196967691Y-123176053D01*
G37*
G04 #@! TD.AperFunction*
G04 #@! TA.AperFunction,SMDPad,CuDef*
G36*
X196967691Y-124751053D02*
G01*
X196988926Y-124754203D01*
X197009750Y-124759419D01*
X197029962Y-124766651D01*
X197049368Y-124775830D01*
X197067781Y-124786866D01*
X197085024Y-124799654D01*
X197100930Y-124814070D01*
X197115346Y-124829976D01*
X197128134Y-124847219D01*
X197139170Y-124865632D01*
X197148349Y-124885038D01*
X197155581Y-124905250D01*
X197160797Y-124926074D01*
X197163947Y-124947309D01*
X197165000Y-124968750D01*
X197165000Y-125406250D01*
X197163947Y-125427691D01*
X197160797Y-125448926D01*
X197155581Y-125469750D01*
X197148349Y-125489962D01*
X197139170Y-125509368D01*
X197128134Y-125527781D01*
X197115346Y-125545024D01*
X197100930Y-125560930D01*
X197085024Y-125575346D01*
X197067781Y-125588134D01*
X197049368Y-125599170D01*
X197029962Y-125608349D01*
X197009750Y-125615581D01*
X196988926Y-125620797D01*
X196967691Y-125623947D01*
X196946250Y-125625000D01*
X196433750Y-125625000D01*
X196412309Y-125623947D01*
X196391074Y-125620797D01*
X196370250Y-125615581D01*
X196350038Y-125608349D01*
X196330632Y-125599170D01*
X196312219Y-125588134D01*
X196294976Y-125575346D01*
X196279070Y-125560930D01*
X196264654Y-125545024D01*
X196251866Y-125527781D01*
X196240830Y-125509368D01*
X196231651Y-125489962D01*
X196224419Y-125469750D01*
X196219203Y-125448926D01*
X196216053Y-125427691D01*
X196215000Y-125406250D01*
X196215000Y-124968750D01*
X196216053Y-124947309D01*
X196219203Y-124926074D01*
X196224419Y-124905250D01*
X196231651Y-124885038D01*
X196240830Y-124865632D01*
X196251866Y-124847219D01*
X196264654Y-124829976D01*
X196279070Y-124814070D01*
X196294976Y-124799654D01*
X196312219Y-124786866D01*
X196330632Y-124775830D01*
X196350038Y-124766651D01*
X196370250Y-124759419D01*
X196391074Y-124754203D01*
X196412309Y-124751053D01*
X196433750Y-124750000D01*
X196946250Y-124750000D01*
X196967691Y-124751053D01*
G37*
G04 #@! TD.AperFunction*
G04 #@! TA.AperFunction,SMDPad,CuDef*
G36*
X195217691Y-126176053D02*
G01*
X195238926Y-126179203D01*
X195259750Y-126184419D01*
X195279962Y-126191651D01*
X195299368Y-126200830D01*
X195317781Y-126211866D01*
X195335024Y-126224654D01*
X195350930Y-126239070D01*
X195365346Y-126254976D01*
X195378134Y-126272219D01*
X195389170Y-126290632D01*
X195398349Y-126310038D01*
X195405581Y-126330250D01*
X195410797Y-126351074D01*
X195413947Y-126372309D01*
X195415000Y-126393750D01*
X195415000Y-126831250D01*
X195413947Y-126852691D01*
X195410797Y-126873926D01*
X195405581Y-126894750D01*
X195398349Y-126914962D01*
X195389170Y-126934368D01*
X195378134Y-126952781D01*
X195365346Y-126970024D01*
X195350930Y-126985930D01*
X195335024Y-127000346D01*
X195317781Y-127013134D01*
X195299368Y-127024170D01*
X195279962Y-127033349D01*
X195259750Y-127040581D01*
X195238926Y-127045797D01*
X195217691Y-127048947D01*
X195196250Y-127050000D01*
X194683750Y-127050000D01*
X194662309Y-127048947D01*
X194641074Y-127045797D01*
X194620250Y-127040581D01*
X194600038Y-127033349D01*
X194580632Y-127024170D01*
X194562219Y-127013134D01*
X194544976Y-127000346D01*
X194529070Y-126985930D01*
X194514654Y-126970024D01*
X194501866Y-126952781D01*
X194490830Y-126934368D01*
X194481651Y-126914962D01*
X194474419Y-126894750D01*
X194469203Y-126873926D01*
X194466053Y-126852691D01*
X194465000Y-126831250D01*
X194465000Y-126393750D01*
X194466053Y-126372309D01*
X194469203Y-126351074D01*
X194474419Y-126330250D01*
X194481651Y-126310038D01*
X194490830Y-126290632D01*
X194501866Y-126272219D01*
X194514654Y-126254976D01*
X194529070Y-126239070D01*
X194544976Y-126224654D01*
X194562219Y-126211866D01*
X194580632Y-126200830D01*
X194600038Y-126191651D01*
X194620250Y-126184419D01*
X194641074Y-126179203D01*
X194662309Y-126176053D01*
X194683750Y-126175000D01*
X195196250Y-126175000D01*
X195217691Y-126176053D01*
G37*
G04 #@! TD.AperFunction*
G04 #@! TA.AperFunction,SMDPad,CuDef*
G36*
X195217691Y-127751053D02*
G01*
X195238926Y-127754203D01*
X195259750Y-127759419D01*
X195279962Y-127766651D01*
X195299368Y-127775830D01*
X195317781Y-127786866D01*
X195335024Y-127799654D01*
X195350930Y-127814070D01*
X195365346Y-127829976D01*
X195378134Y-127847219D01*
X195389170Y-127865632D01*
X195398349Y-127885038D01*
X195405581Y-127905250D01*
X195410797Y-127926074D01*
X195413947Y-127947309D01*
X195415000Y-127968750D01*
X195415000Y-128406250D01*
X195413947Y-128427691D01*
X195410797Y-128448926D01*
X195405581Y-128469750D01*
X195398349Y-128489962D01*
X195389170Y-128509368D01*
X195378134Y-128527781D01*
X195365346Y-128545024D01*
X195350930Y-128560930D01*
X195335024Y-128575346D01*
X195317781Y-128588134D01*
X195299368Y-128599170D01*
X195279962Y-128608349D01*
X195259750Y-128615581D01*
X195238926Y-128620797D01*
X195217691Y-128623947D01*
X195196250Y-128625000D01*
X194683750Y-128625000D01*
X194662309Y-128623947D01*
X194641074Y-128620797D01*
X194620250Y-128615581D01*
X194600038Y-128608349D01*
X194580632Y-128599170D01*
X194562219Y-128588134D01*
X194544976Y-128575346D01*
X194529070Y-128560930D01*
X194514654Y-128545024D01*
X194501866Y-128527781D01*
X194490830Y-128509368D01*
X194481651Y-128489962D01*
X194474419Y-128469750D01*
X194469203Y-128448926D01*
X194466053Y-128427691D01*
X194465000Y-128406250D01*
X194465000Y-127968750D01*
X194466053Y-127947309D01*
X194469203Y-127926074D01*
X194474419Y-127905250D01*
X194481651Y-127885038D01*
X194490830Y-127865632D01*
X194501866Y-127847219D01*
X194514654Y-127829976D01*
X194529070Y-127814070D01*
X194544976Y-127799654D01*
X194562219Y-127786866D01*
X194580632Y-127775830D01*
X194600038Y-127766651D01*
X194620250Y-127759419D01*
X194641074Y-127754203D01*
X194662309Y-127751053D01*
X194683750Y-127750000D01*
X195196250Y-127750000D01*
X195217691Y-127751053D01*
G37*
G04 #@! TD.AperFunction*
D16*
X204190000Y-137700000D03*
X204190000Y-137200000D03*
X204190000Y-136700000D03*
X204190000Y-136200000D03*
X204190000Y-135700000D03*
X204190000Y-135200000D03*
X204190000Y-134700000D03*
X204190000Y-134200000D03*
X204190000Y-133700000D03*
X204190000Y-133200000D03*
X204190000Y-132700000D03*
X204190000Y-132200000D03*
X204190000Y-131700000D03*
X204190000Y-131200000D03*
X204190000Y-130700000D03*
X204190000Y-130200000D03*
D17*
X206140000Y-128250000D03*
X206640000Y-128250000D03*
X207140000Y-128250000D03*
X207640000Y-128250000D03*
X208140000Y-128250000D03*
X208640000Y-128250000D03*
X209140000Y-128250000D03*
X209640000Y-128250000D03*
X210140000Y-128250000D03*
X210640000Y-128250000D03*
X211140000Y-128250000D03*
X211640000Y-128250000D03*
X212140000Y-128250000D03*
X212640000Y-128250000D03*
X213140000Y-128250000D03*
X213640000Y-128250000D03*
D16*
X215590000Y-130200000D03*
X215590000Y-130700000D03*
X215590000Y-131200000D03*
X215590000Y-131700000D03*
X215590000Y-132200000D03*
X215590000Y-132700000D03*
X215590000Y-133200000D03*
X215590000Y-133700000D03*
X215590000Y-134200000D03*
X215590000Y-134700000D03*
X215590000Y-135200000D03*
X215590000Y-135700000D03*
X215590000Y-136200000D03*
X215590000Y-136700000D03*
X215590000Y-137200000D03*
X215590000Y-137700000D03*
D17*
X213640000Y-139650000D03*
X213140000Y-139650000D03*
X212640000Y-139650000D03*
X212140000Y-139650000D03*
X211640000Y-139650000D03*
X211140000Y-139650000D03*
X210640000Y-139650000D03*
X210140000Y-139650000D03*
X209640000Y-139650000D03*
X209140000Y-139650000D03*
X208640000Y-139650000D03*
X208140000Y-139650000D03*
X207640000Y-139650000D03*
X207140000Y-139650000D03*
X206640000Y-139650000D03*
X206140000Y-139650000D03*
D18*
X200390000Y-143700000D03*
X200390000Y-140600000D03*
X194390000Y-143700000D03*
X194390000Y-140600000D03*
D19*
X197140000Y-134350000D03*
X200240000Y-134350000D03*
D20*
X216225000Y-110825000D03*
X214325700Y-110825000D03*
X214325000Y-113425000D03*
X215250000Y-113425000D03*
X216225000Y-113425000D03*
D21*
X185840000Y-147150000D03*
X193440000Y-147150000D03*
X185840000Y-157150000D03*
X190940000Y-157150000D03*
X193440000Y-157150000D03*
G04 #@! TA.AperFunction,SMDPad,CuDef*
D15*
G36*
X226000779Y-123676144D02*
G01*
X226023834Y-123679563D01*
X226046443Y-123685227D01*
X226068387Y-123693079D01*
X226089457Y-123703044D01*
X226109448Y-123715026D01*
X226128168Y-123728910D01*
X226145438Y-123744562D01*
X226161090Y-123761832D01*
X226174974Y-123780552D01*
X226186956Y-123800543D01*
X226196921Y-123821613D01*
X226204773Y-123843557D01*
X226210437Y-123866166D01*
X226213856Y-123889221D01*
X226215000Y-123912500D01*
X226215000Y-124387500D01*
X226213856Y-124410779D01*
X226210437Y-124433834D01*
X226204773Y-124456443D01*
X226196921Y-124478387D01*
X226186956Y-124499457D01*
X226174974Y-124519448D01*
X226161090Y-124538168D01*
X226145438Y-124555438D01*
X226128168Y-124571090D01*
X226109448Y-124584974D01*
X226089457Y-124596956D01*
X226068387Y-124606921D01*
X226046443Y-124614773D01*
X226023834Y-124620437D01*
X226000779Y-124623856D01*
X225977500Y-124625000D01*
X225402500Y-124625000D01*
X225379221Y-124623856D01*
X225356166Y-124620437D01*
X225333557Y-124614773D01*
X225311613Y-124606921D01*
X225290543Y-124596956D01*
X225270552Y-124584974D01*
X225251832Y-124571090D01*
X225234562Y-124555438D01*
X225218910Y-124538168D01*
X225205026Y-124519448D01*
X225193044Y-124499457D01*
X225183079Y-124478387D01*
X225175227Y-124456443D01*
X225169563Y-124433834D01*
X225166144Y-124410779D01*
X225165000Y-124387500D01*
X225165000Y-123912500D01*
X225166144Y-123889221D01*
X225169563Y-123866166D01*
X225175227Y-123843557D01*
X225183079Y-123821613D01*
X225193044Y-123800543D01*
X225205026Y-123780552D01*
X225218910Y-123761832D01*
X225234562Y-123744562D01*
X225251832Y-123728910D01*
X225270552Y-123715026D01*
X225290543Y-123703044D01*
X225311613Y-123693079D01*
X225333557Y-123685227D01*
X225356166Y-123679563D01*
X225379221Y-123676144D01*
X225402500Y-123675000D01*
X225977500Y-123675000D01*
X226000779Y-123676144D01*
G37*
G04 #@! TD.AperFunction*
G04 #@! TA.AperFunction,SMDPad,CuDef*
G36*
X224250779Y-123676144D02*
G01*
X224273834Y-123679563D01*
X224296443Y-123685227D01*
X224318387Y-123693079D01*
X224339457Y-123703044D01*
X224359448Y-123715026D01*
X224378168Y-123728910D01*
X224395438Y-123744562D01*
X224411090Y-123761832D01*
X224424974Y-123780552D01*
X224436956Y-123800543D01*
X224446921Y-123821613D01*
X224454773Y-123843557D01*
X224460437Y-123866166D01*
X224463856Y-123889221D01*
X224465000Y-123912500D01*
X224465000Y-124387500D01*
X224463856Y-124410779D01*
X224460437Y-124433834D01*
X224454773Y-124456443D01*
X224446921Y-124478387D01*
X224436956Y-124499457D01*
X224424974Y-124519448D01*
X224411090Y-124538168D01*
X224395438Y-124555438D01*
X224378168Y-124571090D01*
X224359448Y-124584974D01*
X224339457Y-124596956D01*
X224318387Y-124606921D01*
X224296443Y-124614773D01*
X224273834Y-124620437D01*
X224250779Y-124623856D01*
X224227500Y-124625000D01*
X223652500Y-124625000D01*
X223629221Y-124623856D01*
X223606166Y-124620437D01*
X223583557Y-124614773D01*
X223561613Y-124606921D01*
X223540543Y-124596956D01*
X223520552Y-124584974D01*
X223501832Y-124571090D01*
X223484562Y-124555438D01*
X223468910Y-124538168D01*
X223455026Y-124519448D01*
X223443044Y-124499457D01*
X223433079Y-124478387D01*
X223425227Y-124456443D01*
X223419563Y-124433834D01*
X223416144Y-124410779D01*
X223415000Y-124387500D01*
X223415000Y-123912500D01*
X223416144Y-123889221D01*
X223419563Y-123866166D01*
X223425227Y-123843557D01*
X223433079Y-123821613D01*
X223443044Y-123800543D01*
X223455026Y-123780552D01*
X223468910Y-123761832D01*
X223484562Y-123744562D01*
X223501832Y-123728910D01*
X223520552Y-123715026D01*
X223540543Y-123703044D01*
X223561613Y-123693079D01*
X223583557Y-123685227D01*
X223606166Y-123679563D01*
X223629221Y-123676144D01*
X223652500Y-123675000D01*
X224227500Y-123675000D01*
X224250779Y-123676144D01*
G37*
G04 #@! TD.AperFunction*
G04 #@! TA.AperFunction,SMDPad,CuDef*
G36*
X212917691Y-122751053D02*
G01*
X212938926Y-122754203D01*
X212959750Y-122759419D01*
X212979962Y-122766651D01*
X212999368Y-122775830D01*
X213017781Y-122786866D01*
X213035024Y-122799654D01*
X213050930Y-122814070D01*
X213065346Y-122829976D01*
X213078134Y-122847219D01*
X213089170Y-122865632D01*
X213098349Y-122885038D01*
X213105581Y-122905250D01*
X213110797Y-122926074D01*
X213113947Y-122947309D01*
X213115000Y-122968750D01*
X213115000Y-123406250D01*
X213113947Y-123427691D01*
X213110797Y-123448926D01*
X213105581Y-123469750D01*
X213098349Y-123489962D01*
X213089170Y-123509368D01*
X213078134Y-123527781D01*
X213065346Y-123545024D01*
X213050930Y-123560930D01*
X213035024Y-123575346D01*
X213017781Y-123588134D01*
X212999368Y-123599170D01*
X212979962Y-123608349D01*
X212959750Y-123615581D01*
X212938926Y-123620797D01*
X212917691Y-123623947D01*
X212896250Y-123625000D01*
X212383750Y-123625000D01*
X212362309Y-123623947D01*
X212341074Y-123620797D01*
X212320250Y-123615581D01*
X212300038Y-123608349D01*
X212280632Y-123599170D01*
X212262219Y-123588134D01*
X212244976Y-123575346D01*
X212229070Y-123560930D01*
X212214654Y-123545024D01*
X212201866Y-123527781D01*
X212190830Y-123509368D01*
X212181651Y-123489962D01*
X212174419Y-123469750D01*
X212169203Y-123448926D01*
X212166053Y-123427691D01*
X212165000Y-123406250D01*
X212165000Y-122968750D01*
X212166053Y-122947309D01*
X212169203Y-122926074D01*
X212174419Y-122905250D01*
X212181651Y-122885038D01*
X212190830Y-122865632D01*
X212201866Y-122847219D01*
X212214654Y-122829976D01*
X212229070Y-122814070D01*
X212244976Y-122799654D01*
X212262219Y-122786866D01*
X212280632Y-122775830D01*
X212300038Y-122766651D01*
X212320250Y-122759419D01*
X212341074Y-122754203D01*
X212362309Y-122751053D01*
X212383750Y-122750000D01*
X212896250Y-122750000D01*
X212917691Y-122751053D01*
G37*
G04 #@! TD.AperFunction*
G04 #@! TA.AperFunction,SMDPad,CuDef*
G36*
X212917691Y-121176053D02*
G01*
X212938926Y-121179203D01*
X212959750Y-121184419D01*
X212979962Y-121191651D01*
X212999368Y-121200830D01*
X213017781Y-121211866D01*
X213035024Y-121224654D01*
X213050930Y-121239070D01*
X213065346Y-121254976D01*
X213078134Y-121272219D01*
X213089170Y-121290632D01*
X213098349Y-121310038D01*
X213105581Y-121330250D01*
X213110797Y-121351074D01*
X213113947Y-121372309D01*
X213115000Y-121393750D01*
X213115000Y-121831250D01*
X213113947Y-121852691D01*
X213110797Y-121873926D01*
X213105581Y-121894750D01*
X213098349Y-121914962D01*
X213089170Y-121934368D01*
X213078134Y-121952781D01*
X213065346Y-121970024D01*
X213050930Y-121985930D01*
X213035024Y-122000346D01*
X213017781Y-122013134D01*
X212999368Y-122024170D01*
X212979962Y-122033349D01*
X212959750Y-122040581D01*
X212938926Y-122045797D01*
X212917691Y-122048947D01*
X212896250Y-122050000D01*
X212383750Y-122050000D01*
X212362309Y-122048947D01*
X212341074Y-122045797D01*
X212320250Y-122040581D01*
X212300038Y-122033349D01*
X212280632Y-122024170D01*
X212262219Y-122013134D01*
X212244976Y-122000346D01*
X212229070Y-121985930D01*
X212214654Y-121970024D01*
X212201866Y-121952781D01*
X212190830Y-121934368D01*
X212181651Y-121914962D01*
X212174419Y-121894750D01*
X212169203Y-121873926D01*
X212166053Y-121852691D01*
X212165000Y-121831250D01*
X212165000Y-121393750D01*
X212166053Y-121372309D01*
X212169203Y-121351074D01*
X212174419Y-121330250D01*
X212181651Y-121310038D01*
X212190830Y-121290632D01*
X212201866Y-121272219D01*
X212214654Y-121254976D01*
X212229070Y-121239070D01*
X212244976Y-121224654D01*
X212262219Y-121211866D01*
X212280632Y-121200830D01*
X212300038Y-121191651D01*
X212320250Y-121184419D01*
X212341074Y-121179203D01*
X212362309Y-121176053D01*
X212383750Y-121175000D01*
X212896250Y-121175000D01*
X212917691Y-121176053D01*
G37*
G04 #@! TD.AperFunction*
G04 #@! TA.AperFunction,SMDPad,CuDef*
G36*
X209717691Y-122751053D02*
G01*
X209738926Y-122754203D01*
X209759750Y-122759419D01*
X209779962Y-122766651D01*
X209799368Y-122775830D01*
X209817781Y-122786866D01*
X209835024Y-122799654D01*
X209850930Y-122814070D01*
X209865346Y-122829976D01*
X209878134Y-122847219D01*
X209889170Y-122865632D01*
X209898349Y-122885038D01*
X209905581Y-122905250D01*
X209910797Y-122926074D01*
X209913947Y-122947309D01*
X209915000Y-122968750D01*
X209915000Y-123406250D01*
X209913947Y-123427691D01*
X209910797Y-123448926D01*
X209905581Y-123469750D01*
X209898349Y-123489962D01*
X209889170Y-123509368D01*
X209878134Y-123527781D01*
X209865346Y-123545024D01*
X209850930Y-123560930D01*
X209835024Y-123575346D01*
X209817781Y-123588134D01*
X209799368Y-123599170D01*
X209779962Y-123608349D01*
X209759750Y-123615581D01*
X209738926Y-123620797D01*
X209717691Y-123623947D01*
X209696250Y-123625000D01*
X209183750Y-123625000D01*
X209162309Y-123623947D01*
X209141074Y-123620797D01*
X209120250Y-123615581D01*
X209100038Y-123608349D01*
X209080632Y-123599170D01*
X209062219Y-123588134D01*
X209044976Y-123575346D01*
X209029070Y-123560930D01*
X209014654Y-123545024D01*
X209001866Y-123527781D01*
X208990830Y-123509368D01*
X208981651Y-123489962D01*
X208974419Y-123469750D01*
X208969203Y-123448926D01*
X208966053Y-123427691D01*
X208965000Y-123406250D01*
X208965000Y-122968750D01*
X208966053Y-122947309D01*
X208969203Y-122926074D01*
X208974419Y-122905250D01*
X208981651Y-122885038D01*
X208990830Y-122865632D01*
X209001866Y-122847219D01*
X209014654Y-122829976D01*
X209029070Y-122814070D01*
X209044976Y-122799654D01*
X209062219Y-122786866D01*
X209080632Y-122775830D01*
X209100038Y-122766651D01*
X209120250Y-122759419D01*
X209141074Y-122754203D01*
X209162309Y-122751053D01*
X209183750Y-122750000D01*
X209696250Y-122750000D01*
X209717691Y-122751053D01*
G37*
G04 #@! TD.AperFunction*
G04 #@! TA.AperFunction,SMDPad,CuDef*
G36*
X209717691Y-121176053D02*
G01*
X209738926Y-121179203D01*
X209759750Y-121184419D01*
X209779962Y-121191651D01*
X209799368Y-121200830D01*
X209817781Y-121211866D01*
X209835024Y-121224654D01*
X209850930Y-121239070D01*
X209865346Y-121254976D01*
X209878134Y-121272219D01*
X209889170Y-121290632D01*
X209898349Y-121310038D01*
X209905581Y-121330250D01*
X209910797Y-121351074D01*
X209913947Y-121372309D01*
X209915000Y-121393750D01*
X209915000Y-121831250D01*
X209913947Y-121852691D01*
X209910797Y-121873926D01*
X209905581Y-121894750D01*
X209898349Y-121914962D01*
X209889170Y-121934368D01*
X209878134Y-121952781D01*
X209865346Y-121970024D01*
X209850930Y-121985930D01*
X209835024Y-122000346D01*
X209817781Y-122013134D01*
X209799368Y-122024170D01*
X209779962Y-122033349D01*
X209759750Y-122040581D01*
X209738926Y-122045797D01*
X209717691Y-122048947D01*
X209696250Y-122050000D01*
X209183750Y-122050000D01*
X209162309Y-122048947D01*
X209141074Y-122045797D01*
X209120250Y-122040581D01*
X209100038Y-122033349D01*
X209080632Y-122024170D01*
X209062219Y-122013134D01*
X209044976Y-122000346D01*
X209029070Y-121985930D01*
X209014654Y-121970024D01*
X209001866Y-121952781D01*
X208990830Y-121934368D01*
X208981651Y-121914962D01*
X208974419Y-121894750D01*
X208969203Y-121873926D01*
X208966053Y-121852691D01*
X208965000Y-121831250D01*
X208965000Y-121393750D01*
X208966053Y-121372309D01*
X208969203Y-121351074D01*
X208974419Y-121330250D01*
X208981651Y-121310038D01*
X208990830Y-121290632D01*
X209001866Y-121272219D01*
X209014654Y-121254976D01*
X209029070Y-121239070D01*
X209044976Y-121224654D01*
X209062219Y-121211866D01*
X209080632Y-121200830D01*
X209100038Y-121191651D01*
X209120250Y-121184419D01*
X209141074Y-121179203D01*
X209162309Y-121176053D01*
X209183750Y-121175000D01*
X209696250Y-121175000D01*
X209717691Y-121176053D01*
G37*
G04 #@! TD.AperFunction*
D22*
X201690000Y-126400000D03*
X220900000Y-146750000D03*
X219400000Y-146750000D03*
X185790000Y-170740000D03*
X184060000Y-173330000D03*
X184950000Y-171970000D03*
X183180000Y-174690000D03*
X202300000Y-176780000D03*
X201230000Y-178640000D03*
X199880000Y-180540000D03*
X198470000Y-182720000D03*
X200200000Y-145800000D03*
X200200000Y-147400000D03*
X194440000Y-134400000D03*
X205190000Y-143400000D03*
X201440000Y-132400000D03*
X202240000Y-136700000D03*
X260500000Y-115750000D03*
X227500000Y-87250000D03*
X226250000Y-87250000D03*
X294750000Y-131750000D03*
X295500000Y-131000000D03*
X276250000Y-147000000D03*
X275250000Y-147500000D03*
X189875000Y-208275000D03*
X189700000Y-209375000D03*
X160550000Y-191400000D03*
X159300000Y-191400000D03*
X147600000Y-147950000D03*
X148600000Y-147950000D03*
X193500000Y-90250000D03*
X193500000Y-91500000D03*
X212750000Y-43500000D03*
X212750000Y-42500000D03*
X179600000Y-113800000D03*
X181000000Y-113800000D03*
X129800000Y-116600000D03*
X131000000Y-116600000D03*
X109400000Y-115200000D03*
X110600000Y-115200000D03*
X154600000Y-115100000D03*
X155800000Y-115100000D03*
X129400000Y-131400000D03*
X128200000Y-131400000D03*
X203000000Y-67000000D03*
X203000000Y-68200000D03*
X166750000Y-166550000D03*
X165750000Y-166550000D03*
X154400000Y-215500000D03*
X152950000Y-215500000D03*
X147000000Y-235000000D03*
X146750000Y-235900000D03*
X168450000Y-221800000D03*
X168250000Y-222700000D03*
X211600000Y-195750000D03*
X210575000Y-195750000D03*
X232500000Y-210000000D03*
X233500000Y-209750000D03*
X253750000Y-223750000D03*
X254500000Y-223250000D03*
X270440000Y-238300000D03*
X270440000Y-237340000D03*
X265720000Y-212350000D03*
X264580000Y-212350000D03*
X259775000Y-187625000D03*
X258525000Y-187625000D03*
X253000000Y-164000000D03*
X252250000Y-163250000D03*
X312500000Y-120000000D03*
X311250000Y-120000000D03*
X287000000Y-117750000D03*
X286000000Y-117750000D03*
X235250000Y-111000000D03*
X236250000Y-111250000D03*
X261750000Y-115750000D03*
X218250000Y-64000000D03*
X217250000Y-64500000D03*
X203940000Y-139150000D03*
X222190000Y-124150000D03*
X198440000Y-120900000D03*
X201440000Y-122900000D03*
X209440000Y-119400000D03*
X194940000Y-129900000D03*
X198940000Y-128150000D03*
X212440000Y-114650000D03*
X221190000Y-136150000D03*
X230940000Y-138150000D03*
X222690000Y-139750000D03*
X221190000Y-137900000D03*
X214740000Y-49500000D03*
X186690000Y-144900000D03*
X184690000Y-144900000D03*
X232440000Y-130650000D03*
X208440000Y-141900000D03*
D23*
X207140000Y-139650000D02*
X206640000Y-139650000D01*
D24*
X199634315Y-145800000D02*
X200200000Y-145800000D01*
X196640000Y-145800000D02*
X199634315Y-145800000D01*
D23*
X194490000Y-134350000D02*
X194440000Y-134400000D01*
X197140000Y-134350000D02*
X194490000Y-134350000D01*
X198620000Y-136900000D02*
X197690000Y-136900000D01*
X197140000Y-136350000D02*
X197140000Y-134350000D01*
X197690000Y-136900000D02*
X197140000Y-136350000D01*
X206140000Y-139650000D02*
X205340000Y-139650000D01*
X200720000Y-140780000D02*
X200590000Y-140650000D01*
X203240000Y-137700000D02*
X202240000Y-136700000D01*
X204190000Y-137700000D02*
X203240000Y-137700000D01*
X202340000Y-135564998D02*
X202340000Y-136600000D01*
X202340000Y-136600000D02*
X202240000Y-136700000D01*
X203204998Y-134700000D02*
X202340000Y-135564998D01*
X205270000Y-139650000D02*
X205340000Y-139650000D01*
X204770000Y-139150000D02*
X205270000Y-139650000D01*
X203940000Y-139150000D02*
X204770000Y-139150000D01*
X201590000Y-134350000D02*
X200240000Y-134350000D01*
X201940000Y-134700000D02*
X201590000Y-134350000D01*
X203390000Y-134700000D02*
X201940000Y-134700000D01*
X203390000Y-134700000D02*
X203204998Y-134700000D01*
X204190000Y-134700000D02*
X203390000Y-134700000D01*
X200240000Y-136600000D02*
X200240000Y-134350000D01*
X199260000Y-136900000D02*
X199940000Y-136900000D01*
X199940000Y-136900000D02*
X200240000Y-136600000D01*
X202140000Y-131700000D02*
X201440000Y-132400000D01*
X204190000Y-131700000D02*
X202140000Y-131700000D01*
X198440000Y-128650000D02*
X198940000Y-128150000D01*
X198440000Y-129425000D02*
X198440000Y-128650000D01*
X199440000Y-128650000D02*
X198940000Y-128150000D01*
X199440000Y-129425000D02*
X199440000Y-128650000D01*
X219400000Y-145360000D02*
X219400000Y-146750000D01*
X214325000Y-113425000D02*
X212665000Y-113425000D01*
X212440000Y-113650000D02*
X212440000Y-114650000D01*
X212665000Y-113425000D02*
X212440000Y-113650000D01*
D24*
X193440000Y-157150000D02*
X198190000Y-157150000D01*
X200200000Y-155140000D02*
X200200000Y-147400000D01*
X198190000Y-157150000D02*
X200200000Y-155140000D01*
D23*
X207140000Y-141200000D02*
X207140000Y-139650000D01*
X206940000Y-141400000D02*
X207140000Y-141200000D01*
X205202500Y-141400000D02*
X206940000Y-141400000D01*
X203940000Y-142187500D02*
X204415000Y-142187500D01*
X204415000Y-142187500D02*
X205202500Y-141400000D01*
D24*
X195140000Y-145800000D02*
X196640000Y-145800000D01*
X194390000Y-145050000D02*
X195140000Y-145800000D01*
X194390000Y-143700000D02*
X194390000Y-145050000D01*
D23*
X195140000Y-143700000D02*
X194390000Y-143700000D01*
X196865000Y-143700000D02*
X195140000Y-143700000D01*
X197440000Y-143125000D02*
X196865000Y-143700000D01*
X197440000Y-142687500D02*
X197440000Y-143125000D01*
X200390000Y-143700000D02*
X203640000Y-143700000D01*
X203940000Y-143400000D02*
X203940000Y-142187500D01*
X203640000Y-143700000D02*
X203940000Y-143400000D01*
X185840000Y-170690000D02*
X185790000Y-170740000D01*
D24*
X185840000Y-157150000D02*
X185840000Y-170690000D01*
X202300000Y-168230000D02*
X202300000Y-176780000D01*
X193440000Y-157150000D02*
X193440000Y-159370000D01*
X193440000Y-159370000D02*
X202300000Y-168230000D01*
D23*
X200215000Y-128150000D02*
X198940000Y-128150000D01*
X196690000Y-123612500D02*
X198440000Y-123612500D01*
X198477500Y-123650000D02*
X198440000Y-123612500D01*
X201220000Y-126870000D02*
X201690000Y-126400000D01*
X199940000Y-126870000D02*
X201220000Y-126870000D01*
X195727500Y-123612500D02*
X196690000Y-123612500D01*
X194940000Y-126612500D02*
X194940000Y-124400000D01*
X194940000Y-124400000D02*
X195727500Y-123612500D01*
X198440000Y-123612500D02*
X198440000Y-120900000D01*
D24*
X186690000Y-141650000D02*
X186690000Y-144900000D01*
X187740000Y-140600000D02*
X186690000Y-141650000D01*
D23*
X203940000Y-140612500D02*
X203940000Y-139150000D01*
D24*
X191340000Y-140600000D02*
X187740000Y-140600000D01*
X191340000Y-140600000D02*
X194390000Y-140600000D01*
D23*
X194840000Y-140150000D02*
X194390000Y-140600000D01*
X196915000Y-140150000D02*
X194840000Y-140150000D01*
X197440000Y-141112500D02*
X197440000Y-140675000D01*
X197440000Y-140675000D02*
X196915000Y-140150000D01*
X194390000Y-138700000D02*
X194390000Y-140600000D01*
X203240000Y-137700000D02*
X195390000Y-137700000D01*
X195390000Y-137700000D02*
X194390000Y-138700000D01*
X200402500Y-140612500D02*
X200390000Y-140600000D01*
X203940000Y-140612500D02*
X200402500Y-140612500D01*
X222190000Y-127320000D02*
X222170000Y-127340000D01*
X222190000Y-124150000D02*
X222190000Y-127320000D01*
X222190000Y-124150000D02*
X223940000Y-124150000D01*
X209440000Y-119400000D02*
X209440000Y-121612500D01*
X209440000Y-119400000D02*
X211690000Y-119400000D01*
X212640000Y-120350000D02*
X212640000Y-121612500D01*
X211690000Y-119400000D02*
X212640000Y-120350000D01*
X197940000Y-126870000D02*
X197160000Y-126870000D01*
X196690000Y-126400000D02*
X196690000Y-125187500D01*
X197160000Y-126870000D02*
X196690000Y-126400000D01*
X197670000Y-128650000D02*
X196690000Y-128650000D01*
X196227500Y-128187500D02*
X194940000Y-128187500D01*
X196690000Y-128650000D02*
X196227500Y-128187500D01*
X194940000Y-129900000D02*
X194940000Y-128187500D01*
X199915010Y-124424990D02*
X197015010Y-124424990D01*
X196690000Y-124750000D02*
X196690000Y-125187500D01*
X197015010Y-124424990D02*
X196690000Y-124750000D01*
X201440000Y-122900000D02*
X199915010Y-124424990D01*
X198440000Y-126870000D02*
X198440000Y-125187500D01*
D24*
X190940000Y-160383409D02*
X190940000Y-157150000D01*
X196862843Y-166306252D02*
X190940000Y-160383409D01*
D23*
X196862843Y-166306252D02*
X196747803Y-166306252D01*
D24*
X196862843Y-170412153D02*
X194478894Y-172796102D01*
X196862843Y-166306252D02*
X196862843Y-170412153D01*
D23*
X229834213Y-135530000D02*
X230440000Y-134924213D01*
X228420000Y-135530000D02*
X229834213Y-135530000D01*
X230440000Y-134924213D02*
X230440000Y-131400000D01*
X229239990Y-130199990D02*
X220739990Y-130199990D01*
X230440000Y-131400000D02*
X229239990Y-130199990D01*
X219630000Y-129090000D02*
X219630000Y-127340000D01*
X220739990Y-130199990D02*
X219630000Y-129090000D01*
X225355787Y-129400000D02*
X224710000Y-128754213D01*
X229834213Y-140610000D02*
X231690000Y-138754213D01*
X229440000Y-129400000D02*
X225355787Y-129400000D01*
X224710000Y-128754213D02*
X224710000Y-127340000D01*
X231690000Y-138754213D02*
X231690000Y-131650000D01*
X228420000Y-140610000D02*
X229834213Y-140610000D01*
X231690000Y-131650000D02*
X229440000Y-129400000D01*
X208640000Y-140950000D02*
X208640000Y-139650000D01*
X208440000Y-141900000D02*
X208440000Y-141150000D01*
X208440000Y-141150000D02*
X208640000Y-140950000D01*
X212140000Y-129250000D02*
X212140000Y-128250000D01*
X206054998Y-129650000D02*
X211740000Y-129650000D01*
X204054998Y-127650000D02*
X206054998Y-129650000D01*
X211740000Y-129650000D02*
X212140000Y-129250000D01*
X200215000Y-127650000D02*
X204054998Y-127650000D01*
X209440000Y-124400000D02*
X209440000Y-123187500D01*
X212140000Y-128250000D02*
X212140000Y-127100000D01*
X212140000Y-127100000D02*
X209440000Y-124400000D01*
X197670000Y-127650000D02*
X197416000Y-127650000D01*
X212615001Y-128225001D02*
X212640000Y-128250000D01*
X212640000Y-128100000D02*
X212640000Y-123187500D01*
X212640000Y-128250000D02*
X212640000Y-128100000D01*
X203228510Y-122424990D02*
X210714990Y-122424990D01*
X199440000Y-126870000D02*
X199440000Y-126213500D01*
X199440000Y-126213500D02*
X203228510Y-122424990D01*
X211477500Y-123187500D02*
X212640000Y-123187500D01*
X210714990Y-122424990D02*
X211477500Y-123187500D01*
X214325700Y-50614300D02*
X214325700Y-110825000D01*
X214340000Y-50600000D02*
X214325700Y-50614300D01*
X214740000Y-49500000D02*
X214340001Y-49899999D01*
X214340001Y-49899999D02*
X214340000Y-50600000D01*
X198940000Y-130081500D02*
X198940000Y-129425000D01*
X199558500Y-130700000D02*
X198940000Y-130081500D01*
X204190000Y-130700000D02*
X199558500Y-130700000D01*
X205175002Y-131200000D02*
X205515000Y-130860002D01*
X204190000Y-131200000D02*
X205175002Y-131200000D01*
X205515000Y-130860002D02*
X205515000Y-130075000D01*
X204865000Y-129425000D02*
X199940000Y-129425000D01*
X205515000Y-130075000D02*
X204865000Y-129425000D01*
X215250000Y-114225000D02*
X215250000Y-113425000D01*
X215250000Y-125453590D02*
X215250000Y-114225000D01*
X213640000Y-127063590D02*
X215250000Y-125453590D01*
X213640000Y-128250000D02*
X213640000Y-127063590D01*
X209640000Y-139650000D02*
X209640000Y-141372820D01*
X228190000Y-126400000D02*
X232440000Y-130650000D01*
X228190000Y-124900000D02*
X228190000Y-126400000D01*
X225690000Y-124150000D02*
X227440000Y-124150000D01*
X227440000Y-124150000D02*
X228190000Y-124900000D01*
X224880001Y-141609999D02*
X225880000Y-140610000D01*
X218005001Y-141609999D02*
X224880001Y-141609999D01*
X209140000Y-139650000D02*
X209140000Y-141000000D01*
X209140000Y-141000000D02*
X209189991Y-141049991D01*
X209189991Y-141049991D02*
X209189991Y-141786401D01*
X210528590Y-143125000D02*
X216490000Y-143125000D01*
X216490000Y-143125000D02*
X218005001Y-141609999D01*
X209189991Y-141786401D02*
X210528590Y-143125000D01*
X216755000Y-143390000D02*
X219790000Y-143390000D01*
X216490000Y-143125000D02*
X216755000Y-143390000D01*
X228420000Y-131380000D02*
X228420000Y-132990000D01*
X227690000Y-130650000D02*
X228420000Y-131380000D01*
X217190000Y-136400000D02*
X222940000Y-130650000D01*
X211140000Y-140850000D02*
X211440000Y-141150000D01*
X211140000Y-139650000D02*
X211140000Y-140850000D01*
X222940000Y-130650000D02*
X227690000Y-130650000D01*
X217190000Y-139400000D02*
X217190000Y-136400000D01*
X211440000Y-141150000D02*
X215440000Y-141150000D01*
X215440000Y-141150000D02*
X217190000Y-139400000D01*
X228500000Y-138150000D02*
X228420000Y-138070000D01*
X230940000Y-138150000D02*
X228500000Y-138150000D01*
X218790001Y-136549999D02*
X220790001Y-136549999D01*
X220790001Y-136549999D02*
X221190000Y-136150000D01*
X217690000Y-137650000D02*
X218790001Y-136549999D01*
X210640000Y-141200000D02*
X211090000Y-141650001D01*
X210640000Y-139650000D02*
X210640000Y-141200000D01*
X211090000Y-141650001D02*
X215689999Y-141650001D01*
X217690000Y-139650000D02*
X217690000Y-137650000D01*
X215689999Y-141650001D02*
X217690000Y-139650000D01*
X210140000Y-139650000D02*
X210140000Y-140100000D01*
X210140000Y-140100000D02*
X210164999Y-140124999D01*
X218239991Y-138600009D02*
X218940000Y-137900000D01*
X210140000Y-139650000D02*
X210140000Y-141425000D01*
X210865000Y-142150000D02*
X215940000Y-142150000D01*
X218940000Y-137900000D02*
X221190000Y-137900000D01*
X210140000Y-141425000D02*
X210865000Y-142150000D01*
X215940000Y-142150000D02*
X218239991Y-139850009D01*
X218239991Y-139850009D02*
X218239991Y-138600009D01*
X209640000Y-141372820D02*
X209640000Y-141450000D01*
X219115000Y-139750000D02*
X222690000Y-139750000D01*
X216240000Y-142625000D02*
X219115000Y-139750000D01*
X210665000Y-142625000D02*
X216240000Y-142625000D01*
X209640000Y-141372820D02*
X209640000Y-141600000D01*
X209640000Y-141600000D02*
X210665000Y-142625000D01*
D25*
G36*
X240816671Y-107293040D02*
G01*
X240819320Y-107305100D01*
X240840444Y-107353361D01*
X240847854Y-107372162D01*
X240853469Y-107383118D01*
X240871450Y-107424198D01*
X240883043Y-107440822D01*
X240892293Y-107458871D01*
X240920165Y-107494055D01*
X240945816Y-107530838D01*
X240960428Y-107544880D01*
X240973022Y-107560778D01*
X241007217Y-107589844D01*
X241039556Y-107620922D01*
X241056627Y-107631844D01*
X241072079Y-107644978D01*
X241111286Y-107666813D01*
X241149069Y-107690986D01*
X241167947Y-107698369D01*
X241185662Y-107708235D01*
X241228372Y-107722001D01*
X241270147Y-107738339D01*
X241290101Y-107741897D01*
X241309402Y-107748118D01*
X241353971Y-107753286D01*
X241366067Y-107755443D01*
X241386173Y-107757020D01*
X241438544Y-107763093D01*
X241450860Y-107762094D01*
X323779768Y-114220224D01*
X260440941Y-166457119D01*
X260430573Y-166463186D01*
X260390891Y-166498397D01*
X260375062Y-166511451D01*
X260366631Y-166519923D01*
X260333328Y-166549473D01*
X260320874Y-166565901D01*
X260306332Y-166580513D01*
X260281682Y-166617598D01*
X260254786Y-166653076D01*
X260245776Y-166671617D01*
X260234365Y-166688785D01*
X260217426Y-166729960D01*
X260197964Y-166770010D01*
X260192745Y-166789952D01*
X260184902Y-166809016D01*
X260176321Y-166852708D01*
X260165048Y-166895782D01*
X260163819Y-166916362D01*
X260159847Y-166936588D01*
X260159954Y-166981102D01*
X260157300Y-167025558D01*
X260160110Y-167045985D01*
X260160160Y-167066595D01*
X260168950Y-167110234D01*
X260170580Y-167122082D01*
X260175357Y-167142043D01*
X260185831Y-167194043D01*
X260190455Y-167205130D01*
X279398272Y-247466371D01*
X210258922Y-203411593D01*
X210249559Y-203403281D01*
X210204191Y-203376719D01*
X210187323Y-203365971D01*
X210176223Y-203360345D01*
X210137365Y-203337594D01*
X210118358Y-203331013D01*
X210100417Y-203321919D01*
X210057059Y-203309789D01*
X210014512Y-203295058D01*
X209994583Y-203292311D01*
X209975216Y-203286893D01*
X209930333Y-203283455D01*
X209885721Y-203277306D01*
X209865641Y-203278500D01*
X209845589Y-203276964D01*
X209800891Y-203282350D01*
X209755942Y-203285022D01*
X209736480Y-203290110D01*
X209716514Y-203292516D01*
X209673737Y-203306514D01*
X209630161Y-203317907D01*
X209612061Y-203326697D01*
X209592952Y-203332950D01*
X209553727Y-203355025D01*
X209542516Y-203360470D01*
X209525439Y-203370946D01*
X209479655Y-203396713D01*
X209470158Y-203404858D01*
X139116965Y-246563441D01*
X157712955Y-174465072D01*
X180470614Y-174465072D01*
X180481990Y-174589033D01*
X180517331Y-174708392D01*
X180575279Y-174818564D01*
X180653607Y-174915313D01*
X180749305Y-174994922D01*
X190997385Y-181941615D01*
X191097094Y-181996845D01*
X191215343Y-182035741D01*
X191338908Y-182050821D01*
X191463041Y-182041505D01*
X191582971Y-182008151D01*
X191694089Y-181952040D01*
X191792126Y-181875330D01*
X191873313Y-181780967D01*
X192669820Y-180646937D01*
X199154019Y-185127415D01*
X199268269Y-185190106D01*
X199387158Y-185226998D01*
X199510961Y-185239987D01*
X199634918Y-185228574D01*
X199754267Y-185193197D01*
X199864421Y-185135217D01*
X199961147Y-185056860D01*
X200040728Y-184961139D01*
X205290728Y-177211139D01*
X205349820Y-177102408D01*
X205386850Y-176983562D01*
X205399982Y-176859774D01*
X205388712Y-176735804D01*
X205353474Y-176616414D01*
X205295621Y-176506193D01*
X205217376Y-176409376D01*
X205121747Y-176329684D01*
X203335000Y-175116287D01*
X203335000Y-168280827D01*
X203340006Y-168229999D01*
X203335000Y-168179171D01*
X203335000Y-168179162D01*
X203320024Y-168027105D01*
X203260841Y-167832007D01*
X203216104Y-167748309D01*
X203164734Y-167652202D01*
X203067803Y-167534092D01*
X203035396Y-167494604D01*
X202995908Y-167462197D01*
X194475000Y-158941290D01*
X194475000Y-158296144D01*
X194529502Y-158194180D01*
X194532287Y-158185000D01*
X198139172Y-158185000D01*
X198190000Y-158190006D01*
X198240828Y-158185000D01*
X198240838Y-158185000D01*
X198392895Y-158170024D01*
X198587993Y-158110841D01*
X198767797Y-158014734D01*
X198925396Y-157885396D01*
X198957807Y-157845903D01*
X200895908Y-155907803D01*
X200935396Y-155875396D01*
X200981299Y-155819463D01*
X201064734Y-155717798D01*
X201160840Y-155537994D01*
X201160841Y-155537993D01*
X201220024Y-155342895D01*
X201235000Y-155190838D01*
X201235000Y-155190829D01*
X201240006Y-155140001D01*
X201235000Y-155089173D01*
X201235000Y-149035000D01*
X203400000Y-149035000D01*
X203533209Y-149020871D01*
X203651776Y-148982953D01*
X203760666Y-148922633D01*
X203855697Y-148842228D01*
X203933215Y-148744829D01*
X203990242Y-148634178D01*
X204024587Y-148514527D01*
X204034929Y-148390476D01*
X203974929Y-144390476D01*
X203974152Y-144383147D01*
X204064276Y-144334974D01*
X204180001Y-144240001D01*
X204203804Y-144210997D01*
X204373632Y-144041169D01*
X204386063Y-144059774D01*
X204530226Y-144203937D01*
X204699744Y-144317205D01*
X204888102Y-144395226D01*
X205088061Y-144435000D01*
X205291939Y-144435000D01*
X205491898Y-144395226D01*
X205680256Y-144317205D01*
X205849774Y-144203937D01*
X205993937Y-144059774D01*
X206107205Y-143890256D01*
X206185226Y-143701898D01*
X206225000Y-143501939D01*
X206225000Y-143298061D01*
X206185226Y-143098102D01*
X206107205Y-142909744D01*
X205993937Y-142740226D01*
X205849774Y-142596063D01*
X205680256Y-142482795D01*
X205491898Y-142404774D01*
X205308923Y-142368378D01*
X205517302Y-142160000D01*
X206902678Y-142160000D01*
X206940000Y-142163676D01*
X206977322Y-142160000D01*
X206977333Y-142160000D01*
X207088986Y-142149003D01*
X207232247Y-142105546D01*
X207364276Y-142034974D01*
X207405000Y-142001553D01*
X207405000Y-142001939D01*
X207444774Y-142201898D01*
X207522795Y-142390256D01*
X207636063Y-142559774D01*
X207780226Y-142703937D01*
X207949744Y-142817205D01*
X208138102Y-142895226D01*
X208338061Y-142935000D01*
X208541939Y-142935000D01*
X208741898Y-142895226D01*
X208930256Y-142817205D01*
X209059581Y-142730793D01*
X209964790Y-143636002D01*
X209988589Y-143665001D01*
X210104314Y-143759974D01*
X210236343Y-143830546D01*
X210379604Y-143874003D01*
X210491257Y-143885000D01*
X210491267Y-143885000D01*
X210528590Y-143888676D01*
X210565913Y-143885000D01*
X215872738Y-143885000D01*
X215817855Y-143953523D01*
X215760485Y-144063997D01*
X215725771Y-144183540D01*
X215715045Y-144307559D01*
X215765045Y-148507559D01*
X215777201Y-148623882D01*
X215813336Y-148743004D01*
X215872017Y-148852787D01*
X215950987Y-148949013D01*
X216047213Y-149027983D01*
X216156996Y-149086664D01*
X216276118Y-149122799D01*
X216400000Y-149135000D01*
X221900000Y-149135000D01*
X222019728Y-149123611D01*
X222139088Y-149088270D01*
X222249259Y-149030323D01*
X222346009Y-148951996D01*
X222425620Y-148856299D01*
X222485030Y-148746910D01*
X222521959Y-148628032D01*
X222534986Y-148504233D01*
X222574986Y-142504233D01*
X222562799Y-142376118D01*
X222560943Y-142369999D01*
X224434782Y-142369999D01*
X224431082Y-142375537D01*
X224307832Y-142673088D01*
X224245000Y-142988967D01*
X224245000Y-143311033D01*
X224307832Y-143626912D01*
X224431082Y-143924463D01*
X224610013Y-144192252D01*
X224837748Y-144419987D01*
X224837767Y-144420000D01*
X224837748Y-144420013D01*
X224610013Y-144647748D01*
X224431082Y-144915537D01*
X224307832Y-145213088D01*
X224245000Y-145528967D01*
X224245000Y-145851033D01*
X224307832Y-146166912D01*
X224431082Y-146464463D01*
X224610013Y-146732252D01*
X224837748Y-146959987D01*
X224837767Y-146960000D01*
X224837748Y-146960013D01*
X224610013Y-147187748D01*
X224431082Y-147455537D01*
X224307832Y-147753088D01*
X224245000Y-148068967D01*
X224245000Y-148391033D01*
X224307832Y-148706912D01*
X224431082Y-149004463D01*
X224610013Y-149272252D01*
X224837748Y-149499987D01*
X225105537Y-149678918D01*
X225403088Y-149802168D01*
X225718967Y-149865000D01*
X226041033Y-149865000D01*
X226356912Y-149802168D01*
X226654463Y-149678918D01*
X226922252Y-149499987D01*
X227149987Y-149272252D01*
X227150000Y-149272233D01*
X227150013Y-149272252D01*
X227377748Y-149499987D01*
X227645537Y-149678918D01*
X227943088Y-149802168D01*
X228258967Y-149865000D01*
X228581033Y-149865000D01*
X228896912Y-149802168D01*
X229194463Y-149678918D01*
X229462252Y-149499987D01*
X229689987Y-149272252D01*
X229868918Y-149004463D01*
X229992168Y-148706912D01*
X230055000Y-148391033D01*
X230055000Y-148068967D01*
X229992168Y-147753088D01*
X229868918Y-147455537D01*
X229689987Y-147187748D01*
X229462252Y-146960013D01*
X229462233Y-146960000D01*
X229462252Y-146959987D01*
X229689987Y-146732252D01*
X229868918Y-146464463D01*
X229992168Y-146166912D01*
X230055000Y-145851033D01*
X230055000Y-145528967D01*
X229992168Y-145213088D01*
X229868918Y-144915537D01*
X229689987Y-144647748D01*
X229462252Y-144420013D01*
X229462233Y-144420000D01*
X229462252Y-144419987D01*
X229689987Y-144192252D01*
X229868918Y-143924463D01*
X229992168Y-143626912D01*
X230055000Y-143311033D01*
X230055000Y-142988967D01*
X229992168Y-142673088D01*
X229868918Y-142375537D01*
X229689987Y-142107748D01*
X229462252Y-141880013D01*
X229462233Y-141880000D01*
X229462252Y-141879987D01*
X229689987Y-141652252D01*
X229868918Y-141384463D01*
X229875052Y-141369655D01*
X229983199Y-141359003D01*
X230126460Y-141315546D01*
X230258489Y-141244974D01*
X230374214Y-141150001D01*
X230398017Y-141120997D01*
X232201004Y-139318011D01*
X232230001Y-139294214D01*
X232265454Y-139251014D01*
X232324974Y-139178490D01*
X232395546Y-139046460D01*
X232395546Y-139046459D01*
X232439003Y-138903199D01*
X232450000Y-138791546D01*
X232450000Y-138791537D01*
X232453676Y-138754214D01*
X232450000Y-138716891D01*
X232450000Y-131687333D01*
X232450230Y-131685000D01*
X232541939Y-131685000D01*
X232741898Y-131645226D01*
X232930256Y-131567205D01*
X233099774Y-131453937D01*
X233243937Y-131309774D01*
X233357205Y-131140256D01*
X233435226Y-130951898D01*
X233475000Y-130751939D01*
X233475000Y-130548061D01*
X233435226Y-130348102D01*
X233357205Y-130159744D01*
X233243937Y-129990226D01*
X233099774Y-129846063D01*
X232930256Y-129732795D01*
X232741898Y-129654774D01*
X232541939Y-129615000D01*
X232479802Y-129615000D01*
X228950000Y-126085199D01*
X228950000Y-124937322D01*
X228953676Y-124899999D01*
X228950000Y-124862676D01*
X228950000Y-124862667D01*
X228939003Y-124751014D01*
X228895546Y-124607753D01*
X228824974Y-124475724D01*
X228730001Y-124359999D01*
X228701004Y-124336202D01*
X228003803Y-123639002D01*
X227980001Y-123609999D01*
X227864276Y-123515026D01*
X227732247Y-123444454D01*
X227588986Y-123400997D01*
X227477333Y-123390000D01*
X227477322Y-123390000D01*
X227440000Y-123386324D01*
X227402678Y-123390000D01*
X226675920Y-123390000D01*
X226596623Y-123293377D01*
X226463942Y-123184488D01*
X226312567Y-123103577D01*
X226148316Y-123053752D01*
X225977500Y-123036928D01*
X225402500Y-123036928D01*
X225231684Y-123053752D01*
X225067433Y-123103577D01*
X224916058Y-123184488D01*
X224815000Y-123267425D01*
X224713942Y-123184488D01*
X224562567Y-123103577D01*
X224398316Y-123053752D01*
X224227500Y-123036928D01*
X223652500Y-123036928D01*
X223481684Y-123053752D01*
X223317433Y-123103577D01*
X223166058Y-123184488D01*
X223033377Y-123293377D01*
X222954080Y-123390000D01*
X222893711Y-123390000D01*
X222849774Y-123346063D01*
X222680256Y-123232795D01*
X222491898Y-123154774D01*
X222291939Y-123115000D01*
X222088061Y-123115000D01*
X221888102Y-123154774D01*
X221699744Y-123232795D01*
X221530226Y-123346063D01*
X221386063Y-123490226D01*
X221272795Y-123659744D01*
X221194774Y-123848102D01*
X221155000Y-124048061D01*
X221155000Y-124251939D01*
X221194774Y-124451898D01*
X221272795Y-124640256D01*
X221386063Y-124809774D01*
X221430000Y-124853711D01*
X221430001Y-125876807D01*
X221395537Y-125891082D01*
X221127748Y-126070013D01*
X220900013Y-126297748D01*
X220900000Y-126297767D01*
X220899987Y-126297748D01*
X220672252Y-126070013D01*
X220404463Y-125891082D01*
X220106912Y-125767832D01*
X219791033Y-125705000D01*
X219468967Y-125705000D01*
X219153088Y-125767832D01*
X218855537Y-125891082D01*
X218587748Y-126070013D01*
X218360013Y-126297748D01*
X218181082Y-126565537D01*
X218057832Y-126863088D01*
X217995000Y-127178967D01*
X217995000Y-127501033D01*
X218057832Y-127816912D01*
X218181082Y-128114463D01*
X218360013Y-128382252D01*
X218587748Y-128609987D01*
X218855537Y-128788918D01*
X218870000Y-128794909D01*
X218870000Y-129052677D01*
X218866324Y-129090000D01*
X218870000Y-129127322D01*
X218870000Y-129127332D01*
X218880997Y-129238985D01*
X218916036Y-129354494D01*
X218924454Y-129382246D01*
X218995026Y-129514276D01*
X219023511Y-129548985D01*
X219089999Y-129630001D01*
X219119002Y-129653804D01*
X220176190Y-130710992D01*
X220199989Y-130739991D01*
X220228987Y-130763789D01*
X220315713Y-130834964D01*
X220432398Y-130897334D01*
X220447743Y-130905536D01*
X220591004Y-130948993D01*
X220702657Y-130959990D01*
X220702667Y-130959990D01*
X220739990Y-130963666D01*
X220777313Y-130959990D01*
X221555208Y-130959990D01*
X216976918Y-135538281D01*
X216968223Y-135450000D01*
X216978072Y-135350000D01*
X216978072Y-135050000D01*
X216968223Y-134950000D01*
X216978072Y-134850000D01*
X216978072Y-134550000D01*
X216968223Y-134450000D01*
X216978072Y-134350000D01*
X216978072Y-134050000D01*
X216968223Y-133950000D01*
X216978072Y-133850000D01*
X216978072Y-133550000D01*
X216968223Y-133450000D01*
X216978072Y-133350000D01*
X216978072Y-133050000D01*
X216968223Y-132950000D01*
X216978072Y-132850000D01*
X216978072Y-132550000D01*
X216968223Y-132450000D01*
X216978072Y-132350000D01*
X216978072Y-132050000D01*
X216968223Y-131950000D01*
X216978072Y-131850000D01*
X216978072Y-131550000D01*
X216968223Y-131450000D01*
X216978072Y-131350000D01*
X216978072Y-131050000D01*
X216968223Y-130950000D01*
X216978072Y-130850000D01*
X216978072Y-130550000D01*
X216968223Y-130450000D01*
X216978072Y-130350000D01*
X216978072Y-130050000D01*
X216965812Y-129925518D01*
X216929502Y-129805820D01*
X216870537Y-129695506D01*
X216791185Y-129598815D01*
X216694494Y-129519463D01*
X216584180Y-129460498D01*
X216464482Y-129424188D01*
X216340000Y-129411928D01*
X214840000Y-129411928D01*
X214715518Y-129424188D01*
X214595820Y-129460498D01*
X214485506Y-129519463D01*
X214388815Y-129598815D01*
X214309463Y-129695506D01*
X214250498Y-129805820D01*
X214214188Y-129925518D01*
X214201928Y-130050000D01*
X214201928Y-130350000D01*
X214211777Y-130450000D01*
X214201928Y-130550000D01*
X214201928Y-130850000D01*
X214211777Y-130950000D01*
X214201928Y-131050000D01*
X214201928Y-131350000D01*
X214211777Y-131450000D01*
X214201928Y-131550000D01*
X214201928Y-131850000D01*
X214211777Y-131950000D01*
X214201928Y-132050000D01*
X214201928Y-132350000D01*
X214211777Y-132450000D01*
X214201928Y-132550000D01*
X214201928Y-132850000D01*
X214211777Y-132950000D01*
X214201928Y-133050000D01*
X214201928Y-133350000D01*
X214211777Y-133450000D01*
X214201928Y-133550000D01*
X214201928Y-133850000D01*
X214211777Y-133950000D01*
X214201928Y-134050000D01*
X214201928Y-134350000D01*
X214211777Y-134450000D01*
X214201928Y-134550000D01*
X214201928Y-134850000D01*
X214211777Y-134950000D01*
X214201928Y-135050000D01*
X214201928Y-135350000D01*
X214211777Y-135450000D01*
X214201928Y-135550000D01*
X214201928Y-135850000D01*
X214211777Y-135950000D01*
X214201928Y-136050000D01*
X214201928Y-136350000D01*
X214211777Y-136450000D01*
X214201928Y-136550000D01*
X214201928Y-136850000D01*
X214211777Y-136950000D01*
X214201928Y-137050000D01*
X214201928Y-137350000D01*
X214211777Y-137450000D01*
X214201928Y-137550000D01*
X214201928Y-137850000D01*
X214214188Y-137974482D01*
X214250498Y-138094180D01*
X214309463Y-138204494D01*
X214388815Y-138301185D01*
X214485506Y-138380537D01*
X214595820Y-138439502D01*
X214715518Y-138475812D01*
X214840000Y-138488072D01*
X216340000Y-138488072D01*
X216430000Y-138479208D01*
X216430000Y-139085198D01*
X215125199Y-140390000D01*
X214428072Y-140390000D01*
X214428072Y-138900000D01*
X214415812Y-138775518D01*
X214379502Y-138655820D01*
X214320537Y-138545506D01*
X214241185Y-138448815D01*
X214144494Y-138369463D01*
X214034180Y-138310498D01*
X213914482Y-138274188D01*
X213790000Y-138261928D01*
X213490000Y-138261928D01*
X213390000Y-138271777D01*
X213290000Y-138261928D01*
X212990000Y-138261928D01*
X212890000Y-138271777D01*
X212790000Y-138261928D01*
X212490000Y-138261928D01*
X212390000Y-138271777D01*
X212290000Y-138261928D01*
X211990000Y-138261928D01*
X211890000Y-138271777D01*
X211790000Y-138261928D01*
X211490000Y-138261928D01*
X211390000Y-138271777D01*
X211290000Y-138261928D01*
X210990000Y-138261928D01*
X210890000Y-138271777D01*
X210790000Y-138261928D01*
X210490000Y-138261928D01*
X210390000Y-138271777D01*
X210290000Y-138261928D01*
X209990000Y-138261928D01*
X209890000Y-138271777D01*
X209790000Y-138261928D01*
X209490000Y-138261928D01*
X209390000Y-138271777D01*
X209290000Y-138261928D01*
X208990000Y-138261928D01*
X208890000Y-138271777D01*
X208790000Y-138261928D01*
X208490000Y-138261928D01*
X208390000Y-138271777D01*
X208290000Y-138261928D01*
X207990000Y-138261928D01*
X207890000Y-138271777D01*
X207790000Y-138261928D01*
X207490000Y-138261928D01*
X207390000Y-138271777D01*
X207290000Y-138261928D01*
X206990000Y-138261928D01*
X206890000Y-138271777D01*
X206790000Y-138261928D01*
X206490000Y-138261928D01*
X206390000Y-138271777D01*
X206290000Y-138261928D01*
X205990000Y-138261928D01*
X205865518Y-138274188D01*
X205745820Y-138310498D01*
X205635506Y-138369463D01*
X205538815Y-138448815D01*
X205459463Y-138545506D01*
X205400498Y-138655820D01*
X205388889Y-138694088D01*
X205333804Y-138639003D01*
X205310001Y-138609999D01*
X205194276Y-138515026D01*
X205100482Y-138464891D01*
X205184180Y-138439502D01*
X205294494Y-138380537D01*
X205391185Y-138301185D01*
X205470537Y-138204494D01*
X205529502Y-138094180D01*
X205565812Y-137974482D01*
X205578072Y-137850000D01*
X205578072Y-137550000D01*
X205568223Y-137450000D01*
X205578072Y-137350000D01*
X205578072Y-137050000D01*
X205568223Y-136950000D01*
X205578072Y-136850000D01*
X205578072Y-136550000D01*
X205568223Y-136450000D01*
X205578072Y-136350000D01*
X205578072Y-136050000D01*
X205568223Y-135950000D01*
X205578072Y-135850000D01*
X205578072Y-135550000D01*
X205568223Y-135450000D01*
X205578072Y-135350000D01*
X205578072Y-135050000D01*
X205568223Y-134950000D01*
X205578072Y-134850000D01*
X205578072Y-134550000D01*
X205568223Y-134450000D01*
X205578072Y-134350000D01*
X205578072Y-134050000D01*
X205568223Y-133950000D01*
X205578072Y-133850000D01*
X205578072Y-133550000D01*
X205568223Y-133450000D01*
X205578072Y-133350000D01*
X205578072Y-133050000D01*
X205568223Y-132950000D01*
X205578072Y-132850000D01*
X205578072Y-132550000D01*
X205568223Y-132450000D01*
X205578072Y-132350000D01*
X205578072Y-132050000D01*
X205568223Y-131950000D01*
X205578072Y-131850000D01*
X205578072Y-131846309D01*
X205599278Y-131834974D01*
X205715003Y-131740001D01*
X205738806Y-131710997D01*
X206025998Y-131423805D01*
X206055001Y-131400003D01*
X206149974Y-131284278D01*
X206220546Y-131152249D01*
X206264003Y-131008988D01*
X206275000Y-130897335D01*
X206275000Y-130897327D01*
X206278676Y-130860002D01*
X206275000Y-130822677D01*
X206275000Y-130410000D01*
X211702678Y-130410000D01*
X211740000Y-130413676D01*
X211777322Y-130410000D01*
X211777333Y-130410000D01*
X211888986Y-130399003D01*
X212032247Y-130355546D01*
X212164276Y-130284974D01*
X212280001Y-130190001D01*
X212303803Y-130160998D01*
X212651003Y-129813799D01*
X212680001Y-129790001D01*
X212774974Y-129674276D01*
X212794566Y-129637622D01*
X212890000Y-129628223D01*
X212990000Y-129638072D01*
X213290000Y-129638072D01*
X213390000Y-129628223D01*
X213490000Y-129638072D01*
X213790000Y-129638072D01*
X213914482Y-129625812D01*
X214034180Y-129589502D01*
X214144494Y-129530537D01*
X214241185Y-129451185D01*
X214320537Y-129354494D01*
X214379502Y-129244180D01*
X214415812Y-129124482D01*
X214428072Y-129000000D01*
X214428072Y-127500000D01*
X214415812Y-127375518D01*
X214412801Y-127365591D01*
X215761004Y-126017388D01*
X215790001Y-125993591D01*
X215884974Y-125877866D01*
X215955546Y-125745837D01*
X215999003Y-125602576D01*
X216010000Y-125490923D01*
X216010000Y-125490913D01*
X216013676Y-125453590D01*
X216010000Y-125416267D01*
X216010000Y-114613072D01*
X216525000Y-114613072D01*
X216649482Y-114600812D01*
X216769180Y-114564502D01*
X216879494Y-114505537D01*
X216976185Y-114426185D01*
X217055537Y-114329494D01*
X217114502Y-114219180D01*
X217150812Y-114099482D01*
X217163072Y-113975000D01*
X217163072Y-112875000D01*
X217150812Y-112750518D01*
X217114502Y-112630820D01*
X217055537Y-112520506D01*
X216976185Y-112423815D01*
X216879494Y-112344463D01*
X216769180Y-112285498D01*
X216649482Y-112249188D01*
X216525000Y-112236928D01*
X215925000Y-112236928D01*
X215800518Y-112249188D01*
X215737500Y-112268304D01*
X215674482Y-112249188D01*
X215550000Y-112236928D01*
X214950000Y-112236928D01*
X214825518Y-112249188D01*
X214787500Y-112260721D01*
X214749482Y-112249188D01*
X214625000Y-112236928D01*
X214025000Y-112236928D01*
X213900518Y-112249188D01*
X213780820Y-112285498D01*
X213670506Y-112344463D01*
X213573815Y-112423815D01*
X213494463Y-112520506D01*
X213435498Y-112630820D01*
X213425130Y-112665000D01*
X212702322Y-112665000D01*
X212664999Y-112661324D01*
X212627676Y-112665000D01*
X212627667Y-112665000D01*
X212516014Y-112675997D01*
X212372753Y-112719454D01*
X212240724Y-112790026D01*
X212124999Y-112884999D01*
X212101196Y-112914003D01*
X211929003Y-113086196D01*
X211899999Y-113109999D01*
X211845561Y-113176332D01*
X211805026Y-113225724D01*
X211778145Y-113276015D01*
X211734454Y-113357754D01*
X211690997Y-113501015D01*
X211680000Y-113612668D01*
X211680000Y-113612678D01*
X211676324Y-113650000D01*
X211680000Y-113687323D01*
X211680000Y-113946289D01*
X211636063Y-113990226D01*
X211522795Y-114159744D01*
X211444774Y-114348102D01*
X211405000Y-114548061D01*
X211405000Y-114751939D01*
X211444774Y-114951898D01*
X211522795Y-115140256D01*
X211636063Y-115309774D01*
X211780226Y-115453937D01*
X211949744Y-115567205D01*
X212138102Y-115645226D01*
X212338061Y-115685000D01*
X212541939Y-115685000D01*
X212741898Y-115645226D01*
X212930256Y-115567205D01*
X213099774Y-115453937D01*
X213243937Y-115309774D01*
X213357205Y-115140256D01*
X213435226Y-114951898D01*
X213475000Y-114751939D01*
X213475000Y-114548061D01*
X213435226Y-114348102D01*
X213367666Y-114185000D01*
X213425130Y-114185000D01*
X213435498Y-114219180D01*
X213494463Y-114329494D01*
X213573815Y-114426185D01*
X213670506Y-114505537D01*
X213780820Y-114564502D01*
X213900518Y-114600812D01*
X214025000Y-114613072D01*
X214490001Y-114613072D01*
X214490000Y-125138788D01*
X213400000Y-126228789D01*
X213400000Y-124095918D01*
X213502115Y-124012115D01*
X213608671Y-123882275D01*
X213687850Y-123734142D01*
X213736608Y-123573408D01*
X213753072Y-123406250D01*
X213753072Y-122968750D01*
X213736608Y-122801592D01*
X213687850Y-122640858D01*
X213608671Y-122492725D01*
X213532574Y-122400000D01*
X213608671Y-122307275D01*
X213687850Y-122159142D01*
X213736608Y-121998408D01*
X213753072Y-121831250D01*
X213753072Y-121393750D01*
X213736608Y-121226592D01*
X213687850Y-121065858D01*
X213608671Y-120917725D01*
X213502115Y-120787885D01*
X213400000Y-120704082D01*
X213400000Y-120387323D01*
X213403676Y-120350000D01*
X213400000Y-120312677D01*
X213400000Y-120312667D01*
X213389003Y-120201014D01*
X213345546Y-120057753D01*
X213305480Y-119982795D01*
X213274974Y-119925723D01*
X213203799Y-119838997D01*
X213180001Y-119809999D01*
X213151004Y-119786202D01*
X212253804Y-118889002D01*
X212230001Y-118859999D01*
X212114276Y-118765026D01*
X211982247Y-118694454D01*
X211838986Y-118650997D01*
X211727333Y-118640000D01*
X211727322Y-118640000D01*
X211690000Y-118636324D01*
X211652678Y-118640000D01*
X210143711Y-118640000D01*
X210099774Y-118596063D01*
X209930256Y-118482795D01*
X209741898Y-118404774D01*
X209541939Y-118365000D01*
X209338061Y-118365000D01*
X209138102Y-118404774D01*
X208949744Y-118482795D01*
X208780226Y-118596063D01*
X208636063Y-118740226D01*
X208522795Y-118909744D01*
X208444774Y-119098102D01*
X208405000Y-119298061D01*
X208405000Y-119501939D01*
X208444774Y-119701898D01*
X208522795Y-119890256D01*
X208636063Y-120059774D01*
X208680000Y-120103711D01*
X208680001Y-120704082D01*
X208577885Y-120787885D01*
X208471329Y-120917725D01*
X208392150Y-121065858D01*
X208343392Y-121226592D01*
X208326928Y-121393750D01*
X208326928Y-121664990D01*
X203265832Y-121664990D01*
X203228509Y-121661314D01*
X203191186Y-121664990D01*
X203191177Y-121664990D01*
X203079524Y-121675987D01*
X202936263Y-121719444D01*
X202804234Y-121790016D01*
X202688509Y-121884989D01*
X202664711Y-121913987D01*
X202281802Y-122296896D01*
X202243937Y-122240226D01*
X202099774Y-122096063D01*
X201930256Y-121982795D01*
X201741898Y-121904774D01*
X201541939Y-121865000D01*
X201338061Y-121865000D01*
X201138102Y-121904774D01*
X200949744Y-121982795D01*
X200780226Y-122096063D01*
X200636063Y-122240226D01*
X200522795Y-122409744D01*
X200444774Y-122598102D01*
X200405000Y-122798061D01*
X200405000Y-122860198D01*
X199600209Y-123664990D01*
X199553072Y-123664990D01*
X199553072Y-123393750D01*
X199536608Y-123226592D01*
X199487850Y-123065858D01*
X199408671Y-122917725D01*
X199302115Y-122787885D01*
X199200000Y-122704082D01*
X199200000Y-121603711D01*
X199243937Y-121559774D01*
X199357205Y-121390256D01*
X199435226Y-121201898D01*
X199475000Y-121001939D01*
X199475000Y-120798061D01*
X199435226Y-120598102D01*
X199357205Y-120409744D01*
X199243937Y-120240226D01*
X199099774Y-120096063D01*
X198930256Y-119982795D01*
X198741898Y-119904774D01*
X198541939Y-119865000D01*
X198338061Y-119865000D01*
X198138102Y-119904774D01*
X197949744Y-119982795D01*
X197780226Y-120096063D01*
X197636063Y-120240226D01*
X197522795Y-120409744D01*
X197444774Y-120598102D01*
X197405000Y-120798061D01*
X197405000Y-121001939D01*
X197444774Y-121201898D01*
X197522795Y-121390256D01*
X197636063Y-121559774D01*
X197680001Y-121603712D01*
X197680000Y-122704082D01*
X197577885Y-122787885D01*
X197565000Y-122803586D01*
X197552115Y-122787885D01*
X197422275Y-122681329D01*
X197274142Y-122602150D01*
X197113408Y-122553392D01*
X196946250Y-122536928D01*
X196433750Y-122536928D01*
X196266592Y-122553392D01*
X196105858Y-122602150D01*
X195957725Y-122681329D01*
X195827885Y-122787885D01*
X195774857Y-122852500D01*
X195764822Y-122852500D01*
X195727499Y-122848824D01*
X195690176Y-122852500D01*
X195690167Y-122852500D01*
X195578514Y-122863497D01*
X195435253Y-122906954D01*
X195303224Y-122977526D01*
X195187499Y-123072499D01*
X195163701Y-123101498D01*
X194428998Y-123836201D01*
X194400000Y-123859999D01*
X194376202Y-123888997D01*
X194376201Y-123888998D01*
X194305026Y-123975724D01*
X194234454Y-124107754D01*
X194190998Y-124251015D01*
X194176324Y-124400000D01*
X194180001Y-124437332D01*
X194180000Y-125704082D01*
X194077885Y-125787885D01*
X193971329Y-125917725D01*
X193892150Y-126065858D01*
X193843392Y-126226592D01*
X193826928Y-126393750D01*
X193826928Y-126831250D01*
X193843392Y-126998408D01*
X193892150Y-127159142D01*
X193971329Y-127307275D01*
X194047426Y-127400000D01*
X193971329Y-127492725D01*
X193892150Y-127640858D01*
X193843392Y-127801592D01*
X193826928Y-127968750D01*
X193826928Y-128406250D01*
X193843392Y-128573408D01*
X193892150Y-128734142D01*
X193971329Y-128882275D01*
X194077885Y-129012115D01*
X194180000Y-129095918D01*
X194180000Y-129196289D01*
X194136063Y-129240226D01*
X194022795Y-129409744D01*
X193944774Y-129598102D01*
X193905000Y-129798061D01*
X193905000Y-130001939D01*
X193944774Y-130201898D01*
X194022795Y-130390256D01*
X194136063Y-130559774D01*
X194280226Y-130703937D01*
X194449744Y-130817205D01*
X194638102Y-130895226D01*
X194838061Y-130935000D01*
X195041939Y-130935000D01*
X195241898Y-130895226D01*
X195430256Y-130817205D01*
X195599774Y-130703937D01*
X195743937Y-130559774D01*
X195857205Y-130390256D01*
X195935226Y-130201898D01*
X195975000Y-130001939D01*
X195975000Y-129798061D01*
X195935226Y-129598102D01*
X195857205Y-129409744D01*
X195743937Y-129240226D01*
X195700000Y-129196289D01*
X195700000Y-129095918D01*
X195802115Y-129012115D01*
X195855143Y-128947500D01*
X195912699Y-128947500D01*
X196126196Y-129160997D01*
X196149999Y-129190001D01*
X196265724Y-129284974D01*
X196397753Y-129355546D01*
X196541014Y-129399003D01*
X196652667Y-129410000D01*
X196652675Y-129410000D01*
X196690000Y-129413676D01*
X196727325Y-129410000D01*
X197086893Y-129410000D01*
X197139018Y-129425812D01*
X197151928Y-129427083D01*
X197151928Y-129831500D01*
X197164188Y-129955982D01*
X197200498Y-130075680D01*
X197259463Y-130185994D01*
X197338815Y-130282685D01*
X197435506Y-130362037D01*
X197545820Y-130421002D01*
X197665518Y-130457312D01*
X197790000Y-130469572D01*
X198090000Y-130469572D01*
X198190000Y-130459723D01*
X198285434Y-130469122D01*
X198305026Y-130505776D01*
X198342152Y-130551014D01*
X198399999Y-130621501D01*
X198429002Y-130645303D01*
X198994700Y-131211002D01*
X199018499Y-131240001D01*
X199047497Y-131263799D01*
X199134223Y-131334974D01*
X199201630Y-131371004D01*
X199266253Y-131405546D01*
X199409514Y-131449003D01*
X199521167Y-131460000D01*
X199521176Y-131460000D01*
X199558499Y-131463676D01*
X199595822Y-131460000D01*
X201004776Y-131460000D01*
X200949744Y-131482795D01*
X200780226Y-131596063D01*
X200636063Y-131740226D01*
X200522795Y-131909744D01*
X200444774Y-132098102D01*
X200405000Y-132298061D01*
X200405000Y-132501939D01*
X200444774Y-132701898D01*
X200522795Y-132890256D01*
X200636063Y-133059774D01*
X200780226Y-133203937D01*
X200792185Y-133211928D01*
X199140000Y-133211928D01*
X199015518Y-133224188D01*
X198895820Y-133260498D01*
X198785506Y-133319463D01*
X198690000Y-133397842D01*
X198594494Y-133319463D01*
X198484180Y-133260498D01*
X198364482Y-133224188D01*
X198240000Y-133211928D01*
X196040000Y-133211928D01*
X195915518Y-133224188D01*
X195795820Y-133260498D01*
X195685506Y-133319463D01*
X195588815Y-133398815D01*
X195509463Y-133495506D01*
X195458954Y-133590000D01*
X195090700Y-133590000D01*
X194930256Y-133482795D01*
X194741898Y-133404774D01*
X194541939Y-133365000D01*
X194338061Y-133365000D01*
X194138102Y-133404774D01*
X193949744Y-133482795D01*
X193780226Y-133596063D01*
X193636063Y-133740226D01*
X193522795Y-133909744D01*
X193444774Y-134098102D01*
X193405000Y-134298061D01*
X193405000Y-134501939D01*
X193444774Y-134701898D01*
X193522795Y-134890256D01*
X193636063Y-135059774D01*
X193780226Y-135203937D01*
X193949744Y-135317205D01*
X194138102Y-135395226D01*
X194338061Y-135435000D01*
X194541939Y-135435000D01*
X194741898Y-135395226D01*
X194930256Y-135317205D01*
X195099774Y-135203937D01*
X195193711Y-135110000D01*
X195458954Y-135110000D01*
X195509463Y-135204494D01*
X195588815Y-135301185D01*
X195685506Y-135380537D01*
X195795820Y-135439502D01*
X195915518Y-135475812D01*
X196040000Y-135488072D01*
X196380000Y-135488072D01*
X196380000Y-136312677D01*
X196376324Y-136350000D01*
X196380000Y-136387322D01*
X196380000Y-136387332D01*
X196390997Y-136498985D01*
X196423991Y-136607753D01*
X196434454Y-136642246D01*
X196505026Y-136774276D01*
X196526127Y-136799987D01*
X196599999Y-136890001D01*
X196629002Y-136913803D01*
X196655199Y-136940000D01*
X195427333Y-136940000D01*
X195390000Y-136936323D01*
X195352667Y-136940000D01*
X195241014Y-136950997D01*
X195097753Y-136994454D01*
X194965724Y-137065026D01*
X194849999Y-137159999D01*
X194826201Y-137188997D01*
X193879002Y-138136196D01*
X193849999Y-138159999D01*
X193805847Y-138213799D01*
X193755026Y-138275724D01*
X193729074Y-138324277D01*
X193684454Y-138407754D01*
X193640997Y-138551015D01*
X193630000Y-138662668D01*
X193630000Y-138662678D01*
X193626324Y-138700000D01*
X193630000Y-138737323D01*
X193630000Y-138918954D01*
X193535506Y-138969463D01*
X193438815Y-139048815D01*
X193359463Y-139145506D01*
X193300498Y-139255820D01*
X193264188Y-139375518D01*
X193251928Y-139500000D01*
X193251928Y-139565000D01*
X187790827Y-139565000D01*
X187739999Y-139559994D01*
X187689171Y-139565000D01*
X187689162Y-139565000D01*
X187537105Y-139579976D01*
X187342007Y-139639159D01*
X187301142Y-139661002D01*
X187162202Y-139735266D01*
X187053745Y-139824275D01*
X187004604Y-139864604D01*
X186972197Y-139904092D01*
X185994097Y-140882193D01*
X185954604Y-140914604D01*
X185825266Y-141072203D01*
X185729159Y-141252008D01*
X185669976Y-141447106D01*
X185655000Y-141599163D01*
X185655000Y-141599172D01*
X185649994Y-141650000D01*
X185655000Y-141700828D01*
X185655000Y-143265000D01*
X183690000Y-143265000D01*
X183566118Y-143277201D01*
X183446996Y-143313336D01*
X183337213Y-143372017D01*
X183240987Y-143450987D01*
X183162017Y-143547213D01*
X183103336Y-143656996D01*
X183067201Y-143776118D01*
X183055000Y-143900000D01*
X183055000Y-147650000D01*
X183067201Y-147773882D01*
X183103336Y-147893004D01*
X183162017Y-148002787D01*
X183240987Y-148099013D01*
X183337213Y-148177983D01*
X183446996Y-148236664D01*
X183566118Y-148272799D01*
X183690000Y-148285000D01*
X184799043Y-148285000D01*
X184809463Y-148304494D01*
X184888815Y-148401185D01*
X184985506Y-148480537D01*
X185095820Y-148539502D01*
X185215518Y-148575812D01*
X185340000Y-148588072D01*
X186340000Y-148588072D01*
X186464482Y-148575812D01*
X186584180Y-148539502D01*
X186694494Y-148480537D01*
X186791185Y-148401185D01*
X186870537Y-148304494D01*
X186880957Y-148285000D01*
X187940000Y-148285000D01*
X188063882Y-148272799D01*
X188183004Y-148236664D01*
X188292787Y-148177983D01*
X188389013Y-148099013D01*
X188467983Y-148002787D01*
X188526664Y-147893004D01*
X188562799Y-147773882D01*
X188575000Y-147650000D01*
X188575000Y-143900000D01*
X188562799Y-143776118D01*
X188526664Y-143656996D01*
X188467983Y-143547213D01*
X188389013Y-143450987D01*
X188292787Y-143372017D01*
X188183004Y-143313336D01*
X188063882Y-143277201D01*
X187940000Y-143265000D01*
X187725000Y-143265000D01*
X187725000Y-142078710D01*
X188168711Y-141635000D01*
X193251928Y-141635000D01*
X193251928Y-141700000D01*
X193264188Y-141824482D01*
X193300498Y-141944180D01*
X193359463Y-142054494D01*
X193437842Y-142150000D01*
X193359463Y-142245506D01*
X193300498Y-142355820D01*
X193264188Y-142475518D01*
X193251928Y-142600000D01*
X193251928Y-144800000D01*
X193264188Y-144924482D01*
X193300498Y-145044180D01*
X193359463Y-145154494D01*
X193360398Y-145155633D01*
X193369977Y-145252895D01*
X193429160Y-145447993D01*
X193525266Y-145627797D01*
X193594311Y-145711928D01*
X192940000Y-145711928D01*
X192815518Y-145724188D01*
X192695820Y-145760498D01*
X192585506Y-145819463D01*
X192488815Y-145898815D01*
X192409463Y-145995506D01*
X192350498Y-146105820D01*
X192314188Y-146225518D01*
X192301928Y-146350000D01*
X192301928Y-147950000D01*
X192314188Y-148074482D01*
X192350498Y-148194180D01*
X192409463Y-148304494D01*
X192488815Y-148401185D01*
X192585506Y-148480537D01*
X192695820Y-148539502D01*
X192815518Y-148575812D01*
X192940000Y-148588072D01*
X193940000Y-148588072D01*
X194064482Y-148575812D01*
X194184180Y-148539502D01*
X194294494Y-148480537D01*
X194391185Y-148401185D01*
X194470537Y-148304494D01*
X194529502Y-148194180D01*
X194565812Y-148074482D01*
X194578072Y-147950000D01*
X194578072Y-146673217D01*
X194658309Y-146716104D01*
X194742007Y-146760841D01*
X194937105Y-146820024D01*
X195089162Y-146835000D01*
X195089171Y-146835000D01*
X195139999Y-146840006D01*
X195190827Y-146835000D01*
X198141453Y-146835000D01*
X198165071Y-148409524D01*
X198177201Y-148523882D01*
X198213336Y-148643004D01*
X198272017Y-148752787D01*
X198350987Y-148849013D01*
X198447213Y-148927983D01*
X198556996Y-148986664D01*
X198676118Y-149022799D01*
X198800000Y-149035000D01*
X199165001Y-149035000D01*
X199165000Y-154711289D01*
X197761290Y-156115000D01*
X194532287Y-156115000D01*
X194529502Y-156105820D01*
X194470537Y-155995506D01*
X194391185Y-155898815D01*
X194294494Y-155819463D01*
X194184180Y-155760498D01*
X194064482Y-155724188D01*
X193940000Y-155711928D01*
X192940000Y-155711928D01*
X192815518Y-155724188D01*
X192695820Y-155760498D01*
X192585506Y-155819463D01*
X192488815Y-155898815D01*
X192409463Y-155995506D01*
X192350498Y-156105820D01*
X192314188Y-156225518D01*
X192301928Y-156350000D01*
X192301928Y-157950000D01*
X192314188Y-158074482D01*
X192350498Y-158194180D01*
X192405001Y-158296145D01*
X192405001Y-159319162D01*
X192399994Y-159370000D01*
X192419977Y-159572895D01*
X192479160Y-159767993D01*
X192575266Y-159947797D01*
X192672197Y-160065907D01*
X192704605Y-160105396D01*
X192744093Y-160137803D01*
X201265000Y-168658711D01*
X201265001Y-173710531D01*
X198615968Y-171911548D01*
X198527622Y-171861377D01*
X198410193Y-171820072D01*
X198286962Y-171802470D01*
X198162665Y-171809248D01*
X198042078Y-171840145D01*
X197929836Y-171893973D01*
X197830253Y-171968664D01*
X197747154Y-172061348D01*
X195159635Y-175589783D01*
X186875000Y-169771915D01*
X186875000Y-158296144D01*
X186929502Y-158194180D01*
X186965812Y-158074482D01*
X186978072Y-157950000D01*
X186978072Y-156350000D01*
X186965812Y-156225518D01*
X186929502Y-156105820D01*
X186870537Y-155995506D01*
X186791185Y-155898815D01*
X186694494Y-155819463D01*
X186584180Y-155760498D01*
X186464482Y-155724188D01*
X186340000Y-155711928D01*
X185340000Y-155711928D01*
X185215518Y-155724188D01*
X185095820Y-155760498D01*
X184985506Y-155819463D01*
X184888815Y-155898815D01*
X184809463Y-155995506D01*
X184750498Y-156105820D01*
X184714188Y-156225518D01*
X184701928Y-156350000D01*
X184701928Y-157950000D01*
X184714188Y-158074482D01*
X184750498Y-158194180D01*
X184805000Y-158296145D01*
X184805001Y-168418896D01*
X184739032Y-168412315D01*
X184615134Y-168424362D01*
X184495968Y-168460349D01*
X184386111Y-168518892D01*
X184289787Y-168597743D01*
X184210697Y-168693870D01*
X180578057Y-174115855D01*
X180520568Y-174222395D01*
X180483640Y-174341274D01*
X180470614Y-174465072D01*
X157712955Y-174465072D01*
X159605864Y-167126093D01*
X159610695Y-167115054D01*
X159622063Y-167063287D01*
X159627181Y-167043445D01*
X159629025Y-167031588D01*
X159638581Y-166988071D01*
X159638989Y-166967501D01*
X159642150Y-166947168D01*
X159640274Y-166902638D01*
X159641157Y-166858088D01*
X159637544Y-166837835D01*
X159636678Y-166817275D01*
X159626151Y-166773969D01*
X159618326Y-166730100D01*
X159610831Y-166710940D01*
X159605971Y-166690946D01*
X159587198Y-166650527D01*
X159570964Y-166609026D01*
X159559873Y-166591693D01*
X159551207Y-166573034D01*
X159524915Y-166537060D01*
X159500892Y-166499517D01*
X159486633Y-166484682D01*
X159474493Y-166468071D01*
X159441682Y-166437912D01*
X159433375Y-166429270D01*
X159417815Y-166415975D01*
X159378775Y-166380092D01*
X159368478Y-166373822D01*
X96570473Y-112719160D01*
X136571482Y-110275000D01*
X213387628Y-110275000D01*
X213387628Y-111375000D01*
X213399888Y-111499482D01*
X213436198Y-111619180D01*
X213495163Y-111729494D01*
X213574515Y-111826185D01*
X213671206Y-111905537D01*
X213781520Y-111964502D01*
X213901218Y-112000812D01*
X214025700Y-112013072D01*
X214625700Y-112013072D01*
X214750182Y-112000812D01*
X214869880Y-111964502D01*
X214980194Y-111905537D01*
X215076885Y-111826185D01*
X215156237Y-111729494D01*
X215215202Y-111619180D01*
X215251512Y-111499482D01*
X215263772Y-111375000D01*
X215263772Y-110275000D01*
X215251512Y-110150518D01*
X215215202Y-110030820D01*
X215156237Y-109920506D01*
X215085700Y-109834556D01*
X215085700Y-50759872D01*
X215089002Y-50748987D01*
X215099999Y-50637334D01*
X215099999Y-50637331D01*
X215103676Y-50600001D01*
X215099999Y-50562670D01*
X215099999Y-50471159D01*
X215230256Y-50417205D01*
X215399774Y-50303937D01*
X215543937Y-50159774D01*
X215657205Y-49990256D01*
X215735226Y-49801898D01*
X215775000Y-49601939D01*
X215775000Y-49398061D01*
X215735226Y-49198102D01*
X215657205Y-49009744D01*
X215543937Y-48840226D01*
X215399774Y-48696063D01*
X215230256Y-48582795D01*
X215041898Y-48504774D01*
X214841939Y-48465000D01*
X214638061Y-48465000D01*
X214438102Y-48504774D01*
X214249744Y-48582795D01*
X214080226Y-48696063D01*
X213936063Y-48840226D01*
X213822795Y-49009744D01*
X213744774Y-49198102D01*
X213705000Y-49398061D01*
X213705000Y-49475774D01*
X213639013Y-49599226D01*
X213634456Y-49607751D01*
X213590999Y-49751012D01*
X213581188Y-49850623D01*
X213576325Y-49899999D01*
X213580002Y-49937330D01*
X213580000Y-50454425D01*
X213576697Y-50465315D01*
X213565700Y-50576968D01*
X213565700Y-50576978D01*
X213562024Y-50614300D01*
X213565700Y-50651622D01*
X213565701Y-109834555D01*
X213495163Y-109920506D01*
X213436198Y-110030820D01*
X213399888Y-110150518D01*
X213387628Y-110275000D01*
X136571482Y-110275000D01*
X178517732Y-107711981D01*
X178530030Y-107713192D01*
X178582455Y-107708027D01*
X178602610Y-107706795D01*
X178614771Y-107704842D01*
X178659411Y-107700444D01*
X178678796Y-107694563D01*
X178698811Y-107691349D01*
X178740894Y-107675722D01*
X178783820Y-107662698D01*
X178801688Y-107653147D01*
X178820688Y-107646091D01*
X178858902Y-107622562D01*
X178898475Y-107601408D01*
X178914136Y-107588554D01*
X178931394Y-107577928D01*
X178964289Y-107547390D01*
X178998968Y-107518927D01*
X179011820Y-107503265D01*
X179026675Y-107489475D01*
X179052978Y-107453110D01*
X179081441Y-107418425D01*
X179090992Y-107400555D01*
X179102869Y-107384134D01*
X179121572Y-107343335D01*
X179127366Y-107332495D01*
X179135075Y-107313882D01*
X179157047Y-107265953D01*
X179159909Y-107253919D01*
X210744826Y-30991488D01*
X240816671Y-107293040D01*
G37*
X240816671Y-107293040D02*
X240819320Y-107305100D01*
X240840444Y-107353361D01*
X240847854Y-107372162D01*
X240853469Y-107383118D01*
X240871450Y-107424198D01*
X240883043Y-107440822D01*
X240892293Y-107458871D01*
X240920165Y-107494055D01*
X240945816Y-107530838D01*
X240960428Y-107544880D01*
X240973022Y-107560778D01*
X241007217Y-107589844D01*
X241039556Y-107620922D01*
X241056627Y-107631844D01*
X241072079Y-107644978D01*
X241111286Y-107666813D01*
X241149069Y-107690986D01*
X241167947Y-107698369D01*
X241185662Y-107708235D01*
X241228372Y-107722001D01*
X241270147Y-107738339D01*
X241290101Y-107741897D01*
X241309402Y-107748118D01*
X241353971Y-107753286D01*
X241366067Y-107755443D01*
X241386173Y-107757020D01*
X241438544Y-107763093D01*
X241450860Y-107762094D01*
X323779768Y-114220224D01*
X260440941Y-166457119D01*
X260430573Y-166463186D01*
X260390891Y-166498397D01*
X260375062Y-166511451D01*
X260366631Y-166519923D01*
X260333328Y-166549473D01*
X260320874Y-166565901D01*
X260306332Y-166580513D01*
X260281682Y-166617598D01*
X260254786Y-166653076D01*
X260245776Y-166671617D01*
X260234365Y-166688785D01*
X260217426Y-166729960D01*
X260197964Y-166770010D01*
X260192745Y-166789952D01*
X260184902Y-166809016D01*
X260176321Y-166852708D01*
X260165048Y-166895782D01*
X260163819Y-166916362D01*
X260159847Y-166936588D01*
X260159954Y-166981102D01*
X260157300Y-167025558D01*
X260160110Y-167045985D01*
X260160160Y-167066595D01*
X260168950Y-167110234D01*
X260170580Y-167122082D01*
X260175357Y-167142043D01*
X260185831Y-167194043D01*
X260190455Y-167205130D01*
X279398272Y-247466371D01*
X210258922Y-203411593D01*
X210249559Y-203403281D01*
X210204191Y-203376719D01*
X210187323Y-203365971D01*
X210176223Y-203360345D01*
X210137365Y-203337594D01*
X210118358Y-203331013D01*
X210100417Y-203321919D01*
X210057059Y-203309789D01*
X210014512Y-203295058D01*
X209994583Y-203292311D01*
X209975216Y-203286893D01*
X209930333Y-203283455D01*
X209885721Y-203277306D01*
X209865641Y-203278500D01*
X209845589Y-203276964D01*
X209800891Y-203282350D01*
X209755942Y-203285022D01*
X209736480Y-203290110D01*
X209716514Y-203292516D01*
X209673737Y-203306514D01*
X209630161Y-203317907D01*
X209612061Y-203326697D01*
X209592952Y-203332950D01*
X209553727Y-203355025D01*
X209542516Y-203360470D01*
X209525439Y-203370946D01*
X209479655Y-203396713D01*
X209470158Y-203404858D01*
X139116965Y-246563441D01*
X157712955Y-174465072D01*
X180470614Y-174465072D01*
X180481990Y-174589033D01*
X180517331Y-174708392D01*
X180575279Y-174818564D01*
X180653607Y-174915313D01*
X180749305Y-174994922D01*
X190997385Y-181941615D01*
X191097094Y-181996845D01*
X191215343Y-182035741D01*
X191338908Y-182050821D01*
X191463041Y-182041505D01*
X191582971Y-182008151D01*
X191694089Y-181952040D01*
X191792126Y-181875330D01*
X191873313Y-181780967D01*
X192669820Y-180646937D01*
X199154019Y-185127415D01*
X199268269Y-185190106D01*
X199387158Y-185226998D01*
X199510961Y-185239987D01*
X199634918Y-185228574D01*
X199754267Y-185193197D01*
X199864421Y-185135217D01*
X199961147Y-185056860D01*
X200040728Y-184961139D01*
X205290728Y-177211139D01*
X205349820Y-177102408D01*
X205386850Y-176983562D01*
X205399982Y-176859774D01*
X205388712Y-176735804D01*
X205353474Y-176616414D01*
X205295621Y-176506193D01*
X205217376Y-176409376D01*
X205121747Y-176329684D01*
X203335000Y-175116287D01*
X203335000Y-168280827D01*
X203340006Y-168229999D01*
X203335000Y-168179171D01*
X203335000Y-168179162D01*
X203320024Y-168027105D01*
X203260841Y-167832007D01*
X203216104Y-167748309D01*
X203164734Y-167652202D01*
X203067803Y-167534092D01*
X203035396Y-167494604D01*
X202995908Y-167462197D01*
X194475000Y-158941290D01*
X194475000Y-158296144D01*
X194529502Y-158194180D01*
X194532287Y-158185000D01*
X198139172Y-158185000D01*
X198190000Y-158190006D01*
X198240828Y-158185000D01*
X198240838Y-158185000D01*
X198392895Y-158170024D01*
X198587993Y-158110841D01*
X198767797Y-158014734D01*
X198925396Y-157885396D01*
X198957807Y-157845903D01*
X200895908Y-155907803D01*
X200935396Y-155875396D01*
X200981299Y-155819463D01*
X201064734Y-155717798D01*
X201160840Y-155537994D01*
X201160841Y-155537993D01*
X201220024Y-155342895D01*
X201235000Y-155190838D01*
X201235000Y-155190829D01*
X201240006Y-155140001D01*
X201235000Y-155089173D01*
X201235000Y-149035000D01*
X203400000Y-149035000D01*
X203533209Y-149020871D01*
X203651776Y-148982953D01*
X203760666Y-148922633D01*
X203855697Y-148842228D01*
X203933215Y-148744829D01*
X203990242Y-148634178D01*
X204024587Y-148514527D01*
X204034929Y-148390476D01*
X203974929Y-144390476D01*
X203974152Y-144383147D01*
X204064276Y-144334974D01*
X204180001Y-144240001D01*
X204203804Y-144210997D01*
X204373632Y-144041169D01*
X204386063Y-144059774D01*
X204530226Y-144203937D01*
X204699744Y-144317205D01*
X204888102Y-144395226D01*
X205088061Y-144435000D01*
X205291939Y-144435000D01*
X205491898Y-144395226D01*
X205680256Y-144317205D01*
X205849774Y-144203937D01*
X205993937Y-144059774D01*
X206107205Y-143890256D01*
X206185226Y-143701898D01*
X206225000Y-143501939D01*
X206225000Y-143298061D01*
X206185226Y-143098102D01*
X206107205Y-142909744D01*
X205993937Y-142740226D01*
X205849774Y-142596063D01*
X205680256Y-142482795D01*
X205491898Y-142404774D01*
X205308923Y-142368378D01*
X205517302Y-142160000D01*
X206902678Y-142160000D01*
X206940000Y-142163676D01*
X206977322Y-142160000D01*
X206977333Y-142160000D01*
X207088986Y-142149003D01*
X207232247Y-142105546D01*
X207364276Y-142034974D01*
X207405000Y-142001553D01*
X207405000Y-142001939D01*
X207444774Y-142201898D01*
X207522795Y-142390256D01*
X207636063Y-142559774D01*
X207780226Y-142703937D01*
X207949744Y-142817205D01*
X208138102Y-142895226D01*
X208338061Y-142935000D01*
X208541939Y-142935000D01*
X208741898Y-142895226D01*
X208930256Y-142817205D01*
X209059581Y-142730793D01*
X209964790Y-143636002D01*
X209988589Y-143665001D01*
X210104314Y-143759974D01*
X210236343Y-143830546D01*
X210379604Y-143874003D01*
X210491257Y-143885000D01*
X210491267Y-143885000D01*
X210528590Y-143888676D01*
X210565913Y-143885000D01*
X215872738Y-143885000D01*
X215817855Y-143953523D01*
X215760485Y-144063997D01*
X215725771Y-144183540D01*
X215715045Y-144307559D01*
X215765045Y-148507559D01*
X215777201Y-148623882D01*
X215813336Y-148743004D01*
X215872017Y-148852787D01*
X215950987Y-148949013D01*
X216047213Y-149027983D01*
X216156996Y-149086664D01*
X216276118Y-149122799D01*
X216400000Y-149135000D01*
X221900000Y-149135000D01*
X222019728Y-149123611D01*
X222139088Y-149088270D01*
X222249259Y-149030323D01*
X222346009Y-148951996D01*
X222425620Y-148856299D01*
X222485030Y-148746910D01*
X222521959Y-148628032D01*
X222534986Y-148504233D01*
X222574986Y-142504233D01*
X222562799Y-142376118D01*
X222560943Y-142369999D01*
X224434782Y-142369999D01*
X224431082Y-142375537D01*
X224307832Y-142673088D01*
X224245000Y-142988967D01*
X224245000Y-143311033D01*
X224307832Y-143626912D01*
X224431082Y-143924463D01*
X224610013Y-144192252D01*
X224837748Y-144419987D01*
X224837767Y-144420000D01*
X224837748Y-144420013D01*
X224610013Y-144647748D01*
X224431082Y-144915537D01*
X224307832Y-145213088D01*
X224245000Y-145528967D01*
X224245000Y-145851033D01*
X224307832Y-146166912D01*
X224431082Y-146464463D01*
X224610013Y-146732252D01*
X224837748Y-146959987D01*
X224837767Y-146960000D01*
X224837748Y-146960013D01*
X224610013Y-147187748D01*
X224431082Y-147455537D01*
X224307832Y-147753088D01*
X224245000Y-148068967D01*
X224245000Y-148391033D01*
X224307832Y-148706912D01*
X224431082Y-149004463D01*
X224610013Y-149272252D01*
X224837748Y-149499987D01*
X225105537Y-149678918D01*
X225403088Y-149802168D01*
X225718967Y-149865000D01*
X226041033Y-149865000D01*
X226356912Y-149802168D01*
X226654463Y-149678918D01*
X226922252Y-149499987D01*
X227149987Y-149272252D01*
X227150000Y-149272233D01*
X227150013Y-149272252D01*
X227377748Y-149499987D01*
X227645537Y-149678918D01*
X227943088Y-149802168D01*
X228258967Y-149865000D01*
X228581033Y-149865000D01*
X228896912Y-149802168D01*
X229194463Y-149678918D01*
X229462252Y-149499987D01*
X229689987Y-149272252D01*
X229868918Y-149004463D01*
X229992168Y-148706912D01*
X230055000Y-148391033D01*
X230055000Y-148068967D01*
X229992168Y-147753088D01*
X229868918Y-147455537D01*
X229689987Y-147187748D01*
X229462252Y-146960013D01*
X229462233Y-146960000D01*
X229462252Y-146959987D01*
X229689987Y-146732252D01*
X229868918Y-146464463D01*
X229992168Y-146166912D01*
X230055000Y-145851033D01*
X230055000Y-145528967D01*
X229992168Y-145213088D01*
X229868918Y-144915537D01*
X229689987Y-144647748D01*
X229462252Y-144420013D01*
X229462233Y-144420000D01*
X229462252Y-144419987D01*
X229689987Y-144192252D01*
X229868918Y-143924463D01*
X229992168Y-143626912D01*
X230055000Y-143311033D01*
X230055000Y-142988967D01*
X229992168Y-142673088D01*
X229868918Y-142375537D01*
X229689987Y-142107748D01*
X229462252Y-141880013D01*
X229462233Y-141880000D01*
X229462252Y-141879987D01*
X229689987Y-141652252D01*
X229868918Y-141384463D01*
X229875052Y-141369655D01*
X229983199Y-141359003D01*
X230126460Y-141315546D01*
X230258489Y-141244974D01*
X230374214Y-141150001D01*
X230398017Y-141120997D01*
X232201004Y-139318011D01*
X232230001Y-139294214D01*
X232265454Y-139251014D01*
X232324974Y-139178490D01*
X232395546Y-139046460D01*
X232395546Y-139046459D01*
X232439003Y-138903199D01*
X232450000Y-138791546D01*
X232450000Y-138791537D01*
X232453676Y-138754214D01*
X232450000Y-138716891D01*
X232450000Y-131687333D01*
X232450230Y-131685000D01*
X232541939Y-131685000D01*
X232741898Y-131645226D01*
X232930256Y-131567205D01*
X233099774Y-131453937D01*
X233243937Y-131309774D01*
X233357205Y-131140256D01*
X233435226Y-130951898D01*
X233475000Y-130751939D01*
X233475000Y-130548061D01*
X233435226Y-130348102D01*
X233357205Y-130159744D01*
X233243937Y-129990226D01*
X233099774Y-129846063D01*
X232930256Y-129732795D01*
X232741898Y-129654774D01*
X232541939Y-129615000D01*
X232479802Y-129615000D01*
X228950000Y-126085199D01*
X228950000Y-124937322D01*
X228953676Y-124899999D01*
X228950000Y-124862676D01*
X228950000Y-124862667D01*
X228939003Y-124751014D01*
X228895546Y-124607753D01*
X228824974Y-124475724D01*
X228730001Y-124359999D01*
X228701004Y-124336202D01*
X228003803Y-123639002D01*
X227980001Y-123609999D01*
X227864276Y-123515026D01*
X227732247Y-123444454D01*
X227588986Y-123400997D01*
X227477333Y-123390000D01*
X227477322Y-123390000D01*
X227440000Y-123386324D01*
X227402678Y-123390000D01*
X226675920Y-123390000D01*
X226596623Y-123293377D01*
X226463942Y-123184488D01*
X226312567Y-123103577D01*
X226148316Y-123053752D01*
X225977500Y-123036928D01*
X225402500Y-123036928D01*
X225231684Y-123053752D01*
X225067433Y-123103577D01*
X224916058Y-123184488D01*
X224815000Y-123267425D01*
X224713942Y-123184488D01*
X224562567Y-123103577D01*
X224398316Y-123053752D01*
X224227500Y-123036928D01*
X223652500Y-123036928D01*
X223481684Y-123053752D01*
X223317433Y-123103577D01*
X223166058Y-123184488D01*
X223033377Y-123293377D01*
X222954080Y-123390000D01*
X222893711Y-123390000D01*
X222849774Y-123346063D01*
X222680256Y-123232795D01*
X222491898Y-123154774D01*
X222291939Y-123115000D01*
X222088061Y-123115000D01*
X221888102Y-123154774D01*
X221699744Y-123232795D01*
X221530226Y-123346063D01*
X221386063Y-123490226D01*
X221272795Y-123659744D01*
X221194774Y-123848102D01*
X221155000Y-124048061D01*
X221155000Y-124251939D01*
X221194774Y-124451898D01*
X221272795Y-124640256D01*
X221386063Y-124809774D01*
X221430000Y-124853711D01*
X221430001Y-125876807D01*
X221395537Y-125891082D01*
X221127748Y-126070013D01*
X220900013Y-126297748D01*
X220900000Y-126297767D01*
X220899987Y-126297748D01*
X220672252Y-126070013D01*
X220404463Y-125891082D01*
X220106912Y-125767832D01*
X219791033Y-125705000D01*
X219468967Y-125705000D01*
X219153088Y-125767832D01*
X218855537Y-125891082D01*
X218587748Y-126070013D01*
X218360013Y-126297748D01*
X218181082Y-126565537D01*
X218057832Y-126863088D01*
X217995000Y-127178967D01*
X217995000Y-127501033D01*
X218057832Y-127816912D01*
X218181082Y-128114463D01*
X218360013Y-128382252D01*
X218587748Y-128609987D01*
X218855537Y-128788918D01*
X218870000Y-128794909D01*
X218870000Y-129052677D01*
X218866324Y-129090000D01*
X218870000Y-129127322D01*
X218870000Y-129127332D01*
X218880997Y-129238985D01*
X218916036Y-129354494D01*
X218924454Y-129382246D01*
X218995026Y-129514276D01*
X219023511Y-129548985D01*
X219089999Y-129630001D01*
X219119002Y-129653804D01*
X220176190Y-130710992D01*
X220199989Y-130739991D01*
X220228987Y-130763789D01*
X220315713Y-130834964D01*
X220432398Y-130897334D01*
X220447743Y-130905536D01*
X220591004Y-130948993D01*
X220702657Y-130959990D01*
X220702667Y-130959990D01*
X220739990Y-130963666D01*
X220777313Y-130959990D01*
X221555208Y-130959990D01*
X216976918Y-135538281D01*
X216968223Y-135450000D01*
X216978072Y-135350000D01*
X216978072Y-135050000D01*
X216968223Y-134950000D01*
X216978072Y-134850000D01*
X216978072Y-134550000D01*
X216968223Y-134450000D01*
X216978072Y-134350000D01*
X216978072Y-134050000D01*
X216968223Y-133950000D01*
X216978072Y-133850000D01*
X216978072Y-133550000D01*
X216968223Y-133450000D01*
X216978072Y-133350000D01*
X216978072Y-133050000D01*
X216968223Y-132950000D01*
X216978072Y-132850000D01*
X216978072Y-132550000D01*
X216968223Y-132450000D01*
X216978072Y-132350000D01*
X216978072Y-132050000D01*
X216968223Y-131950000D01*
X216978072Y-131850000D01*
X216978072Y-131550000D01*
X216968223Y-131450000D01*
X216978072Y-131350000D01*
X216978072Y-131050000D01*
X216968223Y-130950000D01*
X216978072Y-130850000D01*
X216978072Y-130550000D01*
X216968223Y-130450000D01*
X216978072Y-130350000D01*
X216978072Y-130050000D01*
X216965812Y-129925518D01*
X216929502Y-129805820D01*
X216870537Y-129695506D01*
X216791185Y-129598815D01*
X216694494Y-129519463D01*
X216584180Y-129460498D01*
X216464482Y-129424188D01*
X216340000Y-129411928D01*
X214840000Y-129411928D01*
X214715518Y-129424188D01*
X214595820Y-129460498D01*
X214485506Y-129519463D01*
X214388815Y-129598815D01*
X214309463Y-129695506D01*
X214250498Y-129805820D01*
X214214188Y-129925518D01*
X214201928Y-130050000D01*
X214201928Y-130350000D01*
X214211777Y-130450000D01*
X214201928Y-130550000D01*
X214201928Y-130850000D01*
X214211777Y-130950000D01*
X214201928Y-131050000D01*
X214201928Y-131350000D01*
X214211777Y-131450000D01*
X214201928Y-131550000D01*
X214201928Y-131850000D01*
X214211777Y-131950000D01*
X214201928Y-132050000D01*
X214201928Y-132350000D01*
X214211777Y-132450000D01*
X214201928Y-132550000D01*
X214201928Y-132850000D01*
X214211777Y-132950000D01*
X214201928Y-133050000D01*
X214201928Y-133350000D01*
X214211777Y-133450000D01*
X214201928Y-133550000D01*
X214201928Y-133850000D01*
X214211777Y-133950000D01*
X214201928Y-134050000D01*
X214201928Y-134350000D01*
X214211777Y-134450000D01*
X214201928Y-134550000D01*
X214201928Y-134850000D01*
X214211777Y-134950000D01*
X214201928Y-135050000D01*
X214201928Y-135350000D01*
X214211777Y-135450000D01*
X214201928Y-135550000D01*
X214201928Y-135850000D01*
X214211777Y-135950000D01*
X214201928Y-136050000D01*
X214201928Y-136350000D01*
X214211777Y-136450000D01*
X214201928Y-136550000D01*
X214201928Y-136850000D01*
X214211777Y-136950000D01*
X214201928Y-137050000D01*
X214201928Y-137350000D01*
X214211777Y-137450000D01*
X214201928Y-137550000D01*
X214201928Y-137850000D01*
X214214188Y-137974482D01*
X214250498Y-138094180D01*
X214309463Y-138204494D01*
X214388815Y-138301185D01*
X214485506Y-138380537D01*
X214595820Y-138439502D01*
X214715518Y-138475812D01*
X214840000Y-138488072D01*
X216340000Y-138488072D01*
X216430000Y-138479208D01*
X216430000Y-139085198D01*
X215125199Y-140390000D01*
X214428072Y-140390000D01*
X214428072Y-138900000D01*
X214415812Y-138775518D01*
X214379502Y-138655820D01*
X214320537Y-138545506D01*
X214241185Y-138448815D01*
X214144494Y-138369463D01*
X214034180Y-138310498D01*
X213914482Y-138274188D01*
X213790000Y-138261928D01*
X213490000Y-138261928D01*
X213390000Y-138271777D01*
X213290000Y-138261928D01*
X212990000Y-138261928D01*
X212890000Y-138271777D01*
X212790000Y-138261928D01*
X212490000Y-138261928D01*
X212390000Y-138271777D01*
X212290000Y-138261928D01*
X211990000Y-138261928D01*
X211890000Y-138271777D01*
X211790000Y-138261928D01*
X211490000Y-138261928D01*
X211390000Y-138271777D01*
X211290000Y-138261928D01*
X210990000Y-138261928D01*
X210890000Y-138271777D01*
X210790000Y-138261928D01*
X210490000Y-138261928D01*
X210390000Y-138271777D01*
X210290000Y-138261928D01*
X209990000Y-138261928D01*
X209890000Y-138271777D01*
X209790000Y-138261928D01*
X209490000Y-138261928D01*
X209390000Y-138271777D01*
X209290000Y-138261928D01*
X208990000Y-138261928D01*
X208890000Y-138271777D01*
X208790000Y-138261928D01*
X208490000Y-138261928D01*
X208390000Y-138271777D01*
X208290000Y-138261928D01*
X207990000Y-138261928D01*
X207890000Y-138271777D01*
X207790000Y-138261928D01*
X207490000Y-138261928D01*
X207390000Y-138271777D01*
X207290000Y-138261928D01*
X206990000Y-138261928D01*
X206890000Y-138271777D01*
X206790000Y-138261928D01*
X206490000Y-138261928D01*
X206390000Y-138271777D01*
X206290000Y-138261928D01*
X205990000Y-138261928D01*
X205865518Y-138274188D01*
X205745820Y-138310498D01*
X205635506Y-138369463D01*
X205538815Y-138448815D01*
X205459463Y-138545506D01*
X205400498Y-138655820D01*
X205388889Y-138694088D01*
X205333804Y-138639003D01*
X205310001Y-138609999D01*
X205194276Y-138515026D01*
X205100482Y-138464891D01*
X205184180Y-138439502D01*
X205294494Y-138380537D01*
X205391185Y-138301185D01*
X205470537Y-138204494D01*
X205529502Y-138094180D01*
X205565812Y-137974482D01*
X205578072Y-137850000D01*
X205578072Y-137550000D01*
X205568223Y-137450000D01*
X205578072Y-137350000D01*
X205578072Y-137050000D01*
X205568223Y-136950000D01*
X205578072Y-136850000D01*
X205578072Y-136550000D01*
X205568223Y-136450000D01*
X205578072Y-136350000D01*
X205578072Y-136050000D01*
X205568223Y-135950000D01*
X205578072Y-135850000D01*
X205578072Y-135550000D01*
X205568223Y-135450000D01*
X205578072Y-135350000D01*
X205578072Y-135050000D01*
X205568223Y-134950000D01*
X205578072Y-134850000D01*
X205578072Y-134550000D01*
X205568223Y-134450000D01*
X205578072Y-134350000D01*
X205578072Y-134050000D01*
X205568223Y-133950000D01*
X205578072Y-133850000D01*
X205578072Y-133550000D01*
X205568223Y-133450000D01*
X205578072Y-133350000D01*
X205578072Y-133050000D01*
X205568223Y-132950000D01*
X205578072Y-132850000D01*
X205578072Y-132550000D01*
X205568223Y-132450000D01*
X205578072Y-132350000D01*
X205578072Y-132050000D01*
X205568223Y-131950000D01*
X205578072Y-131850000D01*
X205578072Y-131846309D01*
X205599278Y-131834974D01*
X205715003Y-131740001D01*
X205738806Y-131710997D01*
X206025998Y-131423805D01*
X206055001Y-131400003D01*
X206149974Y-131284278D01*
X206220546Y-131152249D01*
X206264003Y-131008988D01*
X206275000Y-130897335D01*
X206275000Y-130897327D01*
X206278676Y-130860002D01*
X206275000Y-130822677D01*
X206275000Y-130410000D01*
X211702678Y-130410000D01*
X211740000Y-130413676D01*
X211777322Y-130410000D01*
X211777333Y-130410000D01*
X211888986Y-130399003D01*
X212032247Y-130355546D01*
X212164276Y-130284974D01*
X212280001Y-130190001D01*
X212303803Y-130160998D01*
X212651003Y-129813799D01*
X212680001Y-129790001D01*
X212774974Y-129674276D01*
X212794566Y-129637622D01*
X212890000Y-129628223D01*
X212990000Y-129638072D01*
X213290000Y-129638072D01*
X213390000Y-129628223D01*
X213490000Y-129638072D01*
X213790000Y-129638072D01*
X213914482Y-129625812D01*
X214034180Y-129589502D01*
X214144494Y-129530537D01*
X214241185Y-129451185D01*
X214320537Y-129354494D01*
X214379502Y-129244180D01*
X214415812Y-129124482D01*
X214428072Y-129000000D01*
X214428072Y-127500000D01*
X214415812Y-127375518D01*
X214412801Y-127365591D01*
X215761004Y-126017388D01*
X215790001Y-125993591D01*
X215884974Y-125877866D01*
X215955546Y-125745837D01*
X215999003Y-125602576D01*
X216010000Y-125490923D01*
X216010000Y-125490913D01*
X216013676Y-125453590D01*
X216010000Y-125416267D01*
X216010000Y-114613072D01*
X216525000Y-114613072D01*
X216649482Y-114600812D01*
X216769180Y-114564502D01*
X216879494Y-114505537D01*
X216976185Y-114426185D01*
X217055537Y-114329494D01*
X217114502Y-114219180D01*
X217150812Y-114099482D01*
X217163072Y-113975000D01*
X217163072Y-112875000D01*
X217150812Y-112750518D01*
X217114502Y-112630820D01*
X217055537Y-112520506D01*
X216976185Y-112423815D01*
X216879494Y-112344463D01*
X216769180Y-112285498D01*
X216649482Y-112249188D01*
X216525000Y-112236928D01*
X215925000Y-112236928D01*
X215800518Y-112249188D01*
X215737500Y-112268304D01*
X215674482Y-112249188D01*
X215550000Y-112236928D01*
X214950000Y-112236928D01*
X214825518Y-112249188D01*
X214787500Y-112260721D01*
X214749482Y-112249188D01*
X214625000Y-112236928D01*
X214025000Y-112236928D01*
X213900518Y-112249188D01*
X213780820Y-112285498D01*
X213670506Y-112344463D01*
X213573815Y-112423815D01*
X213494463Y-112520506D01*
X213435498Y-112630820D01*
X213425130Y-112665000D01*
X212702322Y-112665000D01*
X212664999Y-112661324D01*
X212627676Y-112665000D01*
X212627667Y-112665000D01*
X212516014Y-112675997D01*
X212372753Y-112719454D01*
X212240724Y-112790026D01*
X212124999Y-112884999D01*
X212101196Y-112914003D01*
X211929003Y-113086196D01*
X211899999Y-113109999D01*
X211845561Y-113176332D01*
X211805026Y-113225724D01*
X211778145Y-113276015D01*
X211734454Y-113357754D01*
X211690997Y-113501015D01*
X211680000Y-113612668D01*
X211680000Y-113612678D01*
X211676324Y-113650000D01*
X211680000Y-113687323D01*
X211680000Y-113946289D01*
X211636063Y-113990226D01*
X211522795Y-114159744D01*
X211444774Y-114348102D01*
X211405000Y-114548061D01*
X211405000Y-114751939D01*
X211444774Y-114951898D01*
X211522795Y-115140256D01*
X211636063Y-115309774D01*
X211780226Y-115453937D01*
X211949744Y-115567205D01*
X212138102Y-115645226D01*
X212338061Y-115685000D01*
X212541939Y-115685000D01*
X212741898Y-115645226D01*
X212930256Y-115567205D01*
X213099774Y-115453937D01*
X213243937Y-115309774D01*
X213357205Y-115140256D01*
X213435226Y-114951898D01*
X213475000Y-114751939D01*
X213475000Y-114548061D01*
X213435226Y-114348102D01*
X213367666Y-114185000D01*
X213425130Y-114185000D01*
X213435498Y-114219180D01*
X213494463Y-114329494D01*
X213573815Y-114426185D01*
X213670506Y-114505537D01*
X213780820Y-114564502D01*
X213900518Y-114600812D01*
X214025000Y-114613072D01*
X214490001Y-114613072D01*
X214490000Y-125138788D01*
X213400000Y-126228789D01*
X213400000Y-124095918D01*
X213502115Y-124012115D01*
X213608671Y-123882275D01*
X213687850Y-123734142D01*
X213736608Y-123573408D01*
X213753072Y-123406250D01*
X213753072Y-122968750D01*
X213736608Y-122801592D01*
X213687850Y-122640858D01*
X213608671Y-122492725D01*
X213532574Y-122400000D01*
X213608671Y-122307275D01*
X213687850Y-122159142D01*
X213736608Y-121998408D01*
X213753072Y-121831250D01*
X213753072Y-121393750D01*
X213736608Y-121226592D01*
X213687850Y-121065858D01*
X213608671Y-120917725D01*
X213502115Y-120787885D01*
X213400000Y-120704082D01*
X213400000Y-120387323D01*
X213403676Y-120350000D01*
X213400000Y-120312677D01*
X213400000Y-120312667D01*
X213389003Y-120201014D01*
X213345546Y-120057753D01*
X213305480Y-119982795D01*
X213274974Y-119925723D01*
X213203799Y-119838997D01*
X213180001Y-119809999D01*
X213151004Y-119786202D01*
X212253804Y-118889002D01*
X212230001Y-118859999D01*
X212114276Y-118765026D01*
X211982247Y-118694454D01*
X211838986Y-118650997D01*
X211727333Y-118640000D01*
X211727322Y-118640000D01*
X211690000Y-118636324D01*
X211652678Y-118640000D01*
X210143711Y-118640000D01*
X210099774Y-118596063D01*
X209930256Y-118482795D01*
X209741898Y-118404774D01*
X209541939Y-118365000D01*
X209338061Y-118365000D01*
X209138102Y-118404774D01*
X208949744Y-118482795D01*
X208780226Y-118596063D01*
X208636063Y-118740226D01*
X208522795Y-118909744D01*
X208444774Y-119098102D01*
X208405000Y-119298061D01*
X208405000Y-119501939D01*
X208444774Y-119701898D01*
X208522795Y-119890256D01*
X208636063Y-120059774D01*
X208680000Y-120103711D01*
X208680001Y-120704082D01*
X208577885Y-120787885D01*
X208471329Y-120917725D01*
X208392150Y-121065858D01*
X208343392Y-121226592D01*
X208326928Y-121393750D01*
X208326928Y-121664990D01*
X203265832Y-121664990D01*
X203228509Y-121661314D01*
X203191186Y-121664990D01*
X203191177Y-121664990D01*
X203079524Y-121675987D01*
X202936263Y-121719444D01*
X202804234Y-121790016D01*
X202688509Y-121884989D01*
X202664711Y-121913987D01*
X202281802Y-122296896D01*
X202243937Y-122240226D01*
X202099774Y-122096063D01*
X201930256Y-121982795D01*
X201741898Y-121904774D01*
X201541939Y-121865000D01*
X201338061Y-121865000D01*
X201138102Y-121904774D01*
X200949744Y-121982795D01*
X200780226Y-122096063D01*
X200636063Y-122240226D01*
X200522795Y-122409744D01*
X200444774Y-122598102D01*
X200405000Y-122798061D01*
X200405000Y-122860198D01*
X199600209Y-123664990D01*
X199553072Y-123664990D01*
X199553072Y-123393750D01*
X199536608Y-123226592D01*
X199487850Y-123065858D01*
X199408671Y-122917725D01*
X199302115Y-122787885D01*
X199200000Y-122704082D01*
X199200000Y-121603711D01*
X199243937Y-121559774D01*
X199357205Y-121390256D01*
X199435226Y-121201898D01*
X199475000Y-121001939D01*
X199475000Y-120798061D01*
X199435226Y-120598102D01*
X199357205Y-120409744D01*
X199243937Y-120240226D01*
X199099774Y-120096063D01*
X198930256Y-119982795D01*
X198741898Y-119904774D01*
X198541939Y-119865000D01*
X198338061Y-119865000D01*
X198138102Y-119904774D01*
X197949744Y-119982795D01*
X197780226Y-120096063D01*
X197636063Y-120240226D01*
X197522795Y-120409744D01*
X197444774Y-120598102D01*
X197405000Y-120798061D01*
X197405000Y-121001939D01*
X197444774Y-121201898D01*
X197522795Y-121390256D01*
X197636063Y-121559774D01*
X197680001Y-121603712D01*
X197680000Y-122704082D01*
X197577885Y-122787885D01*
X197565000Y-122803586D01*
X197552115Y-122787885D01*
X197422275Y-122681329D01*
X197274142Y-122602150D01*
X197113408Y-122553392D01*
X196946250Y-122536928D01*
X196433750Y-122536928D01*
X196266592Y-122553392D01*
X196105858Y-122602150D01*
X195957725Y-122681329D01*
X195827885Y-122787885D01*
X195774857Y-122852500D01*
X195764822Y-122852500D01*
X195727499Y-122848824D01*
X195690176Y-122852500D01*
X195690167Y-122852500D01*
X195578514Y-122863497D01*
X195435253Y-122906954D01*
X195303224Y-122977526D01*
X195187499Y-123072499D01*
X195163701Y-123101498D01*
X194428998Y-123836201D01*
X194400000Y-123859999D01*
X194376202Y-123888997D01*
X194376201Y-123888998D01*
X194305026Y-123975724D01*
X194234454Y-124107754D01*
X194190998Y-124251015D01*
X194176324Y-124400000D01*
X194180001Y-124437332D01*
X194180000Y-125704082D01*
X194077885Y-125787885D01*
X193971329Y-125917725D01*
X193892150Y-126065858D01*
X193843392Y-126226592D01*
X193826928Y-126393750D01*
X193826928Y-126831250D01*
X193843392Y-126998408D01*
X193892150Y-127159142D01*
X193971329Y-127307275D01*
X194047426Y-127400000D01*
X193971329Y-127492725D01*
X193892150Y-127640858D01*
X193843392Y-127801592D01*
X193826928Y-127968750D01*
X193826928Y-128406250D01*
X193843392Y-128573408D01*
X193892150Y-128734142D01*
X193971329Y-128882275D01*
X194077885Y-129012115D01*
X194180000Y-129095918D01*
X194180000Y-129196289D01*
X194136063Y-129240226D01*
X194022795Y-129409744D01*
X193944774Y-129598102D01*
X193905000Y-129798061D01*
X193905000Y-130001939D01*
X193944774Y-130201898D01*
X194022795Y-130390256D01*
X194136063Y-130559774D01*
X194280226Y-130703937D01*
X194449744Y-130817205D01*
X194638102Y-130895226D01*
X194838061Y-130935000D01*
X195041939Y-130935000D01*
X195241898Y-130895226D01*
X195430256Y-130817205D01*
X195599774Y-130703937D01*
X195743937Y-130559774D01*
X195857205Y-130390256D01*
X195935226Y-130201898D01*
X195975000Y-130001939D01*
X195975000Y-129798061D01*
X195935226Y-129598102D01*
X195857205Y-129409744D01*
X195743937Y-129240226D01*
X195700000Y-129196289D01*
X195700000Y-129095918D01*
X195802115Y-129012115D01*
X195855143Y-128947500D01*
X195912699Y-128947500D01*
X196126196Y-129160997D01*
X196149999Y-129190001D01*
X196265724Y-129284974D01*
X196397753Y-129355546D01*
X196541014Y-129399003D01*
X196652667Y-129410000D01*
X196652675Y-129410000D01*
X196690000Y-129413676D01*
X196727325Y-129410000D01*
X197086893Y-129410000D01*
X197139018Y-129425812D01*
X197151928Y-129427083D01*
X197151928Y-129831500D01*
X197164188Y-129955982D01*
X197200498Y-130075680D01*
X197259463Y-130185994D01*
X197338815Y-130282685D01*
X197435506Y-130362037D01*
X197545820Y-130421002D01*
X197665518Y-130457312D01*
X197790000Y-130469572D01*
X198090000Y-130469572D01*
X198190000Y-130459723D01*
X198285434Y-130469122D01*
X198305026Y-130505776D01*
X198342152Y-130551014D01*
X198399999Y-130621501D01*
X198429002Y-130645303D01*
X198994700Y-131211002D01*
X199018499Y-131240001D01*
X199047497Y-131263799D01*
X199134223Y-131334974D01*
X199201630Y-131371004D01*
X199266253Y-131405546D01*
X199409514Y-131449003D01*
X199521167Y-131460000D01*
X199521176Y-131460000D01*
X199558499Y-131463676D01*
X199595822Y-131460000D01*
X201004776Y-131460000D01*
X200949744Y-131482795D01*
X200780226Y-131596063D01*
X200636063Y-131740226D01*
X200522795Y-131909744D01*
X200444774Y-132098102D01*
X200405000Y-132298061D01*
X200405000Y-132501939D01*
X200444774Y-132701898D01*
X200522795Y-132890256D01*
X200636063Y-133059774D01*
X200780226Y-133203937D01*
X200792185Y-133211928D01*
X199140000Y-133211928D01*
X199015518Y-133224188D01*
X198895820Y-133260498D01*
X198785506Y-133319463D01*
X198690000Y-133397842D01*
X198594494Y-133319463D01*
X198484180Y-133260498D01*
X198364482Y-133224188D01*
X198240000Y-133211928D01*
X196040000Y-133211928D01*
X195915518Y-133224188D01*
X195795820Y-133260498D01*
X195685506Y-133319463D01*
X195588815Y-133398815D01*
X195509463Y-133495506D01*
X195458954Y-133590000D01*
X195090700Y-133590000D01*
X194930256Y-133482795D01*
X194741898Y-133404774D01*
X194541939Y-133365000D01*
X194338061Y-133365000D01*
X194138102Y-133404774D01*
X193949744Y-133482795D01*
X193780226Y-133596063D01*
X193636063Y-133740226D01*
X193522795Y-133909744D01*
X193444774Y-134098102D01*
X193405000Y-134298061D01*
X193405000Y-134501939D01*
X193444774Y-134701898D01*
X193522795Y-134890256D01*
X193636063Y-135059774D01*
X193780226Y-135203937D01*
X193949744Y-135317205D01*
X194138102Y-135395226D01*
X194338061Y-135435000D01*
X194541939Y-135435000D01*
X194741898Y-135395226D01*
X194930256Y-135317205D01*
X195099774Y-135203937D01*
X195193711Y-135110000D01*
X195458954Y-135110000D01*
X195509463Y-135204494D01*
X195588815Y-135301185D01*
X195685506Y-135380537D01*
X195795820Y-135439502D01*
X195915518Y-135475812D01*
X196040000Y-135488072D01*
X196380000Y-135488072D01*
X196380000Y-136312677D01*
X196376324Y-136350000D01*
X196380000Y-136387322D01*
X196380000Y-136387332D01*
X196390997Y-136498985D01*
X196423991Y-136607753D01*
X196434454Y-136642246D01*
X196505026Y-136774276D01*
X196526127Y-136799987D01*
X196599999Y-136890001D01*
X196629002Y-136913803D01*
X196655199Y-136940000D01*
X195427333Y-136940000D01*
X195390000Y-136936323D01*
X195352667Y-136940000D01*
X195241014Y-136950997D01*
X195097753Y-136994454D01*
X194965724Y-137065026D01*
X194849999Y-137159999D01*
X194826201Y-137188997D01*
X193879002Y-138136196D01*
X193849999Y-138159999D01*
X193805847Y-138213799D01*
X193755026Y-138275724D01*
X193729074Y-138324277D01*
X193684454Y-138407754D01*
X193640997Y-138551015D01*
X193630000Y-138662668D01*
X193630000Y-138662678D01*
X193626324Y-138700000D01*
X193630000Y-138737323D01*
X193630000Y-138918954D01*
X193535506Y-138969463D01*
X193438815Y-139048815D01*
X193359463Y-139145506D01*
X193300498Y-139255820D01*
X193264188Y-139375518D01*
X193251928Y-139500000D01*
X193251928Y-139565000D01*
X187790827Y-139565000D01*
X187739999Y-139559994D01*
X187689171Y-139565000D01*
X187689162Y-139565000D01*
X187537105Y-139579976D01*
X187342007Y-139639159D01*
X187301142Y-139661002D01*
X187162202Y-139735266D01*
X187053745Y-139824275D01*
X187004604Y-139864604D01*
X186972197Y-139904092D01*
X185994097Y-140882193D01*
X185954604Y-140914604D01*
X185825266Y-141072203D01*
X185729159Y-141252008D01*
X185669976Y-141447106D01*
X185655000Y-141599163D01*
X185655000Y-141599172D01*
X185649994Y-141650000D01*
X185655000Y-141700828D01*
X185655000Y-143265000D01*
X183690000Y-143265000D01*
X183566118Y-143277201D01*
X183446996Y-143313336D01*
X183337213Y-143372017D01*
X183240987Y-143450987D01*
X183162017Y-143547213D01*
X183103336Y-143656996D01*
X183067201Y-143776118D01*
X183055000Y-143900000D01*
X183055000Y-147650000D01*
X183067201Y-147773882D01*
X183103336Y-147893004D01*
X183162017Y-148002787D01*
X183240987Y-148099013D01*
X183337213Y-148177983D01*
X183446996Y-148236664D01*
X183566118Y-148272799D01*
X183690000Y-148285000D01*
X184799043Y-148285000D01*
X184809463Y-148304494D01*
X184888815Y-148401185D01*
X184985506Y-148480537D01*
X185095820Y-148539502D01*
X185215518Y-148575812D01*
X185340000Y-148588072D01*
X186340000Y-148588072D01*
X186464482Y-148575812D01*
X186584180Y-148539502D01*
X186694494Y-148480537D01*
X186791185Y-148401185D01*
X186870537Y-148304494D01*
X186880957Y-148285000D01*
X187940000Y-148285000D01*
X188063882Y-148272799D01*
X188183004Y-148236664D01*
X188292787Y-148177983D01*
X188389013Y-148099013D01*
X188467983Y-148002787D01*
X188526664Y-147893004D01*
X188562799Y-147773882D01*
X188575000Y-147650000D01*
X188575000Y-143900000D01*
X188562799Y-143776118D01*
X188526664Y-143656996D01*
X188467983Y-143547213D01*
X188389013Y-143450987D01*
X188292787Y-143372017D01*
X188183004Y-143313336D01*
X188063882Y-143277201D01*
X187940000Y-143265000D01*
X187725000Y-143265000D01*
X187725000Y-142078710D01*
X188168711Y-141635000D01*
X193251928Y-141635000D01*
X193251928Y-141700000D01*
X193264188Y-141824482D01*
X193300498Y-141944180D01*
X193359463Y-142054494D01*
X193437842Y-142150000D01*
X193359463Y-142245506D01*
X193300498Y-142355820D01*
X193264188Y-142475518D01*
X193251928Y-142600000D01*
X193251928Y-144800000D01*
X193264188Y-144924482D01*
X193300498Y-145044180D01*
X193359463Y-145154494D01*
X193360398Y-145155633D01*
X193369977Y-145252895D01*
X193429160Y-145447993D01*
X193525266Y-145627797D01*
X193594311Y-145711928D01*
X192940000Y-145711928D01*
X192815518Y-145724188D01*
X192695820Y-145760498D01*
X192585506Y-145819463D01*
X192488815Y-145898815D01*
X192409463Y-145995506D01*
X192350498Y-146105820D01*
X192314188Y-146225518D01*
X192301928Y-146350000D01*
X192301928Y-147950000D01*
X192314188Y-148074482D01*
X192350498Y-148194180D01*
X192409463Y-148304494D01*
X192488815Y-148401185D01*
X192585506Y-148480537D01*
X192695820Y-148539502D01*
X192815518Y-148575812D01*
X192940000Y-148588072D01*
X193940000Y-148588072D01*
X194064482Y-148575812D01*
X194184180Y-148539502D01*
X194294494Y-148480537D01*
X194391185Y-148401185D01*
X194470537Y-148304494D01*
X194529502Y-148194180D01*
X194565812Y-148074482D01*
X194578072Y-147950000D01*
X194578072Y-146673217D01*
X194658309Y-146716104D01*
X194742007Y-146760841D01*
X194937105Y-146820024D01*
X195089162Y-146835000D01*
X195089171Y-146835000D01*
X195139999Y-146840006D01*
X195190827Y-146835000D01*
X198141453Y-146835000D01*
X198165071Y-148409524D01*
X198177201Y-148523882D01*
X198213336Y-148643004D01*
X198272017Y-148752787D01*
X198350987Y-148849013D01*
X198447213Y-148927983D01*
X198556996Y-148986664D01*
X198676118Y-149022799D01*
X198800000Y-149035000D01*
X199165001Y-149035000D01*
X199165000Y-154711289D01*
X197761290Y-156115000D01*
X194532287Y-156115000D01*
X194529502Y-156105820D01*
X194470537Y-155995506D01*
X194391185Y-155898815D01*
X194294494Y-155819463D01*
X194184180Y-155760498D01*
X194064482Y-155724188D01*
X193940000Y-155711928D01*
X192940000Y-155711928D01*
X192815518Y-155724188D01*
X192695820Y-155760498D01*
X192585506Y-155819463D01*
X192488815Y-155898815D01*
X192409463Y-155995506D01*
X192350498Y-156105820D01*
X192314188Y-156225518D01*
X192301928Y-156350000D01*
X192301928Y-157950000D01*
X192314188Y-158074482D01*
X192350498Y-158194180D01*
X192405001Y-158296145D01*
X192405001Y-159319162D01*
X192399994Y-159370000D01*
X192419977Y-159572895D01*
X192479160Y-159767993D01*
X192575266Y-159947797D01*
X192672197Y-160065907D01*
X192704605Y-160105396D01*
X192744093Y-160137803D01*
X201265000Y-168658711D01*
X201265001Y-173710531D01*
X198615968Y-171911548D01*
X198527622Y-171861377D01*
X198410193Y-171820072D01*
X198286962Y-171802470D01*
X198162665Y-171809248D01*
X198042078Y-171840145D01*
X197929836Y-171893973D01*
X197830253Y-171968664D01*
X197747154Y-172061348D01*
X195159635Y-175589783D01*
X186875000Y-169771915D01*
X186875000Y-158296144D01*
X186929502Y-158194180D01*
X186965812Y-158074482D01*
X186978072Y-157950000D01*
X186978072Y-156350000D01*
X186965812Y-156225518D01*
X186929502Y-156105820D01*
X186870537Y-155995506D01*
X186791185Y-155898815D01*
X186694494Y-155819463D01*
X186584180Y-155760498D01*
X186464482Y-155724188D01*
X186340000Y-155711928D01*
X185340000Y-155711928D01*
X185215518Y-155724188D01*
X185095820Y-155760498D01*
X184985506Y-155819463D01*
X184888815Y-155898815D01*
X184809463Y-155995506D01*
X184750498Y-156105820D01*
X184714188Y-156225518D01*
X184701928Y-156350000D01*
X184701928Y-157950000D01*
X184714188Y-158074482D01*
X184750498Y-158194180D01*
X184805000Y-158296145D01*
X184805001Y-168418896D01*
X184739032Y-168412315D01*
X184615134Y-168424362D01*
X184495968Y-168460349D01*
X184386111Y-168518892D01*
X184289787Y-168597743D01*
X184210697Y-168693870D01*
X180578057Y-174115855D01*
X180520568Y-174222395D01*
X180483640Y-174341274D01*
X180470614Y-174465072D01*
X157712955Y-174465072D01*
X159605864Y-167126093D01*
X159610695Y-167115054D01*
X159622063Y-167063287D01*
X159627181Y-167043445D01*
X159629025Y-167031588D01*
X159638581Y-166988071D01*
X159638989Y-166967501D01*
X159642150Y-166947168D01*
X159640274Y-166902638D01*
X159641157Y-166858088D01*
X159637544Y-166837835D01*
X159636678Y-166817275D01*
X159626151Y-166773969D01*
X159618326Y-166730100D01*
X159610831Y-166710940D01*
X159605971Y-166690946D01*
X159587198Y-166650527D01*
X159570964Y-166609026D01*
X159559873Y-166591693D01*
X159551207Y-166573034D01*
X159524915Y-166537060D01*
X159500892Y-166499517D01*
X159486633Y-166484682D01*
X159474493Y-166468071D01*
X159441682Y-166437912D01*
X159433375Y-166429270D01*
X159417815Y-166415975D01*
X159378775Y-166380092D01*
X159368478Y-166373822D01*
X96570473Y-112719160D01*
X136571482Y-110275000D01*
X213387628Y-110275000D01*
X213387628Y-111375000D01*
X213399888Y-111499482D01*
X213436198Y-111619180D01*
X213495163Y-111729494D01*
X213574515Y-111826185D01*
X213671206Y-111905537D01*
X213781520Y-111964502D01*
X213901218Y-112000812D01*
X214025700Y-112013072D01*
X214625700Y-112013072D01*
X214750182Y-112000812D01*
X214869880Y-111964502D01*
X214980194Y-111905537D01*
X215076885Y-111826185D01*
X215156237Y-111729494D01*
X215215202Y-111619180D01*
X215251512Y-111499482D01*
X215263772Y-111375000D01*
X215263772Y-110275000D01*
X215251512Y-110150518D01*
X215215202Y-110030820D01*
X215156237Y-109920506D01*
X215085700Y-109834556D01*
X215085700Y-50759872D01*
X215089002Y-50748987D01*
X215099999Y-50637334D01*
X215099999Y-50637331D01*
X215103676Y-50600001D01*
X215099999Y-50562670D01*
X215099999Y-50471159D01*
X215230256Y-50417205D01*
X215399774Y-50303937D01*
X215543937Y-50159774D01*
X215657205Y-49990256D01*
X215735226Y-49801898D01*
X215775000Y-49601939D01*
X215775000Y-49398061D01*
X215735226Y-49198102D01*
X215657205Y-49009744D01*
X215543937Y-48840226D01*
X215399774Y-48696063D01*
X215230256Y-48582795D01*
X215041898Y-48504774D01*
X214841939Y-48465000D01*
X214638061Y-48465000D01*
X214438102Y-48504774D01*
X214249744Y-48582795D01*
X214080226Y-48696063D01*
X213936063Y-48840226D01*
X213822795Y-49009744D01*
X213744774Y-49198102D01*
X213705000Y-49398061D01*
X213705000Y-49475774D01*
X213639013Y-49599226D01*
X213634456Y-49607751D01*
X213590999Y-49751012D01*
X213581188Y-49850623D01*
X213576325Y-49899999D01*
X213580002Y-49937330D01*
X213580000Y-50454425D01*
X213576697Y-50465315D01*
X213565700Y-50576968D01*
X213565700Y-50576978D01*
X213562024Y-50614300D01*
X213565700Y-50651622D01*
X213565701Y-109834555D01*
X213495163Y-109920506D01*
X213436198Y-110030820D01*
X213399888Y-110150518D01*
X213387628Y-110275000D01*
X136571482Y-110275000D01*
X178517732Y-107711981D01*
X178530030Y-107713192D01*
X178582455Y-107708027D01*
X178602610Y-107706795D01*
X178614771Y-107704842D01*
X178659411Y-107700444D01*
X178678796Y-107694563D01*
X178698811Y-107691349D01*
X178740894Y-107675722D01*
X178783820Y-107662698D01*
X178801688Y-107653147D01*
X178820688Y-107646091D01*
X178858902Y-107622562D01*
X178898475Y-107601408D01*
X178914136Y-107588554D01*
X178931394Y-107577928D01*
X178964289Y-107547390D01*
X178998968Y-107518927D01*
X179011820Y-107503265D01*
X179026675Y-107489475D01*
X179052978Y-107453110D01*
X179081441Y-107418425D01*
X179090992Y-107400555D01*
X179102869Y-107384134D01*
X179121572Y-107343335D01*
X179127366Y-107332495D01*
X179135075Y-107313882D01*
X179157047Y-107265953D01*
X179159909Y-107253919D01*
X210744826Y-30991488D01*
X240816671Y-107293040D01*
G36*
X204588709Y-176888796D02*
G01*
X199481743Y-184427650D01*
X192938878Y-179906635D01*
X198289200Y-172610740D01*
X204588709Y-176888796D01*
G37*
X204588709Y-176888796D02*
X199481743Y-184427650D01*
X192938878Y-179906635D01*
X198289200Y-172610740D01*
X204588709Y-176888796D01*
G36*
X194809392Y-176274948D02*
G01*
X191321545Y-181240783D01*
X181281416Y-174435050D01*
X184771492Y-169225853D01*
X194809392Y-176274948D01*
G37*
X194809392Y-176274948D02*
X191321545Y-181240783D01*
X181281416Y-174435050D01*
X184771492Y-169225853D01*
X194809392Y-176274948D01*
D26*
G36*
X221491000Y-143264000D02*
G01*
X221511000Y-143264000D01*
X221511000Y-143516000D01*
X221491000Y-143516000D01*
X221491000Y-144342000D01*
X221650000Y-144501000D01*
X221798637Y-144503999D01*
X221772851Y-148372000D01*
X216526485Y-148372000D01*
X216479533Y-144428000D01*
X219239779Y-144428000D01*
X219246050Y-144431352D01*
X219405465Y-144479710D01*
X219571250Y-144496038D01*
X220008750Y-144496038D01*
X220174535Y-144479710D01*
X220333950Y-144431352D01*
X220340221Y-144428000D01*
X220440000Y-144428000D01*
X220464972Y-144425541D01*
X220488983Y-144418257D01*
X220511113Y-144406428D01*
X220530510Y-144390510D01*
X220544512Y-144373447D01*
X220572448Y-144396373D01*
X220682936Y-144455430D01*
X220802822Y-144491797D01*
X220927500Y-144504077D01*
X221080000Y-144501000D01*
X221239000Y-144342000D01*
X221239000Y-143516000D01*
X221219000Y-143516000D01*
X221219000Y-143264000D01*
X221239000Y-143264000D01*
X221239000Y-143244000D01*
X221491000Y-143244000D01*
X221491000Y-143264000D01*
G37*
X221491000Y-143264000D02*
X221511000Y-143264000D01*
X221511000Y-143516000D01*
X221491000Y-143516000D01*
X221491000Y-144342000D01*
X221650000Y-144501000D01*
X221798637Y-144503999D01*
X221772851Y-148372000D01*
X216526485Y-148372000D01*
X216479533Y-144428000D01*
X219239779Y-144428000D01*
X219246050Y-144431352D01*
X219405465Y-144479710D01*
X219571250Y-144496038D01*
X220008750Y-144496038D01*
X220174535Y-144479710D01*
X220333950Y-144431352D01*
X220340221Y-144428000D01*
X220440000Y-144428000D01*
X220464972Y-144425541D01*
X220488983Y-144418257D01*
X220511113Y-144406428D01*
X220530510Y-144390510D01*
X220544512Y-144373447D01*
X220572448Y-144396373D01*
X220682936Y-144455430D01*
X220802822Y-144491797D01*
X220927500Y-144504077D01*
X221080000Y-144501000D01*
X221239000Y-144342000D01*
X221239000Y-143516000D01*
X221219000Y-143516000D01*
X221219000Y-143264000D01*
X221239000Y-143264000D01*
X221239000Y-143244000D01*
X221491000Y-143244000D01*
X221491000Y-143264000D01*
G36*
X199250923Y-144800000D02*
G01*
X199263203Y-144924678D01*
X199299570Y-145044564D01*
X199358627Y-145155052D01*
X199438104Y-145251896D01*
X199534948Y-145331373D01*
X199645436Y-145390430D01*
X199765322Y-145426797D01*
X199890000Y-145439077D01*
X200105000Y-145436000D01*
X200264000Y-145277000D01*
X200264000Y-144528000D01*
X200516000Y-144528000D01*
X200516000Y-145277000D01*
X200675000Y-145436000D01*
X200890000Y-145439077D01*
X201014678Y-145426797D01*
X201134564Y-145390430D01*
X201245052Y-145331373D01*
X201341896Y-145251896D01*
X201421373Y-145155052D01*
X201480430Y-145044564D01*
X201516797Y-144924678D01*
X201529077Y-144800000D01*
X201528050Y-144528000D01*
X203213905Y-144528000D01*
X203270065Y-148272000D01*
X198926095Y-148272000D01*
X198869935Y-144528000D01*
X199251950Y-144528000D01*
X199250923Y-144800000D01*
G37*
X199250923Y-144800000D02*
X199263203Y-144924678D01*
X199299570Y-145044564D01*
X199358627Y-145155052D01*
X199438104Y-145251896D01*
X199534948Y-145331373D01*
X199645436Y-145390430D01*
X199765322Y-145426797D01*
X199890000Y-145439077D01*
X200105000Y-145436000D01*
X200264000Y-145277000D01*
X200264000Y-144528000D01*
X200516000Y-144528000D01*
X200516000Y-145277000D01*
X200675000Y-145436000D01*
X200890000Y-145439077D01*
X201014678Y-145426797D01*
X201134564Y-145390430D01*
X201245052Y-145331373D01*
X201341896Y-145251896D01*
X201421373Y-145155052D01*
X201480430Y-145044564D01*
X201516797Y-144924678D01*
X201529077Y-144800000D01*
X201528050Y-144528000D01*
X203213905Y-144528000D01*
X203270065Y-148272000D01*
X198926095Y-148272000D01*
X198869935Y-144528000D01*
X199251950Y-144528000D01*
X199250923Y-144800000D01*
D25*
G36*
X187813000Y-147523000D02*
G01*
X186975521Y-147523000D01*
X186975000Y-147435750D01*
X186816250Y-147277000D01*
X185967000Y-147277000D01*
X185967000Y-147297000D01*
X185713000Y-147297000D01*
X185713000Y-147277000D01*
X184863750Y-147277000D01*
X184705000Y-147435750D01*
X184704479Y-147523000D01*
X183817000Y-147523000D01*
X183817000Y-146350000D01*
X184701928Y-146350000D01*
X184705000Y-146864250D01*
X184863750Y-147023000D01*
X185713000Y-147023000D01*
X185713000Y-145873750D01*
X185967000Y-145873750D01*
X185967000Y-147023000D01*
X186816250Y-147023000D01*
X186975000Y-146864250D01*
X186978072Y-146350000D01*
X186965812Y-146225518D01*
X186929502Y-146105820D01*
X186870537Y-145995506D01*
X186791185Y-145898815D01*
X186694494Y-145819463D01*
X186584180Y-145760498D01*
X186464482Y-145724188D01*
X186340000Y-145711928D01*
X186125750Y-145715000D01*
X185967000Y-145873750D01*
X185713000Y-145873750D01*
X185554250Y-145715000D01*
X185340000Y-145711928D01*
X185215518Y-145724188D01*
X185095820Y-145760498D01*
X184985506Y-145819463D01*
X184888815Y-145898815D01*
X184809463Y-145995506D01*
X184750498Y-146105820D01*
X184714188Y-146225518D01*
X184701928Y-146350000D01*
X183817000Y-146350000D01*
X183817000Y-144027000D01*
X187813000Y-144027000D01*
X187813000Y-147523000D01*
G37*
X187813000Y-147523000D02*
X186975521Y-147523000D01*
X186975000Y-147435750D01*
X186816250Y-147277000D01*
X185967000Y-147277000D01*
X185967000Y-147297000D01*
X185713000Y-147297000D01*
X185713000Y-147277000D01*
X184863750Y-147277000D01*
X184705000Y-147435750D01*
X184704479Y-147523000D01*
X183817000Y-147523000D01*
X183817000Y-146350000D01*
X184701928Y-146350000D01*
X184705000Y-146864250D01*
X184863750Y-147023000D01*
X185713000Y-147023000D01*
X185713000Y-145873750D01*
X185967000Y-145873750D01*
X185967000Y-147023000D01*
X186816250Y-147023000D01*
X186975000Y-146864250D01*
X186978072Y-146350000D01*
X186965812Y-146225518D01*
X186929502Y-146105820D01*
X186870537Y-145995506D01*
X186791185Y-145898815D01*
X186694494Y-145819463D01*
X186584180Y-145760498D01*
X186464482Y-145724188D01*
X186340000Y-145711928D01*
X186125750Y-145715000D01*
X185967000Y-145873750D01*
X185713000Y-145873750D01*
X185554250Y-145715000D01*
X185340000Y-145711928D01*
X185215518Y-145724188D01*
X185095820Y-145760498D01*
X184985506Y-145819463D01*
X184888815Y-145898815D01*
X184809463Y-145995506D01*
X184750498Y-146105820D01*
X184714188Y-146225518D01*
X184701928Y-146350000D01*
X183817000Y-146350000D01*
X183817000Y-144027000D01*
X187813000Y-144027000D01*
X187813000Y-147523000D01*
M02*
