G04 #@! TF.GenerationSoftware,KiCad,Pcbnew,(5.1.5)-3*
G04 #@! TF.CreationDate,2020-04-30T20:14:28+02:00*
G04 #@! TF.ProjectId,5-pointed-Star,352d706f-696e-4746-9564-2d537461722e,rev?*
G04 #@! TF.SameCoordinates,Original*
G04 #@! TF.FileFunction,Soldermask,Top*
G04 #@! TF.FilePolarity,Negative*
%FSLAX46Y46*%
G04 Gerber Fmt 4.6, Leading zero omitted, Abs format (unit mm)*
G04 Created by KiCad (PCBNEW (5.1.5)-3) date 2020-04-30 20:14:28*
%MOMM*%
%LPD*%
G04 APERTURE LIST*
%ADD10C,0.100000*%
G04 APERTURE END LIST*
D10*
G36*
X272851016Y-239147078D02*
G01*
X272202184Y-239618482D01*
X271730780Y-238969650D01*
X272379612Y-238498246D01*
X272851016Y-239147078D01*
G37*
G36*
X146816903Y-238249027D02*
G01*
X146301387Y-238863395D01*
X145687019Y-238347879D01*
X146202535Y-237733511D01*
X146816903Y-238249027D01*
G37*
G36*
X272204452Y-238257159D02*
G01*
X271555620Y-238728563D01*
X271084216Y-238079731D01*
X271733048Y-237608327D01*
X272204452Y-238257159D01*
G37*
G36*
X274331517Y-238071431D02*
G01*
X273682685Y-238542835D01*
X273211281Y-237894003D01*
X273860113Y-237422599D01*
X274331517Y-238071431D01*
G37*
G36*
X147523969Y-237406378D02*
G01*
X147008453Y-238020746D01*
X146394085Y-237505230D01*
X146909601Y-236890862D01*
X147523969Y-237406378D01*
G37*
G36*
X145415042Y-237072726D02*
G01*
X144899526Y-237687094D01*
X144285158Y-237171578D01*
X144800674Y-236557210D01*
X145415042Y-237072726D01*
G37*
G36*
X273684953Y-237181512D02*
G01*
X273036121Y-237652916D01*
X272564717Y-237004084D01*
X273213549Y-236532680D01*
X273684953Y-237181512D01*
G37*
G36*
X146122108Y-236230077D02*
G01*
X145606592Y-236844445D01*
X144992224Y-236328929D01*
X145507740Y-235714561D01*
X146122108Y-236230077D01*
G37*
G36*
X270969591Y-235463085D02*
G01*
X271003569Y-235473393D01*
X271034890Y-235490134D01*
X271062339Y-235512661D01*
X271084866Y-235540110D01*
X271101607Y-235571431D01*
X271111915Y-235605409D01*
X271116000Y-235646890D01*
X271116000Y-236248110D01*
X271111915Y-236289591D01*
X271101607Y-236323569D01*
X271084866Y-236354890D01*
X271062339Y-236382339D01*
X271034890Y-236404866D01*
X271003569Y-236421607D01*
X270969591Y-236431915D01*
X270928110Y-236436000D01*
X270251890Y-236436000D01*
X270210409Y-236431915D01*
X270176431Y-236421607D01*
X270145110Y-236404866D01*
X270117661Y-236382339D01*
X270095134Y-236354890D01*
X270078393Y-236323569D01*
X270068085Y-236289591D01*
X270064000Y-236248110D01*
X270064000Y-235646890D01*
X270068085Y-235605409D01*
X270078393Y-235571431D01*
X270095134Y-235540110D01*
X270117661Y-235512661D01*
X270145110Y-235490134D01*
X270176431Y-235473393D01*
X270210409Y-235463085D01*
X270251890Y-235459000D01*
X270928110Y-235459000D01*
X270969591Y-235463085D01*
G37*
G36*
X146049591Y-234343085D02*
G01*
X146083569Y-234353393D01*
X146114890Y-234370134D01*
X146142339Y-234392661D01*
X146164866Y-234420110D01*
X146181607Y-234451431D01*
X146191915Y-234485409D01*
X146196000Y-234526890D01*
X146196000Y-235128110D01*
X146191915Y-235169591D01*
X146181607Y-235203569D01*
X146164866Y-235234890D01*
X146142339Y-235262339D01*
X146114890Y-235284866D01*
X146083569Y-235301607D01*
X146049591Y-235311915D01*
X146008110Y-235316000D01*
X145331890Y-235316000D01*
X145290409Y-235311915D01*
X145256431Y-235301607D01*
X145225110Y-235284866D01*
X145197661Y-235262339D01*
X145175134Y-235234890D01*
X145158393Y-235203569D01*
X145148085Y-235169591D01*
X145144000Y-235128110D01*
X145144000Y-234526890D01*
X145148085Y-234485409D01*
X145158393Y-234451431D01*
X145175134Y-234420110D01*
X145197661Y-234392661D01*
X145225110Y-234370134D01*
X145256431Y-234353393D01*
X145290409Y-234343085D01*
X145331890Y-234339000D01*
X146008110Y-234339000D01*
X146049591Y-234343085D01*
G37*
G36*
X270969591Y-233888085D02*
G01*
X271003569Y-233898393D01*
X271034890Y-233915134D01*
X271062339Y-233937661D01*
X271084866Y-233965110D01*
X271101607Y-233996431D01*
X271111915Y-234030409D01*
X271116000Y-234071890D01*
X271116000Y-234673110D01*
X271111915Y-234714591D01*
X271101607Y-234748569D01*
X271084866Y-234779890D01*
X271062339Y-234807339D01*
X271034890Y-234829866D01*
X271003569Y-234846607D01*
X270969591Y-234856915D01*
X270928110Y-234861000D01*
X270251890Y-234861000D01*
X270210409Y-234856915D01*
X270176431Y-234846607D01*
X270145110Y-234829866D01*
X270117661Y-234807339D01*
X270095134Y-234779890D01*
X270078393Y-234748569D01*
X270068085Y-234714591D01*
X270064000Y-234673110D01*
X270064000Y-234071890D01*
X270068085Y-234030409D01*
X270078393Y-233996431D01*
X270095134Y-233965110D01*
X270117661Y-233937661D01*
X270145110Y-233915134D01*
X270176431Y-233898393D01*
X270210409Y-233888085D01*
X270251890Y-233884000D01*
X270928110Y-233884000D01*
X270969591Y-233888085D01*
G37*
G36*
X146049591Y-232768085D02*
G01*
X146083569Y-232778393D01*
X146114890Y-232795134D01*
X146142339Y-232817661D01*
X146164866Y-232845110D01*
X146181607Y-232876431D01*
X146191915Y-232910409D01*
X146196000Y-232951890D01*
X146196000Y-233553110D01*
X146191915Y-233594591D01*
X146181607Y-233628569D01*
X146164866Y-233659890D01*
X146142339Y-233687339D01*
X146114890Y-233709866D01*
X146083569Y-233726607D01*
X146049591Y-233736915D01*
X146008110Y-233741000D01*
X145331890Y-233741000D01*
X145290409Y-233736915D01*
X145256431Y-233726607D01*
X145225110Y-233709866D01*
X145197661Y-233687339D01*
X145175134Y-233659890D01*
X145158393Y-233628569D01*
X145148085Y-233594591D01*
X145144000Y-233553110D01*
X145144000Y-232951890D01*
X145148085Y-232910409D01*
X145158393Y-232876431D01*
X145175134Y-232845110D01*
X145197661Y-232817661D01*
X145225110Y-232795134D01*
X145256431Y-232778393D01*
X145290409Y-232768085D01*
X145331890Y-232764000D01*
X146008110Y-232764000D01*
X146049591Y-232768085D01*
G37*
G36*
X252545299Y-225924043D02*
G01*
X252096827Y-226588931D01*
X251431939Y-226140459D01*
X251880411Y-225475571D01*
X252545299Y-225924043D01*
G37*
G36*
X251633357Y-225308931D02*
G01*
X251184885Y-225973819D01*
X250519997Y-225525347D01*
X250968469Y-224860459D01*
X251633357Y-225308931D01*
G37*
G36*
X167693683Y-225071792D02*
G01*
X167900055Y-225402055D01*
X167900055Y-225402056D01*
X167481477Y-225663612D01*
X167219921Y-225827051D01*
X167219920Y-225827051D01*
X166946446Y-225389401D01*
X166794925Y-225146917D01*
X166794925Y-225146916D01*
X167213503Y-224885360D01*
X167475059Y-224721921D01*
X167475060Y-224721921D01*
X167693683Y-225071792D01*
G37*
G36*
X256679591Y-224538085D02*
G01*
X256713569Y-224548393D01*
X256744890Y-224565134D01*
X256772339Y-224587661D01*
X256794866Y-224615110D01*
X256811607Y-224646431D01*
X256821915Y-224680409D01*
X256826000Y-224721890D01*
X256826000Y-225398110D01*
X256821915Y-225439591D01*
X256811607Y-225473569D01*
X256794866Y-225504890D01*
X256772339Y-225532339D01*
X256744890Y-225554866D01*
X256713569Y-225571607D01*
X256679591Y-225581915D01*
X256638110Y-225586000D01*
X256036890Y-225586000D01*
X255995409Y-225581915D01*
X255961431Y-225571607D01*
X255930110Y-225554866D01*
X255902661Y-225532339D01*
X255880134Y-225504890D01*
X255863393Y-225473569D01*
X255853085Y-225439591D01*
X255849000Y-225398110D01*
X255849000Y-224721890D01*
X255853085Y-224680409D01*
X255863393Y-224646431D01*
X255880134Y-224615110D01*
X255902661Y-224587661D01*
X255930110Y-224565134D01*
X255961431Y-224548393D01*
X255995409Y-224538085D01*
X256036890Y-224534000D01*
X256638110Y-224534000D01*
X256679591Y-224538085D01*
G37*
G36*
X255104591Y-224538085D02*
G01*
X255138569Y-224548393D01*
X255169890Y-224565134D01*
X255197339Y-224587661D01*
X255219866Y-224615110D01*
X255236607Y-224646431D01*
X255246915Y-224680409D01*
X255251000Y-224721890D01*
X255251000Y-225398110D01*
X255246915Y-225439591D01*
X255236607Y-225473569D01*
X255219866Y-225504890D01*
X255197339Y-225532339D01*
X255169890Y-225554866D01*
X255138569Y-225571607D01*
X255104591Y-225581915D01*
X255063110Y-225586000D01*
X254461890Y-225586000D01*
X254420409Y-225581915D01*
X254386431Y-225571607D01*
X254355110Y-225554866D01*
X254327661Y-225532339D01*
X254305134Y-225504890D01*
X254288393Y-225473569D01*
X254278085Y-225439591D01*
X254274000Y-225398110D01*
X254274000Y-224721890D01*
X254278085Y-224680409D01*
X254288393Y-224646431D01*
X254305134Y-224615110D01*
X254327661Y-224587661D01*
X254355110Y-224565134D01*
X254386431Y-224548393D01*
X254420409Y-224538085D01*
X254461890Y-224534000D01*
X255063110Y-224534000D01*
X255104591Y-224538085D01*
G37*
G36*
X168606415Y-224456680D02*
G01*
X168832908Y-224819144D01*
X168832908Y-224819145D01*
X168428588Y-225071792D01*
X168152774Y-225244140D01*
X168152773Y-225244140D01*
X167826435Y-224721890D01*
X167727778Y-224564006D01*
X167727778Y-224564005D01*
X168190086Y-224275123D01*
X168407912Y-224139010D01*
X168407913Y-224139010D01*
X168606415Y-224456680D01*
G37*
G36*
X253568622Y-224406904D02*
G01*
X253120150Y-225071792D01*
X252455262Y-224623320D01*
X252903734Y-223958432D01*
X253568622Y-224406904D01*
G37*
G36*
X252656680Y-223791792D02*
G01*
X252208208Y-224456680D01*
X251543320Y-224008208D01*
X251991792Y-223343320D01*
X252656680Y-223791792D01*
G37*
G36*
X166766864Y-223588571D02*
G01*
X166930303Y-223850127D01*
X166930303Y-223850128D01*
X166511725Y-224111684D01*
X166250169Y-224275123D01*
X166250168Y-224275123D01*
X165984601Y-223850127D01*
X165825173Y-223594989D01*
X165825173Y-223594988D01*
X166243751Y-223333432D01*
X166505307Y-223169993D01*
X166505308Y-223169993D01*
X166766864Y-223588571D01*
G37*
G36*
X167699717Y-223005660D02*
G01*
X167863156Y-223267216D01*
X167863156Y-223267217D01*
X167444578Y-223528773D01*
X167183022Y-223692212D01*
X167183021Y-223692212D01*
X166856703Y-223169993D01*
X166758026Y-223012078D01*
X166758026Y-223012077D01*
X167176604Y-222750521D01*
X167438160Y-222587082D01*
X167438161Y-222587082D01*
X167699717Y-223005660D01*
G37*
G36*
X167399591Y-221193085D02*
G01*
X167433569Y-221203393D01*
X167464890Y-221220134D01*
X167492339Y-221242661D01*
X167514866Y-221270110D01*
X167531607Y-221301431D01*
X167541915Y-221335409D01*
X167546000Y-221376890D01*
X167546000Y-221978110D01*
X167541915Y-222019591D01*
X167531607Y-222053569D01*
X167514866Y-222084890D01*
X167492339Y-222112339D01*
X167464890Y-222134866D01*
X167433569Y-222151607D01*
X167399591Y-222161915D01*
X167358110Y-222166000D01*
X166681890Y-222166000D01*
X166640409Y-222161915D01*
X166606431Y-222151607D01*
X166575110Y-222134866D01*
X166547661Y-222112339D01*
X166525134Y-222084890D01*
X166508393Y-222053569D01*
X166498085Y-222019591D01*
X166494000Y-221978110D01*
X166494000Y-221376890D01*
X166498085Y-221335409D01*
X166508393Y-221301431D01*
X166525134Y-221270110D01*
X166547661Y-221242661D01*
X166575110Y-221220134D01*
X166606431Y-221203393D01*
X166640409Y-221193085D01*
X166681890Y-221189000D01*
X167358110Y-221189000D01*
X167399591Y-221193085D01*
G37*
G36*
X167399591Y-219618085D02*
G01*
X167433569Y-219628393D01*
X167464890Y-219645134D01*
X167492339Y-219667661D01*
X167514866Y-219695110D01*
X167531607Y-219726431D01*
X167541915Y-219760409D01*
X167546000Y-219801890D01*
X167546000Y-220403110D01*
X167541915Y-220444591D01*
X167531607Y-220478569D01*
X167514866Y-220509890D01*
X167492339Y-220537339D01*
X167464890Y-220559866D01*
X167433569Y-220576607D01*
X167399591Y-220586915D01*
X167358110Y-220591000D01*
X166681890Y-220591000D01*
X166640409Y-220586915D01*
X166606431Y-220576607D01*
X166575110Y-220559866D01*
X166547661Y-220537339D01*
X166525134Y-220509890D01*
X166508393Y-220478569D01*
X166498085Y-220444591D01*
X166494000Y-220403110D01*
X166494000Y-219801890D01*
X166498085Y-219760409D01*
X166508393Y-219726431D01*
X166525134Y-219695110D01*
X166547661Y-219667661D01*
X166575110Y-219645134D01*
X166606431Y-219628393D01*
X166640409Y-219618085D01*
X166681890Y-219614000D01*
X167358110Y-219614000D01*
X167399591Y-219618085D01*
G37*
G36*
X266536906Y-214803936D02*
G01*
X265752431Y-214970681D01*
X265585686Y-214186206D01*
X266370161Y-214019461D01*
X266536906Y-214803936D01*
G37*
G36*
X152735457Y-213875262D02*
G01*
X153346422Y-214038969D01*
X153346422Y-214038970D01*
X153321379Y-214132430D01*
X153138849Y-214813642D01*
X153138848Y-214813642D01*
X152910063Y-214752339D01*
X152364176Y-214606069D01*
X152368428Y-214590202D01*
X152479413Y-214176000D01*
X152571749Y-213831396D01*
X152571750Y-213831396D01*
X152735457Y-213875262D01*
G37*
G36*
X155104591Y-213758085D02*
G01*
X155138569Y-213768393D01*
X155169890Y-213785134D01*
X155197339Y-213807661D01*
X155219866Y-213835110D01*
X155236607Y-213866431D01*
X155246915Y-213900409D01*
X155251000Y-213941890D01*
X155251000Y-214618110D01*
X155246915Y-214659591D01*
X155236607Y-214693569D01*
X155219866Y-214724890D01*
X155197339Y-214752339D01*
X155169890Y-214774866D01*
X155138569Y-214791607D01*
X155104591Y-214801915D01*
X155063110Y-214806000D01*
X154461890Y-214806000D01*
X154420409Y-214801915D01*
X154386431Y-214791607D01*
X154355110Y-214774866D01*
X154327661Y-214752339D01*
X154305134Y-214724890D01*
X154288393Y-214693569D01*
X154278085Y-214659591D01*
X154274000Y-214618110D01*
X154274000Y-213941890D01*
X154278085Y-213900409D01*
X154288393Y-213866431D01*
X154305134Y-213835110D01*
X154327661Y-213807661D01*
X154355110Y-213785134D01*
X154386431Y-213768393D01*
X154420409Y-213758085D01*
X154461890Y-213754000D01*
X155063110Y-213754000D01*
X155104591Y-213758085D01*
G37*
G36*
X156679591Y-213758085D02*
G01*
X156713569Y-213768393D01*
X156744890Y-213785134D01*
X156772339Y-213807661D01*
X156794866Y-213835110D01*
X156811607Y-213866431D01*
X156821915Y-213900409D01*
X156826000Y-213941890D01*
X156826000Y-214618110D01*
X156821915Y-214659591D01*
X156811607Y-214693569D01*
X156794866Y-214724890D01*
X156772339Y-214752339D01*
X156744890Y-214774866D01*
X156713569Y-214791607D01*
X156679591Y-214801915D01*
X156638110Y-214806000D01*
X156036890Y-214806000D01*
X155995409Y-214801915D01*
X155961431Y-214791607D01*
X155930110Y-214774866D01*
X155902661Y-214752339D01*
X155880134Y-214724890D01*
X155863393Y-214693569D01*
X155853085Y-214659591D01*
X155849000Y-214618110D01*
X155849000Y-213941890D01*
X155853085Y-213900409D01*
X155863393Y-213866431D01*
X155880134Y-213835110D01*
X155902661Y-213807661D01*
X155930110Y-213785134D01*
X155961431Y-213768393D01*
X155995409Y-213758085D01*
X156036890Y-213754000D01*
X156638110Y-213754000D01*
X156679591Y-213758085D01*
G37*
G36*
X268326916Y-214423457D02*
G01*
X267542441Y-214590202D01*
X267375696Y-213805727D01*
X268160171Y-213638982D01*
X268326916Y-214423457D01*
G37*
G36*
X150967813Y-213401623D02*
G01*
X151578778Y-213565330D01*
X151371205Y-214340003D01*
X151371204Y-214340003D01*
X151207497Y-214296137D01*
X150596532Y-214132430D01*
X150621575Y-214038970D01*
X150689590Y-213785134D01*
X150804105Y-213357757D01*
X150804106Y-213357757D01*
X150967813Y-213401623D01*
G37*
G36*
X263044591Y-213128085D02*
G01*
X263078569Y-213138393D01*
X263109890Y-213155134D01*
X263137339Y-213177661D01*
X263159866Y-213205110D01*
X263176607Y-213236431D01*
X263186915Y-213270409D01*
X263191000Y-213311890D01*
X263191000Y-213988110D01*
X263186915Y-214029591D01*
X263176607Y-214063569D01*
X263159866Y-214094890D01*
X263137339Y-214122339D01*
X263109890Y-214144866D01*
X263078569Y-214161607D01*
X263044591Y-214171915D01*
X263003110Y-214176000D01*
X262401890Y-214176000D01*
X262360409Y-214171915D01*
X262326431Y-214161607D01*
X262295110Y-214144866D01*
X262267661Y-214122339D01*
X262245134Y-214094890D01*
X262228393Y-214063569D01*
X262218085Y-214029591D01*
X262214000Y-213988110D01*
X262214000Y-213311890D01*
X262218085Y-213270409D01*
X262228393Y-213236431D01*
X262245134Y-213205110D01*
X262267661Y-213177661D01*
X262295110Y-213155134D01*
X262326431Y-213138393D01*
X262360409Y-213128085D01*
X262401890Y-213124000D01*
X263003110Y-213124000D01*
X263044591Y-213128085D01*
G37*
G36*
X264619591Y-213128085D02*
G01*
X264653569Y-213138393D01*
X264684890Y-213155134D01*
X264712339Y-213177661D01*
X264734866Y-213205110D01*
X264751607Y-213236431D01*
X264761915Y-213270409D01*
X264766000Y-213311890D01*
X264766000Y-213988110D01*
X264761915Y-214029591D01*
X264751607Y-214063569D01*
X264734866Y-214094890D01*
X264712339Y-214122339D01*
X264684890Y-214144866D01*
X264653569Y-214161607D01*
X264619591Y-214171915D01*
X264578110Y-214176000D01*
X263976890Y-214176000D01*
X263935409Y-214171915D01*
X263901431Y-214161607D01*
X263870110Y-214144866D01*
X263842661Y-214122339D01*
X263820134Y-214094890D01*
X263803393Y-214063569D01*
X263793085Y-214029591D01*
X263789000Y-213988110D01*
X263789000Y-213311890D01*
X263793085Y-213270409D01*
X263803393Y-213236431D01*
X263820134Y-213205110D01*
X263842661Y-213177661D01*
X263870110Y-213155134D01*
X263901431Y-213138393D01*
X263935409Y-213128085D01*
X263976890Y-213124000D01*
X264578110Y-213124000D01*
X264619591Y-213128085D01*
G37*
G36*
X266308203Y-213727973D02*
G01*
X265523728Y-213894718D01*
X265356983Y-213110243D01*
X266141458Y-212943498D01*
X266308203Y-213727973D01*
G37*
G36*
X153020158Y-212812743D02*
G01*
X153631123Y-212976450D01*
X153631123Y-212976451D01*
X153606080Y-213069911D01*
X153423550Y-213751123D01*
X153423549Y-213751123D01*
X153259842Y-213707257D01*
X152648877Y-213543550D01*
X152656731Y-213514240D01*
X152692743Y-213379842D01*
X152856450Y-212768877D01*
X152856451Y-212768877D01*
X153020158Y-212812743D01*
G37*
G36*
X268098213Y-213347495D02*
G01*
X267313738Y-213514240D01*
X267146993Y-212729765D01*
X267931468Y-212563020D01*
X268098213Y-213347495D01*
G37*
G36*
X151195162Y-212323736D02*
G01*
X151863479Y-212502811D01*
X151655906Y-213277484D01*
X151655905Y-213277484D01*
X151492198Y-213233618D01*
X150881233Y-213069911D01*
X150906276Y-212976451D01*
X150982173Y-212693199D01*
X151088806Y-212295238D01*
X151088807Y-212295238D01*
X151195162Y-212323736D01*
G37*
G36*
X231477064Y-212476783D02*
G01*
X231028592Y-213141671D01*
X230363704Y-212693199D01*
X230812176Y-212028311D01*
X231477064Y-212476783D01*
G37*
G36*
X189177371Y-212323736D02*
G01*
X188489922Y-212736797D01*
X188076861Y-212049348D01*
X188764310Y-211636287D01*
X189177371Y-212323736D01*
G37*
G36*
X230565122Y-211861671D02*
G01*
X230116650Y-212526559D01*
X229451762Y-212078087D01*
X229900234Y-211413199D01*
X230565122Y-211861671D01*
G37*
G36*
X190120255Y-211757194D02*
G01*
X189432806Y-212170255D01*
X189019745Y-211482806D01*
X189707194Y-211069745D01*
X190120255Y-211757194D01*
G37*
G36*
X235449591Y-210708085D02*
G01*
X235483569Y-210718393D01*
X235514890Y-210735134D01*
X235542339Y-210757661D01*
X235564866Y-210785110D01*
X235581607Y-210816431D01*
X235591915Y-210850409D01*
X235596000Y-210891890D01*
X235596000Y-211568110D01*
X235591915Y-211609591D01*
X235581607Y-211643569D01*
X235564866Y-211674890D01*
X235542339Y-211702339D01*
X235514890Y-211724866D01*
X235483569Y-211741607D01*
X235449591Y-211751915D01*
X235408110Y-211756000D01*
X234806890Y-211756000D01*
X234765409Y-211751915D01*
X234731431Y-211741607D01*
X234700110Y-211724866D01*
X234672661Y-211702339D01*
X234650134Y-211674890D01*
X234633393Y-211643569D01*
X234623085Y-211609591D01*
X234619000Y-211568110D01*
X234619000Y-210891890D01*
X234623085Y-210850409D01*
X234633393Y-210816431D01*
X234650134Y-210785110D01*
X234672661Y-210757661D01*
X234700110Y-210735134D01*
X234731431Y-210718393D01*
X234765409Y-210708085D01*
X234806890Y-210704000D01*
X235408110Y-210704000D01*
X235449591Y-210708085D01*
G37*
G36*
X233874591Y-210708085D02*
G01*
X233908569Y-210718393D01*
X233939890Y-210735134D01*
X233967339Y-210757661D01*
X233989866Y-210785110D01*
X234006607Y-210816431D01*
X234016915Y-210850409D01*
X234021000Y-210891890D01*
X234021000Y-211568110D01*
X234016915Y-211609591D01*
X234006607Y-211643569D01*
X233989866Y-211674890D01*
X233967339Y-211702339D01*
X233939890Y-211724866D01*
X233908569Y-211741607D01*
X233874591Y-211751915D01*
X233833110Y-211756000D01*
X233231890Y-211756000D01*
X233190409Y-211751915D01*
X233156431Y-211741607D01*
X233125110Y-211724866D01*
X233097661Y-211702339D01*
X233075134Y-211674890D01*
X233058393Y-211643569D01*
X233048085Y-211609591D01*
X233044000Y-211568110D01*
X233044000Y-210891890D01*
X233048085Y-210850409D01*
X233058393Y-210816431D01*
X233075134Y-210785110D01*
X233097661Y-210757661D01*
X233125110Y-210735134D01*
X233156431Y-210718393D01*
X233190409Y-210708085D01*
X233231890Y-210704000D01*
X233833110Y-210704000D01*
X233874591Y-210708085D01*
G37*
G36*
X232500387Y-210959644D02*
G01*
X232051915Y-211624532D01*
X231387027Y-211176060D01*
X231835499Y-210511172D01*
X232500387Y-210959644D01*
G37*
G36*
X188234851Y-210755120D02*
G01*
X187547402Y-211168181D01*
X187134341Y-210480732D01*
X187821790Y-210067671D01*
X188234851Y-210755120D01*
G37*
G36*
X231588445Y-210344532D02*
G01*
X231139973Y-211009420D01*
X230475085Y-210560948D01*
X230923557Y-209896060D01*
X231588445Y-210344532D01*
G37*
G36*
X189177735Y-210188578D02*
G01*
X188490286Y-210601639D01*
X188077225Y-209914190D01*
X188764674Y-209501129D01*
X189177735Y-210188578D01*
G37*
G36*
X188599591Y-207843085D02*
G01*
X188633569Y-207853393D01*
X188664890Y-207870134D01*
X188692339Y-207892661D01*
X188714866Y-207920110D01*
X188731607Y-207951431D01*
X188741915Y-207985409D01*
X188746000Y-208026890D01*
X188746000Y-208628110D01*
X188741915Y-208669591D01*
X188731607Y-208703569D01*
X188714866Y-208734890D01*
X188692339Y-208762339D01*
X188664890Y-208784866D01*
X188633569Y-208801607D01*
X188599591Y-208811915D01*
X188558110Y-208816000D01*
X187881890Y-208816000D01*
X187840409Y-208811915D01*
X187806431Y-208801607D01*
X187775110Y-208784866D01*
X187747661Y-208762339D01*
X187725134Y-208734890D01*
X187708393Y-208703569D01*
X187698085Y-208669591D01*
X187694000Y-208628110D01*
X187694000Y-208026890D01*
X187698085Y-207985409D01*
X187708393Y-207951431D01*
X187725134Y-207920110D01*
X187747661Y-207892661D01*
X187775110Y-207870134D01*
X187806431Y-207853393D01*
X187840409Y-207843085D01*
X187881890Y-207839000D01*
X188558110Y-207839000D01*
X188599591Y-207843085D01*
G37*
G36*
X188599591Y-206268085D02*
G01*
X188633569Y-206278393D01*
X188664890Y-206295134D01*
X188692339Y-206317661D01*
X188714866Y-206345110D01*
X188731607Y-206376431D01*
X188741915Y-206410409D01*
X188746000Y-206451890D01*
X188746000Y-207053110D01*
X188741915Y-207094591D01*
X188731607Y-207128569D01*
X188714866Y-207159890D01*
X188692339Y-207187339D01*
X188664890Y-207209866D01*
X188633569Y-207226607D01*
X188599591Y-207236915D01*
X188558110Y-207241000D01*
X187881890Y-207241000D01*
X187840409Y-207236915D01*
X187806431Y-207226607D01*
X187775110Y-207209866D01*
X187747661Y-207187339D01*
X187725134Y-207159890D01*
X187708393Y-207128569D01*
X187698085Y-207094591D01*
X187694000Y-207053110D01*
X187694000Y-206451890D01*
X187698085Y-206410409D01*
X187708393Y-206376431D01*
X187725134Y-206345110D01*
X187747661Y-206317661D01*
X187775110Y-206295134D01*
X187806431Y-206278393D01*
X187840409Y-206268085D01*
X187881890Y-206264000D01*
X188558110Y-206264000D01*
X188599591Y-206268085D01*
G37*
G36*
X210871000Y-199356000D02*
G01*
X210069000Y-199356000D01*
X210069000Y-198554000D01*
X210871000Y-198554000D01*
X210871000Y-199356000D01*
G37*
G36*
X209771000Y-199356000D02*
G01*
X208969000Y-199356000D01*
X208969000Y-198554000D01*
X209771000Y-198554000D01*
X209771000Y-199356000D01*
G37*
G36*
X213979591Y-196708085D02*
G01*
X214013569Y-196718393D01*
X214044890Y-196735134D01*
X214072339Y-196757661D01*
X214094866Y-196785110D01*
X214111607Y-196816431D01*
X214121915Y-196850409D01*
X214126000Y-196891890D01*
X214126000Y-197568110D01*
X214121915Y-197609591D01*
X214111607Y-197643569D01*
X214094866Y-197674890D01*
X214072339Y-197702339D01*
X214044890Y-197724866D01*
X214013569Y-197741607D01*
X213979591Y-197751915D01*
X213938110Y-197756000D01*
X213336890Y-197756000D01*
X213295409Y-197751915D01*
X213261431Y-197741607D01*
X213230110Y-197724866D01*
X213202661Y-197702339D01*
X213180134Y-197674890D01*
X213163393Y-197643569D01*
X213153085Y-197609591D01*
X213149000Y-197568110D01*
X213149000Y-196891890D01*
X213153085Y-196850409D01*
X213163393Y-196816431D01*
X213180134Y-196785110D01*
X213202661Y-196757661D01*
X213230110Y-196735134D01*
X213261431Y-196718393D01*
X213295409Y-196708085D01*
X213336890Y-196704000D01*
X213938110Y-196704000D01*
X213979591Y-196708085D01*
G37*
G36*
X212404591Y-196708085D02*
G01*
X212438569Y-196718393D01*
X212469890Y-196735134D01*
X212497339Y-196757661D01*
X212519866Y-196785110D01*
X212536607Y-196816431D01*
X212546915Y-196850409D01*
X212551000Y-196891890D01*
X212551000Y-197568110D01*
X212546915Y-197609591D01*
X212536607Y-197643569D01*
X212519866Y-197674890D01*
X212497339Y-197702339D01*
X212469890Y-197724866D01*
X212438569Y-197741607D01*
X212404591Y-197751915D01*
X212363110Y-197756000D01*
X211761890Y-197756000D01*
X211720409Y-197751915D01*
X211686431Y-197741607D01*
X211655110Y-197724866D01*
X211627661Y-197702339D01*
X211605134Y-197674890D01*
X211588393Y-197643569D01*
X211578085Y-197609591D01*
X211574000Y-197568110D01*
X211574000Y-196891890D01*
X211578085Y-196850409D01*
X211588393Y-196816431D01*
X211605134Y-196785110D01*
X211627661Y-196757661D01*
X211655110Y-196735134D01*
X211686431Y-196718393D01*
X211720409Y-196708085D01*
X211761890Y-196704000D01*
X212363110Y-196704000D01*
X212404591Y-196708085D01*
G37*
G36*
X210871000Y-197526000D02*
G01*
X210069000Y-197526000D01*
X210069000Y-196724000D01*
X210871000Y-196724000D01*
X210871000Y-197526000D01*
G37*
G36*
X209771000Y-197526000D02*
G01*
X208969000Y-197526000D01*
X208969000Y-196724000D01*
X209771000Y-196724000D01*
X209771000Y-197526000D01*
G37*
G36*
X260786246Y-190474067D02*
G01*
X260004801Y-190654478D01*
X259824390Y-189873033D01*
X260605835Y-189692622D01*
X260786246Y-190474067D01*
G37*
G36*
X162969591Y-189598085D02*
G01*
X163003569Y-189608393D01*
X163034890Y-189625134D01*
X163062339Y-189647661D01*
X163084866Y-189675110D01*
X163101607Y-189706431D01*
X163111915Y-189740409D01*
X163116000Y-189781890D01*
X163116000Y-190458110D01*
X163111915Y-190499591D01*
X163101607Y-190533569D01*
X163084866Y-190564890D01*
X163062339Y-190592339D01*
X163034890Y-190614866D01*
X163003569Y-190631607D01*
X162969591Y-190641915D01*
X162928110Y-190646000D01*
X162326890Y-190646000D01*
X162285409Y-190641915D01*
X162251431Y-190631607D01*
X162220110Y-190614866D01*
X162192661Y-190592339D01*
X162170134Y-190564890D01*
X162153393Y-190533569D01*
X162143085Y-190499591D01*
X162139000Y-190458110D01*
X162139000Y-189781890D01*
X162143085Y-189740409D01*
X162153393Y-189706431D01*
X162170134Y-189675110D01*
X162192661Y-189647661D01*
X162220110Y-189625134D01*
X162251431Y-189608393D01*
X162285409Y-189598085D01*
X162326890Y-189594000D01*
X162928110Y-189594000D01*
X162969591Y-189598085D01*
G37*
G36*
X161394591Y-189598085D02*
G01*
X161428569Y-189608393D01*
X161459890Y-189625134D01*
X161487339Y-189647661D01*
X161509866Y-189675110D01*
X161526607Y-189706431D01*
X161536915Y-189740409D01*
X161541000Y-189781890D01*
X161541000Y-190458110D01*
X161536915Y-190499591D01*
X161526607Y-190533569D01*
X161509866Y-190564890D01*
X161487339Y-190592339D01*
X161459890Y-190614866D01*
X161428569Y-190631607D01*
X161394591Y-190641915D01*
X161353110Y-190646000D01*
X160751890Y-190646000D01*
X160710409Y-190641915D01*
X160676431Y-190631607D01*
X160645110Y-190614866D01*
X160617661Y-190592339D01*
X160595134Y-190564890D01*
X160578393Y-190533569D01*
X160568085Y-190499591D01*
X160564000Y-190458110D01*
X160564000Y-189781890D01*
X160568085Y-189740409D01*
X160578393Y-189706431D01*
X160595134Y-189675110D01*
X160617661Y-189647661D01*
X160645110Y-189625134D01*
X160676431Y-189608393D01*
X160710409Y-189598085D01*
X160751890Y-189594000D01*
X161353110Y-189594000D01*
X161394591Y-189598085D01*
G37*
G36*
X158992967Y-189659597D02*
G01*
X159603932Y-189823304D01*
X159603932Y-189823305D01*
X159578889Y-189916765D01*
X159396359Y-190597977D01*
X159396358Y-190597977D01*
X159170462Y-190537448D01*
X158621686Y-190390404D01*
X158829259Y-189615731D01*
X158829260Y-189615731D01*
X158992967Y-189659597D01*
G37*
G36*
X262569344Y-190062407D02*
G01*
X261787899Y-190242818D01*
X261607488Y-189461373D01*
X262388933Y-189280962D01*
X262569344Y-190062407D01*
G37*
G36*
X157225323Y-189185958D02*
G01*
X157836288Y-189349665D01*
X157836288Y-189349666D01*
X157822195Y-189402260D01*
X157628715Y-190124338D01*
X157628714Y-190124338D01*
X157465007Y-190080472D01*
X156854042Y-189916765D01*
X156879085Y-189823305D01*
X156929497Y-189635164D01*
X157061615Y-189142092D01*
X157061616Y-189142092D01*
X157225323Y-189185958D01*
G37*
G36*
X258799591Y-188588085D02*
G01*
X258833569Y-188598393D01*
X258864890Y-188615134D01*
X258892339Y-188637661D01*
X258914866Y-188665110D01*
X258931607Y-188696431D01*
X258941915Y-188730409D01*
X258946000Y-188771890D01*
X258946000Y-189448110D01*
X258941915Y-189489591D01*
X258931607Y-189523569D01*
X258914866Y-189554890D01*
X258892339Y-189582339D01*
X258864890Y-189604866D01*
X258833569Y-189621607D01*
X258799591Y-189631915D01*
X258758110Y-189636000D01*
X258156890Y-189636000D01*
X258115409Y-189631915D01*
X258081431Y-189621607D01*
X258050110Y-189604866D01*
X258022661Y-189582339D01*
X258000134Y-189554890D01*
X257983393Y-189523569D01*
X257973085Y-189489591D01*
X257969000Y-189448110D01*
X257969000Y-188771890D01*
X257973085Y-188730409D01*
X257983393Y-188696431D01*
X258000134Y-188665110D01*
X258022661Y-188637661D01*
X258050110Y-188615134D01*
X258081431Y-188598393D01*
X258115409Y-188588085D01*
X258156890Y-188584000D01*
X258758110Y-188584000D01*
X258799591Y-188588085D01*
G37*
G36*
X257224591Y-188588085D02*
G01*
X257258569Y-188598393D01*
X257289890Y-188615134D01*
X257317339Y-188637661D01*
X257339866Y-188665110D01*
X257356607Y-188696431D01*
X257366915Y-188730409D01*
X257371000Y-188771890D01*
X257371000Y-189448110D01*
X257366915Y-189489591D01*
X257356607Y-189523569D01*
X257339866Y-189554890D01*
X257317339Y-189582339D01*
X257289890Y-189604866D01*
X257258569Y-189621607D01*
X257224591Y-189631915D01*
X257183110Y-189636000D01*
X256581890Y-189636000D01*
X256540409Y-189631915D01*
X256506431Y-189621607D01*
X256475110Y-189604866D01*
X256447661Y-189582339D01*
X256425134Y-189554890D01*
X256408393Y-189523569D01*
X256398085Y-189489591D01*
X256394000Y-189448110D01*
X256394000Y-188771890D01*
X256398085Y-188730409D01*
X256408393Y-188696431D01*
X256425134Y-188665110D01*
X256447661Y-188637661D01*
X256475110Y-188615134D01*
X256506431Y-188598393D01*
X256540409Y-188588085D01*
X256581890Y-188584000D01*
X257183110Y-188584000D01*
X257224591Y-188588085D01*
G37*
G36*
X260538800Y-189402260D02*
G01*
X259757355Y-189582671D01*
X259576944Y-188801226D01*
X260358389Y-188620815D01*
X260538800Y-189402260D01*
G37*
G36*
X159244108Y-188588085D02*
G01*
X159888633Y-188760785D01*
X159888633Y-188760786D01*
X159863590Y-188854246D01*
X159681060Y-189535458D01*
X159681059Y-189535458D01*
X159493569Y-189485220D01*
X158906387Y-189327885D01*
X159113960Y-188553212D01*
X159113961Y-188553212D01*
X159244108Y-188588085D01*
G37*
G36*
X262321898Y-188990599D02*
G01*
X261540453Y-189171010D01*
X261360042Y-188389565D01*
X262141487Y-188209154D01*
X262321898Y-188990599D01*
G37*
G36*
X157510024Y-188123439D02*
G01*
X158120989Y-188287146D01*
X157913416Y-189061819D01*
X157913415Y-189061819D01*
X157749708Y-189017953D01*
X157138743Y-188854246D01*
X157145709Y-188828250D01*
X157202813Y-188615134D01*
X157346316Y-188079573D01*
X157346317Y-188079573D01*
X157510024Y-188123439D01*
G37*
G36*
X197403572Y-176151054D02*
G01*
X197477119Y-176161227D01*
X197765777Y-176261325D01*
X197913363Y-176347827D01*
X198029360Y-176415814D01*
X198257740Y-176618757D01*
X198442135Y-176862351D01*
X198442137Y-176862354D01*
X198575469Y-177137245D01*
X198652610Y-177432866D01*
X198652610Y-177432868D01*
X198670597Y-177737857D01*
X198628737Y-178040494D01*
X198615155Y-178079660D01*
X198528639Y-178329153D01*
X198412863Y-178526686D01*
X197951537Y-179161646D01*
X197617955Y-179620782D01*
X197465864Y-179791936D01*
X197312078Y-179908348D01*
X197222267Y-179976333D01*
X196947377Y-180109664D01*
X196947375Y-180109665D01*
X196947374Y-180109665D01*
X196813103Y-180144703D01*
X196651755Y-180186806D01*
X196499260Y-180195799D01*
X196346766Y-180204792D01*
X196346765Y-180204792D01*
X196044127Y-180162932D01*
X195755469Y-180062834D01*
X195695904Y-180027922D01*
X195491889Y-179908348D01*
X195263506Y-179705402D01*
X195079112Y-179461809D01*
X195079109Y-179461805D01*
X194945778Y-179186915D01*
X194868636Y-178891293D01*
X194850650Y-178586303D01*
X194892510Y-178283665D01*
X194992608Y-177995007D01*
X195108384Y-177797475D01*
X195174730Y-177706157D01*
X195903291Y-176703378D01*
X196055382Y-176532224D01*
X196298976Y-176347829D01*
X196298977Y-176347829D01*
X196298979Y-176347827D01*
X196573868Y-176214495D01*
X196869490Y-176137354D01*
X196885579Y-176136405D01*
X197174480Y-176119367D01*
X197403572Y-176151054D01*
G37*
G36*
X190654262Y-176024796D02*
G01*
X190942920Y-176124894D01*
X191090504Y-176211395D01*
X191140454Y-176240671D01*
X192234549Y-177035577D01*
X192234551Y-177035579D01*
X192405702Y-177187667D01*
X192590100Y-177431265D01*
X192723432Y-177706154D01*
X192800573Y-178001776D01*
X192800573Y-178001777D01*
X192818560Y-178306766D01*
X192788141Y-178526686D01*
X192776700Y-178609405D01*
X192676602Y-178898063D01*
X192579201Y-179064245D01*
X192522113Y-179161646D01*
X192319170Y-179390026D01*
X192075576Y-179574421D01*
X192075573Y-179574423D01*
X191800682Y-179707755D01*
X191505061Y-179784896D01*
X191472882Y-179786794D01*
X191200070Y-179802883D01*
X190897433Y-179761023D01*
X190743822Y-179707755D01*
X190608774Y-179660925D01*
X190411241Y-179545149D01*
X189317144Y-178750240D01*
X189145991Y-178598150D01*
X188961597Y-178354557D01*
X188961594Y-178354553D01*
X188828263Y-178079663D01*
X188807939Y-178001776D01*
X188751121Y-177784040D01*
X188733135Y-177479052D01*
X188739745Y-177431262D01*
X188774995Y-177176413D01*
X188875093Y-176887755D01*
X188983159Y-176703376D01*
X189029579Y-176624175D01*
X189232525Y-176395792D01*
X189476118Y-176211398D01*
X189476122Y-176211395D01*
X189751012Y-176078064D01*
X189751014Y-176078063D01*
X189751015Y-176078063D01*
X189955145Y-176024796D01*
X190046634Y-176000922D01*
X190199129Y-175991929D01*
X190351623Y-175982936D01*
X190351624Y-175982936D01*
X190654262Y-176024796D01*
G37*
G36*
X194357309Y-170927989D02*
G01*
X194645967Y-171028087D01*
X194793551Y-171114588D01*
X194843501Y-171143864D01*
X195937596Y-171938770D01*
X195937598Y-171938772D01*
X196108749Y-172090860D01*
X196293147Y-172334458D01*
X196426479Y-172609347D01*
X196446803Y-172687234D01*
X196503620Y-172904970D01*
X196521607Y-173209959D01*
X196489920Y-173439051D01*
X196479747Y-173512598D01*
X196379649Y-173801256D01*
X196282248Y-173967438D01*
X196225160Y-174064839D01*
X196022217Y-174293219D01*
X195778623Y-174477614D01*
X195778620Y-174477616D01*
X195503729Y-174610948D01*
X195208108Y-174688089D01*
X195175929Y-174689987D01*
X194903117Y-174706076D01*
X194600480Y-174664216D01*
X194446869Y-174610948D01*
X194311821Y-174564118D01*
X194114288Y-174448342D01*
X193020191Y-173653433D01*
X192849038Y-173501343D01*
X192664644Y-173257750D01*
X192664641Y-173257746D01*
X192531310Y-172982856D01*
X192510986Y-172904969D01*
X192454168Y-172687233D01*
X192436182Y-172382245D01*
X192442792Y-172334455D01*
X192478042Y-172079606D01*
X192578140Y-171790948D01*
X192613052Y-171731383D01*
X192732626Y-171527368D01*
X192935572Y-171298985D01*
X193179165Y-171114591D01*
X193179169Y-171114588D01*
X193454059Y-170981257D01*
X193454061Y-170981256D01*
X193454062Y-170981256D01*
X193658192Y-170927989D01*
X193749681Y-170904115D01*
X193902176Y-170895122D01*
X194054670Y-170886129D01*
X194054671Y-170886129D01*
X194357309Y-170927989D01*
G37*
G36*
X256448119Y-165689923D02*
G01*
X256200288Y-166452670D01*
X255437541Y-166204839D01*
X255685372Y-165442092D01*
X256448119Y-165689923D01*
G37*
G36*
X164392177Y-166172314D02*
G01*
X163629430Y-166420145D01*
X163381599Y-165657398D01*
X164144346Y-165409567D01*
X164392177Y-166172314D01*
G37*
G36*
X254707686Y-165124422D02*
G01*
X254459855Y-165887169D01*
X253697108Y-165639338D01*
X253944939Y-164876591D01*
X254707686Y-165124422D01*
G37*
G36*
X166132610Y-165606813D02*
G01*
X165369863Y-165854644D01*
X165122032Y-165091897D01*
X165884779Y-164844066D01*
X166132610Y-165606813D01*
G37*
G36*
X169049591Y-164798085D02*
G01*
X169083569Y-164808393D01*
X169114890Y-164825134D01*
X169142339Y-164847661D01*
X169164866Y-164875110D01*
X169181607Y-164906431D01*
X169191915Y-164940409D01*
X169196000Y-164981890D01*
X169196000Y-165658110D01*
X169191915Y-165699591D01*
X169181607Y-165733569D01*
X169164866Y-165764890D01*
X169142339Y-165792339D01*
X169114890Y-165814866D01*
X169083569Y-165831607D01*
X169049591Y-165841915D01*
X169008110Y-165846000D01*
X168406890Y-165846000D01*
X168365409Y-165841915D01*
X168331431Y-165831607D01*
X168300110Y-165814866D01*
X168272661Y-165792339D01*
X168250134Y-165764890D01*
X168233393Y-165733569D01*
X168223085Y-165699591D01*
X168219000Y-165658110D01*
X168219000Y-164981890D01*
X168223085Y-164940409D01*
X168233393Y-164906431D01*
X168250134Y-164875110D01*
X168272661Y-164847661D01*
X168300110Y-164825134D01*
X168331431Y-164808393D01*
X168365409Y-164798085D01*
X168406890Y-164794000D01*
X169008110Y-164794000D01*
X169049591Y-164798085D01*
G37*
G36*
X167474591Y-164798085D02*
G01*
X167508569Y-164808393D01*
X167539890Y-164825134D01*
X167567339Y-164847661D01*
X167589866Y-164875110D01*
X167606607Y-164906431D01*
X167616915Y-164940409D01*
X167621000Y-164981890D01*
X167621000Y-165658110D01*
X167616915Y-165699591D01*
X167606607Y-165733569D01*
X167589866Y-165764890D01*
X167567339Y-165792339D01*
X167539890Y-165814866D01*
X167508569Y-165831607D01*
X167474591Y-165841915D01*
X167433110Y-165846000D01*
X166831890Y-165846000D01*
X166790409Y-165841915D01*
X166756431Y-165831607D01*
X166725110Y-165814866D01*
X166697661Y-165792339D01*
X166675134Y-165764890D01*
X166658393Y-165733569D01*
X166648085Y-165699591D01*
X166644000Y-165658110D01*
X166644000Y-164981890D01*
X166648085Y-164940409D01*
X166658393Y-164906431D01*
X166675134Y-164875110D01*
X166697661Y-164847661D01*
X166725110Y-164825134D01*
X166756431Y-164808393D01*
X166790409Y-164798085D01*
X166831890Y-164794000D01*
X167433110Y-164794000D01*
X167474591Y-164798085D01*
G37*
G36*
X256788038Y-164643761D02*
G01*
X256540207Y-165406508D01*
X255777460Y-165158677D01*
X256025291Y-164395930D01*
X256788038Y-164643761D01*
G37*
G36*
X164052258Y-165126152D02*
G01*
X163289511Y-165373983D01*
X163041680Y-164611236D01*
X163804427Y-164363405D01*
X164052258Y-165126152D01*
G37*
G36*
X255047604Y-164078260D02*
G01*
X254799773Y-164841007D01*
X254037026Y-164593176D01*
X254284857Y-163830429D01*
X255047604Y-164078260D01*
G37*
G36*
X165792692Y-164560651D02*
G01*
X165029945Y-164808482D01*
X164782114Y-164045735D01*
X165544861Y-163797904D01*
X165792692Y-164560651D01*
G37*
G36*
X254109591Y-162353085D02*
G01*
X254143569Y-162363393D01*
X254174890Y-162380134D01*
X254202339Y-162402661D01*
X254224866Y-162430110D01*
X254241607Y-162461431D01*
X254251915Y-162495409D01*
X254256000Y-162536890D01*
X254256000Y-163138110D01*
X254251915Y-163179591D01*
X254241607Y-163213569D01*
X254224866Y-163244890D01*
X254202339Y-163272339D01*
X254174890Y-163294866D01*
X254143569Y-163311607D01*
X254109591Y-163321915D01*
X254068110Y-163326000D01*
X253391890Y-163326000D01*
X253350409Y-163321915D01*
X253316431Y-163311607D01*
X253285110Y-163294866D01*
X253257661Y-163272339D01*
X253235134Y-163244890D01*
X253218393Y-163213569D01*
X253208085Y-163179591D01*
X253204000Y-163138110D01*
X253204000Y-162536890D01*
X253208085Y-162495409D01*
X253218393Y-162461431D01*
X253235134Y-162430110D01*
X253257661Y-162402661D01*
X253285110Y-162380134D01*
X253316431Y-162363393D01*
X253350409Y-162353085D01*
X253391890Y-162349000D01*
X254068110Y-162349000D01*
X254109591Y-162353085D01*
G37*
G36*
X254109591Y-160778085D02*
G01*
X254143569Y-160788393D01*
X254174890Y-160805134D01*
X254202339Y-160827661D01*
X254224866Y-160855110D01*
X254241607Y-160886431D01*
X254251915Y-160920409D01*
X254256000Y-160961890D01*
X254256000Y-161563110D01*
X254251915Y-161604591D01*
X254241607Y-161638569D01*
X254224866Y-161669890D01*
X254202339Y-161697339D01*
X254174890Y-161719866D01*
X254143569Y-161736607D01*
X254109591Y-161746915D01*
X254068110Y-161751000D01*
X253391890Y-161751000D01*
X253350409Y-161746915D01*
X253316431Y-161736607D01*
X253285110Y-161719866D01*
X253257661Y-161697339D01*
X253235134Y-161669890D01*
X253218393Y-161638569D01*
X253208085Y-161604591D01*
X253204000Y-161563110D01*
X253204000Y-160961890D01*
X253208085Y-160920409D01*
X253218393Y-160886431D01*
X253235134Y-160855110D01*
X253257661Y-160827661D01*
X253285110Y-160805134D01*
X253316431Y-160788393D01*
X253350409Y-160778085D01*
X253391890Y-160774000D01*
X254068110Y-160774000D01*
X254109591Y-160778085D01*
G37*
G36*
X218491000Y-155201000D02*
G01*
X215389000Y-155201000D01*
X215389000Y-153099000D01*
X218491000Y-153099000D01*
X218491000Y-155201000D01*
G37*
G36*
X204491000Y-155201000D02*
G01*
X201389000Y-155201000D01*
X201389000Y-153099000D01*
X204491000Y-153099000D01*
X204491000Y-155201000D01*
G37*
G36*
X221569591Y-151478085D02*
G01*
X221603569Y-151488393D01*
X221634890Y-151505134D01*
X221662339Y-151527661D01*
X221684866Y-151555110D01*
X221701607Y-151586431D01*
X221711915Y-151620409D01*
X221716000Y-151661890D01*
X221716000Y-152338110D01*
X221711915Y-152379591D01*
X221701607Y-152413569D01*
X221684866Y-152444890D01*
X221662339Y-152472339D01*
X221634890Y-152494866D01*
X221603569Y-152511607D01*
X221569591Y-152521915D01*
X221528110Y-152526000D01*
X220926890Y-152526000D01*
X220885409Y-152521915D01*
X220851431Y-152511607D01*
X220820110Y-152494866D01*
X220792661Y-152472339D01*
X220770134Y-152444890D01*
X220753393Y-152413569D01*
X220743085Y-152379591D01*
X220739000Y-152338110D01*
X220739000Y-151661890D01*
X220743085Y-151620409D01*
X220753393Y-151586431D01*
X220770134Y-151555110D01*
X220792661Y-151527661D01*
X220820110Y-151505134D01*
X220851431Y-151488393D01*
X220885409Y-151478085D01*
X220926890Y-151474000D01*
X221528110Y-151474000D01*
X221569591Y-151478085D01*
G37*
G36*
X219994591Y-151478085D02*
G01*
X220028569Y-151488393D01*
X220059890Y-151505134D01*
X220087339Y-151527661D01*
X220109866Y-151555110D01*
X220126607Y-151586431D01*
X220136915Y-151620409D01*
X220141000Y-151661890D01*
X220141000Y-152338110D01*
X220136915Y-152379591D01*
X220126607Y-152413569D01*
X220109866Y-152444890D01*
X220087339Y-152472339D01*
X220059890Y-152494866D01*
X220028569Y-152511607D01*
X219994591Y-152521915D01*
X219953110Y-152526000D01*
X219351890Y-152526000D01*
X219310409Y-152521915D01*
X219276431Y-152511607D01*
X219245110Y-152494866D01*
X219217661Y-152472339D01*
X219195134Y-152444890D01*
X219178393Y-152413569D01*
X219168085Y-152379591D01*
X219164000Y-152338110D01*
X219164000Y-151661890D01*
X219168085Y-151620409D01*
X219178393Y-151586431D01*
X219195134Y-151555110D01*
X219217661Y-151527661D01*
X219245110Y-151505134D01*
X219276431Y-151488393D01*
X219310409Y-151478085D01*
X219351890Y-151474000D01*
X219953110Y-151474000D01*
X219994591Y-151478085D01*
G37*
G36*
X275288657Y-150344029D02*
G01*
X274674289Y-150859545D01*
X274158773Y-150245177D01*
X274773141Y-149729661D01*
X275288657Y-150344029D01*
G37*
G36*
X221569591Y-149628085D02*
G01*
X221603569Y-149638393D01*
X221634890Y-149655134D01*
X221662339Y-149677661D01*
X221684866Y-149705110D01*
X221701607Y-149736431D01*
X221711915Y-149770409D01*
X221716000Y-149811890D01*
X221716000Y-150488110D01*
X221711915Y-150529591D01*
X221701607Y-150563569D01*
X221684866Y-150594890D01*
X221662339Y-150622339D01*
X221634890Y-150644866D01*
X221603569Y-150661607D01*
X221569591Y-150671915D01*
X221528110Y-150676000D01*
X220926890Y-150676000D01*
X220885409Y-150671915D01*
X220851431Y-150661607D01*
X220820110Y-150644866D01*
X220792661Y-150622339D01*
X220770134Y-150594890D01*
X220753393Y-150563569D01*
X220743085Y-150529591D01*
X220739000Y-150488110D01*
X220739000Y-149811890D01*
X220743085Y-149770409D01*
X220753393Y-149736431D01*
X220770134Y-149705110D01*
X220792661Y-149677661D01*
X220820110Y-149655134D01*
X220851431Y-149638393D01*
X220885409Y-149628085D01*
X220926890Y-149624000D01*
X221528110Y-149624000D01*
X221569591Y-149628085D01*
G37*
G36*
X219994591Y-149628085D02*
G01*
X220028569Y-149638393D01*
X220059890Y-149655134D01*
X220087339Y-149677661D01*
X220109866Y-149705110D01*
X220126607Y-149736431D01*
X220136915Y-149770409D01*
X220141000Y-149811890D01*
X220141000Y-150488110D01*
X220136915Y-150529591D01*
X220126607Y-150563569D01*
X220109866Y-150594890D01*
X220087339Y-150622339D01*
X220059890Y-150644866D01*
X220028569Y-150661607D01*
X219994591Y-150671915D01*
X219953110Y-150676000D01*
X219351890Y-150676000D01*
X219310409Y-150671915D01*
X219276431Y-150661607D01*
X219245110Y-150644866D01*
X219217661Y-150622339D01*
X219195134Y-150594890D01*
X219178393Y-150563569D01*
X219168085Y-150529591D01*
X219164000Y-150488110D01*
X219164000Y-149811890D01*
X219168085Y-149770409D01*
X219178393Y-149736431D01*
X219195134Y-149705110D01*
X219217661Y-149677661D01*
X219245110Y-149655134D01*
X219276431Y-149638393D01*
X219310409Y-149628085D01*
X219351890Y-149624000D01*
X219953110Y-149624000D01*
X219994591Y-149628085D01*
G37*
G36*
X145978641Y-149912435D02*
G01*
X145463125Y-150526803D01*
X144848757Y-150011287D01*
X145364273Y-149396919D01*
X145978641Y-149912435D01*
G37*
G36*
X276131306Y-149636962D02*
G01*
X275516938Y-150152478D01*
X275001422Y-149538110D01*
X275615790Y-149022594D01*
X276131306Y-149636962D01*
G37*
G36*
X148764591Y-148808085D02*
G01*
X148798569Y-148818393D01*
X148829890Y-148835134D01*
X148857339Y-148857661D01*
X148879866Y-148885110D01*
X148896607Y-148916431D01*
X148906915Y-148950409D01*
X148911000Y-148991890D01*
X148911000Y-149668110D01*
X148906915Y-149709591D01*
X148896607Y-149743569D01*
X148879866Y-149774890D01*
X148857339Y-149802339D01*
X148829890Y-149824866D01*
X148798569Y-149841607D01*
X148764591Y-149851915D01*
X148723110Y-149856000D01*
X148121890Y-149856000D01*
X148080409Y-149851915D01*
X148046431Y-149841607D01*
X148015110Y-149824866D01*
X147987661Y-149802339D01*
X147965134Y-149774890D01*
X147948393Y-149743569D01*
X147938085Y-149709591D01*
X147934000Y-149668110D01*
X147934000Y-148991890D01*
X147938085Y-148950409D01*
X147948393Y-148916431D01*
X147965134Y-148885110D01*
X147987661Y-148857661D01*
X148015110Y-148835134D01*
X148046431Y-148818393D01*
X148080409Y-148808085D01*
X148121890Y-148804000D01*
X148723110Y-148804000D01*
X148764591Y-148808085D01*
G37*
G36*
X150339591Y-148808085D02*
G01*
X150373569Y-148818393D01*
X150404890Y-148835134D01*
X150432339Y-148857661D01*
X150454866Y-148885110D01*
X150471607Y-148916431D01*
X150481915Y-148950409D01*
X150486000Y-148991890D01*
X150486000Y-149668110D01*
X150481915Y-149709591D01*
X150471607Y-149743569D01*
X150454866Y-149774890D01*
X150432339Y-149802339D01*
X150404890Y-149824866D01*
X150373569Y-149841607D01*
X150339591Y-149851915D01*
X150298110Y-149856000D01*
X149696890Y-149856000D01*
X149655409Y-149851915D01*
X149621431Y-149841607D01*
X149590110Y-149824866D01*
X149562661Y-149802339D01*
X149540134Y-149774890D01*
X149523393Y-149743569D01*
X149513085Y-149709591D01*
X149509000Y-149668110D01*
X149509000Y-148991890D01*
X149513085Y-148950409D01*
X149523393Y-148916431D01*
X149540134Y-148885110D01*
X149562661Y-148857661D01*
X149590110Y-148835134D01*
X149621431Y-148818393D01*
X149655409Y-148808085D01*
X149696890Y-148804000D01*
X150298110Y-148804000D01*
X150339591Y-148808085D01*
G37*
G36*
X145135992Y-149205369D02*
G01*
X144620476Y-149819737D01*
X144006108Y-149304221D01*
X144521624Y-148689853D01*
X145135992Y-149205369D01*
G37*
G36*
X274112356Y-148942167D02*
G01*
X273497988Y-149457683D01*
X272982472Y-148843315D01*
X273596840Y-148327799D01*
X274112356Y-148942167D01*
G37*
G36*
X228726564Y-147219389D02*
G01*
X228892189Y-147287993D01*
X228917835Y-147298616D01*
X229089973Y-147413635D01*
X229236365Y-147560027D01*
X229351385Y-147732167D01*
X229430611Y-147923436D01*
X229471000Y-148126484D01*
X229471000Y-148333516D01*
X229430611Y-148536564D01*
X229367117Y-148689853D01*
X229351384Y-148727835D01*
X229236365Y-148899973D01*
X229089973Y-149046365D01*
X228917835Y-149161384D01*
X228917834Y-149161385D01*
X228917833Y-149161385D01*
X228726564Y-149240611D01*
X228523516Y-149281000D01*
X228316484Y-149281000D01*
X228113436Y-149240611D01*
X227922167Y-149161385D01*
X227922166Y-149161385D01*
X227922165Y-149161384D01*
X227750027Y-149046365D01*
X227603635Y-148899973D01*
X227488616Y-148727835D01*
X227472883Y-148689853D01*
X227409389Y-148536564D01*
X227369000Y-148333516D01*
X227369000Y-148126484D01*
X227409389Y-147923436D01*
X227488615Y-147732167D01*
X227603635Y-147560027D01*
X227750027Y-147413635D01*
X227922165Y-147298616D01*
X227947811Y-147287993D01*
X228113436Y-147219389D01*
X228316484Y-147179000D01*
X228523516Y-147179000D01*
X228726564Y-147219389D01*
G37*
G36*
X226186564Y-147219389D02*
G01*
X226352189Y-147287993D01*
X226377835Y-147298616D01*
X226549973Y-147413635D01*
X226696365Y-147560027D01*
X226811385Y-147732167D01*
X226890611Y-147923436D01*
X226931000Y-148126484D01*
X226931000Y-148333516D01*
X226890611Y-148536564D01*
X226827117Y-148689853D01*
X226811384Y-148727835D01*
X226696365Y-148899973D01*
X226549973Y-149046365D01*
X226377835Y-149161384D01*
X226377834Y-149161385D01*
X226377833Y-149161385D01*
X226186564Y-149240611D01*
X225983516Y-149281000D01*
X225776484Y-149281000D01*
X225573436Y-149240611D01*
X225382167Y-149161385D01*
X225382166Y-149161385D01*
X225382165Y-149161384D01*
X225210027Y-149046365D01*
X225063635Y-148899973D01*
X224948616Y-148727835D01*
X224932883Y-148689853D01*
X224869389Y-148536564D01*
X224829000Y-148333516D01*
X224829000Y-148126484D01*
X224869389Y-147923436D01*
X224948615Y-147732167D01*
X225063635Y-147560027D01*
X225210027Y-147413635D01*
X225382165Y-147298616D01*
X225407811Y-147287993D01*
X225573436Y-147219389D01*
X225776484Y-147179000D01*
X225983516Y-147179000D01*
X226186564Y-147219389D01*
G37*
G36*
X147154942Y-148510574D02*
G01*
X146639426Y-149124942D01*
X146025058Y-148609426D01*
X146540574Y-147995058D01*
X147154942Y-148510574D01*
G37*
G36*
X274955005Y-148235101D02*
G01*
X274340637Y-148750617D01*
X273825121Y-148136249D01*
X274439489Y-147620733D01*
X274955005Y-148235101D01*
G37*
G36*
X146312293Y-147803508D02*
G01*
X145796777Y-148417876D01*
X145182409Y-147902360D01*
X145697925Y-147287992D01*
X146312293Y-147803508D01*
G37*
G36*
X204491000Y-147701000D02*
G01*
X201389000Y-147701000D01*
X201389000Y-145599000D01*
X204491000Y-145599000D01*
X204491000Y-147701000D01*
G37*
G36*
X218491000Y-147701000D02*
G01*
X215389000Y-147701000D01*
X215389000Y-145599000D01*
X218491000Y-145599000D01*
X218491000Y-147701000D01*
G37*
G36*
X228726564Y-144679389D02*
G01*
X228917833Y-144758615D01*
X228917835Y-144758616D01*
X229089973Y-144873635D01*
X229236365Y-145020027D01*
X229351385Y-145192167D01*
X229430611Y-145383436D01*
X229471000Y-145586484D01*
X229471000Y-145793516D01*
X229430611Y-145996564D01*
X229351385Y-146187833D01*
X229351384Y-146187835D01*
X229236365Y-146359973D01*
X229089973Y-146506365D01*
X228917835Y-146621384D01*
X228917834Y-146621385D01*
X228917833Y-146621385D01*
X228726564Y-146700611D01*
X228523516Y-146741000D01*
X228316484Y-146741000D01*
X228113436Y-146700611D01*
X227922167Y-146621385D01*
X227922166Y-146621385D01*
X227922165Y-146621384D01*
X227750027Y-146506365D01*
X227603635Y-146359973D01*
X227488616Y-146187835D01*
X227488615Y-146187833D01*
X227409389Y-145996564D01*
X227369000Y-145793516D01*
X227369000Y-145586484D01*
X227409389Y-145383436D01*
X227488615Y-145192167D01*
X227603635Y-145020027D01*
X227750027Y-144873635D01*
X227922165Y-144758616D01*
X227922167Y-144758615D01*
X228113436Y-144679389D01*
X228316484Y-144639000D01*
X228523516Y-144639000D01*
X228726564Y-144679389D01*
G37*
G36*
X226186564Y-144679389D02*
G01*
X226377833Y-144758615D01*
X226377835Y-144758616D01*
X226549973Y-144873635D01*
X226696365Y-145020027D01*
X226811385Y-145192167D01*
X226890611Y-145383436D01*
X226931000Y-145586484D01*
X226931000Y-145793516D01*
X226890611Y-145996564D01*
X226811385Y-146187833D01*
X226811384Y-146187835D01*
X226696365Y-146359973D01*
X226549973Y-146506365D01*
X226377835Y-146621384D01*
X226377834Y-146621385D01*
X226377833Y-146621385D01*
X226186564Y-146700611D01*
X225983516Y-146741000D01*
X225776484Y-146741000D01*
X225573436Y-146700611D01*
X225382167Y-146621385D01*
X225382166Y-146621385D01*
X225382165Y-146621384D01*
X225210027Y-146506365D01*
X225063635Y-146359973D01*
X224948616Y-146187835D01*
X224948615Y-146187833D01*
X224869389Y-145996564D01*
X224829000Y-145793516D01*
X224829000Y-145586484D01*
X224869389Y-145383436D01*
X224948615Y-145192167D01*
X225063635Y-145020027D01*
X225210027Y-144873635D01*
X225382165Y-144758616D01*
X225382167Y-144758615D01*
X225573436Y-144679389D01*
X225776484Y-144639000D01*
X225983516Y-144639000D01*
X226186564Y-144679389D01*
G37*
G36*
X275229591Y-145678085D02*
G01*
X275263569Y-145688393D01*
X275294890Y-145705134D01*
X275322339Y-145727661D01*
X275344866Y-145755110D01*
X275361607Y-145786431D01*
X275371915Y-145820409D01*
X275376000Y-145861890D01*
X275376000Y-146538110D01*
X275371915Y-146579591D01*
X275361607Y-146613569D01*
X275344866Y-146644890D01*
X275322339Y-146672339D01*
X275294890Y-146694866D01*
X275263569Y-146711607D01*
X275229591Y-146721915D01*
X275188110Y-146726000D01*
X274586890Y-146726000D01*
X274545409Y-146721915D01*
X274511431Y-146711607D01*
X274480110Y-146694866D01*
X274452661Y-146672339D01*
X274430134Y-146644890D01*
X274413393Y-146613569D01*
X274403085Y-146579591D01*
X274399000Y-146538110D01*
X274399000Y-145861890D01*
X274403085Y-145820409D01*
X274413393Y-145786431D01*
X274430134Y-145755110D01*
X274452661Y-145727661D01*
X274480110Y-145705134D01*
X274511431Y-145688393D01*
X274545409Y-145678085D01*
X274586890Y-145674000D01*
X275188110Y-145674000D01*
X275229591Y-145678085D01*
G37*
G36*
X273654591Y-145678085D02*
G01*
X273688569Y-145688393D01*
X273719890Y-145705134D01*
X273747339Y-145727661D01*
X273769866Y-145755110D01*
X273786607Y-145786431D01*
X273796915Y-145820409D01*
X273801000Y-145861890D01*
X273801000Y-146538110D01*
X273796915Y-146579591D01*
X273786607Y-146613569D01*
X273769866Y-146644890D01*
X273747339Y-146672339D01*
X273719890Y-146694866D01*
X273688569Y-146711607D01*
X273654591Y-146721915D01*
X273613110Y-146726000D01*
X273011890Y-146726000D01*
X272970409Y-146721915D01*
X272936431Y-146711607D01*
X272905110Y-146694866D01*
X272877661Y-146672339D01*
X272855134Y-146644890D01*
X272838393Y-146613569D01*
X272828085Y-146579591D01*
X272824000Y-146538110D01*
X272824000Y-145861890D01*
X272828085Y-145820409D01*
X272838393Y-145786431D01*
X272855134Y-145755110D01*
X272877661Y-145727661D01*
X272905110Y-145705134D01*
X272936431Y-145688393D01*
X272970409Y-145678085D01*
X273011890Y-145674000D01*
X273613110Y-145674000D01*
X273654591Y-145678085D01*
G37*
G36*
X226186564Y-142139389D02*
G01*
X226377833Y-142218615D01*
X226377835Y-142218616D01*
X226549973Y-142333635D01*
X226696365Y-142480027D01*
X226811385Y-142652167D01*
X226890611Y-142843436D01*
X226931000Y-143046484D01*
X226931000Y-143253516D01*
X226890611Y-143456564D01*
X226811385Y-143647833D01*
X226811384Y-143647835D01*
X226696365Y-143819973D01*
X226549973Y-143966365D01*
X226377835Y-144081384D01*
X226377834Y-144081385D01*
X226377833Y-144081385D01*
X226186564Y-144160611D01*
X225983516Y-144201000D01*
X225776484Y-144201000D01*
X225573436Y-144160611D01*
X225382167Y-144081385D01*
X225382166Y-144081385D01*
X225382165Y-144081384D01*
X225210027Y-143966365D01*
X225063635Y-143819973D01*
X224948616Y-143647835D01*
X224948615Y-143647833D01*
X224869389Y-143456564D01*
X224829000Y-143253516D01*
X224829000Y-143046484D01*
X224869389Y-142843436D01*
X224948615Y-142652167D01*
X225063635Y-142480027D01*
X225210027Y-142333635D01*
X225382165Y-142218616D01*
X225382167Y-142218615D01*
X225573436Y-142139389D01*
X225776484Y-142099000D01*
X225983516Y-142099000D01*
X226186564Y-142139389D01*
G37*
G36*
X228726564Y-142139389D02*
G01*
X228917833Y-142218615D01*
X228917835Y-142218616D01*
X229089973Y-142333635D01*
X229236365Y-142480027D01*
X229351385Y-142652167D01*
X229430611Y-142843436D01*
X229471000Y-143046484D01*
X229471000Y-143253516D01*
X229430611Y-143456564D01*
X229351385Y-143647833D01*
X229351384Y-143647835D01*
X229236365Y-143819973D01*
X229089973Y-143966365D01*
X228917835Y-144081384D01*
X228917834Y-144081385D01*
X228917833Y-144081385D01*
X228726564Y-144160611D01*
X228523516Y-144201000D01*
X228316484Y-144201000D01*
X228113436Y-144160611D01*
X227922167Y-144081385D01*
X227922166Y-144081385D01*
X227922165Y-144081384D01*
X227750027Y-143966365D01*
X227603635Y-143819973D01*
X227488616Y-143647835D01*
X227488615Y-143647833D01*
X227409389Y-143456564D01*
X227369000Y-143253516D01*
X227369000Y-143046484D01*
X227409389Y-142843436D01*
X227488615Y-142652167D01*
X227603635Y-142480027D01*
X227750027Y-142333635D01*
X227922165Y-142218616D01*
X227922167Y-142218615D01*
X228113436Y-142139389D01*
X228316484Y-142099000D01*
X228523516Y-142099000D01*
X228726564Y-142139389D01*
G37*
G36*
X206994591Y-142878085D02*
G01*
X207028569Y-142888393D01*
X207059890Y-142905134D01*
X207087339Y-142927661D01*
X207109866Y-142955110D01*
X207126607Y-142986431D01*
X207136915Y-143020409D01*
X207141000Y-143061890D01*
X207141000Y-143738110D01*
X207136915Y-143779591D01*
X207126607Y-143813569D01*
X207109866Y-143844890D01*
X207087339Y-143872339D01*
X207059890Y-143894866D01*
X207028569Y-143911607D01*
X206994591Y-143921915D01*
X206953110Y-143926000D01*
X206351890Y-143926000D01*
X206310409Y-143921915D01*
X206276431Y-143911607D01*
X206245110Y-143894866D01*
X206217661Y-143872339D01*
X206195134Y-143844890D01*
X206178393Y-143813569D01*
X206168085Y-143779591D01*
X206164000Y-143738110D01*
X206164000Y-143061890D01*
X206168085Y-143020409D01*
X206178393Y-142986431D01*
X206195134Y-142955110D01*
X206217661Y-142927661D01*
X206245110Y-142905134D01*
X206276431Y-142888393D01*
X206310409Y-142878085D01*
X206351890Y-142874000D01*
X206953110Y-142874000D01*
X206994591Y-142878085D01*
G37*
G36*
X208569591Y-142878085D02*
G01*
X208603569Y-142888393D01*
X208634890Y-142905134D01*
X208662339Y-142927661D01*
X208684866Y-142955110D01*
X208701607Y-142986431D01*
X208711915Y-143020409D01*
X208716000Y-143061890D01*
X208716000Y-143738110D01*
X208711915Y-143779591D01*
X208701607Y-143813569D01*
X208684866Y-143844890D01*
X208662339Y-143872339D01*
X208634890Y-143894866D01*
X208603569Y-143911607D01*
X208569591Y-143921915D01*
X208528110Y-143926000D01*
X207926890Y-143926000D01*
X207885409Y-143921915D01*
X207851431Y-143911607D01*
X207820110Y-143894866D01*
X207792661Y-143872339D01*
X207770134Y-143844890D01*
X207753393Y-143813569D01*
X207743085Y-143779591D01*
X207739000Y-143738110D01*
X207739000Y-143061890D01*
X207743085Y-143020409D01*
X207753393Y-142986431D01*
X207770134Y-142955110D01*
X207792661Y-142927661D01*
X207820110Y-142905134D01*
X207851431Y-142888393D01*
X207885409Y-142878085D01*
X207926890Y-142874000D01*
X208528110Y-142874000D01*
X208569591Y-142878085D01*
G37*
G36*
X226186564Y-139599389D02*
G01*
X226377833Y-139678615D01*
X226377835Y-139678616D01*
X226549973Y-139793635D01*
X226696365Y-139940027D01*
X226811385Y-140112167D01*
X226890611Y-140303436D01*
X226931000Y-140506484D01*
X226931000Y-140713516D01*
X226890611Y-140916564D01*
X226811385Y-141107833D01*
X226811384Y-141107835D01*
X226696365Y-141279973D01*
X226549973Y-141426365D01*
X226377835Y-141541384D01*
X226377834Y-141541385D01*
X226377833Y-141541385D01*
X226186564Y-141620611D01*
X225983516Y-141661000D01*
X225776484Y-141661000D01*
X225573436Y-141620611D01*
X225382167Y-141541385D01*
X225382166Y-141541385D01*
X225382165Y-141541384D01*
X225210027Y-141426365D01*
X225063635Y-141279973D01*
X224948616Y-141107835D01*
X224948615Y-141107833D01*
X224869389Y-140916564D01*
X224829000Y-140713516D01*
X224829000Y-140506484D01*
X224869389Y-140303436D01*
X224948615Y-140112167D01*
X225063635Y-139940027D01*
X225210027Y-139793635D01*
X225382165Y-139678616D01*
X225382167Y-139678615D01*
X225573436Y-139599389D01*
X225776484Y-139559000D01*
X225983516Y-139559000D01*
X226186564Y-139599389D01*
G37*
G36*
X228726564Y-139599389D02*
G01*
X228917833Y-139678615D01*
X228917835Y-139678616D01*
X229089973Y-139793635D01*
X229236365Y-139940027D01*
X229351385Y-140112167D01*
X229430611Y-140303436D01*
X229471000Y-140506484D01*
X229471000Y-140713516D01*
X229430611Y-140916564D01*
X229351385Y-141107833D01*
X229351384Y-141107835D01*
X229236365Y-141279973D01*
X229089973Y-141426365D01*
X228917835Y-141541384D01*
X228917834Y-141541385D01*
X228917833Y-141541385D01*
X228726564Y-141620611D01*
X228523516Y-141661000D01*
X228316484Y-141661000D01*
X228113436Y-141620611D01*
X227922167Y-141541385D01*
X227922166Y-141541385D01*
X227922165Y-141541384D01*
X227750027Y-141426365D01*
X227603635Y-141279973D01*
X227488616Y-141107835D01*
X227488615Y-141107833D01*
X227409389Y-140916564D01*
X227369000Y-140713516D01*
X227369000Y-140506484D01*
X227409389Y-140303436D01*
X227488615Y-140112167D01*
X227603635Y-139940027D01*
X227750027Y-139793635D01*
X227922165Y-139678616D01*
X227922167Y-139678615D01*
X228113436Y-139599389D01*
X228316484Y-139559000D01*
X228523516Y-139559000D01*
X228726564Y-139599389D01*
G37*
G36*
X226186564Y-137059389D02*
G01*
X226351870Y-137127861D01*
X226377835Y-137138616D01*
X226422803Y-137168663D01*
X226549973Y-137253635D01*
X226696365Y-137400027D01*
X226811385Y-137572167D01*
X226890611Y-137763436D01*
X226931000Y-137966484D01*
X226931000Y-138173516D01*
X226890611Y-138376564D01*
X226811385Y-138567833D01*
X226811384Y-138567835D01*
X226696365Y-138739973D01*
X226549973Y-138886365D01*
X226377835Y-139001384D01*
X226377834Y-139001385D01*
X226377833Y-139001385D01*
X226186564Y-139080611D01*
X225983516Y-139121000D01*
X225776484Y-139121000D01*
X225573436Y-139080611D01*
X225382167Y-139001385D01*
X225382166Y-139001385D01*
X225382165Y-139001384D01*
X225210027Y-138886365D01*
X225063635Y-138739973D01*
X224948616Y-138567835D01*
X224948615Y-138567833D01*
X224869389Y-138376564D01*
X224829000Y-138173516D01*
X224829000Y-137966484D01*
X224869389Y-137763436D01*
X224948615Y-137572167D01*
X225063635Y-137400027D01*
X225210027Y-137253635D01*
X225337197Y-137168663D01*
X225382165Y-137138616D01*
X225408130Y-137127861D01*
X225573436Y-137059389D01*
X225776484Y-137019000D01*
X225983516Y-137019000D01*
X226186564Y-137059389D01*
G37*
G36*
X228726564Y-137059389D02*
G01*
X228891870Y-137127861D01*
X228917835Y-137138616D01*
X228962803Y-137168663D01*
X229089973Y-137253635D01*
X229236365Y-137400027D01*
X229351385Y-137572167D01*
X229430611Y-137763436D01*
X229471000Y-137966484D01*
X229471000Y-138173516D01*
X229430611Y-138376564D01*
X229351385Y-138567833D01*
X229351384Y-138567835D01*
X229236365Y-138739973D01*
X229089973Y-138886365D01*
X228917835Y-139001384D01*
X228917834Y-139001385D01*
X228917833Y-139001385D01*
X228726564Y-139080611D01*
X228523516Y-139121000D01*
X228316484Y-139121000D01*
X228113436Y-139080611D01*
X227922167Y-139001385D01*
X227922166Y-139001385D01*
X227922165Y-139001384D01*
X227750027Y-138886365D01*
X227603635Y-138739973D01*
X227488616Y-138567835D01*
X227488615Y-138567833D01*
X227409389Y-138376564D01*
X227369000Y-138173516D01*
X227369000Y-137966484D01*
X227409389Y-137763436D01*
X227488615Y-137572167D01*
X227603635Y-137400027D01*
X227750027Y-137253635D01*
X227877197Y-137168663D01*
X227922165Y-137138616D01*
X227948130Y-137127861D01*
X228113436Y-137059389D01*
X228316484Y-137019000D01*
X228523516Y-137019000D01*
X228726564Y-137059389D01*
G37*
G36*
X209274468Y-137053565D02*
G01*
X209313138Y-137065296D01*
X209348777Y-137084346D01*
X209380017Y-137109983D01*
X209405654Y-137141223D01*
X209424704Y-137176862D01*
X209436435Y-137215532D01*
X209441000Y-137261888D01*
X209441000Y-137913112D01*
X209436435Y-137959468D01*
X209424704Y-137998138D01*
X209405654Y-138033777D01*
X209380017Y-138065017D01*
X209348777Y-138090654D01*
X209313138Y-138109704D01*
X209274468Y-138121435D01*
X209228112Y-138126000D01*
X208151888Y-138126000D01*
X208105532Y-138121435D01*
X208066862Y-138109704D01*
X208031223Y-138090654D01*
X207999983Y-138065017D01*
X207974346Y-138033777D01*
X207955296Y-137998138D01*
X207943565Y-137959468D01*
X207939000Y-137913112D01*
X207939000Y-137261888D01*
X207943565Y-137215532D01*
X207955296Y-137176862D01*
X207974346Y-137141223D01*
X207999983Y-137109983D01*
X208031223Y-137084346D01*
X208066862Y-137065296D01*
X208105532Y-137053565D01*
X208151888Y-137049000D01*
X209228112Y-137049000D01*
X209274468Y-137053565D01*
G37*
G36*
X228726564Y-134519389D02*
G01*
X228917833Y-134598615D01*
X228917835Y-134598616D01*
X229089973Y-134713635D01*
X229236365Y-134860027D01*
X229351385Y-135032167D01*
X229430611Y-135223436D01*
X229471000Y-135426484D01*
X229471000Y-135633516D01*
X229430611Y-135836564D01*
X229370473Y-135981750D01*
X229351384Y-136027835D01*
X229236365Y-136199973D01*
X229089973Y-136346365D01*
X228917835Y-136461384D01*
X228917834Y-136461385D01*
X228917833Y-136461385D01*
X228726564Y-136540611D01*
X228523516Y-136581000D01*
X228316484Y-136581000D01*
X228113436Y-136540611D01*
X227922167Y-136461385D01*
X227922166Y-136461385D01*
X227922165Y-136461384D01*
X227750027Y-136346365D01*
X227603635Y-136199973D01*
X227488616Y-136027835D01*
X227469527Y-135981750D01*
X227409389Y-135836564D01*
X227369000Y-135633516D01*
X227369000Y-135426484D01*
X227409389Y-135223436D01*
X227488615Y-135032167D01*
X227603635Y-134860027D01*
X227750027Y-134713635D01*
X227922165Y-134598616D01*
X227922167Y-134598615D01*
X228113436Y-134519389D01*
X228316484Y-134479000D01*
X228523516Y-134479000D01*
X228726564Y-134519389D01*
G37*
G36*
X226186564Y-134519389D02*
G01*
X226377833Y-134598615D01*
X226377835Y-134598616D01*
X226549973Y-134713635D01*
X226696365Y-134860027D01*
X226811385Y-135032167D01*
X226890611Y-135223436D01*
X226931000Y-135426484D01*
X226931000Y-135633516D01*
X226890611Y-135836564D01*
X226830473Y-135981750D01*
X226811384Y-136027835D01*
X226696365Y-136199973D01*
X226549973Y-136346365D01*
X226377835Y-136461384D01*
X226377834Y-136461385D01*
X226377833Y-136461385D01*
X226186564Y-136540611D01*
X225983516Y-136581000D01*
X225776484Y-136581000D01*
X225573436Y-136540611D01*
X225382167Y-136461385D01*
X225382166Y-136461385D01*
X225382165Y-136461384D01*
X225210027Y-136346365D01*
X225063635Y-136199973D01*
X224948616Y-136027835D01*
X224929527Y-135981750D01*
X224869389Y-135836564D01*
X224829000Y-135633516D01*
X224829000Y-135426484D01*
X224869389Y-135223436D01*
X224948615Y-135032167D01*
X225063635Y-134860027D01*
X225210027Y-134713635D01*
X225382165Y-134598616D01*
X225382167Y-134598615D01*
X225573436Y-134519389D01*
X225776484Y-134479000D01*
X225983516Y-134479000D01*
X226186564Y-134519389D01*
G37*
G36*
X209274468Y-135178565D02*
G01*
X209313138Y-135190296D01*
X209348777Y-135209346D01*
X209380017Y-135234983D01*
X209405654Y-135266223D01*
X209424704Y-135301862D01*
X209436435Y-135340532D01*
X209441000Y-135386888D01*
X209441000Y-136038112D01*
X209436435Y-136084468D01*
X209424704Y-136123138D01*
X209405654Y-136158777D01*
X209380017Y-136190017D01*
X209348777Y-136215654D01*
X209313138Y-136234704D01*
X209274468Y-136246435D01*
X209228112Y-136251000D01*
X208151888Y-136251000D01*
X208105532Y-136246435D01*
X208066862Y-136234704D01*
X208031223Y-136215654D01*
X207999983Y-136190017D01*
X207974346Y-136158777D01*
X207955296Y-136123138D01*
X207943565Y-136084468D01*
X207939000Y-136038112D01*
X207939000Y-135386888D01*
X207943565Y-135340532D01*
X207955296Y-135301862D01*
X207974346Y-135266223D01*
X207999983Y-135234983D01*
X208031223Y-135209346D01*
X208066862Y-135190296D01*
X208105532Y-135178565D01*
X208151888Y-135174000D01*
X209228112Y-135174000D01*
X209274468Y-135178565D01*
G37*
G36*
X294528657Y-134394029D02*
G01*
X293914289Y-134909545D01*
X293398773Y-134295177D01*
X294013141Y-133779661D01*
X294528657Y-134394029D01*
G37*
G36*
X126979138Y-133689601D02*
G01*
X126463622Y-134303969D01*
X125849254Y-133788453D01*
X126364770Y-133174085D01*
X126979138Y-133689601D01*
G37*
G36*
X295371306Y-133686962D02*
G01*
X294756938Y-134202478D01*
X294241422Y-133588110D01*
X294855790Y-133072594D01*
X295371306Y-133686962D01*
G37*
G36*
X229471000Y-134041000D02*
G01*
X227369000Y-134041000D01*
X227369000Y-131939000D01*
X229471000Y-131939000D01*
X229471000Y-134041000D01*
G37*
G36*
X226186564Y-131979389D02*
G01*
X226377833Y-132058615D01*
X226377835Y-132058616D01*
X226549973Y-132173635D01*
X226696365Y-132320027D01*
X226794583Y-132467020D01*
X226811385Y-132492167D01*
X226890611Y-132683436D01*
X226931000Y-132886484D01*
X226931000Y-133093516D01*
X226890611Y-133296564D01*
X226811385Y-133487833D01*
X226811384Y-133487835D01*
X226696365Y-133659973D01*
X226549973Y-133806365D01*
X226377835Y-133921384D01*
X226377834Y-133921385D01*
X226377833Y-133921385D01*
X226186564Y-134000611D01*
X225983516Y-134041000D01*
X225776484Y-134041000D01*
X225573436Y-134000611D01*
X225382167Y-133921385D01*
X225382166Y-133921385D01*
X225382165Y-133921384D01*
X225210027Y-133806365D01*
X225063635Y-133659973D01*
X224948616Y-133487835D01*
X224948615Y-133487833D01*
X224869389Y-133296564D01*
X224829000Y-133093516D01*
X224829000Y-132886484D01*
X224869389Y-132683436D01*
X224948615Y-132492167D01*
X224965418Y-132467020D01*
X225063635Y-132320027D01*
X225210027Y-132173635D01*
X225382165Y-132058616D01*
X225382167Y-132058615D01*
X225573436Y-131979389D01*
X225776484Y-131939000D01*
X225983516Y-131939000D01*
X226186564Y-131979389D01*
G37*
G36*
X126136489Y-132982535D02*
G01*
X125620973Y-133596903D01*
X125006605Y-133081387D01*
X125522121Y-132467019D01*
X126136489Y-132982535D01*
G37*
G36*
X293352356Y-132992167D02*
G01*
X292737988Y-133507683D01*
X292222472Y-132893315D01*
X292836840Y-132377799D01*
X293352356Y-132992167D01*
G37*
G36*
X129584591Y-132218085D02*
G01*
X129618569Y-132228393D01*
X129649890Y-132245134D01*
X129677339Y-132267661D01*
X129699866Y-132295110D01*
X129716607Y-132326431D01*
X129726915Y-132360409D01*
X129731000Y-132401890D01*
X129731000Y-133078110D01*
X129726915Y-133119591D01*
X129716607Y-133153569D01*
X129699866Y-133184890D01*
X129677339Y-133212339D01*
X129649890Y-133234866D01*
X129618569Y-133251607D01*
X129584591Y-133261915D01*
X129543110Y-133266000D01*
X128941890Y-133266000D01*
X128900409Y-133261915D01*
X128866431Y-133251607D01*
X128835110Y-133234866D01*
X128807661Y-133212339D01*
X128785134Y-133184890D01*
X128768393Y-133153569D01*
X128758085Y-133119591D01*
X128754000Y-133078110D01*
X128754000Y-132401890D01*
X128758085Y-132360409D01*
X128768393Y-132326431D01*
X128785134Y-132295110D01*
X128807661Y-132267661D01*
X128835110Y-132245134D01*
X128866431Y-132228393D01*
X128900409Y-132218085D01*
X128941890Y-132214000D01*
X129543110Y-132214000D01*
X129584591Y-132218085D01*
G37*
G36*
X131159591Y-132218085D02*
G01*
X131193569Y-132228393D01*
X131224890Y-132245134D01*
X131252339Y-132267661D01*
X131274866Y-132295110D01*
X131291607Y-132326431D01*
X131301915Y-132360409D01*
X131306000Y-132401890D01*
X131306000Y-133078110D01*
X131301915Y-133119591D01*
X131291607Y-133153569D01*
X131274866Y-133184890D01*
X131252339Y-133212339D01*
X131224890Y-133234866D01*
X131193569Y-133251607D01*
X131159591Y-133261915D01*
X131118110Y-133266000D01*
X130516890Y-133266000D01*
X130475409Y-133261915D01*
X130441431Y-133251607D01*
X130410110Y-133234866D01*
X130382661Y-133212339D01*
X130360134Y-133184890D01*
X130343393Y-133153569D01*
X130333085Y-133119591D01*
X130329000Y-133078110D01*
X130329000Y-132401890D01*
X130333085Y-132360409D01*
X130343393Y-132326431D01*
X130360134Y-132295110D01*
X130382661Y-132267661D01*
X130410110Y-132245134D01*
X130441431Y-132228393D01*
X130475409Y-132218085D01*
X130516890Y-132214000D01*
X131118110Y-132214000D01*
X131159591Y-132218085D01*
G37*
G36*
X128155439Y-132287740D02*
G01*
X127639923Y-132902108D01*
X127025555Y-132386592D01*
X127541071Y-131772224D01*
X128155439Y-132287740D01*
G37*
G36*
X294195005Y-132285101D02*
G01*
X293580637Y-132800617D01*
X293065121Y-132186249D01*
X293679489Y-131670733D01*
X294195005Y-132285101D01*
G37*
G36*
X127312790Y-131580674D02*
G01*
X126797274Y-132195042D01*
X126182906Y-131679526D01*
X126698422Y-131065158D01*
X127312790Y-131580674D01*
G37*
G36*
X294649591Y-129468085D02*
G01*
X294683569Y-129478393D01*
X294714890Y-129495134D01*
X294742339Y-129517661D01*
X294764866Y-129545110D01*
X294781607Y-129576431D01*
X294791915Y-129610409D01*
X294796000Y-129651890D01*
X294796000Y-130328110D01*
X294791915Y-130369591D01*
X294781607Y-130403569D01*
X294764866Y-130434890D01*
X294742339Y-130462339D01*
X294714890Y-130484866D01*
X294683569Y-130501607D01*
X294649591Y-130511915D01*
X294608110Y-130516000D01*
X294006890Y-130516000D01*
X293965409Y-130511915D01*
X293931431Y-130501607D01*
X293900110Y-130484866D01*
X293872661Y-130462339D01*
X293850134Y-130434890D01*
X293833393Y-130403569D01*
X293823085Y-130369591D01*
X293819000Y-130328110D01*
X293819000Y-129651890D01*
X293823085Y-129610409D01*
X293833393Y-129576431D01*
X293850134Y-129545110D01*
X293872661Y-129517661D01*
X293900110Y-129495134D01*
X293931431Y-129478393D01*
X293965409Y-129468085D01*
X294006890Y-129464000D01*
X294608110Y-129464000D01*
X294649591Y-129468085D01*
G37*
G36*
X293074591Y-129468085D02*
G01*
X293108569Y-129478393D01*
X293139890Y-129495134D01*
X293167339Y-129517661D01*
X293189866Y-129545110D01*
X293206607Y-129576431D01*
X293216915Y-129610409D01*
X293221000Y-129651890D01*
X293221000Y-130328110D01*
X293216915Y-130369591D01*
X293206607Y-130403569D01*
X293189866Y-130434890D01*
X293167339Y-130462339D01*
X293139890Y-130484866D01*
X293108569Y-130501607D01*
X293074591Y-130511915D01*
X293033110Y-130516000D01*
X292431890Y-130516000D01*
X292390409Y-130511915D01*
X292356431Y-130501607D01*
X292325110Y-130484866D01*
X292297661Y-130462339D01*
X292275134Y-130434890D01*
X292258393Y-130403569D01*
X292248085Y-130369591D01*
X292244000Y-130328110D01*
X292244000Y-129651890D01*
X292248085Y-129610409D01*
X292258393Y-129576431D01*
X292275134Y-129545110D01*
X292297661Y-129517661D01*
X292325110Y-129495134D01*
X292356431Y-129478393D01*
X292390409Y-129468085D01*
X292431890Y-129464000D01*
X293033110Y-129464000D01*
X293074591Y-129468085D01*
G37*
G36*
X225016564Y-126329389D02*
G01*
X225207833Y-126408615D01*
X225207835Y-126408616D01*
X225379973Y-126523635D01*
X225526365Y-126670027D01*
X225641385Y-126842167D01*
X225720611Y-127033436D01*
X225761000Y-127236484D01*
X225761000Y-127443516D01*
X225720611Y-127646564D01*
X225641385Y-127837833D01*
X225641384Y-127837835D01*
X225526365Y-128009973D01*
X225379973Y-128156365D01*
X225207835Y-128271384D01*
X225207834Y-128271385D01*
X225207833Y-128271385D01*
X225016564Y-128350611D01*
X224813516Y-128391000D01*
X224606484Y-128391000D01*
X224403436Y-128350611D01*
X224212167Y-128271385D01*
X224212166Y-128271385D01*
X224212165Y-128271384D01*
X224040027Y-128156365D01*
X223893635Y-128009973D01*
X223778616Y-127837835D01*
X223778615Y-127837833D01*
X223699389Y-127646564D01*
X223659000Y-127443516D01*
X223659000Y-127236484D01*
X223699389Y-127033436D01*
X223778615Y-126842167D01*
X223893635Y-126670027D01*
X224040027Y-126523635D01*
X224212165Y-126408616D01*
X224212167Y-126408615D01*
X224403436Y-126329389D01*
X224606484Y-126289000D01*
X224813516Y-126289000D01*
X225016564Y-126329389D01*
G37*
G36*
X222476564Y-126329389D02*
G01*
X222667833Y-126408615D01*
X222667835Y-126408616D01*
X222839973Y-126523635D01*
X222986365Y-126670027D01*
X223101385Y-126842167D01*
X223180611Y-127033436D01*
X223221000Y-127236484D01*
X223221000Y-127443516D01*
X223180611Y-127646564D01*
X223101385Y-127837833D01*
X223101384Y-127837835D01*
X222986365Y-128009973D01*
X222839973Y-128156365D01*
X222667835Y-128271384D01*
X222667834Y-128271385D01*
X222667833Y-128271385D01*
X222476564Y-128350611D01*
X222273516Y-128391000D01*
X222066484Y-128391000D01*
X221863436Y-128350611D01*
X221672167Y-128271385D01*
X221672166Y-128271385D01*
X221672165Y-128271384D01*
X221500027Y-128156365D01*
X221353635Y-128009973D01*
X221238616Y-127837835D01*
X221238615Y-127837833D01*
X221159389Y-127646564D01*
X221119000Y-127443516D01*
X221119000Y-127236484D01*
X221159389Y-127033436D01*
X221238615Y-126842167D01*
X221353635Y-126670027D01*
X221500027Y-126523635D01*
X221672165Y-126408616D01*
X221672167Y-126408615D01*
X221863436Y-126329389D01*
X222066484Y-126289000D01*
X222273516Y-126289000D01*
X222476564Y-126329389D01*
G37*
G36*
X219936564Y-126329389D02*
G01*
X220127833Y-126408615D01*
X220127835Y-126408616D01*
X220299973Y-126523635D01*
X220446365Y-126670027D01*
X220561385Y-126842167D01*
X220640611Y-127033436D01*
X220681000Y-127236484D01*
X220681000Y-127443516D01*
X220640611Y-127646564D01*
X220561385Y-127837833D01*
X220561384Y-127837835D01*
X220446365Y-128009973D01*
X220299973Y-128156365D01*
X220127835Y-128271384D01*
X220127834Y-128271385D01*
X220127833Y-128271385D01*
X219936564Y-128350611D01*
X219733516Y-128391000D01*
X219526484Y-128391000D01*
X219323436Y-128350611D01*
X219132167Y-128271385D01*
X219132166Y-128271385D01*
X219132165Y-128271384D01*
X218960027Y-128156365D01*
X218813635Y-128009973D01*
X218698616Y-127837835D01*
X218698615Y-127837833D01*
X218619389Y-127646564D01*
X218579000Y-127443516D01*
X218579000Y-127236484D01*
X218619389Y-127033436D01*
X218698615Y-126842167D01*
X218813635Y-126670027D01*
X218960027Y-126523635D01*
X219132165Y-126408616D01*
X219132167Y-126408615D01*
X219323436Y-126329389D01*
X219526484Y-126289000D01*
X219733516Y-126289000D01*
X219936564Y-126329389D01*
G37*
G36*
X311229591Y-118208085D02*
G01*
X311263569Y-118218393D01*
X311294890Y-118235134D01*
X311322339Y-118257661D01*
X311344866Y-118285110D01*
X311361607Y-118316431D01*
X311371915Y-118350409D01*
X311376000Y-118391890D01*
X311376000Y-119068110D01*
X311371915Y-119109591D01*
X311361607Y-119143569D01*
X311344866Y-119174890D01*
X311322339Y-119202339D01*
X311294890Y-119224866D01*
X311263569Y-119241607D01*
X311229591Y-119251915D01*
X311188110Y-119256000D01*
X310586890Y-119256000D01*
X310545409Y-119251915D01*
X310511431Y-119241607D01*
X310480110Y-119224866D01*
X310452661Y-119202339D01*
X310430134Y-119174890D01*
X310413393Y-119143569D01*
X310403085Y-119109591D01*
X310399000Y-119068110D01*
X310399000Y-118391890D01*
X310403085Y-118350409D01*
X310413393Y-118316431D01*
X310430134Y-118285110D01*
X310452661Y-118257661D01*
X310480110Y-118235134D01*
X310511431Y-118218393D01*
X310545409Y-118208085D01*
X310586890Y-118204000D01*
X311188110Y-118204000D01*
X311229591Y-118208085D01*
G37*
G36*
X309654591Y-118208085D02*
G01*
X309688569Y-118218393D01*
X309719890Y-118235134D01*
X309747339Y-118257661D01*
X309769866Y-118285110D01*
X309786607Y-118316431D01*
X309796915Y-118350409D01*
X309801000Y-118391890D01*
X309801000Y-119068110D01*
X309796915Y-119109591D01*
X309786607Y-119143569D01*
X309769866Y-119174890D01*
X309747339Y-119202339D01*
X309719890Y-119224866D01*
X309688569Y-119241607D01*
X309654591Y-119251915D01*
X309613110Y-119256000D01*
X309011890Y-119256000D01*
X308970409Y-119251915D01*
X308936431Y-119241607D01*
X308905110Y-119224866D01*
X308877661Y-119202339D01*
X308855134Y-119174890D01*
X308838393Y-119143569D01*
X308828085Y-119109591D01*
X308824000Y-119068110D01*
X308824000Y-118391890D01*
X308828085Y-118350409D01*
X308838393Y-118316431D01*
X308855134Y-118285110D01*
X308877661Y-118257661D01*
X308905110Y-118235134D01*
X308936431Y-118218393D01*
X308970409Y-118208085D01*
X309011890Y-118204000D01*
X309613110Y-118204000D01*
X309654591Y-118208085D01*
G37*
G36*
X312856301Y-118457971D02*
G01*
X312990421Y-118925701D01*
X313013974Y-119007842D01*
X312431407Y-119174890D01*
X312243042Y-119228903D01*
X312243041Y-119228903D01*
X312021980Y-118457970D01*
X312658194Y-118275539D01*
X312792912Y-118236909D01*
X312792913Y-118236909D01*
X312856301Y-118457971D01*
G37*
G36*
X314071362Y-118704640D02*
G01*
X313472228Y-118876438D01*
X313300430Y-118925701D01*
X313300429Y-118925701D01*
X313108872Y-118257661D01*
X313079368Y-118154769D01*
X313079368Y-118154768D01*
X313678502Y-117982970D01*
X313850300Y-117933707D01*
X313850301Y-117933707D01*
X314071362Y-118704640D01*
G37*
G36*
X107688083Y-116987408D02*
G01*
X108347484Y-117164094D01*
X108347484Y-117164095D01*
X108324805Y-117248732D01*
X108139911Y-117938767D01*
X108139910Y-117938767D01*
X107976203Y-117894901D01*
X107365238Y-117731194D01*
X107572811Y-116956521D01*
X107572812Y-116956521D01*
X107688083Y-116987408D01*
G37*
G36*
X106674000Y-116715686D02*
G01*
X107284965Y-116879393D01*
X107284965Y-116879394D01*
X107254897Y-116991607D01*
X107077392Y-117654066D01*
X107077391Y-117654066D01*
X106913684Y-117610200D01*
X106302719Y-117446493D01*
X106510292Y-116671820D01*
X106510293Y-116671820D01*
X106674000Y-116715686D01*
G37*
G36*
X312449555Y-117039477D02*
G01*
X312485289Y-117164095D01*
X312509558Y-117248733D01*
X311910424Y-117420531D01*
X311738626Y-117469794D01*
X311738625Y-117469794D01*
X311540713Y-116779591D01*
X311517564Y-116698862D01*
X311517564Y-116698861D01*
X312116698Y-116527063D01*
X312288496Y-116477800D01*
X312288497Y-116477800D01*
X312449555Y-117039477D01*
G37*
G36*
X313507469Y-116738110D02*
G01*
X313563772Y-116934461D01*
X313566946Y-116945532D01*
X312971723Y-117116209D01*
X312796014Y-117166593D01*
X312796013Y-117166593D01*
X312574952Y-116395660D01*
X313220397Y-116210582D01*
X313345884Y-116174599D01*
X313345885Y-116174599D01*
X313507469Y-116738110D01*
G37*
G36*
X288713661Y-116316163D02*
G01*
X288657716Y-117116210D01*
X287857669Y-117060265D01*
X287913614Y-116260218D01*
X288713661Y-116316163D01*
G37*
G36*
X287616341Y-116239431D02*
G01*
X287560396Y-117039478D01*
X286760349Y-116983533D01*
X286816294Y-116183486D01*
X287616341Y-116239431D01*
G37*
G36*
X284394591Y-115958085D02*
G01*
X284428569Y-115968393D01*
X284459890Y-115985134D01*
X284487339Y-116007661D01*
X284509866Y-116035110D01*
X284526607Y-116066431D01*
X284536915Y-116100409D01*
X284541000Y-116141890D01*
X284541000Y-116818110D01*
X284536915Y-116859591D01*
X284526607Y-116893569D01*
X284509866Y-116924890D01*
X284487339Y-116952339D01*
X284459890Y-116974866D01*
X284428569Y-116991607D01*
X284394591Y-117001915D01*
X284353110Y-117006000D01*
X283751890Y-117006000D01*
X283710409Y-117001915D01*
X283676431Y-116991607D01*
X283645110Y-116974866D01*
X283617661Y-116952339D01*
X283595134Y-116924890D01*
X283578393Y-116893569D01*
X283568085Y-116859591D01*
X283564000Y-116818110D01*
X283564000Y-116141890D01*
X283568085Y-116100409D01*
X283578393Y-116066431D01*
X283595134Y-116035110D01*
X283617661Y-116007661D01*
X283645110Y-115985134D01*
X283676431Y-115968393D01*
X283710409Y-115958085D01*
X283751890Y-115954000D01*
X284353110Y-115954000D01*
X284394591Y-115958085D01*
G37*
G36*
X285969591Y-115958085D02*
G01*
X286003569Y-115968393D01*
X286034890Y-115985134D01*
X286062339Y-116007661D01*
X286084866Y-116035110D01*
X286101607Y-116066431D01*
X286111915Y-116100409D01*
X286116000Y-116141890D01*
X286116000Y-116818110D01*
X286111915Y-116859591D01*
X286101607Y-116893569D01*
X286084866Y-116924890D01*
X286062339Y-116952339D01*
X286034890Y-116974866D01*
X286003569Y-116991607D01*
X285969591Y-117001915D01*
X285928110Y-117006000D01*
X285326890Y-117006000D01*
X285285409Y-117001915D01*
X285251431Y-116991607D01*
X285220110Y-116974866D01*
X285192661Y-116952339D01*
X285170134Y-116924890D01*
X285153393Y-116893569D01*
X285143085Y-116859591D01*
X285139000Y-116818110D01*
X285139000Y-116141890D01*
X285143085Y-116100409D01*
X285153393Y-116066431D01*
X285170134Y-116035110D01*
X285192661Y-116007661D01*
X285220110Y-115985134D01*
X285251431Y-115968393D01*
X285285409Y-115958085D01*
X285326890Y-115954000D01*
X285928110Y-115954000D01*
X285969591Y-115958085D01*
G37*
G36*
X112399591Y-115878085D02*
G01*
X112433569Y-115888393D01*
X112464890Y-115905134D01*
X112492339Y-115927661D01*
X112514866Y-115955110D01*
X112531607Y-115986431D01*
X112541915Y-116020409D01*
X112546000Y-116061890D01*
X112546000Y-116738110D01*
X112541915Y-116779591D01*
X112531607Y-116813569D01*
X112514866Y-116844890D01*
X112492339Y-116872339D01*
X112464890Y-116894866D01*
X112433569Y-116911607D01*
X112399591Y-116921915D01*
X112358110Y-116926000D01*
X111756890Y-116926000D01*
X111715409Y-116921915D01*
X111681431Y-116911607D01*
X111650110Y-116894866D01*
X111622661Y-116872339D01*
X111600134Y-116844890D01*
X111583393Y-116813569D01*
X111573085Y-116779591D01*
X111569000Y-116738110D01*
X111569000Y-116061890D01*
X111573085Y-116020409D01*
X111583393Y-115986431D01*
X111600134Y-115955110D01*
X111622661Y-115927661D01*
X111650110Y-115905134D01*
X111681431Y-115888393D01*
X111715409Y-115878085D01*
X111756890Y-115874000D01*
X112358110Y-115874000D01*
X112399591Y-115878085D01*
G37*
G36*
X110824591Y-115878085D02*
G01*
X110858569Y-115888393D01*
X110889890Y-115905134D01*
X110917339Y-115927661D01*
X110939866Y-115955110D01*
X110956607Y-115986431D01*
X110966915Y-116020409D01*
X110971000Y-116061890D01*
X110971000Y-116738110D01*
X110966915Y-116779591D01*
X110956607Y-116813569D01*
X110939866Y-116844890D01*
X110917339Y-116872339D01*
X110889890Y-116894866D01*
X110858569Y-116911607D01*
X110824591Y-116921915D01*
X110783110Y-116926000D01*
X110181890Y-116926000D01*
X110140409Y-116921915D01*
X110106431Y-116911607D01*
X110075110Y-116894866D01*
X110047661Y-116872339D01*
X110025134Y-116844890D01*
X110008393Y-116813569D01*
X109998085Y-116779591D01*
X109994000Y-116738110D01*
X109994000Y-116061890D01*
X109998085Y-116020409D01*
X110008393Y-115986431D01*
X110025134Y-115955110D01*
X110047661Y-115927661D01*
X110075110Y-115905134D01*
X110106431Y-115888393D01*
X110140409Y-115878085D01*
X110181890Y-115874000D01*
X110783110Y-115874000D01*
X110824591Y-115878085D01*
G37*
G36*
X132476277Y-116268151D02*
G01*
X131715260Y-116308034D01*
X131675377Y-116310124D01*
X131675376Y-116310124D01*
X131633403Y-115509223D01*
X132394420Y-115469340D01*
X132434303Y-115467250D01*
X132434304Y-115467250D01*
X132476277Y-116268151D01*
G37*
G36*
X133574770Y-116210582D02*
G01*
X132813753Y-116250465D01*
X132773870Y-116252555D01*
X132773869Y-116252555D01*
X132731896Y-115451654D01*
X133492913Y-115411771D01*
X133532796Y-115409681D01*
X133532797Y-115409681D01*
X133574770Y-116210582D01*
G37*
G36*
X108210158Y-115232743D02*
G01*
X108821123Y-115396450D01*
X108613550Y-116171123D01*
X108613549Y-116171123D01*
X108349642Y-116100409D01*
X107838877Y-115963550D01*
X107854530Y-115905134D01*
X107914964Y-115679591D01*
X108046450Y-115188877D01*
X108046451Y-115188877D01*
X108210158Y-115232743D01*
G37*
G36*
X107108104Y-114937448D02*
G01*
X107758604Y-115111749D01*
X107758604Y-115111750D01*
X107741161Y-115176848D01*
X107551031Y-115886422D01*
X107551030Y-115886422D01*
X107271818Y-115811607D01*
X106776358Y-115678849D01*
X106789608Y-115629401D01*
X106833056Y-115467250D01*
X106983931Y-114904176D01*
X106983932Y-114904176D01*
X107108104Y-114937448D01*
G37*
G36*
X128564591Y-114778085D02*
G01*
X128598569Y-114788393D01*
X128629890Y-114805134D01*
X128657339Y-114827661D01*
X128679866Y-114855110D01*
X128696607Y-114886431D01*
X128706915Y-114920409D01*
X128711000Y-114961890D01*
X128711000Y-115638110D01*
X128706915Y-115679591D01*
X128696607Y-115713569D01*
X128679866Y-115744890D01*
X128657339Y-115772339D01*
X128629890Y-115794866D01*
X128598569Y-115811607D01*
X128564591Y-115821915D01*
X128523110Y-115826000D01*
X127921890Y-115826000D01*
X127880409Y-115821915D01*
X127846431Y-115811607D01*
X127815110Y-115794866D01*
X127787661Y-115772339D01*
X127765134Y-115744890D01*
X127748393Y-115713569D01*
X127738085Y-115679591D01*
X127734000Y-115638110D01*
X127734000Y-114961890D01*
X127738085Y-114920409D01*
X127748393Y-114886431D01*
X127765134Y-114855110D01*
X127787661Y-114827661D01*
X127815110Y-114805134D01*
X127846431Y-114788393D01*
X127880409Y-114778085D01*
X127921890Y-114774000D01*
X128523110Y-114774000D01*
X128564591Y-114778085D01*
G37*
G36*
X130139591Y-114778085D02*
G01*
X130173569Y-114788393D01*
X130204890Y-114805134D01*
X130232339Y-114827661D01*
X130254866Y-114855110D01*
X130271607Y-114886431D01*
X130281915Y-114920409D01*
X130286000Y-114961890D01*
X130286000Y-115638110D01*
X130281915Y-115679591D01*
X130271607Y-115713569D01*
X130254866Y-115744890D01*
X130232339Y-115772339D01*
X130204890Y-115794866D01*
X130173569Y-115811607D01*
X130139591Y-115821915D01*
X130098110Y-115826000D01*
X129496890Y-115826000D01*
X129455409Y-115821915D01*
X129421431Y-115811607D01*
X129390110Y-115794866D01*
X129362661Y-115772339D01*
X129340134Y-115744890D01*
X129323393Y-115713569D01*
X129313085Y-115679591D01*
X129309000Y-115638110D01*
X129309000Y-114961890D01*
X129313085Y-114920409D01*
X129323393Y-114886431D01*
X129340134Y-114855110D01*
X129362661Y-114827661D01*
X129390110Y-114805134D01*
X129421431Y-114788393D01*
X129455409Y-114778085D01*
X129496890Y-114774000D01*
X130098110Y-114774000D01*
X130139591Y-114778085D01*
G37*
G36*
X288841315Y-114490621D02*
G01*
X288785370Y-115290668D01*
X287985323Y-115234723D01*
X288041268Y-114434676D01*
X288841315Y-114490621D01*
G37*
G36*
X287743995Y-114413889D02*
G01*
X287688050Y-115213936D01*
X286888003Y-115157991D01*
X286943948Y-114357944D01*
X287743995Y-114413889D01*
G37*
G36*
X263772907Y-114377899D02*
G01*
X263703008Y-115176848D01*
X262904059Y-115106949D01*
X262973958Y-114308000D01*
X263772907Y-114377899D01*
G37*
G36*
X262677093Y-114282027D02*
G01*
X262607194Y-115080976D01*
X261808245Y-115011077D01*
X261878144Y-114212128D01*
X262677093Y-114282027D01*
G37*
G36*
X259224591Y-113998085D02*
G01*
X259258569Y-114008393D01*
X259289890Y-114025134D01*
X259317339Y-114047661D01*
X259339866Y-114075110D01*
X259356607Y-114106431D01*
X259366915Y-114140409D01*
X259371000Y-114181890D01*
X259371000Y-114858110D01*
X259366915Y-114899591D01*
X259356607Y-114933569D01*
X259339866Y-114964890D01*
X259317339Y-114992339D01*
X259289890Y-115014866D01*
X259258569Y-115031607D01*
X259224591Y-115041915D01*
X259183110Y-115046000D01*
X258581890Y-115046000D01*
X258540409Y-115041915D01*
X258506431Y-115031607D01*
X258475110Y-115014866D01*
X258447661Y-114992339D01*
X258425134Y-114964890D01*
X258408393Y-114933569D01*
X258398085Y-114899591D01*
X258394000Y-114858110D01*
X258394000Y-114181890D01*
X258398085Y-114140409D01*
X258408393Y-114106431D01*
X258425134Y-114075110D01*
X258447661Y-114047661D01*
X258475110Y-114025134D01*
X258506431Y-114008393D01*
X258540409Y-113998085D01*
X258581890Y-113994000D01*
X259183110Y-113994000D01*
X259224591Y-113998085D01*
G37*
G36*
X260799591Y-113998085D02*
G01*
X260833569Y-114008393D01*
X260864890Y-114025134D01*
X260892339Y-114047661D01*
X260914866Y-114075110D01*
X260931607Y-114106431D01*
X260941915Y-114140409D01*
X260946000Y-114181890D01*
X260946000Y-114858110D01*
X260941915Y-114899591D01*
X260931607Y-114933569D01*
X260914866Y-114964890D01*
X260892339Y-114992339D01*
X260864890Y-115014866D01*
X260833569Y-115031607D01*
X260799591Y-115041915D01*
X260758110Y-115046000D01*
X260156890Y-115046000D01*
X260115409Y-115041915D01*
X260081431Y-115031607D01*
X260050110Y-115014866D01*
X260022661Y-114992339D01*
X260000134Y-114964890D01*
X259983393Y-114933569D01*
X259973085Y-114899591D01*
X259969000Y-114858110D01*
X259969000Y-114181890D01*
X259973085Y-114140409D01*
X259983393Y-114106431D01*
X260000134Y-114075110D01*
X260022661Y-114047661D01*
X260050110Y-114025134D01*
X260081431Y-114008393D01*
X260115409Y-113998085D01*
X260156890Y-113994000D01*
X260758110Y-113994000D01*
X260799591Y-113998085D01*
G37*
G36*
X157436277Y-114728151D02*
G01*
X156675260Y-114768034D01*
X156635377Y-114770124D01*
X156635376Y-114770124D01*
X156593403Y-113969223D01*
X157354420Y-113929340D01*
X157394303Y-113927250D01*
X157394304Y-113927250D01*
X157436277Y-114728151D01*
G37*
G36*
X158534770Y-114670582D02*
G01*
X157773753Y-114710465D01*
X157733870Y-114712555D01*
X157733869Y-114712555D01*
X157691896Y-113911654D01*
X158452913Y-113871771D01*
X158492796Y-113869681D01*
X158492797Y-113869681D01*
X158534770Y-114670582D01*
G37*
G36*
X132372840Y-114294461D02*
G01*
X132380189Y-114434677D01*
X132380502Y-114440659D01*
X131619485Y-114480542D01*
X131579602Y-114482632D01*
X131579601Y-114482632D01*
X131537628Y-113681731D01*
X132298645Y-113641848D01*
X132338528Y-113639758D01*
X132338529Y-113639758D01*
X132372840Y-114294461D01*
G37*
G36*
X133478995Y-114383090D02*
G01*
X132717978Y-114422973D01*
X132678095Y-114425063D01*
X132678094Y-114425063D01*
X132636121Y-113624162D01*
X133397138Y-113584279D01*
X133437021Y-113582189D01*
X133437022Y-113582189D01*
X133478995Y-114383090D01*
G37*
G36*
X153274591Y-113318085D02*
G01*
X153308569Y-113328393D01*
X153339890Y-113345134D01*
X153367339Y-113367661D01*
X153389866Y-113395110D01*
X153406607Y-113426431D01*
X153416915Y-113460409D01*
X153421000Y-113501890D01*
X153421000Y-114178110D01*
X153416915Y-114219591D01*
X153406607Y-114253569D01*
X153389866Y-114284890D01*
X153367339Y-114312339D01*
X153339890Y-114334866D01*
X153308569Y-114351607D01*
X153274591Y-114361915D01*
X153233110Y-114366000D01*
X152631890Y-114366000D01*
X152590409Y-114361915D01*
X152556431Y-114351607D01*
X152525110Y-114334866D01*
X152497661Y-114312339D01*
X152475134Y-114284890D01*
X152458393Y-114253569D01*
X152448085Y-114219591D01*
X152444000Y-114178110D01*
X152444000Y-113501890D01*
X152448085Y-113460409D01*
X152458393Y-113426431D01*
X152475134Y-113395110D01*
X152497661Y-113367661D01*
X152525110Y-113345134D01*
X152556431Y-113328393D01*
X152590409Y-113318085D01*
X152631890Y-113314000D01*
X153233110Y-113314000D01*
X153274591Y-113318085D01*
G37*
G36*
X154849591Y-113318085D02*
G01*
X154883569Y-113328393D01*
X154914890Y-113345134D01*
X154942339Y-113367661D01*
X154964866Y-113395110D01*
X154981607Y-113426431D01*
X154991915Y-113460409D01*
X154996000Y-113501890D01*
X154996000Y-114178110D01*
X154991915Y-114219591D01*
X154981607Y-114253569D01*
X154964866Y-114284890D01*
X154942339Y-114312339D01*
X154914890Y-114334866D01*
X154883569Y-114351607D01*
X154849591Y-114361915D01*
X154808110Y-114366000D01*
X154206890Y-114366000D01*
X154165409Y-114361915D01*
X154131431Y-114351607D01*
X154100110Y-114334866D01*
X154072661Y-114312339D01*
X154050134Y-114284890D01*
X154033393Y-114253569D01*
X154023085Y-114219591D01*
X154019000Y-114178110D01*
X154019000Y-113501890D01*
X154023085Y-113460409D01*
X154033393Y-113426431D01*
X154050134Y-113395110D01*
X154072661Y-113367661D01*
X154100110Y-113345134D01*
X154131431Y-113328393D01*
X154165409Y-113318085D01*
X154206890Y-113314000D01*
X154808110Y-113314000D01*
X154849591Y-113318085D01*
G37*
G36*
X238439707Y-112822522D02*
G01*
X237968303Y-113471354D01*
X237319471Y-112999950D01*
X237790875Y-112351118D01*
X238439707Y-112822522D01*
G37*
G36*
X182587418Y-113009410D02*
G01*
X181930457Y-113469419D01*
X181470448Y-112812458D01*
X182127409Y-112352449D01*
X182587418Y-113009410D01*
G37*
G36*
X263932402Y-112554862D02*
G01*
X263862503Y-113353811D01*
X263063554Y-113283912D01*
X263133453Y-112484963D01*
X263932402Y-112554862D01*
G37*
G36*
X262836588Y-112458991D02*
G01*
X262766689Y-113257940D01*
X261967740Y-113188041D01*
X262037639Y-112389092D01*
X262836588Y-112458991D01*
G37*
G36*
X235639591Y-112208085D02*
G01*
X235673569Y-112218393D01*
X235704890Y-112235134D01*
X235732339Y-112257661D01*
X235754866Y-112285110D01*
X235771607Y-112316431D01*
X235781915Y-112350409D01*
X235786000Y-112391890D01*
X235786000Y-113068110D01*
X235781915Y-113109591D01*
X235771607Y-113143569D01*
X235754866Y-113174890D01*
X235732339Y-113202339D01*
X235704890Y-113224866D01*
X235673569Y-113241607D01*
X235639591Y-113251915D01*
X235598110Y-113256000D01*
X234996890Y-113256000D01*
X234955409Y-113251915D01*
X234921431Y-113241607D01*
X234890110Y-113224866D01*
X234862661Y-113202339D01*
X234840134Y-113174890D01*
X234823393Y-113143569D01*
X234813085Y-113109591D01*
X234809000Y-113068110D01*
X234809000Y-112391890D01*
X234813085Y-112350409D01*
X234823393Y-112316431D01*
X234840134Y-112285110D01*
X234862661Y-112257661D01*
X234890110Y-112235134D01*
X234921431Y-112218393D01*
X234955409Y-112208085D01*
X234996890Y-112204000D01*
X235598110Y-112204000D01*
X235639591Y-112208085D01*
G37*
G36*
X234064591Y-112208085D02*
G01*
X234098569Y-112218393D01*
X234129890Y-112235134D01*
X234157339Y-112257661D01*
X234179866Y-112285110D01*
X234196607Y-112316431D01*
X234206915Y-112350409D01*
X234211000Y-112391890D01*
X234211000Y-113068110D01*
X234206915Y-113109591D01*
X234196607Y-113143569D01*
X234179866Y-113174890D01*
X234157339Y-113202339D01*
X234129890Y-113224866D01*
X234098569Y-113241607D01*
X234064591Y-113251915D01*
X234023110Y-113256000D01*
X233421890Y-113256000D01*
X233380409Y-113251915D01*
X233346431Y-113241607D01*
X233315110Y-113224866D01*
X233287661Y-113202339D01*
X233265134Y-113174890D01*
X233248393Y-113143569D01*
X233238085Y-113109591D01*
X233234000Y-113068110D01*
X233234000Y-112391890D01*
X233238085Y-112350409D01*
X233248393Y-112316431D01*
X233265134Y-112285110D01*
X233287661Y-112257661D01*
X233315110Y-112235134D01*
X233346431Y-112218393D01*
X233380409Y-112208085D01*
X233421890Y-112204000D01*
X234023110Y-112204000D01*
X234064591Y-112208085D01*
G37*
G36*
X178104591Y-112078085D02*
G01*
X178138569Y-112088393D01*
X178169890Y-112105134D01*
X178197339Y-112127661D01*
X178219866Y-112155110D01*
X178236607Y-112186431D01*
X178246915Y-112220409D01*
X178251000Y-112261890D01*
X178251000Y-112938110D01*
X178246915Y-112979591D01*
X178236607Y-113013569D01*
X178219866Y-113044890D01*
X178197339Y-113072339D01*
X178169890Y-113094866D01*
X178138569Y-113111607D01*
X178104591Y-113121915D01*
X178063110Y-113126000D01*
X177461890Y-113126000D01*
X177420409Y-113121915D01*
X177386431Y-113111607D01*
X177355110Y-113094866D01*
X177327661Y-113072339D01*
X177305134Y-113044890D01*
X177288393Y-113013569D01*
X177278085Y-112979591D01*
X177274000Y-112938110D01*
X177274000Y-112261890D01*
X177278085Y-112220409D01*
X177288393Y-112186431D01*
X177305134Y-112155110D01*
X177327661Y-112127661D01*
X177355110Y-112105134D01*
X177386431Y-112088393D01*
X177420409Y-112078085D01*
X177461890Y-112074000D01*
X178063110Y-112074000D01*
X178104591Y-112078085D01*
G37*
G36*
X179679591Y-112078085D02*
G01*
X179713569Y-112088393D01*
X179744890Y-112105134D01*
X179772339Y-112127661D01*
X179794866Y-112155110D01*
X179811607Y-112186431D01*
X179821915Y-112220409D01*
X179826000Y-112261890D01*
X179826000Y-112938110D01*
X179821915Y-112979591D01*
X179811607Y-113013569D01*
X179794866Y-113044890D01*
X179772339Y-113072339D01*
X179744890Y-113094866D01*
X179713569Y-113111607D01*
X179679591Y-113121915D01*
X179638110Y-113126000D01*
X179036890Y-113126000D01*
X178995409Y-113121915D01*
X178961431Y-113111607D01*
X178930110Y-113094866D01*
X178902661Y-113072339D01*
X178880134Y-113044890D01*
X178863393Y-113013569D01*
X178853085Y-112979591D01*
X178849000Y-112938110D01*
X178849000Y-112261890D01*
X178853085Y-112220409D01*
X178863393Y-112186431D01*
X178880134Y-112155110D01*
X178902661Y-112127661D01*
X178930110Y-112105134D01*
X178961431Y-112088393D01*
X178995409Y-112078085D01*
X179036890Y-112074000D01*
X179638110Y-112074000D01*
X179679591Y-112078085D01*
G37*
G36*
X157340502Y-112900659D02*
G01*
X156579485Y-112940542D01*
X156539602Y-112942632D01*
X156539601Y-112942632D01*
X156497628Y-112141731D01*
X157258645Y-112101848D01*
X157298528Y-112099758D01*
X157298529Y-112099758D01*
X157340502Y-112900659D01*
G37*
G36*
X158438995Y-112843090D02*
G01*
X157701310Y-112881750D01*
X157638095Y-112885063D01*
X157638094Y-112885063D01*
X157596121Y-112084162D01*
X158357138Y-112044279D01*
X158397021Y-112042189D01*
X158397022Y-112042189D01*
X158438995Y-112843090D01*
G37*
G36*
X183488485Y-112378476D02*
G01*
X182831524Y-112838485D01*
X182371515Y-112181524D01*
X183028476Y-111721515D01*
X183488485Y-112378476D01*
G37*
G36*
X237549788Y-112175959D02*
G01*
X237078384Y-112824791D01*
X236429552Y-112353387D01*
X236900956Y-111704555D01*
X237549788Y-112175959D01*
G37*
G36*
X239515354Y-111342021D02*
G01*
X239043950Y-111990853D01*
X238395118Y-111519449D01*
X238866522Y-110870617D01*
X239515354Y-111342021D01*
G37*
G36*
X181537773Y-111510362D02*
G01*
X180880812Y-111970371D01*
X180420803Y-111313410D01*
X181077764Y-110853401D01*
X181537773Y-111510362D01*
G37*
G36*
X238625435Y-110695458D02*
G01*
X238154031Y-111344290D01*
X237505199Y-110872886D01*
X237976603Y-110224054D01*
X238625435Y-110695458D01*
G37*
G36*
X182438840Y-110879428D02*
G01*
X181781879Y-111339437D01*
X181321870Y-110682476D01*
X181978831Y-110222467D01*
X182438840Y-110879428D01*
G37*
G36*
X192579591Y-91178085D02*
G01*
X192613569Y-91188393D01*
X192644890Y-91205134D01*
X192672339Y-91227661D01*
X192694866Y-91255110D01*
X192711607Y-91286431D01*
X192721915Y-91320409D01*
X192726000Y-91361890D01*
X192726000Y-92038110D01*
X192721915Y-92079591D01*
X192711607Y-92113569D01*
X192694866Y-92144890D01*
X192672339Y-92172339D01*
X192644890Y-92194866D01*
X192613569Y-92211607D01*
X192579591Y-92221915D01*
X192538110Y-92226000D01*
X191936890Y-92226000D01*
X191895409Y-92221915D01*
X191861431Y-92211607D01*
X191830110Y-92194866D01*
X191802661Y-92172339D01*
X191780134Y-92144890D01*
X191763393Y-92113569D01*
X191753085Y-92079591D01*
X191749000Y-92038110D01*
X191749000Y-91361890D01*
X191753085Y-91320409D01*
X191763393Y-91286431D01*
X191780134Y-91255110D01*
X191802661Y-91227661D01*
X191830110Y-91205134D01*
X191861431Y-91188393D01*
X191895409Y-91178085D01*
X191936890Y-91174000D01*
X192538110Y-91174000D01*
X192579591Y-91178085D01*
G37*
G36*
X191004591Y-91178085D02*
G01*
X191038569Y-91188393D01*
X191069890Y-91205134D01*
X191097339Y-91227661D01*
X191119866Y-91255110D01*
X191136607Y-91286431D01*
X191146915Y-91320409D01*
X191151000Y-91361890D01*
X191151000Y-92038110D01*
X191146915Y-92079591D01*
X191136607Y-92113569D01*
X191119866Y-92144890D01*
X191097339Y-92172339D01*
X191069890Y-92194866D01*
X191038569Y-92211607D01*
X191004591Y-92221915D01*
X190963110Y-92226000D01*
X190361890Y-92226000D01*
X190320409Y-92221915D01*
X190286431Y-92211607D01*
X190255110Y-92194866D01*
X190227661Y-92172339D01*
X190205134Y-92144890D01*
X190188393Y-92113569D01*
X190178085Y-92079591D01*
X190174000Y-92038110D01*
X190174000Y-91361890D01*
X190178085Y-91320409D01*
X190188393Y-91286431D01*
X190205134Y-91255110D01*
X190227661Y-91227661D01*
X190255110Y-91205134D01*
X190286431Y-91188393D01*
X190320409Y-91178085D01*
X190361890Y-91174000D01*
X190963110Y-91174000D01*
X191004591Y-91178085D01*
G37*
G36*
X192676001Y-89410116D02*
G01*
X192362634Y-90148361D01*
X191624389Y-89834994D01*
X191937756Y-89096749D01*
X192676001Y-89410116D01*
G37*
G36*
X228652377Y-89669821D02*
G01*
X227903646Y-89957232D01*
X227616235Y-89208501D01*
X228364966Y-88921090D01*
X228652377Y-89669821D01*
G37*
G36*
X190991477Y-88695078D02*
G01*
X190678110Y-89433323D01*
X189939865Y-89119956D01*
X190253232Y-88381711D01*
X190991477Y-88695078D01*
G37*
G36*
X230360829Y-89014008D02*
G01*
X229612098Y-89301419D01*
X229324687Y-88552688D01*
X230073418Y-88265277D01*
X230360829Y-89014008D01*
G37*
G36*
X224854591Y-88088085D02*
G01*
X224888569Y-88098393D01*
X224919890Y-88115134D01*
X224947339Y-88137661D01*
X224969866Y-88165110D01*
X224986607Y-88196431D01*
X224996915Y-88230409D01*
X225001000Y-88271890D01*
X225001000Y-88948110D01*
X224996915Y-88989591D01*
X224986607Y-89023569D01*
X224969866Y-89054890D01*
X224947339Y-89082339D01*
X224919890Y-89104866D01*
X224888569Y-89121607D01*
X224854591Y-89131915D01*
X224813110Y-89136000D01*
X224211890Y-89136000D01*
X224170409Y-89131915D01*
X224136431Y-89121607D01*
X224105110Y-89104866D01*
X224077661Y-89082339D01*
X224055134Y-89054890D01*
X224038393Y-89023569D01*
X224028085Y-88989591D01*
X224024000Y-88948110D01*
X224024000Y-88271890D01*
X224028085Y-88230409D01*
X224038393Y-88196431D01*
X224055134Y-88165110D01*
X224077661Y-88137661D01*
X224105110Y-88115134D01*
X224136431Y-88098393D01*
X224170409Y-88088085D01*
X224211890Y-88084000D01*
X224813110Y-88084000D01*
X224854591Y-88088085D01*
G37*
G36*
X226429591Y-88088085D02*
G01*
X226463569Y-88098393D01*
X226494890Y-88115134D01*
X226522339Y-88137661D01*
X226544866Y-88165110D01*
X226561607Y-88196431D01*
X226571915Y-88230409D01*
X226576000Y-88271890D01*
X226576000Y-88948110D01*
X226571915Y-88989591D01*
X226561607Y-89023569D01*
X226544866Y-89054890D01*
X226522339Y-89082339D01*
X226494890Y-89104866D01*
X226463569Y-89121607D01*
X226429591Y-89131915D01*
X226388110Y-89136000D01*
X225786890Y-89136000D01*
X225745409Y-89131915D01*
X225711431Y-89121607D01*
X225680110Y-89104866D01*
X225652661Y-89082339D01*
X225630134Y-89054890D01*
X225613393Y-89023569D01*
X225603085Y-88989591D01*
X225599000Y-88948110D01*
X225599000Y-88271890D01*
X225603085Y-88230409D01*
X225613393Y-88196431D01*
X225630134Y-88165110D01*
X225652661Y-88137661D01*
X225680110Y-88115134D01*
X225711431Y-88098393D01*
X225745409Y-88088085D01*
X225786890Y-88084000D01*
X226388110Y-88084000D01*
X226429591Y-88088085D01*
G37*
G36*
X193105806Y-88397561D02*
G01*
X192792439Y-89135806D01*
X192054194Y-88822439D01*
X192367561Y-88084194D01*
X193105806Y-88397561D01*
G37*
G36*
X228258172Y-88642883D02*
G01*
X227509441Y-88930294D01*
X227222030Y-88181563D01*
X227970761Y-87894152D01*
X228258172Y-88642883D01*
G37*
G36*
X191421282Y-87682523D02*
G01*
X191107915Y-88420768D01*
X190369670Y-88107401D01*
X190683037Y-87369156D01*
X191421282Y-87682523D01*
G37*
G36*
X229966624Y-87987069D02*
G01*
X229217893Y-88274480D01*
X228930482Y-87525749D01*
X229679213Y-87238338D01*
X229966624Y-87987069D01*
G37*
G36*
X202129591Y-67678085D02*
G01*
X202163569Y-67688393D01*
X202194890Y-67705134D01*
X202222339Y-67727661D01*
X202244866Y-67755110D01*
X202261607Y-67786431D01*
X202271915Y-67820409D01*
X202276000Y-67861890D01*
X202276000Y-68538110D01*
X202271915Y-68579591D01*
X202261607Y-68613569D01*
X202244866Y-68644890D01*
X202222339Y-68672339D01*
X202194890Y-68694866D01*
X202163569Y-68711607D01*
X202129591Y-68721915D01*
X202088110Y-68726000D01*
X201486890Y-68726000D01*
X201445409Y-68721915D01*
X201411431Y-68711607D01*
X201380110Y-68694866D01*
X201352661Y-68672339D01*
X201330134Y-68644890D01*
X201313393Y-68613569D01*
X201303085Y-68579591D01*
X201299000Y-68538110D01*
X201299000Y-67861890D01*
X201303085Y-67820409D01*
X201313393Y-67786431D01*
X201330134Y-67755110D01*
X201352661Y-67727661D01*
X201380110Y-67705134D01*
X201411431Y-67688393D01*
X201445409Y-67678085D01*
X201486890Y-67674000D01*
X202088110Y-67674000D01*
X202129591Y-67678085D01*
G37*
G36*
X200554591Y-67678085D02*
G01*
X200588569Y-67688393D01*
X200619890Y-67705134D01*
X200647339Y-67727661D01*
X200669866Y-67755110D01*
X200686607Y-67786431D01*
X200696915Y-67820409D01*
X200701000Y-67861890D01*
X200701000Y-68538110D01*
X200696915Y-68579591D01*
X200686607Y-68613569D01*
X200669866Y-68644890D01*
X200647339Y-68672339D01*
X200619890Y-68694866D01*
X200588569Y-68711607D01*
X200554591Y-68721915D01*
X200513110Y-68726000D01*
X199911890Y-68726000D01*
X199870409Y-68721915D01*
X199836431Y-68711607D01*
X199805110Y-68694866D01*
X199777661Y-68672339D01*
X199755134Y-68644890D01*
X199738393Y-68613569D01*
X199728085Y-68579591D01*
X199724000Y-68538110D01*
X199724000Y-67861890D01*
X199728085Y-67820409D01*
X199738393Y-67786431D01*
X199755134Y-67755110D01*
X199777661Y-67727661D01*
X199805110Y-67705134D01*
X199836431Y-67688393D01*
X199870409Y-67678085D01*
X199911890Y-67674000D01*
X200513110Y-67674000D01*
X200554591Y-67678085D01*
G37*
G36*
X202236452Y-66310657D02*
G01*
X201923085Y-67048902D01*
X201184840Y-66735535D01*
X201498207Y-65997290D01*
X202236452Y-66310657D01*
G37*
G36*
X219534383Y-66403550D02*
G01*
X218790782Y-66703985D01*
X218490347Y-65960384D01*
X219233948Y-65659949D01*
X219534383Y-66403550D01*
G37*
G36*
X217369591Y-65308085D02*
G01*
X217403569Y-65318393D01*
X217434890Y-65335134D01*
X217462339Y-65357661D01*
X217484866Y-65385110D01*
X217501607Y-65416431D01*
X217511915Y-65450409D01*
X217516000Y-65491890D01*
X217516000Y-66168110D01*
X217511915Y-66209591D01*
X217501607Y-66243569D01*
X217484866Y-66274890D01*
X217462339Y-66302339D01*
X217434890Y-66324866D01*
X217403569Y-66341607D01*
X217369591Y-66351915D01*
X217328110Y-66356000D01*
X216726890Y-66356000D01*
X216685409Y-66351915D01*
X216651431Y-66341607D01*
X216620110Y-66324866D01*
X216592661Y-66302339D01*
X216570134Y-66274890D01*
X216553393Y-66243569D01*
X216543085Y-66209591D01*
X216539000Y-66168110D01*
X216539000Y-65491890D01*
X216543085Y-65450409D01*
X216553393Y-65416431D01*
X216570134Y-65385110D01*
X216592661Y-65357661D01*
X216620110Y-65335134D01*
X216651431Y-65318393D01*
X216685409Y-65308085D01*
X216726890Y-65304000D01*
X217328110Y-65304000D01*
X217369591Y-65308085D01*
G37*
G36*
X215794591Y-65308085D02*
G01*
X215828569Y-65318393D01*
X215859890Y-65335134D01*
X215887339Y-65357661D01*
X215909866Y-65385110D01*
X215926607Y-65416431D01*
X215936915Y-65450409D01*
X215941000Y-65491890D01*
X215941000Y-66168110D01*
X215936915Y-66209591D01*
X215926607Y-66243569D01*
X215909866Y-66274890D01*
X215887339Y-66302339D01*
X215859890Y-66324866D01*
X215828569Y-66341607D01*
X215794591Y-66351915D01*
X215753110Y-66356000D01*
X215151890Y-66356000D01*
X215110409Y-66351915D01*
X215076431Y-66341607D01*
X215045110Y-66324866D01*
X215017661Y-66302339D01*
X214995134Y-66274890D01*
X214978393Y-66243569D01*
X214968085Y-66209591D01*
X214964000Y-66168110D01*
X214964000Y-65491890D01*
X214968085Y-65450409D01*
X214978393Y-65416431D01*
X214995134Y-65385110D01*
X215017661Y-65357661D01*
X215045110Y-65335134D01*
X215076431Y-65318393D01*
X215110409Y-65308085D01*
X215151890Y-65304000D01*
X215753110Y-65304000D01*
X215794591Y-65308085D01*
G37*
G36*
X200551928Y-65595619D02*
G01*
X200238561Y-66333864D01*
X199500316Y-66020497D01*
X199813683Y-65282252D01*
X200551928Y-65595619D01*
G37*
G36*
X202666257Y-65298102D02*
G01*
X202352890Y-66036347D01*
X201614645Y-65722980D01*
X201928012Y-64984735D01*
X202666257Y-65298102D01*
G37*
G36*
X221231129Y-65718020D02*
G01*
X220487528Y-66018455D01*
X220187093Y-65274854D01*
X220930694Y-64974419D01*
X221231129Y-65718020D01*
G37*
G36*
X219122316Y-65383648D02*
G01*
X218378715Y-65684083D01*
X218078280Y-64940482D01*
X218821881Y-64640047D01*
X219122316Y-65383648D01*
G37*
G36*
X200981733Y-64583064D02*
G01*
X200668366Y-65321309D01*
X199930121Y-65007942D01*
X200243488Y-64269697D01*
X200981733Y-64583064D01*
G37*
G36*
X220819062Y-64698118D02*
G01*
X220075461Y-64998553D01*
X219775026Y-64254952D01*
X220518627Y-63954517D01*
X220819062Y-64698118D01*
G37*
G36*
X215129591Y-47053085D02*
G01*
X215163569Y-47063393D01*
X215194890Y-47080134D01*
X215222339Y-47102661D01*
X215244866Y-47130110D01*
X215261607Y-47161431D01*
X215271915Y-47195409D01*
X215276000Y-47236890D01*
X215276000Y-47838110D01*
X215271915Y-47879591D01*
X215261607Y-47913569D01*
X215244866Y-47944890D01*
X215222339Y-47972339D01*
X215194890Y-47994866D01*
X215163569Y-48011607D01*
X215129591Y-48021915D01*
X215088110Y-48026000D01*
X214411890Y-48026000D01*
X214370409Y-48021915D01*
X214336431Y-48011607D01*
X214305110Y-47994866D01*
X214277661Y-47972339D01*
X214255134Y-47944890D01*
X214238393Y-47913569D01*
X214228085Y-47879591D01*
X214224000Y-47838110D01*
X214224000Y-47236890D01*
X214228085Y-47195409D01*
X214238393Y-47161431D01*
X214255134Y-47130110D01*
X214277661Y-47102661D01*
X214305110Y-47080134D01*
X214336431Y-47063393D01*
X214370409Y-47053085D01*
X214411890Y-47049000D01*
X215088110Y-47049000D01*
X215129591Y-47053085D01*
G37*
G36*
X215129591Y-45478085D02*
G01*
X215163569Y-45488393D01*
X215194890Y-45505134D01*
X215222339Y-45527661D01*
X215244866Y-45555110D01*
X215261607Y-45586431D01*
X215271915Y-45620409D01*
X215276000Y-45661890D01*
X215276000Y-46263110D01*
X215271915Y-46304591D01*
X215261607Y-46338569D01*
X215244866Y-46369890D01*
X215222339Y-46397339D01*
X215194890Y-46419866D01*
X215163569Y-46436607D01*
X215129591Y-46446915D01*
X215088110Y-46451000D01*
X214411890Y-46451000D01*
X214370409Y-46446915D01*
X214336431Y-46436607D01*
X214305110Y-46419866D01*
X214277661Y-46397339D01*
X214255134Y-46369890D01*
X214238393Y-46338569D01*
X214228085Y-46304591D01*
X214224000Y-46263110D01*
X214224000Y-45661890D01*
X214228085Y-45620409D01*
X214238393Y-45586431D01*
X214255134Y-45555110D01*
X214277661Y-45527661D01*
X214305110Y-45505134D01*
X214336431Y-45488393D01*
X214370409Y-45478085D01*
X214411890Y-45474000D01*
X215088110Y-45474000D01*
X215129591Y-45478085D01*
G37*
G36*
X211909591Y-44398085D02*
G01*
X211943569Y-44408393D01*
X211974890Y-44425134D01*
X212002339Y-44447661D01*
X212024866Y-44475110D01*
X212041607Y-44506431D01*
X212051915Y-44540409D01*
X212056000Y-44581890D01*
X212056000Y-45258110D01*
X212051915Y-45299591D01*
X212041607Y-45333569D01*
X212024866Y-45364890D01*
X212002339Y-45392339D01*
X211974890Y-45414866D01*
X211943569Y-45431607D01*
X211909591Y-45441915D01*
X211868110Y-45446000D01*
X211266890Y-45446000D01*
X211225409Y-45441915D01*
X211191431Y-45431607D01*
X211160110Y-45414866D01*
X211132661Y-45392339D01*
X211110134Y-45364890D01*
X211093393Y-45333569D01*
X211083085Y-45299591D01*
X211079000Y-45258110D01*
X211079000Y-44581890D01*
X211083085Y-44540409D01*
X211093393Y-44506431D01*
X211110134Y-44475110D01*
X211132661Y-44447661D01*
X211160110Y-44425134D01*
X211191431Y-44408393D01*
X211225409Y-44398085D01*
X211266890Y-44394000D01*
X211868110Y-44394000D01*
X211909591Y-44398085D01*
G37*
G36*
X210334591Y-44398085D02*
G01*
X210368569Y-44408393D01*
X210399890Y-44425134D01*
X210427339Y-44447661D01*
X210449866Y-44475110D01*
X210466607Y-44506431D01*
X210476915Y-44540409D01*
X210481000Y-44581890D01*
X210481000Y-45258110D01*
X210476915Y-45299591D01*
X210466607Y-45333569D01*
X210449866Y-45364890D01*
X210427339Y-45392339D01*
X210399890Y-45414866D01*
X210368569Y-45431607D01*
X210334591Y-45441915D01*
X210293110Y-45446000D01*
X209691890Y-45446000D01*
X209650409Y-45441915D01*
X209616431Y-45431607D01*
X209585110Y-45414866D01*
X209557661Y-45392339D01*
X209535134Y-45364890D01*
X209518393Y-45333569D01*
X209508085Y-45299591D01*
X209504000Y-45258110D01*
X209504000Y-44581890D01*
X209508085Y-44540409D01*
X209518393Y-44506431D01*
X209535134Y-44475110D01*
X209557661Y-44447661D01*
X209585110Y-44425134D01*
X209616431Y-44408393D01*
X209650409Y-44398085D01*
X209691890Y-44394000D01*
X210293110Y-44394000D01*
X210334591Y-44398085D01*
G37*
G36*
X211976000Y-43501000D02*
G01*
X211174000Y-43501000D01*
X211174000Y-42699000D01*
X211976000Y-42699000D01*
X211976000Y-43501000D01*
G37*
G36*
X210146000Y-43501000D02*
G01*
X209344000Y-43501000D01*
X209344000Y-42699000D01*
X210146000Y-42699000D01*
X210146000Y-43501000D01*
G37*
G36*
X211976000Y-42401000D02*
G01*
X211174000Y-42401000D01*
X211174000Y-41599000D01*
X211976000Y-41599000D01*
X211976000Y-42401000D01*
G37*
G36*
X210146000Y-42401000D02*
G01*
X209344000Y-42401000D01*
X209344000Y-41599000D01*
X210146000Y-41599000D01*
X210146000Y-42401000D01*
G37*
M02*
