M48
; DRILL file {KiCad (5.1.5)-3} date 30.04.2020 20:14:40
; FORMAT={-:-/ absolute / inch / decimal}
; #@! TF.CreationDate,2020-04-30T20:14:40+02:00
; #@! TF.GenerationSoftware,Kicad,Pcbnew,(5.1.5)-3
; #@! TF.FileFunction,Plated,1,2,PTH
FMAT,2
INCH
T1C0.0157
T2C0.0394
T3C0.0433
%
G90
G05
T1
X4.3071Y-4.5354
X4.3543Y-4.5354
X5.0472Y-5.1732
X5.0945Y-5.1732
X5.1102Y-4.5906
X5.1575Y-4.5906
X5.7776Y-9.2874
X5.7874Y-9.252
X5.811Y-5.8248
X5.8504Y-5.8248
X6.0217Y-8.4843
X6.0787Y-8.4843
X6.0866Y-4.5315
X6.1339Y-4.5315
X6.2717Y-7.5354
X6.3209Y-7.5354
X6.5256Y-6.5571
X6.565Y-6.5571
X6.624Y-8.7677
X6.6319Y-8.7323
X7.0709Y-4.4803
X7.126Y-4.4803
X7.2118Y-6.8776
X7.2465Y-6.824
X7.2713Y-5.7047
X7.2815Y-6.7705
X7.3146Y-6.722
X7.35Y-5.7047
X7.4685Y-8.2431
X7.4754Y-8.1998
X7.6181Y-3.5531
X7.6181Y-3.6024
X7.6551Y-5.2913
X7.6748Y-5.1142
X7.8126Y-4.7598
X7.8138Y-7.1937
X7.8323Y-5.0453
X7.8693Y-7.1079
X7.8819Y-5.7402
X7.8819Y-5.8031
X7.9224Y-7.0331
X7.9307Y-4.8386
X7.9307Y-5.2126
X7.9406Y-4.9764
X7.9622Y-5.3819
X7.9646Y-6.9598
X7.9921Y-2.6378
X7.9921Y-2.685
X8.0291Y-5.4783
X8.0783Y-5.6457
X8.2063Y-5.5866
X8.2457Y-4.7008
X8.2904Y-7.7067
X8.3307Y-7.7067
X8.3638Y-4.5138
X8.376Y-1.6732
X8.376Y-1.7126
X8.4543Y-1.9488
X8.5531Y-2.5394
X8.5925Y-2.5197
X8.6378Y-5.7776
X8.6969Y-5.7776
X8.7083Y-5.3602
X8.7083Y-5.4291
X8.7476Y-4.8878
X8.7673Y-5.502
X8.9075Y-3.435
X8.9567Y-3.435
X9.0921Y-5.439
X9.1512Y-5.1437
X9.1535Y-8.2677
X9.1929Y-8.2579
X9.2618Y-4.3701
X9.3012Y-4.3799
X9.9311Y-6.4272
X9.9606Y-6.4567
X9.9902Y-8.8091
X10.0197Y-8.7894
X10.1781Y-7.3868
X10.2274Y-7.3868
X10.2559Y-4.5571
X10.3051Y-4.5571
X10.4165Y-8.3602
X10.4614Y-8.3602
X10.6472Y-9.3441
X10.6472Y-9.3819
X10.8366Y-5.8071
X10.876Y-5.7874
X11.2598Y-4.6358
X11.2992Y-4.6358
X11.6043Y-5.187
X11.6339Y-5.1575
X12.2539Y-4.7244
X12.3031Y-4.7244
T3
X8.6469Y-5.0134
X8.7469Y-5.0134
X8.8469Y-5.0134
X8.8929Y-5.2358
X8.8929Y-5.3358
X8.8929Y-5.4358
X8.8929Y-5.5358
X8.8929Y-5.6358
X8.8929Y-5.7358
X8.8929Y-5.8358
X8.9929Y-5.2358
X8.9929Y-5.3358
X8.9929Y-5.4358
X8.9929Y-5.5358
X8.9929Y-5.6358
X8.9929Y-5.7358
X8.9929Y-5.8358
T2
G00X7.5395Y-7.0245
M15
G01X7.4822Y-6.9828
M16
G05
G00X7.6853Y-6.8238
M15
G01X7.628Y-6.7822
M16
G05
G00X7.7673Y-6.9856
M15
G01X7.7257Y-7.0429
M16
G05
T0
M30
