G04 #@! TF.GenerationSoftware,KiCad,Pcbnew,(5.1.5)-3*
G04 #@! TF.CreationDate,2020-04-30T20:14:28+02:00*
G04 #@! TF.ProjectId,5-pointed-Star,352d706f-696e-4746-9564-2d537461722e,rev?*
G04 #@! TF.SameCoordinates,Original*
G04 #@! TF.FileFunction,Legend,Top*
G04 #@! TF.FilePolarity,Positive*
%FSLAX46Y46*%
G04 Gerber Fmt 4.6, Leading zero omitted, Abs format (unit mm)*
G04 Created by KiCad (PCBNEW (5.1.5)-3) date 2020-04-30 20:14:28*
%MOMM*%
%LPD*%
G04 APERTURE LIST*
%ADD10C,0.120000*%
%ADD11C,0.150000*%
G04 APERTURE END LIST*
D10*
X237960000Y-111850000D02*
X241470000Y-107110000D01*
X219840000Y-65220000D02*
X219420000Y-65420000D01*
X219620000Y-65330000D02*
X219840000Y-65220000D01*
X228790000Y-88590000D02*
X219620000Y-65330000D01*
X228960000Y-88510000D02*
X228630000Y-88670000D01*
X228790000Y-88590000D02*
X228960000Y-88510000D01*
X237960000Y-111850000D02*
X228790000Y-88590000D01*
X262900000Y-113590000D02*
X262850000Y-114010000D01*
X262880000Y-113790000D02*
X262900000Y-113590000D01*
X287810000Y-115730000D02*
X262880000Y-113790000D01*
X287830000Y-115500000D02*
X287790000Y-115950000D01*
X287810000Y-115730000D02*
X287830000Y-115500000D01*
X312740000Y-117670000D02*
X287810000Y-115730000D01*
X293910000Y-133430000D02*
X293670000Y-133180000D01*
X293790000Y-133310000D02*
X293910000Y-133430000D01*
X274510000Y-149220000D02*
X293790000Y-133310000D01*
X274620000Y-149350000D02*
X274390000Y-149080000D01*
X274510000Y-149220000D02*
X274620000Y-149350000D01*
X255230000Y-165130000D02*
X274510000Y-149220000D01*
X255230000Y-165130000D02*
X260820000Y-167000000D01*
X261260000Y-189390000D02*
X260860000Y-189480000D01*
X261050000Y-189440000D02*
X261260000Y-189390000D01*
X266870000Y-213760000D02*
X261050000Y-189440000D01*
X267050000Y-213720000D02*
X266670000Y-213810000D01*
X266870000Y-213760000D02*
X267050000Y-213720000D01*
X272690000Y-238070000D02*
X266870000Y-213760000D01*
X252150000Y-224830000D02*
X252030000Y-224990000D01*
X252080000Y-224930000D02*
X252150000Y-224830000D01*
X231000000Y-211480000D02*
X252080000Y-224930000D01*
X231090000Y-211370000D02*
X230920000Y-211580000D01*
X231000000Y-211480000D02*
X231090000Y-211370000D01*
X209920000Y-198040000D02*
X231000000Y-211480000D01*
X209920000Y-198040000D02*
X209850000Y-203940000D01*
X188530000Y-210980000D02*
X188690000Y-211220000D01*
X188620000Y-211110000D02*
X188530000Y-210980000D01*
X167310000Y-224190000D02*
X188620000Y-211110000D01*
X167380000Y-224280000D02*
X167240000Y-224090000D01*
X167310000Y-224190000D02*
X167380000Y-224280000D01*
X146000000Y-237270000D02*
X167310000Y-224190000D01*
X152280000Y-213610000D02*
X151900000Y-213500000D01*
X152110000Y-213560000D02*
X152280000Y-213610000D01*
X158360000Y-189350000D02*
X152110000Y-213560000D01*
X158580000Y-189410000D02*
X158150000Y-189290000D01*
X158360000Y-189350000D02*
X158580000Y-189410000D01*
X164600000Y-165140000D02*
X158360000Y-189350000D01*
X164600000Y-165140000D02*
X158980000Y-166920000D01*
X145670000Y-148800000D02*
X145500000Y-148970000D01*
X145590000Y-148890000D02*
X145670000Y-148800000D01*
X126600000Y-132660000D02*
X145590000Y-148890000D01*
X126520000Y-132730000D02*
X126690000Y-132570000D01*
X126600000Y-132660000D02*
X126520000Y-132730000D01*
X107590000Y-116410000D02*
X126600000Y-132660000D01*
X157500000Y-113200000D02*
X157520000Y-113540000D01*
X157510000Y-113360000D02*
X157500000Y-113200000D01*
X132550000Y-114880000D02*
X157510000Y-113360000D01*
X132540000Y-114750000D02*
X132560000Y-115020000D01*
X132550000Y-114880000D02*
X132540000Y-114750000D01*
X107590000Y-116410000D02*
X132550000Y-114880000D01*
X181960000Y-111850000D02*
X178540000Y-107040000D01*
X191590000Y-88780000D02*
X191420000Y-88700000D01*
X191520000Y-88750000D02*
X191590000Y-88780000D01*
X201080000Y-65650000D02*
X191520000Y-88750000D01*
X201160000Y-65680000D02*
X201010000Y-65610000D01*
X201080000Y-65650000D02*
X201160000Y-65680000D01*
X210640000Y-42550000D02*
X201080000Y-65650000D01*
X325470000Y-113690000D02*
X258410000Y-168990000D01*
X238350000Y-106860000D02*
X325470000Y-113690000D01*
X237960000Y-111850000D02*
X238350000Y-106860000D01*
X255230000Y-165130000D02*
X258410000Y-168990000D01*
X255230000Y-165130000D02*
X272690000Y-238070000D01*
X280430000Y-248910000D02*
X207230000Y-202260000D01*
X277550000Y-236900000D02*
X280430000Y-248910000D01*
X255230000Y-165130000D02*
X260090000Y-163960000D01*
X209920000Y-198040000D02*
X207230000Y-202260000D01*
X209920000Y-198040000D02*
X146000000Y-237270000D01*
X141160000Y-236020000D02*
X138070000Y-247990000D01*
X148610000Y-241530000D02*
X138070000Y-247990000D01*
X209920000Y-198040000D02*
X212530000Y-202300000D01*
X164600000Y-165140000D02*
X146000000Y-237270000D01*
X164600000Y-165140000D02*
X159760000Y-163890000D01*
X107280000Y-111410000D02*
X94900000Y-112160000D01*
X104340000Y-120210000D02*
X94900000Y-112160000D01*
X164600000Y-165140000D02*
X107590000Y-116410000D01*
X164600000Y-165140000D02*
X161350000Y-168940000D01*
X181960000Y-111850000D02*
X107590000Y-116410000D01*
X181960000Y-111850000D02*
X181650000Y-106850000D01*
X210760000Y-29230000D02*
X206020000Y-40640000D01*
X242610000Y-110020000D02*
X210760000Y-29230000D01*
X210640000Y-42550000D02*
X215290000Y-40720000D01*
X237960000Y-111850000D02*
X242610000Y-110020000D01*
X210640000Y-42550000D02*
X237960000Y-111850000D01*
X177340000Y-109940000D02*
X206020000Y-40640000D01*
X181960000Y-111850000D02*
X177340000Y-109940000D01*
X210640000Y-42550000D02*
X206020000Y-40640000D01*
X107280000Y-111410000D02*
X181650000Y-106850000D01*
X161350000Y-168940000D02*
X104340000Y-120210000D01*
X141160000Y-236020000D02*
X159760000Y-163890000D01*
X212530000Y-202300000D02*
X148610000Y-241530000D01*
X272690000Y-238070000D02*
X209920000Y-198040000D01*
X260090000Y-163960000D02*
X277550000Y-236900000D01*
X312740000Y-117670000D02*
X255230000Y-165130000D01*
X237960000Y-111850000D02*
X312740000Y-117670000D01*
X181960000Y-111850000D02*
X210640000Y-42550000D01*
X164600000Y-165140000D02*
X181960000Y-111850000D01*
X209920000Y-198040000D02*
X164600000Y-165140000D01*
X255230000Y-165130000D02*
X209920000Y-198040000D01*
X237960000Y-111850000D02*
X255230000Y-165130000D01*
X181960000Y-111850000D02*
X237960000Y-111850000D01*
X216402779Y-65320000D02*
X216077221Y-65320000D01*
X216402779Y-66340000D02*
X216077221Y-66340000D01*
X225462779Y-88100000D02*
X225137221Y-88100000D01*
X225462779Y-89120000D02*
X225137221Y-89120000D01*
X234672779Y-112220000D02*
X234347221Y-112220000D01*
X234672779Y-113240000D02*
X234347221Y-113240000D01*
X259832779Y-114010000D02*
X259507221Y-114010000D01*
X259832779Y-115030000D02*
X259507221Y-115030000D01*
X285002779Y-115970000D02*
X284677221Y-115970000D01*
X285002779Y-116990000D02*
X284677221Y-116990000D01*
X310262779Y-118220000D02*
X309937221Y-118220000D01*
X310262779Y-119240000D02*
X309937221Y-119240000D01*
X293682779Y-129480000D02*
X293357221Y-129480000D01*
X293682779Y-130500000D02*
X293357221Y-130500000D01*
X274262779Y-145690000D02*
X273937221Y-145690000D01*
X274262779Y-146710000D02*
X273937221Y-146710000D01*
X254240000Y-162212779D02*
X254240000Y-161887221D01*
X253220000Y-162212779D02*
X253220000Y-161887221D01*
X257832779Y-188600000D02*
X257507221Y-188600000D01*
X257832779Y-189620000D02*
X257507221Y-189620000D01*
X263652779Y-213140000D02*
X263327221Y-213140000D01*
X263652779Y-214160000D02*
X263327221Y-214160000D01*
X271100000Y-235322779D02*
X271100000Y-234997221D01*
X270080000Y-235322779D02*
X270080000Y-234997221D01*
X255387221Y-225570000D02*
X255712779Y-225570000D01*
X255387221Y-224550000D02*
X255712779Y-224550000D01*
X234157221Y-211740000D02*
X234482779Y-211740000D01*
X234157221Y-210720000D02*
X234482779Y-210720000D01*
X212687221Y-197740000D02*
X213012779Y-197740000D01*
X212687221Y-196720000D02*
X213012779Y-196720000D01*
X188730000Y-207702779D02*
X188730000Y-207377221D01*
X187710000Y-207702779D02*
X187710000Y-207377221D01*
X167530000Y-221052779D02*
X167530000Y-220727221D01*
X166510000Y-221052779D02*
X166510000Y-220727221D01*
X146180000Y-234202779D02*
X146180000Y-233877221D01*
X145160000Y-234202779D02*
X145160000Y-233877221D01*
X155387221Y-214790000D02*
X155712779Y-214790000D01*
X155387221Y-213770000D02*
X155712779Y-213770000D01*
X161677221Y-190630000D02*
X162002779Y-190630000D01*
X161677221Y-189610000D02*
X162002779Y-189610000D01*
X167757221Y-165830000D02*
X168082779Y-165830000D01*
X167757221Y-164810000D02*
X168082779Y-164810000D01*
X149047221Y-149840000D02*
X149372779Y-149840000D01*
X149047221Y-148820000D02*
X149372779Y-148820000D01*
X129867221Y-133250000D02*
X130192779Y-133250000D01*
X129867221Y-132230000D02*
X130192779Y-132230000D01*
X111107221Y-116910000D02*
X111432779Y-116910000D01*
X111107221Y-115890000D02*
X111432779Y-115890000D01*
X129172779Y-114790000D02*
X128847221Y-114790000D01*
X129172779Y-115810000D02*
X128847221Y-115810000D01*
X153882779Y-113330000D02*
X153557221Y-113330000D01*
X153882779Y-114350000D02*
X153557221Y-114350000D01*
X178712779Y-112090000D02*
X178387221Y-112090000D01*
X178712779Y-113110000D02*
X178387221Y-113110000D01*
X191612779Y-91190000D02*
X191287221Y-91190000D01*
X191612779Y-92210000D02*
X191287221Y-92210000D01*
X201162779Y-67690000D02*
X200837221Y-67690000D01*
X201162779Y-68710000D02*
X200837221Y-68710000D01*
X210942779Y-44410000D02*
X210617221Y-44410000D01*
X210942779Y-45430000D02*
X210617221Y-45430000D01*
X220602779Y-149640000D02*
X220277221Y-149640000D01*
X220602779Y-150660000D02*
X220277221Y-150660000D01*
X218260196Y-64814135D02*
X220300000Y-63990000D01*
X218297656Y-64906853D02*
X218260196Y-64814135D01*
X219009409Y-66668502D02*
X218297656Y-64906853D01*
X221049213Y-65844368D02*
X219009409Y-66668502D01*
X220300000Y-63990000D02*
X221049213Y-65844368D01*
X227406123Y-88058409D02*
X229460000Y-87270000D01*
X227441960Y-88151768D02*
X227406123Y-88058409D01*
X228122859Y-89925570D02*
X227441960Y-88151768D01*
X230176736Y-89137161D02*
X228122859Y-89925570D01*
X229460000Y-87270000D02*
X230176736Y-89137161D01*
X236516872Y-112149837D02*
X237810000Y-110370000D01*
X236597774Y-112208616D02*
X236516872Y-112149837D01*
X238134906Y-113325408D02*
X236597774Y-112208616D01*
X239428034Y-111545571D02*
X238134906Y-113325408D01*
X237810000Y-110370000D02*
X239428034Y-111545571D01*
X261778257Y-114791628D02*
X261970000Y-112600000D01*
X261877877Y-114800344D02*
X261778257Y-114791628D01*
X263770647Y-114965940D02*
X261877877Y-114800344D01*
X263962389Y-112774311D02*
X263770647Y-114965940D01*
X261970000Y-112600000D02*
X263962389Y-112774311D01*
X286726536Y-116764641D02*
X286880000Y-114570000D01*
X286826292Y-116771617D02*
X286726536Y-116764641D01*
X288721664Y-116904154D02*
X286826292Y-116771617D01*
X288875128Y-114709513D02*
X288721664Y-116904154D01*
X286880000Y-114570000D02*
X288875128Y-114709513D01*
X312136402Y-119034776D02*
X311530000Y-116920000D01*
X312232528Y-119007212D02*
X312136402Y-119034776D01*
X314058926Y-118483501D02*
X312232528Y-119007212D01*
X313452523Y-116368725D02*
X314058926Y-118483501D01*
X311530000Y-116920000D02*
X313452523Y-116368725D01*
X293855867Y-131804702D02*
X295270000Y-133490000D01*
X293779263Y-131868981D02*
X293855867Y-131804702D01*
X292323778Y-133090277D02*
X293779263Y-131868981D01*
X293737911Y-134775575D02*
X292323778Y-133090277D01*
X295270000Y-133490000D02*
X293737911Y-134775575D01*
X274615867Y-147754702D02*
X276030000Y-149440000D01*
X274539263Y-147818981D02*
X274615867Y-147754702D01*
X273083778Y-149040277D02*
X274539263Y-147818981D01*
X274497911Y-150725575D02*
X273083778Y-149040277D01*
X276030000Y-149440000D02*
X274497911Y-150725575D01*
X254505428Y-163850575D02*
X256597752Y-164530412D01*
X254474526Y-163945680D02*
X254505428Y-163850575D01*
X253887394Y-165752688D02*
X254474526Y-163945680D01*
X255979718Y-166432525D02*
X253887394Y-165752688D01*
X256597752Y-164530412D02*
X255979718Y-166432525D01*
X259776386Y-188704892D02*
X261920000Y-188210000D01*
X259798881Y-188802329D02*
X259776386Y-188704892D01*
X260226288Y-190653632D02*
X259798881Y-188802329D01*
X262369902Y-190158740D02*
X260226288Y-190653632D01*
X261920000Y-188210000D02*
X262369902Y-190158740D01*
X265558075Y-213017406D02*
X267710000Y-212560000D01*
X265578866Y-213115220D02*
X265558075Y-213017406D01*
X265973899Y-214973701D02*
X265578866Y-213115220D01*
X268125823Y-214516295D02*
X265973899Y-214973701D01*
X267710000Y-212560000D02*
X268125823Y-214516295D01*
X271230163Y-237913128D02*
X273010000Y-236620000D01*
X271288941Y-237994029D02*
X271230163Y-237913128D01*
X272405733Y-239531162D02*
X271288941Y-237994029D01*
X274185571Y-238238034D02*
X272405733Y-239531162D01*
X273010000Y-236620000D02*
X274185571Y-238238034D01*
X253488459Y-224613377D02*
X252258235Y-226437260D01*
X253405556Y-224557458D02*
X253488459Y-224613377D01*
X251830384Y-223494992D02*
X253405556Y-224557458D01*
X250600160Y-225318874D02*
X251830384Y-223494992D01*
X252258235Y-226437260D02*
X250600160Y-225318874D01*
X232420224Y-211166117D02*
X231190000Y-212990000D01*
X232337321Y-211110198D02*
X232420224Y-211166117D01*
X230762149Y-210047732D02*
X232337321Y-211110198D01*
X229531925Y-211871614D02*
X230762149Y-210047732D01*
X231190000Y-212990000D02*
X229531925Y-211871614D01*
X210920000Y-196940000D02*
X210920000Y-199140000D01*
X210820000Y-196940000D02*
X210920000Y-196940000D01*
X208920000Y-196940000D02*
X210820000Y-196940000D01*
X208920000Y-199140000D02*
X208920000Y-196940000D01*
X210920000Y-199140000D02*
X208920000Y-199140000D01*
X188917923Y-209661041D02*
X190051007Y-211546809D01*
X188832207Y-209712545D02*
X188917923Y-209661041D01*
X187203589Y-210691117D02*
X188832207Y-209712545D01*
X188336672Y-212576885D02*
X187203589Y-210691117D01*
X190051007Y-211546809D02*
X188336672Y-212576885D01*
X167594178Y-222744294D02*
X168760000Y-224610000D01*
X167509373Y-222797286D02*
X167594178Y-222744294D01*
X165898081Y-223804133D02*
X167509373Y-222797286D01*
X167063904Y-225669839D02*
X165898081Y-223804133D01*
X168760000Y-224610000D02*
X167063904Y-225669839D01*
X145704702Y-235815867D02*
X147390000Y-237230000D01*
X145640423Y-235892472D02*
X145704702Y-235815867D01*
X144419127Y-237347956D02*
X145640423Y-235892472D01*
X146104425Y-238762089D02*
X144419127Y-237347956D01*
X147390000Y-237230000D02*
X146104425Y-238762089D01*
X152917527Y-214805067D02*
X150792490Y-214235665D01*
X152943409Y-214708474D02*
X152917527Y-214805067D01*
X153435165Y-212873215D02*
X152943409Y-214708474D01*
X151310128Y-212303813D02*
X153435165Y-212873215D01*
X150792490Y-214235665D02*
X151310128Y-212303813D01*
X159175037Y-190589402D02*
X157050000Y-190020000D01*
X159200919Y-190492809D02*
X159175037Y-190589402D01*
X159692675Y-188657550D02*
X159200919Y-190492809D01*
X157567638Y-188088148D02*
X159692675Y-188657550D01*
X157050000Y-190020000D02*
X157567638Y-188088148D01*
X165942324Y-165720163D02*
X163850000Y-166400000D01*
X165911423Y-165625057D02*
X165942324Y-165720163D01*
X165324290Y-163818050D02*
X165911423Y-165625057D01*
X163231966Y-164497887D02*
X165324290Y-163818050D01*
X163850000Y-166400000D02*
X163231966Y-164497887D01*
X147053636Y-148707536D02*
X145639503Y-150392834D01*
X146977031Y-148643257D02*
X147053636Y-148707536D01*
X145521547Y-147421961D02*
X146977031Y-148643257D01*
X144107414Y-149107259D02*
X145521547Y-147421961D01*
X145639503Y-150392834D02*
X144107414Y-149107259D01*
X128054133Y-132484702D02*
X126640000Y-134170000D01*
X127977528Y-132420423D02*
X128054133Y-132484702D01*
X126522044Y-131199127D02*
X127977528Y-132420423D01*
X125107911Y-132884425D02*
X126522044Y-131199127D01*
X126640000Y-134170000D02*
X125107911Y-132884425D01*
X108812548Y-115617772D02*
X108243146Y-117742809D01*
X108715955Y-115591890D02*
X108812548Y-115617772D01*
X106880696Y-115100134D02*
X108715955Y-115591890D01*
X106311294Y-117225171D02*
X106880696Y-115100134D01*
X108243146Y-117742809D02*
X106311294Y-117225171D01*
X131615139Y-116096985D02*
X131500000Y-113900000D01*
X131715002Y-116091751D02*
X131615139Y-116096985D01*
X133612398Y-115992313D02*
X131715002Y-116091751D01*
X133497259Y-113795328D02*
X133612398Y-115992313D01*
X131500000Y-113900000D02*
X133497259Y-113795328D01*
X156575139Y-114556985D02*
X156460000Y-112360000D01*
X156675002Y-114551751D02*
X156575139Y-114556985D01*
X158572398Y-114452313D02*
X156675002Y-114551751D01*
X158457259Y-112255328D02*
X158572398Y-114452313D01*
X156460000Y-112360000D02*
X158457259Y-112255328D01*
X181766426Y-113320586D02*
X180504558Y-111518452D01*
X181848341Y-113263229D02*
X181766426Y-113320586D01*
X183404730Y-112173434D02*
X181848341Y-113263229D01*
X182142862Y-110371299D02*
X183404730Y-112173434D01*
X180504558Y-111518452D02*
X182142862Y-110371299D01*
X192144660Y-90109067D02*
X190119549Y-89249459D01*
X192183733Y-90017017D02*
X192144660Y-90109067D01*
X192926122Y-88268058D02*
X192183733Y-90017017D01*
X190901011Y-87408449D02*
X192926122Y-88268058D01*
X190119549Y-89249459D02*
X190901011Y-87408449D01*
X201705111Y-67009608D02*
X199680000Y-66150000D01*
X201744184Y-66917558D02*
X201705111Y-67009608D01*
X202486573Y-65168599D02*
X201744184Y-66917558D01*
X200461462Y-64308990D02*
X202486573Y-65168599D01*
X199680000Y-66150000D02*
X200461462Y-64308990D01*
X211760000Y-43550000D02*
X209560000Y-43550000D01*
X211760000Y-43450000D02*
X211760000Y-43550000D01*
X211760000Y-41550000D02*
X211760000Y-43450000D01*
X209560000Y-41550000D02*
X211760000Y-41550000D01*
X209560000Y-43550000D02*
X209560000Y-41550000D01*
X204240000Y-144700000D02*
X215640000Y-144700000D01*
X204240000Y-156100000D02*
X204240000Y-144700000D01*
X215640000Y-156100000D02*
X204240000Y-156100000D01*
X215640000Y-144700000D02*
X215640000Y-156100000D01*
X214240000Y-46587221D02*
X214240000Y-46912779D01*
X215260000Y-46587221D02*
X215260000Y-46912779D01*
X220602779Y-151490000D02*
X220277221Y-151490000D01*
X220602779Y-152510000D02*
X220277221Y-152510000D01*
X207277221Y-143910000D02*
X207602779Y-143910000D01*
X207277221Y-142890000D02*
X207602779Y-142890000D01*
X209650000Y-138335000D02*
X209650000Y-135650000D01*
X207730000Y-138335000D02*
X209650000Y-138335000D01*
X207730000Y-135650000D02*
X207730000Y-138335000D01*
D11*
X180202249Y-185985322D02*
X180857168Y-186461148D01*
X180962207Y-186478603D01*
X181028721Y-186468068D01*
X181123225Y-186419009D01*
X181235184Y-186264910D01*
X181252639Y-186159871D01*
X181242104Y-186093357D01*
X181193045Y-185998853D01*
X180538126Y-185523027D01*
X181934929Y-185301795D02*
X181599051Y-185764090D01*
X181766990Y-185532943D02*
X180957973Y-184945157D01*
X181017567Y-185106176D01*
X181038637Y-185239205D01*
X181021182Y-185344244D01*
X215597142Y-67237142D02*
X215549523Y-67284761D01*
X215406666Y-67332380D01*
X215311428Y-67332380D01*
X215168571Y-67284761D01*
X215073333Y-67189523D01*
X215025714Y-67094285D01*
X214978095Y-66903809D01*
X214978095Y-66760952D01*
X215025714Y-66570476D01*
X215073333Y-66475238D01*
X215168571Y-66380000D01*
X215311428Y-66332380D01*
X215406666Y-66332380D01*
X215549523Y-66380000D01*
X215597142Y-66427619D01*
X216454285Y-66665714D02*
X216454285Y-67332380D01*
X216216190Y-66284761D02*
X215978095Y-66999047D01*
X216597142Y-66999047D01*
X217168571Y-66332380D02*
X217263809Y-66332380D01*
X217359047Y-66380000D01*
X217406666Y-66427619D01*
X217454285Y-66522857D01*
X217501904Y-66713333D01*
X217501904Y-66951428D01*
X217454285Y-67141904D01*
X217406666Y-67237142D01*
X217359047Y-67284761D01*
X217263809Y-67332380D01*
X217168571Y-67332380D01*
X217073333Y-67284761D01*
X217025714Y-67237142D01*
X216978095Y-67141904D01*
X216930476Y-66951428D01*
X216930476Y-66713333D01*
X216978095Y-66522857D01*
X217025714Y-66427619D01*
X217073333Y-66380000D01*
X217168571Y-66332380D01*
X224527142Y-90467142D02*
X224479523Y-90514761D01*
X224336666Y-90562380D01*
X224241428Y-90562380D01*
X224098571Y-90514761D01*
X224003333Y-90419523D01*
X223955714Y-90324285D01*
X223908095Y-90133809D01*
X223908095Y-89990952D01*
X223955714Y-89800476D01*
X224003333Y-89705238D01*
X224098571Y-89610000D01*
X224241428Y-89562380D01*
X224336666Y-89562380D01*
X224479523Y-89610000D01*
X224527142Y-89657619D01*
X224860476Y-89562380D02*
X225479523Y-89562380D01*
X225146190Y-89943333D01*
X225289047Y-89943333D01*
X225384285Y-89990952D01*
X225431904Y-90038571D01*
X225479523Y-90133809D01*
X225479523Y-90371904D01*
X225431904Y-90467142D01*
X225384285Y-90514761D01*
X225289047Y-90562380D01*
X225003333Y-90562380D01*
X224908095Y-90514761D01*
X224860476Y-90467142D01*
X225955714Y-90562380D02*
X226146190Y-90562380D01*
X226241428Y-90514761D01*
X226289047Y-90467142D01*
X226384285Y-90324285D01*
X226431904Y-90133809D01*
X226431904Y-89752857D01*
X226384285Y-89657619D01*
X226336666Y-89610000D01*
X226241428Y-89562380D01*
X226050952Y-89562380D01*
X225955714Y-89610000D01*
X225908095Y-89657619D01*
X225860476Y-89752857D01*
X225860476Y-89990952D01*
X225908095Y-90086190D01*
X225955714Y-90133809D01*
X226050952Y-90181428D01*
X226241428Y-90181428D01*
X226336666Y-90133809D01*
X226384285Y-90086190D01*
X226431904Y-89990952D01*
X233687142Y-114517142D02*
X233639523Y-114564761D01*
X233496666Y-114612380D01*
X233401428Y-114612380D01*
X233258571Y-114564761D01*
X233163333Y-114469523D01*
X233115714Y-114374285D01*
X233068095Y-114183809D01*
X233068095Y-114040952D01*
X233115714Y-113850476D01*
X233163333Y-113755238D01*
X233258571Y-113660000D01*
X233401428Y-113612380D01*
X233496666Y-113612380D01*
X233639523Y-113660000D01*
X233687142Y-113707619D01*
X234020476Y-113612380D02*
X234639523Y-113612380D01*
X234306190Y-113993333D01*
X234449047Y-113993333D01*
X234544285Y-114040952D01*
X234591904Y-114088571D01*
X234639523Y-114183809D01*
X234639523Y-114421904D01*
X234591904Y-114517142D01*
X234544285Y-114564761D01*
X234449047Y-114612380D01*
X234163333Y-114612380D01*
X234068095Y-114564761D01*
X234020476Y-114517142D01*
X235210952Y-114040952D02*
X235115714Y-113993333D01*
X235068095Y-113945714D01*
X235020476Y-113850476D01*
X235020476Y-113802857D01*
X235068095Y-113707619D01*
X235115714Y-113660000D01*
X235210952Y-113612380D01*
X235401428Y-113612380D01*
X235496666Y-113660000D01*
X235544285Y-113707619D01*
X235591904Y-113802857D01*
X235591904Y-113850476D01*
X235544285Y-113945714D01*
X235496666Y-113993333D01*
X235401428Y-114040952D01*
X235210952Y-114040952D01*
X235115714Y-114088571D01*
X235068095Y-114136190D01*
X235020476Y-114231428D01*
X235020476Y-114421904D01*
X235068095Y-114517142D01*
X235115714Y-114564761D01*
X235210952Y-114612380D01*
X235401428Y-114612380D01*
X235496666Y-114564761D01*
X235544285Y-114517142D01*
X235591904Y-114421904D01*
X235591904Y-114231428D01*
X235544285Y-114136190D01*
X235496666Y-114088571D01*
X235401428Y-114040952D01*
X255477142Y-114887142D02*
X255429523Y-114934761D01*
X255286666Y-114982380D01*
X255191428Y-114982380D01*
X255048571Y-114934761D01*
X254953333Y-114839523D01*
X254905714Y-114744285D01*
X254858095Y-114553809D01*
X254858095Y-114410952D01*
X254905714Y-114220476D01*
X254953333Y-114125238D01*
X255048571Y-114030000D01*
X255191428Y-113982380D01*
X255286666Y-113982380D01*
X255429523Y-114030000D01*
X255477142Y-114077619D01*
X255810476Y-113982380D02*
X256429523Y-113982380D01*
X256096190Y-114363333D01*
X256239047Y-114363333D01*
X256334285Y-114410952D01*
X256381904Y-114458571D01*
X256429523Y-114553809D01*
X256429523Y-114791904D01*
X256381904Y-114887142D01*
X256334285Y-114934761D01*
X256239047Y-114982380D01*
X255953333Y-114982380D01*
X255858095Y-114934761D01*
X255810476Y-114887142D01*
X256762857Y-113982380D02*
X257429523Y-113982380D01*
X257000952Y-114982380D01*
X281177142Y-117937142D02*
X281129523Y-117984761D01*
X280986666Y-118032380D01*
X280891428Y-118032380D01*
X280748571Y-117984761D01*
X280653333Y-117889523D01*
X280605714Y-117794285D01*
X280558095Y-117603809D01*
X280558095Y-117460952D01*
X280605714Y-117270476D01*
X280653333Y-117175238D01*
X280748571Y-117080000D01*
X280891428Y-117032380D01*
X280986666Y-117032380D01*
X281129523Y-117080000D01*
X281177142Y-117127619D01*
X281510476Y-117032380D02*
X282129523Y-117032380D01*
X281796190Y-117413333D01*
X281939047Y-117413333D01*
X282034285Y-117460952D01*
X282081904Y-117508571D01*
X282129523Y-117603809D01*
X282129523Y-117841904D01*
X282081904Y-117937142D01*
X282034285Y-117984761D01*
X281939047Y-118032380D01*
X281653333Y-118032380D01*
X281558095Y-117984761D01*
X281510476Y-117937142D01*
X282986666Y-117032380D02*
X282796190Y-117032380D01*
X282700952Y-117080000D01*
X282653333Y-117127619D01*
X282558095Y-117270476D01*
X282510476Y-117460952D01*
X282510476Y-117841904D01*
X282558095Y-117937142D01*
X282605714Y-117984761D01*
X282700952Y-118032380D01*
X282891428Y-118032380D01*
X282986666Y-117984761D01*
X283034285Y-117937142D01*
X283081904Y-117841904D01*
X283081904Y-117603809D01*
X283034285Y-117508571D01*
X282986666Y-117460952D01*
X282891428Y-117413333D01*
X282700952Y-117413333D01*
X282605714Y-117460952D01*
X282558095Y-117508571D01*
X282510476Y-117603809D01*
X306587142Y-120627142D02*
X306539523Y-120674761D01*
X306396666Y-120722380D01*
X306301428Y-120722380D01*
X306158571Y-120674761D01*
X306063333Y-120579523D01*
X306015714Y-120484285D01*
X305968095Y-120293809D01*
X305968095Y-120150952D01*
X306015714Y-119960476D01*
X306063333Y-119865238D01*
X306158571Y-119770000D01*
X306301428Y-119722380D01*
X306396666Y-119722380D01*
X306539523Y-119770000D01*
X306587142Y-119817619D01*
X306920476Y-119722380D02*
X307539523Y-119722380D01*
X307206190Y-120103333D01*
X307349047Y-120103333D01*
X307444285Y-120150952D01*
X307491904Y-120198571D01*
X307539523Y-120293809D01*
X307539523Y-120531904D01*
X307491904Y-120627142D01*
X307444285Y-120674761D01*
X307349047Y-120722380D01*
X307063333Y-120722380D01*
X306968095Y-120674761D01*
X306920476Y-120627142D01*
X308444285Y-119722380D02*
X307968095Y-119722380D01*
X307920476Y-120198571D01*
X307968095Y-120150952D01*
X308063333Y-120103333D01*
X308301428Y-120103333D01*
X308396666Y-120150952D01*
X308444285Y-120198571D01*
X308491904Y-120293809D01*
X308491904Y-120531904D01*
X308444285Y-120627142D01*
X308396666Y-120674761D01*
X308301428Y-120722380D01*
X308063333Y-120722380D01*
X307968095Y-120674761D01*
X307920476Y-120627142D01*
X289757142Y-129947142D02*
X289709523Y-129994761D01*
X289566666Y-130042380D01*
X289471428Y-130042380D01*
X289328571Y-129994761D01*
X289233333Y-129899523D01*
X289185714Y-129804285D01*
X289138095Y-129613809D01*
X289138095Y-129470952D01*
X289185714Y-129280476D01*
X289233333Y-129185238D01*
X289328571Y-129090000D01*
X289471428Y-129042380D01*
X289566666Y-129042380D01*
X289709523Y-129090000D01*
X289757142Y-129137619D01*
X290090476Y-129042380D02*
X290709523Y-129042380D01*
X290376190Y-129423333D01*
X290519047Y-129423333D01*
X290614285Y-129470952D01*
X290661904Y-129518571D01*
X290709523Y-129613809D01*
X290709523Y-129851904D01*
X290661904Y-129947142D01*
X290614285Y-129994761D01*
X290519047Y-130042380D01*
X290233333Y-130042380D01*
X290138095Y-129994761D01*
X290090476Y-129947142D01*
X291566666Y-129375714D02*
X291566666Y-130042380D01*
X291328571Y-128994761D02*
X291090476Y-129709047D01*
X291709523Y-129709047D01*
X270457142Y-146307142D02*
X270409523Y-146354761D01*
X270266666Y-146402380D01*
X270171428Y-146402380D01*
X270028571Y-146354761D01*
X269933333Y-146259523D01*
X269885714Y-146164285D01*
X269838095Y-145973809D01*
X269838095Y-145830952D01*
X269885714Y-145640476D01*
X269933333Y-145545238D01*
X270028571Y-145450000D01*
X270171428Y-145402380D01*
X270266666Y-145402380D01*
X270409523Y-145450000D01*
X270457142Y-145497619D01*
X270790476Y-145402380D02*
X271409523Y-145402380D01*
X271076190Y-145783333D01*
X271219047Y-145783333D01*
X271314285Y-145830952D01*
X271361904Y-145878571D01*
X271409523Y-145973809D01*
X271409523Y-146211904D01*
X271361904Y-146307142D01*
X271314285Y-146354761D01*
X271219047Y-146402380D01*
X270933333Y-146402380D01*
X270838095Y-146354761D01*
X270790476Y-146307142D01*
X271742857Y-145402380D02*
X272361904Y-145402380D01*
X272028571Y-145783333D01*
X272171428Y-145783333D01*
X272266666Y-145830952D01*
X272314285Y-145878571D01*
X272361904Y-145973809D01*
X272361904Y-146211904D01*
X272314285Y-146307142D01*
X272266666Y-146354761D01*
X272171428Y-146402380D01*
X271885714Y-146402380D01*
X271790476Y-146354761D01*
X271742857Y-146307142D01*
X253087142Y-159657142D02*
X253039523Y-159704761D01*
X252896666Y-159752380D01*
X252801428Y-159752380D01*
X252658571Y-159704761D01*
X252563333Y-159609523D01*
X252515714Y-159514285D01*
X252468095Y-159323809D01*
X252468095Y-159180952D01*
X252515714Y-158990476D01*
X252563333Y-158895238D01*
X252658571Y-158800000D01*
X252801428Y-158752380D01*
X252896666Y-158752380D01*
X253039523Y-158800000D01*
X253087142Y-158847619D01*
X253420476Y-158752380D02*
X254039523Y-158752380D01*
X253706190Y-159133333D01*
X253849047Y-159133333D01*
X253944285Y-159180952D01*
X253991904Y-159228571D01*
X254039523Y-159323809D01*
X254039523Y-159561904D01*
X253991904Y-159657142D01*
X253944285Y-159704761D01*
X253849047Y-159752380D01*
X253563333Y-159752380D01*
X253468095Y-159704761D01*
X253420476Y-159657142D01*
X254420476Y-158847619D02*
X254468095Y-158800000D01*
X254563333Y-158752380D01*
X254801428Y-158752380D01*
X254896666Y-158800000D01*
X254944285Y-158847619D01*
X254991904Y-158942857D01*
X254991904Y-159038095D01*
X254944285Y-159180952D01*
X254372857Y-159752380D01*
X254991904Y-159752380D01*
X255477142Y-186532142D02*
X255429523Y-186579761D01*
X255286666Y-186627380D01*
X255191428Y-186627380D01*
X255048571Y-186579761D01*
X254953333Y-186484523D01*
X254905714Y-186389285D01*
X254858095Y-186198809D01*
X254858095Y-186055952D01*
X254905714Y-185865476D01*
X254953333Y-185770238D01*
X255048571Y-185675000D01*
X255191428Y-185627380D01*
X255286666Y-185627380D01*
X255429523Y-185675000D01*
X255477142Y-185722619D01*
X255810476Y-185627380D02*
X256429523Y-185627380D01*
X256096190Y-186008333D01*
X256239047Y-186008333D01*
X256334285Y-186055952D01*
X256381904Y-186103571D01*
X256429523Y-186198809D01*
X256429523Y-186436904D01*
X256381904Y-186532142D01*
X256334285Y-186579761D01*
X256239047Y-186627380D01*
X255953333Y-186627380D01*
X255858095Y-186579761D01*
X255810476Y-186532142D01*
X257381904Y-186627380D02*
X256810476Y-186627380D01*
X257096190Y-186627380D02*
X257096190Y-185627380D01*
X257000952Y-185770238D01*
X256905714Y-185865476D01*
X256810476Y-185913095D01*
X261357142Y-212357142D02*
X261309523Y-212404761D01*
X261166666Y-212452380D01*
X261071428Y-212452380D01*
X260928571Y-212404761D01*
X260833333Y-212309523D01*
X260785714Y-212214285D01*
X260738095Y-212023809D01*
X260738095Y-211880952D01*
X260785714Y-211690476D01*
X260833333Y-211595238D01*
X260928571Y-211500000D01*
X261071428Y-211452380D01*
X261166666Y-211452380D01*
X261309523Y-211500000D01*
X261357142Y-211547619D01*
X261690476Y-211452380D02*
X262309523Y-211452380D01*
X261976190Y-211833333D01*
X262119047Y-211833333D01*
X262214285Y-211880952D01*
X262261904Y-211928571D01*
X262309523Y-212023809D01*
X262309523Y-212261904D01*
X262261904Y-212357142D01*
X262214285Y-212404761D01*
X262119047Y-212452380D01*
X261833333Y-212452380D01*
X261738095Y-212404761D01*
X261690476Y-212357142D01*
X262928571Y-211452380D02*
X263023809Y-211452380D01*
X263119047Y-211500000D01*
X263166666Y-211547619D01*
X263214285Y-211642857D01*
X263261904Y-211833333D01*
X263261904Y-212071428D01*
X263214285Y-212261904D01*
X263166666Y-212357142D01*
X263119047Y-212404761D01*
X263023809Y-212452380D01*
X262928571Y-212452380D01*
X262833333Y-212404761D01*
X262785714Y-212357142D01*
X262738095Y-212261904D01*
X262690476Y-212071428D01*
X262690476Y-211833333D01*
X262738095Y-211642857D01*
X262785714Y-211547619D01*
X262833333Y-211500000D01*
X262928571Y-211452380D01*
X267727142Y-233717142D02*
X267679523Y-233764761D01*
X267536666Y-233812380D01*
X267441428Y-233812380D01*
X267298571Y-233764761D01*
X267203333Y-233669523D01*
X267155714Y-233574285D01*
X267108095Y-233383809D01*
X267108095Y-233240952D01*
X267155714Y-233050476D01*
X267203333Y-232955238D01*
X267298571Y-232860000D01*
X267441428Y-232812380D01*
X267536666Y-232812380D01*
X267679523Y-232860000D01*
X267727142Y-232907619D01*
X268108095Y-232907619D02*
X268155714Y-232860000D01*
X268250952Y-232812380D01*
X268489047Y-232812380D01*
X268584285Y-232860000D01*
X268631904Y-232907619D01*
X268679523Y-233002857D01*
X268679523Y-233098095D01*
X268631904Y-233240952D01*
X268060476Y-233812380D01*
X268679523Y-233812380D01*
X269155714Y-233812380D02*
X269346190Y-233812380D01*
X269441428Y-233764761D01*
X269489047Y-233717142D01*
X269584285Y-233574285D01*
X269631904Y-233383809D01*
X269631904Y-233002857D01*
X269584285Y-232907619D01*
X269536666Y-232860000D01*
X269441428Y-232812380D01*
X269250952Y-232812380D01*
X269155714Y-232860000D01*
X269108095Y-232907619D01*
X269060476Y-233002857D01*
X269060476Y-233240952D01*
X269108095Y-233336190D01*
X269155714Y-233383809D01*
X269250952Y-233431428D01*
X269441428Y-233431428D01*
X269536666Y-233383809D01*
X269584285Y-233336190D01*
X269631904Y-233240952D01*
X257977142Y-224757142D02*
X257929523Y-224804761D01*
X257786666Y-224852380D01*
X257691428Y-224852380D01*
X257548571Y-224804761D01*
X257453333Y-224709523D01*
X257405714Y-224614285D01*
X257358095Y-224423809D01*
X257358095Y-224280952D01*
X257405714Y-224090476D01*
X257453333Y-223995238D01*
X257548571Y-223900000D01*
X257691428Y-223852380D01*
X257786666Y-223852380D01*
X257929523Y-223900000D01*
X257977142Y-223947619D01*
X258358095Y-223947619D02*
X258405714Y-223900000D01*
X258500952Y-223852380D01*
X258739047Y-223852380D01*
X258834285Y-223900000D01*
X258881904Y-223947619D01*
X258929523Y-224042857D01*
X258929523Y-224138095D01*
X258881904Y-224280952D01*
X258310476Y-224852380D01*
X258929523Y-224852380D01*
X259500952Y-224280952D02*
X259405714Y-224233333D01*
X259358095Y-224185714D01*
X259310476Y-224090476D01*
X259310476Y-224042857D01*
X259358095Y-223947619D01*
X259405714Y-223900000D01*
X259500952Y-223852380D01*
X259691428Y-223852380D01*
X259786666Y-223900000D01*
X259834285Y-223947619D01*
X259881904Y-224042857D01*
X259881904Y-224090476D01*
X259834285Y-224185714D01*
X259786666Y-224233333D01*
X259691428Y-224280952D01*
X259500952Y-224280952D01*
X259405714Y-224328571D01*
X259358095Y-224376190D01*
X259310476Y-224471428D01*
X259310476Y-224661904D01*
X259358095Y-224757142D01*
X259405714Y-224804761D01*
X259500952Y-224852380D01*
X259691428Y-224852380D01*
X259786666Y-224804761D01*
X259834285Y-224757142D01*
X259881904Y-224661904D01*
X259881904Y-224471428D01*
X259834285Y-224376190D01*
X259786666Y-224328571D01*
X259691428Y-224280952D01*
X236457142Y-210147142D02*
X236409523Y-210194761D01*
X236266666Y-210242380D01*
X236171428Y-210242380D01*
X236028571Y-210194761D01*
X235933333Y-210099523D01*
X235885714Y-210004285D01*
X235838095Y-209813809D01*
X235838095Y-209670952D01*
X235885714Y-209480476D01*
X235933333Y-209385238D01*
X236028571Y-209290000D01*
X236171428Y-209242380D01*
X236266666Y-209242380D01*
X236409523Y-209290000D01*
X236457142Y-209337619D01*
X236838095Y-209337619D02*
X236885714Y-209290000D01*
X236980952Y-209242380D01*
X237219047Y-209242380D01*
X237314285Y-209290000D01*
X237361904Y-209337619D01*
X237409523Y-209432857D01*
X237409523Y-209528095D01*
X237361904Y-209670952D01*
X236790476Y-210242380D01*
X237409523Y-210242380D01*
X237742857Y-209242380D02*
X238409523Y-209242380D01*
X237980952Y-210242380D01*
X214782142Y-197387142D02*
X214734523Y-197434761D01*
X214591666Y-197482380D01*
X214496428Y-197482380D01*
X214353571Y-197434761D01*
X214258333Y-197339523D01*
X214210714Y-197244285D01*
X214163095Y-197053809D01*
X214163095Y-196910952D01*
X214210714Y-196720476D01*
X214258333Y-196625238D01*
X214353571Y-196530000D01*
X214496428Y-196482380D01*
X214591666Y-196482380D01*
X214734523Y-196530000D01*
X214782142Y-196577619D01*
X215163095Y-196577619D02*
X215210714Y-196530000D01*
X215305952Y-196482380D01*
X215544047Y-196482380D01*
X215639285Y-196530000D01*
X215686904Y-196577619D01*
X215734523Y-196672857D01*
X215734523Y-196768095D01*
X215686904Y-196910952D01*
X215115476Y-197482380D01*
X215734523Y-197482380D01*
X216591666Y-196482380D02*
X216401190Y-196482380D01*
X216305952Y-196530000D01*
X216258333Y-196577619D01*
X216163095Y-196720476D01*
X216115476Y-196910952D01*
X216115476Y-197291904D01*
X216163095Y-197387142D01*
X216210714Y-197434761D01*
X216305952Y-197482380D01*
X216496428Y-197482380D01*
X216591666Y-197434761D01*
X216639285Y-197387142D01*
X216686904Y-197291904D01*
X216686904Y-197053809D01*
X216639285Y-196958571D01*
X216591666Y-196910952D01*
X216496428Y-196863333D01*
X216305952Y-196863333D01*
X216210714Y-196910952D01*
X216163095Y-196958571D01*
X216115476Y-197053809D01*
X187702142Y-205947142D02*
X187654523Y-205994761D01*
X187511666Y-206042380D01*
X187416428Y-206042380D01*
X187273571Y-205994761D01*
X187178333Y-205899523D01*
X187130714Y-205804285D01*
X187083095Y-205613809D01*
X187083095Y-205470952D01*
X187130714Y-205280476D01*
X187178333Y-205185238D01*
X187273571Y-205090000D01*
X187416428Y-205042380D01*
X187511666Y-205042380D01*
X187654523Y-205090000D01*
X187702142Y-205137619D01*
X188083095Y-205137619D02*
X188130714Y-205090000D01*
X188225952Y-205042380D01*
X188464047Y-205042380D01*
X188559285Y-205090000D01*
X188606904Y-205137619D01*
X188654523Y-205232857D01*
X188654523Y-205328095D01*
X188606904Y-205470952D01*
X188035476Y-206042380D01*
X188654523Y-206042380D01*
X189559285Y-205042380D02*
X189083095Y-205042380D01*
X189035476Y-205518571D01*
X189083095Y-205470952D01*
X189178333Y-205423333D01*
X189416428Y-205423333D01*
X189511666Y-205470952D01*
X189559285Y-205518571D01*
X189606904Y-205613809D01*
X189606904Y-205851904D01*
X189559285Y-205947142D01*
X189511666Y-205994761D01*
X189416428Y-206042380D01*
X189178333Y-206042380D01*
X189083095Y-205994761D01*
X189035476Y-205947142D01*
X167277142Y-219597142D02*
X167229523Y-219644761D01*
X167086666Y-219692380D01*
X166991428Y-219692380D01*
X166848571Y-219644761D01*
X166753333Y-219549523D01*
X166705714Y-219454285D01*
X166658095Y-219263809D01*
X166658095Y-219120952D01*
X166705714Y-218930476D01*
X166753333Y-218835238D01*
X166848571Y-218740000D01*
X166991428Y-218692380D01*
X167086666Y-218692380D01*
X167229523Y-218740000D01*
X167277142Y-218787619D01*
X167658095Y-218787619D02*
X167705714Y-218740000D01*
X167800952Y-218692380D01*
X168039047Y-218692380D01*
X168134285Y-218740000D01*
X168181904Y-218787619D01*
X168229523Y-218882857D01*
X168229523Y-218978095D01*
X168181904Y-219120952D01*
X167610476Y-219692380D01*
X168229523Y-219692380D01*
X169086666Y-219025714D02*
X169086666Y-219692380D01*
X168848571Y-218644761D02*
X168610476Y-219359047D01*
X169229523Y-219359047D01*
X144477142Y-232497142D02*
X144429523Y-232544761D01*
X144286666Y-232592380D01*
X144191428Y-232592380D01*
X144048571Y-232544761D01*
X143953333Y-232449523D01*
X143905714Y-232354285D01*
X143858095Y-232163809D01*
X143858095Y-232020952D01*
X143905714Y-231830476D01*
X143953333Y-231735238D01*
X144048571Y-231640000D01*
X144191428Y-231592380D01*
X144286666Y-231592380D01*
X144429523Y-231640000D01*
X144477142Y-231687619D01*
X144858095Y-231687619D02*
X144905714Y-231640000D01*
X145000952Y-231592380D01*
X145239047Y-231592380D01*
X145334285Y-231640000D01*
X145381904Y-231687619D01*
X145429523Y-231782857D01*
X145429523Y-231878095D01*
X145381904Y-232020952D01*
X144810476Y-232592380D01*
X145429523Y-232592380D01*
X145762857Y-231592380D02*
X146381904Y-231592380D01*
X146048571Y-231973333D01*
X146191428Y-231973333D01*
X146286666Y-232020952D01*
X146334285Y-232068571D01*
X146381904Y-232163809D01*
X146381904Y-232401904D01*
X146334285Y-232497142D01*
X146286666Y-232544761D01*
X146191428Y-232592380D01*
X145905714Y-232592380D01*
X145810476Y-232544761D01*
X145762857Y-232497142D01*
X157057142Y-213487142D02*
X157009523Y-213534761D01*
X156866666Y-213582380D01*
X156771428Y-213582380D01*
X156628571Y-213534761D01*
X156533333Y-213439523D01*
X156485714Y-213344285D01*
X156438095Y-213153809D01*
X156438095Y-213010952D01*
X156485714Y-212820476D01*
X156533333Y-212725238D01*
X156628571Y-212630000D01*
X156771428Y-212582380D01*
X156866666Y-212582380D01*
X157009523Y-212630000D01*
X157057142Y-212677619D01*
X157438095Y-212677619D02*
X157485714Y-212630000D01*
X157580952Y-212582380D01*
X157819047Y-212582380D01*
X157914285Y-212630000D01*
X157961904Y-212677619D01*
X158009523Y-212772857D01*
X158009523Y-212868095D01*
X157961904Y-213010952D01*
X157390476Y-213582380D01*
X158009523Y-213582380D01*
X158390476Y-212677619D02*
X158438095Y-212630000D01*
X158533333Y-212582380D01*
X158771428Y-212582380D01*
X158866666Y-212630000D01*
X158914285Y-212677619D01*
X158961904Y-212772857D01*
X158961904Y-212868095D01*
X158914285Y-213010952D01*
X158342857Y-213582380D01*
X158961904Y-213582380D01*
X163397142Y-189127142D02*
X163349523Y-189174761D01*
X163206666Y-189222380D01*
X163111428Y-189222380D01*
X162968571Y-189174761D01*
X162873333Y-189079523D01*
X162825714Y-188984285D01*
X162778095Y-188793809D01*
X162778095Y-188650952D01*
X162825714Y-188460476D01*
X162873333Y-188365238D01*
X162968571Y-188270000D01*
X163111428Y-188222380D01*
X163206666Y-188222380D01*
X163349523Y-188270000D01*
X163397142Y-188317619D01*
X163778095Y-188317619D02*
X163825714Y-188270000D01*
X163920952Y-188222380D01*
X164159047Y-188222380D01*
X164254285Y-188270000D01*
X164301904Y-188317619D01*
X164349523Y-188412857D01*
X164349523Y-188508095D01*
X164301904Y-188650952D01*
X163730476Y-189222380D01*
X164349523Y-189222380D01*
X165301904Y-189222380D02*
X164730476Y-189222380D01*
X165016190Y-189222380D02*
X165016190Y-188222380D01*
X164920952Y-188365238D01*
X164825714Y-188460476D01*
X164730476Y-188508095D01*
X168977142Y-164327142D02*
X168929523Y-164374761D01*
X168786666Y-164422380D01*
X168691428Y-164422380D01*
X168548571Y-164374761D01*
X168453333Y-164279523D01*
X168405714Y-164184285D01*
X168358095Y-163993809D01*
X168358095Y-163850952D01*
X168405714Y-163660476D01*
X168453333Y-163565238D01*
X168548571Y-163470000D01*
X168691428Y-163422380D01*
X168786666Y-163422380D01*
X168929523Y-163470000D01*
X168977142Y-163517619D01*
X169358095Y-163517619D02*
X169405714Y-163470000D01*
X169500952Y-163422380D01*
X169739047Y-163422380D01*
X169834285Y-163470000D01*
X169881904Y-163517619D01*
X169929523Y-163612857D01*
X169929523Y-163708095D01*
X169881904Y-163850952D01*
X169310476Y-164422380D01*
X169929523Y-164422380D01*
X170548571Y-163422380D02*
X170643809Y-163422380D01*
X170739047Y-163470000D01*
X170786666Y-163517619D01*
X170834285Y-163612857D01*
X170881904Y-163803333D01*
X170881904Y-164041428D01*
X170834285Y-164231904D01*
X170786666Y-164327142D01*
X170739047Y-164374761D01*
X170643809Y-164422380D01*
X170548571Y-164422380D01*
X170453333Y-164374761D01*
X170405714Y-164327142D01*
X170358095Y-164231904D01*
X170310476Y-164041428D01*
X170310476Y-163803333D01*
X170358095Y-163612857D01*
X170405714Y-163517619D01*
X170453333Y-163470000D01*
X170548571Y-163422380D01*
X150117142Y-148237142D02*
X150069523Y-148284761D01*
X149926666Y-148332380D01*
X149831428Y-148332380D01*
X149688571Y-148284761D01*
X149593333Y-148189523D01*
X149545714Y-148094285D01*
X149498095Y-147903809D01*
X149498095Y-147760952D01*
X149545714Y-147570476D01*
X149593333Y-147475238D01*
X149688571Y-147380000D01*
X149831428Y-147332380D01*
X149926666Y-147332380D01*
X150069523Y-147380000D01*
X150117142Y-147427619D01*
X151069523Y-148332380D02*
X150498095Y-148332380D01*
X150783809Y-148332380D02*
X150783809Y-147332380D01*
X150688571Y-147475238D01*
X150593333Y-147570476D01*
X150498095Y-147618095D01*
X151545714Y-148332380D02*
X151736190Y-148332380D01*
X151831428Y-148284761D01*
X151879047Y-148237142D01*
X151974285Y-148094285D01*
X152021904Y-147903809D01*
X152021904Y-147522857D01*
X151974285Y-147427619D01*
X151926666Y-147380000D01*
X151831428Y-147332380D01*
X151640952Y-147332380D01*
X151545714Y-147380000D01*
X151498095Y-147427619D01*
X151450476Y-147522857D01*
X151450476Y-147760952D01*
X151498095Y-147856190D01*
X151545714Y-147903809D01*
X151640952Y-147951428D01*
X151831428Y-147951428D01*
X151926666Y-147903809D01*
X151974285Y-147856190D01*
X152021904Y-147760952D01*
X131087142Y-131897142D02*
X131039523Y-131944761D01*
X130896666Y-131992380D01*
X130801428Y-131992380D01*
X130658571Y-131944761D01*
X130563333Y-131849523D01*
X130515714Y-131754285D01*
X130468095Y-131563809D01*
X130468095Y-131420952D01*
X130515714Y-131230476D01*
X130563333Y-131135238D01*
X130658571Y-131040000D01*
X130801428Y-130992380D01*
X130896666Y-130992380D01*
X131039523Y-131040000D01*
X131087142Y-131087619D01*
X132039523Y-131992380D02*
X131468095Y-131992380D01*
X131753809Y-131992380D02*
X131753809Y-130992380D01*
X131658571Y-131135238D01*
X131563333Y-131230476D01*
X131468095Y-131278095D01*
X132610952Y-131420952D02*
X132515714Y-131373333D01*
X132468095Y-131325714D01*
X132420476Y-131230476D01*
X132420476Y-131182857D01*
X132468095Y-131087619D01*
X132515714Y-131040000D01*
X132610952Y-130992380D01*
X132801428Y-130992380D01*
X132896666Y-131040000D01*
X132944285Y-131087619D01*
X132991904Y-131182857D01*
X132991904Y-131230476D01*
X132944285Y-131325714D01*
X132896666Y-131373333D01*
X132801428Y-131420952D01*
X132610952Y-131420952D01*
X132515714Y-131468571D01*
X132468095Y-131516190D01*
X132420476Y-131611428D01*
X132420476Y-131801904D01*
X132468095Y-131897142D01*
X132515714Y-131944761D01*
X132610952Y-131992380D01*
X132801428Y-131992380D01*
X132896666Y-131944761D01*
X132944285Y-131897142D01*
X132991904Y-131801904D01*
X132991904Y-131611428D01*
X132944285Y-131516190D01*
X132896666Y-131468571D01*
X132801428Y-131420952D01*
X110627142Y-114557142D02*
X110579523Y-114604761D01*
X110436666Y-114652380D01*
X110341428Y-114652380D01*
X110198571Y-114604761D01*
X110103333Y-114509523D01*
X110055714Y-114414285D01*
X110008095Y-114223809D01*
X110008095Y-114080952D01*
X110055714Y-113890476D01*
X110103333Y-113795238D01*
X110198571Y-113700000D01*
X110341428Y-113652380D01*
X110436666Y-113652380D01*
X110579523Y-113700000D01*
X110627142Y-113747619D01*
X111579523Y-114652380D02*
X111008095Y-114652380D01*
X111293809Y-114652380D02*
X111293809Y-113652380D01*
X111198571Y-113795238D01*
X111103333Y-113890476D01*
X111008095Y-113938095D01*
X111912857Y-113652380D02*
X112579523Y-113652380D01*
X112150952Y-114652380D01*
X125767142Y-116157142D02*
X125719523Y-116204761D01*
X125576666Y-116252380D01*
X125481428Y-116252380D01*
X125338571Y-116204761D01*
X125243333Y-116109523D01*
X125195714Y-116014285D01*
X125148095Y-115823809D01*
X125148095Y-115680952D01*
X125195714Y-115490476D01*
X125243333Y-115395238D01*
X125338571Y-115300000D01*
X125481428Y-115252380D01*
X125576666Y-115252380D01*
X125719523Y-115300000D01*
X125767142Y-115347619D01*
X126719523Y-116252380D02*
X126148095Y-116252380D01*
X126433809Y-116252380D02*
X126433809Y-115252380D01*
X126338571Y-115395238D01*
X126243333Y-115490476D01*
X126148095Y-115538095D01*
X127576666Y-115252380D02*
X127386190Y-115252380D01*
X127290952Y-115300000D01*
X127243333Y-115347619D01*
X127148095Y-115490476D01*
X127100476Y-115680952D01*
X127100476Y-116061904D01*
X127148095Y-116157142D01*
X127195714Y-116204761D01*
X127290952Y-116252380D01*
X127481428Y-116252380D01*
X127576666Y-116204761D01*
X127624285Y-116157142D01*
X127671904Y-116061904D01*
X127671904Y-115823809D01*
X127624285Y-115728571D01*
X127576666Y-115680952D01*
X127481428Y-115633333D01*
X127290952Y-115633333D01*
X127195714Y-115680952D01*
X127148095Y-115728571D01*
X127100476Y-115823809D01*
X150677142Y-114997142D02*
X150629523Y-115044761D01*
X150486666Y-115092380D01*
X150391428Y-115092380D01*
X150248571Y-115044761D01*
X150153333Y-114949523D01*
X150105714Y-114854285D01*
X150058095Y-114663809D01*
X150058095Y-114520952D01*
X150105714Y-114330476D01*
X150153333Y-114235238D01*
X150248571Y-114140000D01*
X150391428Y-114092380D01*
X150486666Y-114092380D01*
X150629523Y-114140000D01*
X150677142Y-114187619D01*
X151629523Y-115092380D02*
X151058095Y-115092380D01*
X151343809Y-115092380D02*
X151343809Y-114092380D01*
X151248571Y-114235238D01*
X151153333Y-114330476D01*
X151058095Y-114378095D01*
X152534285Y-114092380D02*
X152058095Y-114092380D01*
X152010476Y-114568571D01*
X152058095Y-114520952D01*
X152153333Y-114473333D01*
X152391428Y-114473333D01*
X152486666Y-114520952D01*
X152534285Y-114568571D01*
X152581904Y-114663809D01*
X152581904Y-114901904D01*
X152534285Y-114997142D01*
X152486666Y-115044761D01*
X152391428Y-115092380D01*
X152153333Y-115092380D01*
X152058095Y-115044761D01*
X152010476Y-114997142D01*
X175407142Y-113457142D02*
X175359523Y-113504761D01*
X175216666Y-113552380D01*
X175121428Y-113552380D01*
X174978571Y-113504761D01*
X174883333Y-113409523D01*
X174835714Y-113314285D01*
X174788095Y-113123809D01*
X174788095Y-112980952D01*
X174835714Y-112790476D01*
X174883333Y-112695238D01*
X174978571Y-112600000D01*
X175121428Y-112552380D01*
X175216666Y-112552380D01*
X175359523Y-112600000D01*
X175407142Y-112647619D01*
X176359523Y-113552380D02*
X175788095Y-113552380D01*
X176073809Y-113552380D02*
X176073809Y-112552380D01*
X175978571Y-112695238D01*
X175883333Y-112790476D01*
X175788095Y-112838095D01*
X177216666Y-112885714D02*
X177216666Y-113552380D01*
X176978571Y-112504761D02*
X176740476Y-113219047D01*
X177359523Y-113219047D01*
X190687142Y-93557142D02*
X190639523Y-93604761D01*
X190496666Y-93652380D01*
X190401428Y-93652380D01*
X190258571Y-93604761D01*
X190163333Y-93509523D01*
X190115714Y-93414285D01*
X190068095Y-93223809D01*
X190068095Y-93080952D01*
X190115714Y-92890476D01*
X190163333Y-92795238D01*
X190258571Y-92700000D01*
X190401428Y-92652380D01*
X190496666Y-92652380D01*
X190639523Y-92700000D01*
X190687142Y-92747619D01*
X191639523Y-93652380D02*
X191068095Y-93652380D01*
X191353809Y-93652380D02*
X191353809Y-92652380D01*
X191258571Y-92795238D01*
X191163333Y-92890476D01*
X191068095Y-92938095D01*
X191972857Y-92652380D02*
X192591904Y-92652380D01*
X192258571Y-93033333D01*
X192401428Y-93033333D01*
X192496666Y-93080952D01*
X192544285Y-93128571D01*
X192591904Y-93223809D01*
X192591904Y-93461904D01*
X192544285Y-93557142D01*
X192496666Y-93604761D01*
X192401428Y-93652380D01*
X192115714Y-93652380D01*
X192020476Y-93604761D01*
X191972857Y-93557142D01*
X200217142Y-70007142D02*
X200169523Y-70054761D01*
X200026666Y-70102380D01*
X199931428Y-70102380D01*
X199788571Y-70054761D01*
X199693333Y-69959523D01*
X199645714Y-69864285D01*
X199598095Y-69673809D01*
X199598095Y-69530952D01*
X199645714Y-69340476D01*
X199693333Y-69245238D01*
X199788571Y-69150000D01*
X199931428Y-69102380D01*
X200026666Y-69102380D01*
X200169523Y-69150000D01*
X200217142Y-69197619D01*
X201169523Y-70102380D02*
X200598095Y-70102380D01*
X200883809Y-70102380D02*
X200883809Y-69102380D01*
X200788571Y-69245238D01*
X200693333Y-69340476D01*
X200598095Y-69388095D01*
X201550476Y-69197619D02*
X201598095Y-69150000D01*
X201693333Y-69102380D01*
X201931428Y-69102380D01*
X202026666Y-69150000D01*
X202074285Y-69197619D01*
X202121904Y-69292857D01*
X202121904Y-69388095D01*
X202074285Y-69530952D01*
X201502857Y-70102380D01*
X202121904Y-70102380D01*
X210613333Y-46327142D02*
X210565714Y-46374761D01*
X210422857Y-46422380D01*
X210327619Y-46422380D01*
X210184761Y-46374761D01*
X210089523Y-46279523D01*
X210041904Y-46184285D01*
X209994285Y-45993809D01*
X209994285Y-45850952D01*
X210041904Y-45660476D01*
X210089523Y-45565238D01*
X210184761Y-45470000D01*
X210327619Y-45422380D01*
X210422857Y-45422380D01*
X210565714Y-45470000D01*
X210613333Y-45517619D01*
X210946666Y-45422380D02*
X211613333Y-45422380D01*
X211184761Y-46422380D01*
X222023333Y-149757142D02*
X221975714Y-149804761D01*
X221832857Y-149852380D01*
X221737619Y-149852380D01*
X221594761Y-149804761D01*
X221499523Y-149709523D01*
X221451904Y-149614285D01*
X221404285Y-149423809D01*
X221404285Y-149280952D01*
X221451904Y-149090476D01*
X221499523Y-148995238D01*
X221594761Y-148900000D01*
X221737619Y-148852380D01*
X221832857Y-148852380D01*
X221975714Y-148900000D01*
X222023333Y-148947619D01*
X222356666Y-148852380D02*
X222975714Y-148852380D01*
X222642380Y-149233333D01*
X222785238Y-149233333D01*
X222880476Y-149280952D01*
X222928095Y-149328571D01*
X222975714Y-149423809D01*
X222975714Y-149661904D01*
X222928095Y-149757142D01*
X222880476Y-149804761D01*
X222785238Y-149852380D01*
X222499523Y-149852380D01*
X222404285Y-149804761D01*
X222356666Y-149757142D01*
X218896916Y-62456055D02*
X219200169Y-63206632D01*
X219279997Y-63277097D01*
X219341987Y-63303410D01*
X219448129Y-63311885D01*
X219624735Y-63240531D01*
X219695200Y-63160703D01*
X219721513Y-63098713D01*
X219729988Y-62992571D01*
X219426735Y-62241994D01*
X219779948Y-62099286D02*
X220353919Y-61867387D01*
X220187565Y-62345469D01*
X220320020Y-62291954D01*
X220426162Y-62300428D01*
X220488152Y-62326742D01*
X220567980Y-62397206D01*
X220657172Y-62617965D01*
X220648697Y-62724106D01*
X220622384Y-62786096D01*
X220551919Y-62865925D01*
X220287010Y-62972955D01*
X220180868Y-62964480D01*
X220118878Y-62938167D01*
X221192800Y-61528457D02*
X220751284Y-61706841D01*
X220885516Y-62166196D01*
X220911829Y-62104206D01*
X220982294Y-62024377D01*
X221203052Y-61935185D01*
X221309194Y-61943660D01*
X221371184Y-61969973D01*
X221451012Y-62040438D01*
X221540204Y-62261196D01*
X221531729Y-62367338D01*
X221505416Y-62429328D01*
X221434951Y-62509156D01*
X221214193Y-62598348D01*
X221108052Y-62589874D01*
X221046062Y-62563560D01*
X229647889Y-89932447D02*
X229937996Y-90688202D01*
X230016583Y-90760050D01*
X230078104Y-90787441D01*
X230184082Y-90797767D01*
X230361907Y-90729506D01*
X230433754Y-90650920D01*
X230461145Y-90589398D01*
X230471471Y-90483421D01*
X230181363Y-89727665D01*
X230537013Y-89591144D02*
X231114944Y-89369297D01*
X230940272Y-89844403D01*
X231073640Y-89793207D01*
X231179618Y-89803533D01*
X231241139Y-89830924D01*
X231319726Y-89902772D01*
X231405051Y-90125053D01*
X231394725Y-90231030D01*
X231367334Y-90292552D01*
X231295487Y-90371138D01*
X231028750Y-90473529D01*
X230922772Y-90463203D01*
X230861251Y-90435812D01*
X232034612Y-89373318D02*
X232273524Y-89995705D01*
X231675809Y-89102994D02*
X231709506Y-89855163D01*
X232287436Y-89633316D01*
X239011904Y-112702380D02*
X239011904Y-113511904D01*
X239059523Y-113607142D01*
X239107142Y-113654761D01*
X239202380Y-113702380D01*
X239392857Y-113702380D01*
X239488095Y-113654761D01*
X239535714Y-113607142D01*
X239583333Y-113511904D01*
X239583333Y-112702380D01*
X239964285Y-112702380D02*
X240583333Y-112702380D01*
X240250000Y-113083333D01*
X240392857Y-113083333D01*
X240488095Y-113130952D01*
X240535714Y-113178571D01*
X240583333Y-113273809D01*
X240583333Y-113511904D01*
X240535714Y-113607142D01*
X240488095Y-113654761D01*
X240392857Y-113702380D01*
X240107142Y-113702380D01*
X240011904Y-113654761D01*
X239964285Y-113607142D01*
X240916666Y-112702380D02*
X241535714Y-112702380D01*
X241202380Y-113083333D01*
X241345238Y-113083333D01*
X241440476Y-113130952D01*
X241488095Y-113178571D01*
X241535714Y-113273809D01*
X241535714Y-113511904D01*
X241488095Y-113607142D01*
X241440476Y-113654761D01*
X241345238Y-113702380D01*
X241059523Y-113702380D01*
X240964285Y-113654761D01*
X240916666Y-113607142D01*
X260544344Y-109706557D02*
X260473789Y-110513001D01*
X260512926Y-110612026D01*
X260556214Y-110663615D01*
X260646939Y-110719353D01*
X260836691Y-110735954D01*
X260935717Y-110696817D01*
X260987305Y-110653529D01*
X261043043Y-110562804D01*
X261113598Y-109756360D01*
X261493101Y-109789563D02*
X262109793Y-109843516D01*
X261744525Y-110193967D01*
X261886839Y-110206418D01*
X261977564Y-110262156D01*
X262020852Y-110313744D01*
X262059989Y-110412770D01*
X262039238Y-110649960D01*
X261983500Y-110740685D01*
X261931911Y-110783973D01*
X261832885Y-110823110D01*
X261548258Y-110798208D01*
X261457533Y-110742470D01*
X261414245Y-110690882D01*
X262480995Y-109971594D02*
X262532583Y-109928307D01*
X262631609Y-109889169D01*
X262868798Y-109909921D01*
X262959523Y-109965659D01*
X263002811Y-110017247D01*
X263041948Y-110116273D01*
X263033648Y-110211149D01*
X262973759Y-110349312D01*
X262354702Y-110868763D01*
X262971394Y-110922716D01*
X285723120Y-111907349D02*
X285666651Y-112714901D01*
X285707510Y-112813229D01*
X285751692Y-112864054D01*
X285843376Y-112918200D01*
X286033388Y-112931487D01*
X286131716Y-112890628D01*
X286182541Y-112846446D01*
X286236687Y-112754762D01*
X286293157Y-111947210D01*
X286673181Y-111973784D02*
X287290721Y-112016967D01*
X286931626Y-112373739D01*
X287074135Y-112383704D01*
X287165819Y-112437851D01*
X287210000Y-112488675D01*
X287250860Y-112587003D01*
X287234251Y-112824518D01*
X287180105Y-112916203D01*
X287129280Y-112960384D01*
X287030952Y-113001244D01*
X286745934Y-112981313D01*
X286654249Y-112927167D01*
X286610068Y-112876342D01*
X288171025Y-113080965D02*
X287600989Y-113041105D01*
X287886007Y-113061035D02*
X287955764Y-112063471D01*
X287850792Y-112199337D01*
X287749143Y-112287699D01*
X287650815Y-112328559D01*
X314408922Y-116564860D02*
X314632057Y-117343024D01*
X314704082Y-117421447D01*
X314762982Y-117454096D01*
X314867657Y-117473619D01*
X315050754Y-117421117D01*
X315129177Y-117349091D01*
X315161826Y-117290191D01*
X315181349Y-117185517D01*
X314958214Y-116407353D01*
X315324409Y-116302348D02*
X315919476Y-116131715D01*
X315704060Y-116589789D01*
X315841383Y-116550412D01*
X315946057Y-116569936D01*
X316004957Y-116602584D01*
X316076983Y-116681008D01*
X316142611Y-116909879D01*
X316123088Y-117014554D01*
X316090439Y-117073454D01*
X316012016Y-117145479D01*
X315737369Y-117224233D01*
X315632695Y-117204710D01*
X315573795Y-117172061D01*
X316514543Y-115961083D02*
X316606091Y-115934831D01*
X316710766Y-115954355D01*
X316769666Y-115987003D01*
X316841691Y-116065426D01*
X316939968Y-116235398D01*
X317005596Y-116464270D01*
X317012324Y-116660493D01*
X316992801Y-116765168D01*
X316960152Y-116824067D01*
X316881729Y-116896093D01*
X316790180Y-116922344D01*
X316685506Y-116902821D01*
X316626606Y-116870172D01*
X316554580Y-116791749D01*
X316456303Y-116621777D01*
X316390675Y-116392905D01*
X316383947Y-116196682D01*
X316403471Y-116092008D01*
X316436119Y-116033108D01*
X316514543Y-115961083D01*
X293623668Y-135449561D02*
X293003537Y-135969913D01*
X292961189Y-136067609D01*
X292955319Y-136134696D01*
X292980059Y-136238262D01*
X293102495Y-136384175D01*
X293200191Y-136426523D01*
X293267278Y-136432392D01*
X293370844Y-136407652D01*
X293990975Y-135887300D01*
X294193499Y-136276823D02*
X294260586Y-136282692D01*
X294358282Y-136325040D01*
X294511327Y-136507432D01*
X294536066Y-136610997D01*
X294530197Y-136678084D01*
X294487849Y-136775781D01*
X294414893Y-136836999D01*
X294274849Y-136892347D01*
X293469802Y-136821915D01*
X293867718Y-137296133D01*
X294173807Y-137660916D02*
X294296243Y-137806829D01*
X294393939Y-137849176D01*
X294461027Y-137855046D01*
X294631679Y-137836176D01*
X294808202Y-137750218D01*
X295100028Y-137505347D01*
X295142376Y-137407651D01*
X295148245Y-137340563D01*
X295123506Y-137236998D01*
X295001070Y-137091085D01*
X294903374Y-137048737D01*
X294836286Y-137042868D01*
X294732721Y-137067607D01*
X294550329Y-137220652D01*
X294507982Y-137318348D01*
X294502112Y-137385435D01*
X294526852Y-137489001D01*
X294649288Y-137634914D01*
X294746984Y-137677262D01*
X294814071Y-137683131D01*
X294917636Y-137658391D01*
X274123668Y-150949561D02*
X273503537Y-151469913D01*
X273461189Y-151567609D01*
X273455319Y-151634696D01*
X273480059Y-151738262D01*
X273602495Y-151884175D01*
X273700191Y-151926523D01*
X273767278Y-151932392D01*
X273870844Y-151907652D01*
X274490975Y-151387300D01*
X274693499Y-151776823D02*
X274760586Y-151782692D01*
X274858282Y-151825040D01*
X275011327Y-152007432D01*
X275036066Y-152110997D01*
X275030197Y-152178084D01*
X274987849Y-152275781D01*
X274914893Y-152336999D01*
X274774849Y-152392347D01*
X273969802Y-152321915D01*
X274367718Y-152796133D01*
X275172765Y-152866565D02*
X275148025Y-152762999D01*
X275153895Y-152695912D01*
X275196243Y-152598216D01*
X275232721Y-152567607D01*
X275336286Y-152542868D01*
X275403374Y-152548737D01*
X275501070Y-152591085D01*
X275623506Y-152736998D01*
X275648245Y-152840563D01*
X275642376Y-152907651D01*
X275600028Y-153005347D01*
X275563550Y-153035956D01*
X275459984Y-153060695D01*
X275392897Y-153054826D01*
X275295201Y-153012478D01*
X275172765Y-152866565D01*
X275075069Y-152824217D01*
X275007982Y-152818348D01*
X274904416Y-152843088D01*
X274758503Y-152965523D01*
X274716155Y-153063219D01*
X274710286Y-153130307D01*
X274735025Y-153233872D01*
X274857461Y-153379785D01*
X274955157Y-153422133D01*
X275022244Y-153428002D01*
X275125810Y-153403263D01*
X275271723Y-153280827D01*
X275314071Y-153183131D01*
X275319940Y-153116044D01*
X275295201Y-153012478D01*
X250931725Y-164596591D02*
X250681568Y-165366494D01*
X250697426Y-165471786D01*
X250727999Y-165531790D01*
X250803861Y-165606508D01*
X250985015Y-165665369D01*
X251090307Y-165649510D01*
X251150310Y-165618937D01*
X251225029Y-165543075D01*
X251475185Y-164773173D01*
X251853351Y-164996185D02*
X251913354Y-164965612D01*
X252018646Y-164949754D01*
X252245088Y-165023329D01*
X252320950Y-165098048D01*
X252351523Y-165158051D01*
X252367382Y-165263343D01*
X252337951Y-165353920D01*
X252248518Y-165475070D01*
X251528476Y-165841950D01*
X252117225Y-166033246D01*
X252743261Y-165185195D02*
X253377298Y-165391206D01*
X252660686Y-166209827D01*
X261620449Y-186719927D02*
X261802552Y-187508702D01*
X261870375Y-187590788D01*
X261927485Y-187626474D01*
X262030994Y-187651449D01*
X262216589Y-187608601D01*
X262298674Y-187540779D01*
X262334361Y-187483668D01*
X262359335Y-187380159D01*
X262177232Y-186591383D01*
X262616243Y-186587773D02*
X262651930Y-186530662D01*
X262734015Y-186462840D01*
X262966008Y-186409280D01*
X263069517Y-186434255D01*
X263126627Y-186469941D01*
X263194450Y-186552027D01*
X263215874Y-186644824D01*
X263201611Y-186794731D01*
X262773372Y-187480058D01*
X263376553Y-187340802D01*
X263986776Y-186173617D02*
X263801182Y-186216465D01*
X263719097Y-186284287D01*
X263683410Y-186341398D01*
X263622749Y-186502017D01*
X263619198Y-186698324D01*
X263704894Y-187069512D01*
X263772716Y-187151598D01*
X263829827Y-187187284D01*
X263933336Y-187212259D01*
X264118930Y-187169411D01*
X264201015Y-187101589D01*
X264236702Y-187044478D01*
X264261677Y-186940969D01*
X264208117Y-186708976D01*
X264140295Y-186626891D01*
X264083184Y-186591204D01*
X263979675Y-186566230D01*
X263794081Y-186609077D01*
X263711995Y-186676900D01*
X263676309Y-186734010D01*
X263651334Y-186837519D01*
X267295103Y-210821762D02*
X267463413Y-211613595D01*
X267529792Y-211696852D01*
X267586271Y-211733530D01*
X267689329Y-211760307D01*
X267875643Y-211720705D01*
X267958899Y-211654325D01*
X267995577Y-211597846D01*
X268022354Y-211494789D01*
X267854045Y-210702955D01*
X268293052Y-210707007D02*
X268329730Y-210650528D01*
X268412986Y-210584148D01*
X268645878Y-210534646D01*
X268748936Y-210561423D01*
X268805415Y-210598101D01*
X268871795Y-210681357D01*
X268891596Y-210774514D01*
X268874719Y-210924150D01*
X268434584Y-211601898D01*
X269040104Y-211473191D01*
X269717183Y-210306933D02*
X269251398Y-210405938D01*
X269303826Y-210881623D01*
X269340503Y-210825144D01*
X269423760Y-210758765D01*
X269656652Y-210709262D01*
X269759710Y-210736039D01*
X269816189Y-210772717D01*
X269882568Y-210855974D01*
X269932071Y-211088866D01*
X269905294Y-211191923D01*
X269868616Y-211248402D01*
X269785359Y-211314782D01*
X269552467Y-211364285D01*
X269449410Y-211337507D01*
X269392931Y-211300830D01*
X272936478Y-240384701D02*
X273412304Y-241039619D01*
X273506808Y-241088678D01*
X273573323Y-241099213D01*
X273678362Y-241081758D01*
X273832460Y-240969799D01*
X273881520Y-240875295D01*
X273892055Y-240808781D01*
X273874600Y-240703742D01*
X273398773Y-240048823D01*
X273801475Y-239873964D02*
X273812009Y-239807450D01*
X273861069Y-239712946D01*
X274053692Y-239572997D01*
X274158731Y-239555542D01*
X274225245Y-239566077D01*
X274319750Y-239615136D01*
X274375729Y-239692186D01*
X274421174Y-239835749D01*
X274294756Y-240633922D01*
X274795576Y-240270055D01*
X275097162Y-239226894D02*
X275489019Y-239766239D01*
X274680621Y-239058646D02*
X274907844Y-239776464D01*
X275408664Y-239412597D01*
X247303669Y-225760202D02*
X247974794Y-226212882D01*
X248080379Y-226226661D01*
X248146485Y-226213811D01*
X248239219Y-226161483D01*
X248345732Y-226003571D01*
X248359511Y-225897987D01*
X248346661Y-225831881D01*
X248294333Y-225739146D01*
X247623207Y-225286467D01*
X247941818Y-224984421D02*
X247928968Y-224918315D01*
X247942746Y-224812731D01*
X248075887Y-224615341D01*
X248168622Y-224563013D01*
X248234728Y-224550163D01*
X248340312Y-224563942D01*
X248419268Y-224617198D01*
X248511074Y-224736561D01*
X248665271Y-225529836D01*
X249011438Y-225016622D01*
X248368798Y-224181083D02*
X248714965Y-223667869D01*
X248844391Y-224157241D01*
X248924276Y-224038807D01*
X249017010Y-223986479D01*
X249083117Y-223973630D01*
X249188701Y-223987408D01*
X249386091Y-224120549D01*
X249438418Y-224213284D01*
X249451268Y-224279390D01*
X249437490Y-224384974D01*
X249277720Y-224621842D01*
X249184986Y-224674170D01*
X249118880Y-224687020D01*
X226413669Y-212110202D02*
X227084794Y-212562882D01*
X227190379Y-212576661D01*
X227256485Y-212563811D01*
X227349219Y-212511483D01*
X227455732Y-212353571D01*
X227469511Y-212247987D01*
X227456661Y-212181881D01*
X227404333Y-212089146D01*
X226733207Y-211636467D01*
X227051818Y-211334421D02*
X227038968Y-211268315D01*
X227052746Y-211162731D01*
X227185887Y-210965341D01*
X227278622Y-210913013D01*
X227344728Y-210900163D01*
X227450312Y-210913942D01*
X227529268Y-210967198D01*
X227621074Y-211086561D01*
X227775271Y-211879836D01*
X228121438Y-211366622D01*
X227584382Y-210544862D02*
X227571532Y-210478755D01*
X227585311Y-210373171D01*
X227718452Y-210175781D01*
X227811187Y-210123454D01*
X227877293Y-210110604D01*
X227982877Y-210124382D01*
X228061833Y-210177639D01*
X228153639Y-210297001D01*
X228307836Y-211090276D01*
X228654003Y-210577062D01*
X205336904Y-196527380D02*
X205336904Y-197336904D01*
X205384523Y-197432142D01*
X205432142Y-197479761D01*
X205527380Y-197527380D01*
X205717857Y-197527380D01*
X205813095Y-197479761D01*
X205860714Y-197432142D01*
X205908333Y-197336904D01*
X205908333Y-196527380D01*
X206336904Y-196622619D02*
X206384523Y-196575000D01*
X206479761Y-196527380D01*
X206717857Y-196527380D01*
X206813095Y-196575000D01*
X206860714Y-196622619D01*
X206908333Y-196717857D01*
X206908333Y-196813095D01*
X206860714Y-196955952D01*
X206289285Y-197527380D01*
X206908333Y-197527380D01*
X207860714Y-197527380D02*
X207289285Y-197527380D01*
X207575000Y-197527380D02*
X207575000Y-196527380D01*
X207479761Y-196670238D01*
X207384523Y-196765476D01*
X207289285Y-196813095D01*
X188031734Y-212756700D02*
X187337837Y-213173636D01*
X187280728Y-213263504D01*
X187264436Y-213328848D01*
X187272670Y-213435008D01*
X187370772Y-213598278D01*
X187460641Y-213655387D01*
X187525984Y-213671679D01*
X187632145Y-213663446D01*
X188326042Y-213246510D01*
X188465138Y-213662919D02*
X188530481Y-213679211D01*
X188620349Y-213736320D01*
X188742978Y-213940407D01*
X188751211Y-214046568D01*
X188734919Y-214111911D01*
X188677810Y-214201780D01*
X188596175Y-214250831D01*
X188449197Y-214283590D01*
X187665080Y-214088088D01*
X187983913Y-214618715D01*
X189159913Y-214634305D02*
X189208964Y-214715940D01*
X189217198Y-214822100D01*
X189200906Y-214887443D01*
X189143797Y-214977312D01*
X189005053Y-215116232D01*
X188800965Y-215238860D01*
X188613169Y-215296145D01*
X188507009Y-215304379D01*
X188441666Y-215288087D01*
X188351797Y-215230978D01*
X188302746Y-215149343D01*
X188294512Y-215043182D01*
X188310804Y-214977839D01*
X188367913Y-214887970D01*
X188506658Y-214749050D01*
X188710745Y-214626422D01*
X188898541Y-214569137D01*
X189004701Y-214560903D01*
X189070044Y-214577195D01*
X189159913Y-214634305D01*
X170058316Y-223159841D02*
X169371801Y-223588824D01*
X169316269Y-223679675D01*
X169301120Y-223745293D01*
X169311205Y-223851294D01*
X169412142Y-224012827D01*
X169502994Y-224068359D01*
X169568611Y-224083508D01*
X169674612Y-224073422D01*
X170361127Y-223644440D01*
X170042998Y-225022408D02*
X169740187Y-224537809D01*
X169891593Y-224780108D02*
X170739641Y-224250189D01*
X170568023Y-224245125D01*
X170436788Y-224214827D01*
X170345936Y-224159295D01*
X170295341Y-225426240D02*
X170396278Y-225587773D01*
X170487130Y-225643305D01*
X170552747Y-225658454D01*
X170724365Y-225663518D01*
X170911133Y-225602964D01*
X171234199Y-225401090D01*
X171289731Y-225310238D01*
X171304880Y-225244621D01*
X171294795Y-225138620D01*
X171193858Y-224977087D01*
X171103006Y-224921555D01*
X171037388Y-224906406D01*
X170931388Y-224916491D01*
X170729471Y-225042663D01*
X170673939Y-225133514D01*
X170658790Y-225199132D01*
X170668875Y-225305132D01*
X170769812Y-225466665D01*
X170860664Y-225522198D01*
X170926282Y-225537347D01*
X171032282Y-225527261D01*
X143753566Y-237634667D02*
X143233214Y-238254798D01*
X143208475Y-238358363D01*
X143214344Y-238425451D01*
X143256692Y-238523147D01*
X143402605Y-238645583D01*
X143506171Y-238670322D01*
X143573258Y-238664453D01*
X143670954Y-238622105D01*
X144191306Y-238001974D01*
X144314563Y-239410806D02*
X143876823Y-239043499D01*
X144095693Y-239227152D02*
X144738481Y-238461108D01*
X144573697Y-238509325D01*
X144439523Y-238521064D01*
X144335957Y-238496324D01*
X145119610Y-239340373D02*
X145077262Y-239242677D01*
X145071393Y-239175590D01*
X145096132Y-239072025D01*
X145126741Y-239035546D01*
X145224437Y-238993199D01*
X145291525Y-238987329D01*
X145395090Y-239012069D01*
X145541003Y-239134504D01*
X145583351Y-239232201D01*
X145589220Y-239299288D01*
X145564481Y-239402853D01*
X145533872Y-239439332D01*
X145436176Y-239481679D01*
X145369088Y-239487549D01*
X145265523Y-239462809D01*
X145119610Y-239340373D01*
X145016044Y-239315634D01*
X144948957Y-239321503D01*
X144851261Y-239363851D01*
X144728825Y-239509764D01*
X144704085Y-239613330D01*
X144709955Y-239680417D01*
X144752302Y-239778113D01*
X144898216Y-239900549D01*
X145001781Y-239925288D01*
X145068868Y-239919419D01*
X145166565Y-239877071D01*
X145289000Y-239731158D01*
X145313740Y-239627593D01*
X145307871Y-239560505D01*
X145265523Y-239462809D01*
X150295826Y-209370597D02*
X150086305Y-210152537D01*
X150107652Y-210256855D01*
X150141324Y-210315176D01*
X150220992Y-210385822D01*
X150404978Y-210435121D01*
X150509296Y-210413774D01*
X150567617Y-210380102D01*
X150638263Y-210300434D01*
X150847783Y-209518494D01*
X151554890Y-210743239D02*
X151002932Y-210595342D01*
X151278911Y-210669291D02*
X151537730Y-209703365D01*
X151408763Y-209816705D01*
X151292121Y-209884048D01*
X151187803Y-209905395D01*
X152135684Y-209863586D02*
X152779635Y-210036132D01*
X152106848Y-210891136D01*
X156265826Y-185590597D02*
X156056305Y-186372537D01*
X156077652Y-186476855D01*
X156111324Y-186535176D01*
X156190992Y-186605822D01*
X156374978Y-186655121D01*
X156479296Y-186633774D01*
X156537617Y-186600102D01*
X156608263Y-186520434D01*
X156817783Y-185738494D01*
X157524890Y-186963239D02*
X156972932Y-186815342D01*
X157248911Y-186889291D02*
X157507730Y-185923365D01*
X157378763Y-186036705D01*
X157262121Y-186104048D01*
X157157803Y-186125395D01*
X158611645Y-186219158D02*
X158427660Y-186169859D01*
X158323342Y-186191206D01*
X158265021Y-186224878D01*
X158136054Y-186338218D01*
X158040758Y-186509879D01*
X157942161Y-186877851D01*
X157963508Y-186982168D01*
X157997179Y-187040490D01*
X158076848Y-187111136D01*
X158260833Y-187160434D01*
X158365151Y-187139087D01*
X158423472Y-187105416D01*
X158494118Y-187025747D01*
X158555742Y-186795765D01*
X158534395Y-186691447D01*
X158500723Y-186633126D01*
X158421055Y-186562480D01*
X158237069Y-186513181D01*
X158132751Y-186534529D01*
X158074430Y-186568200D01*
X158003784Y-186647868D01*
X160753277Y-163141775D02*
X161003434Y-163911678D01*
X161078153Y-163987540D01*
X161138156Y-164018113D01*
X161243448Y-164033971D01*
X161424602Y-163975111D01*
X161500463Y-163900392D01*
X161531037Y-163840389D01*
X161546895Y-163735097D01*
X161296738Y-162965194D01*
X162556812Y-163607234D02*
X162013351Y-163783815D01*
X162285081Y-163695524D02*
X161976064Y-162744468D01*
X161929633Y-162909763D01*
X161868486Y-163029770D01*
X161792624Y-163104489D01*
X163108274Y-162376590D02*
X162655390Y-162523741D01*
X162757253Y-162991340D01*
X162787826Y-162931337D01*
X162863688Y-162856618D01*
X163090130Y-162783043D01*
X163195422Y-162798901D01*
X163255425Y-162829474D01*
X163330144Y-162905336D01*
X163403719Y-163131778D01*
X163387861Y-163237070D01*
X163357288Y-163297074D01*
X163281426Y-163371792D01*
X163054984Y-163445368D01*
X162949692Y-163429509D01*
X162889689Y-163398936D01*
X141334667Y-148796433D02*
X141954798Y-149316785D01*
X142058363Y-149341524D01*
X142125451Y-149335655D01*
X142223147Y-149293307D01*
X142345583Y-149147394D01*
X142370322Y-149043828D01*
X142364453Y-148976741D01*
X142322105Y-148879045D01*
X141701974Y-148358693D01*
X143110806Y-148235436D02*
X142743499Y-148673176D01*
X142927152Y-148454306D02*
X142161108Y-147811518D01*
X142209325Y-147976302D01*
X142221064Y-148110476D01*
X142196324Y-148214042D01*
X143151070Y-147150302D02*
X143661767Y-147578827D01*
X142706199Y-147087822D02*
X143100329Y-147729347D01*
X143498245Y-147255129D01*
X122214667Y-132786433D02*
X122834798Y-133306785D01*
X122938363Y-133331524D01*
X123005451Y-133325655D01*
X123103147Y-133283307D01*
X123225583Y-133137394D01*
X123250322Y-133033828D01*
X123244453Y-132966741D01*
X123202105Y-132869045D01*
X122581974Y-132348693D01*
X123990806Y-132225436D02*
X123623499Y-132663176D01*
X123807152Y-132444306D02*
X123041108Y-131801518D01*
X123089325Y-131966302D01*
X123101064Y-132100476D01*
X123076324Y-132204042D01*
X123439024Y-131327300D02*
X123836940Y-130853082D01*
X123914504Y-131353302D01*
X124006331Y-131243867D01*
X124104027Y-131201519D01*
X124171114Y-131195650D01*
X124274680Y-131220390D01*
X124457071Y-131373434D01*
X124499419Y-131471131D01*
X124505288Y-131538218D01*
X124480549Y-131641783D01*
X124296895Y-131860653D01*
X124199199Y-131903001D01*
X124132112Y-131908870D01*
X103920597Y-117624173D02*
X104702537Y-117833694D01*
X104806855Y-117812347D01*
X104865176Y-117778675D01*
X104935822Y-117699007D01*
X104985121Y-117515021D01*
X104963774Y-117410703D01*
X104930102Y-117352382D01*
X104850434Y-117281736D01*
X104068494Y-117072216D01*
X105293239Y-116365109D02*
X105145342Y-116917067D01*
X105219291Y-116641088D02*
X104253365Y-116382269D01*
X104366705Y-116511236D01*
X104434048Y-116627878D01*
X104455395Y-116732196D01*
X104517904Y-115762968D02*
X104484232Y-115704646D01*
X104462885Y-115600329D01*
X104524509Y-115370346D01*
X104595154Y-115290678D01*
X104653476Y-115257007D01*
X104757793Y-115235659D01*
X104849786Y-115260309D01*
X104975451Y-115343280D01*
X105379512Y-116043134D01*
X105539733Y-115445180D01*
X130424941Y-111747928D02*
X130467308Y-112556342D01*
X130519846Y-112648958D01*
X130569892Y-112694019D01*
X130667492Y-112736589D01*
X130857707Y-112726620D01*
X130950323Y-112674082D01*
X130995384Y-112624036D01*
X131037954Y-112526436D01*
X130995586Y-111718022D01*
X132046552Y-112664315D02*
X131475906Y-112694221D01*
X131761229Y-112679268D02*
X131708893Y-111680639D01*
X131621262Y-111828284D01*
X131531139Y-111928376D01*
X131438524Y-111980915D01*
X132997628Y-112614471D02*
X132426982Y-112644378D01*
X132712305Y-112629425D02*
X132659969Y-111630795D01*
X132572338Y-111778441D01*
X132482215Y-111878533D01*
X132389599Y-111931071D01*
X154324941Y-110137928D02*
X154367308Y-110946342D01*
X154419846Y-111038958D01*
X154469892Y-111084019D01*
X154567492Y-111126589D01*
X154757707Y-111116620D01*
X154850323Y-111064082D01*
X154895384Y-111014036D01*
X154937954Y-110916436D01*
X154895586Y-110108022D01*
X155946552Y-111054315D02*
X155375906Y-111084221D01*
X155661229Y-111069268D02*
X155608893Y-110070639D01*
X155521262Y-110218284D01*
X155431139Y-110318376D01*
X155338524Y-110370915D01*
X156512415Y-110023287D02*
X156607523Y-110018303D01*
X156705122Y-110060872D01*
X156755168Y-110105934D01*
X156807707Y-110198549D01*
X156865229Y-110386272D01*
X156877690Y-110624041D01*
X156840105Y-110816748D01*
X156797536Y-110914348D01*
X156752474Y-110964394D01*
X156659859Y-111016932D01*
X156564751Y-111021917D01*
X156467151Y-110979347D01*
X156417105Y-110934286D01*
X156364567Y-110841670D01*
X156307045Y-110653947D01*
X156294584Y-110416178D01*
X156332169Y-110223471D01*
X156374738Y-110125871D01*
X156419800Y-110075825D01*
X156512415Y-110023287D01*
X184398654Y-110105761D02*
X184412782Y-110915161D01*
X184462056Y-111009554D01*
X184510498Y-111056335D01*
X184606553Y-111102284D01*
X184797000Y-111098960D01*
X184891393Y-111049686D01*
X184938174Y-111001243D01*
X184984123Y-110905189D01*
X184969995Y-110095788D01*
X185511177Y-111086494D02*
X185701624Y-111083170D01*
X185796017Y-111033896D01*
X185842798Y-110985453D01*
X185935528Y-110840956D01*
X185979816Y-110649677D01*
X185973167Y-110268783D01*
X185923893Y-110174390D01*
X185875450Y-110127610D01*
X185779396Y-110081660D01*
X185588948Y-110084984D01*
X185494556Y-110134258D01*
X185447775Y-110182701D01*
X185401825Y-110278756D01*
X185405981Y-110516815D01*
X185455255Y-110611207D01*
X185503698Y-110657988D01*
X185599752Y-110703938D01*
X185790199Y-110700613D01*
X185884592Y-110651339D01*
X185931373Y-110602897D01*
X185977322Y-110506842D01*
X190402634Y-85088214D02*
X190086328Y-85833384D01*
X190092949Y-85939658D01*
X190118177Y-86002097D01*
X190187237Y-86083143D01*
X190362572Y-86157568D01*
X190468845Y-86150947D01*
X190531285Y-86125720D01*
X190612331Y-86056659D01*
X190928637Y-85311489D01*
X191331017Y-85947872D02*
X191261956Y-85866826D01*
X191236729Y-85804386D01*
X191230108Y-85698113D01*
X191248714Y-85654279D01*
X191329760Y-85585218D01*
X191392200Y-85559991D01*
X191498473Y-85553370D01*
X191673808Y-85627795D01*
X191742869Y-85708841D01*
X191768096Y-85771281D01*
X191774717Y-85877554D01*
X191756111Y-85921387D01*
X191675065Y-85990448D01*
X191612625Y-86015676D01*
X191506351Y-86022297D01*
X191331017Y-85947872D01*
X191224744Y-85954493D01*
X191162304Y-85979720D01*
X191081258Y-86048781D01*
X191006833Y-86224115D01*
X191013454Y-86330389D01*
X191038681Y-86392829D01*
X191107742Y-86473875D01*
X191283077Y-86548300D01*
X191389350Y-86541678D01*
X191451790Y-86516451D01*
X191532836Y-86447390D01*
X191607261Y-86272056D01*
X191600640Y-86165783D01*
X191575412Y-86103343D01*
X191506351Y-86022297D01*
X200000442Y-62397376D02*
X199684136Y-63142546D01*
X199690757Y-63248820D01*
X199715985Y-63311259D01*
X199785045Y-63392305D01*
X199960380Y-63466730D01*
X200066653Y-63460109D01*
X200129093Y-63434882D01*
X200210139Y-63365821D01*
X200526445Y-62620651D01*
X200877114Y-62769500D02*
X201490783Y-63029988D01*
X200705550Y-63783037D01*
X210048095Y-39752380D02*
X210048095Y-40561904D01*
X210095714Y-40657142D01*
X210143333Y-40704761D01*
X210238571Y-40752380D01*
X210429047Y-40752380D01*
X210524285Y-40704761D01*
X210571904Y-40657142D01*
X210619523Y-40561904D01*
X210619523Y-39752380D01*
X211524285Y-39752380D02*
X211333809Y-39752380D01*
X211238571Y-39800000D01*
X211190952Y-39847619D01*
X211095714Y-39990476D01*
X211048095Y-40180952D01*
X211048095Y-40561904D01*
X211095714Y-40657142D01*
X211143333Y-40704761D01*
X211238571Y-40752380D01*
X211429047Y-40752380D01*
X211524285Y-40704761D01*
X211571904Y-40657142D01*
X211619523Y-40561904D01*
X211619523Y-40323809D01*
X211571904Y-40228571D01*
X211524285Y-40180952D01*
X211429047Y-40133333D01*
X211238571Y-40133333D01*
X211143333Y-40180952D01*
X211095714Y-40228571D01*
X211048095Y-40323809D01*
X200606666Y-161404761D02*
X200749523Y-161452380D01*
X200987619Y-161452380D01*
X201082857Y-161404761D01*
X201130476Y-161357142D01*
X201178095Y-161261904D01*
X201178095Y-161166666D01*
X201130476Y-161071428D01*
X201082857Y-161023809D01*
X200987619Y-160976190D01*
X200797142Y-160928571D01*
X200701904Y-160880952D01*
X200654285Y-160833333D01*
X200606666Y-160738095D01*
X200606666Y-160642857D01*
X200654285Y-160547619D01*
X200701904Y-160500000D01*
X200797142Y-160452380D01*
X201035238Y-160452380D01*
X201178095Y-160500000D01*
X201511428Y-160452380D02*
X201749523Y-161452380D01*
X201940000Y-160738095D01*
X202130476Y-161452380D01*
X202368571Y-160452380D01*
X203273333Y-161452380D02*
X202701904Y-161452380D01*
X202987619Y-161452380D02*
X202987619Y-160452380D01*
X202892380Y-160595238D01*
X202797142Y-160690476D01*
X202701904Y-160738095D01*
X216573333Y-49552380D02*
X216240000Y-49076190D01*
X216001904Y-49552380D02*
X216001904Y-48552380D01*
X216382857Y-48552380D01*
X216478095Y-48600000D01*
X216525714Y-48647619D01*
X216573333Y-48742857D01*
X216573333Y-48885714D01*
X216525714Y-48980952D01*
X216478095Y-49028571D01*
X216382857Y-49076190D01*
X216001904Y-49076190D01*
X217430476Y-48552380D02*
X217240000Y-48552380D01*
X217144761Y-48600000D01*
X217097142Y-48647619D01*
X217001904Y-48790476D01*
X216954285Y-48980952D01*
X216954285Y-49361904D01*
X217001904Y-49457142D01*
X217049523Y-49504761D01*
X217144761Y-49552380D01*
X217335238Y-49552380D01*
X217430476Y-49504761D01*
X217478095Y-49457142D01*
X217525714Y-49361904D01*
X217525714Y-49123809D01*
X217478095Y-49028571D01*
X217430476Y-48980952D01*
X217335238Y-48933333D01*
X217144761Y-48933333D01*
X217049523Y-48980952D01*
X217001904Y-49028571D01*
X216954285Y-49123809D01*
X221273333Y-154102380D02*
X220940000Y-153626190D01*
X220701904Y-154102380D02*
X220701904Y-153102380D01*
X221082857Y-153102380D01*
X221178095Y-153150000D01*
X221225714Y-153197619D01*
X221273333Y-153292857D01*
X221273333Y-153435714D01*
X221225714Y-153530952D01*
X221178095Y-153578571D01*
X221082857Y-153626190D01*
X220701904Y-153626190D01*
X221654285Y-153197619D02*
X221701904Y-153150000D01*
X221797142Y-153102380D01*
X222035238Y-153102380D01*
X222130476Y-153150000D01*
X222178095Y-153197619D01*
X222225714Y-153292857D01*
X222225714Y-153388095D01*
X222178095Y-153530952D01*
X221606666Y-154102380D01*
X222225714Y-154102380D01*
X207273333Y-142422380D02*
X206940000Y-141946190D01*
X206701904Y-142422380D02*
X206701904Y-141422380D01*
X207082857Y-141422380D01*
X207178095Y-141470000D01*
X207225714Y-141517619D01*
X207273333Y-141612857D01*
X207273333Y-141755714D01*
X207225714Y-141850952D01*
X207178095Y-141898571D01*
X207082857Y-141946190D01*
X206701904Y-141946190D01*
X208225714Y-142422380D02*
X207654285Y-142422380D01*
X207940000Y-142422380D02*
X207940000Y-141422380D01*
X207844761Y-141565238D01*
X207749523Y-141660476D01*
X207654285Y-141708095D01*
X207587619Y-136745238D02*
X207540000Y-136840476D01*
X207444761Y-136935714D01*
X207301904Y-137078571D01*
X207254285Y-137173809D01*
X207254285Y-137269047D01*
X207492380Y-137221428D02*
X207444761Y-137316666D01*
X207349523Y-137411904D01*
X207159047Y-137459523D01*
X206825714Y-137459523D01*
X206635238Y-137411904D01*
X206540000Y-137316666D01*
X206492380Y-137221428D01*
X206492380Y-137030952D01*
X206540000Y-136935714D01*
X206635238Y-136840476D01*
X206825714Y-136792857D01*
X207159047Y-136792857D01*
X207349523Y-136840476D01*
X207444761Y-136935714D01*
X207492380Y-137030952D01*
X207492380Y-137221428D01*
X207492380Y-135840476D02*
X207492380Y-136411904D01*
X207492380Y-136126190D02*
X206492380Y-136126190D01*
X206635238Y-136221428D01*
X206730476Y-136316666D01*
X206778095Y-136411904D01*
M02*
