G04 #@! TF.GenerationSoftware,KiCad,Pcbnew,(5.1.5)-3*
G04 #@! TF.CreationDate,2020-04-30T20:14:28+02:00*
G04 #@! TF.ProjectId,5-pointed-Star,352d706f-696e-4746-9564-2d537461722e,rev?*
G04 #@! TF.SameCoordinates,Original*
G04 #@! TF.FileFunction,Paste,Bot*
G04 #@! TF.FilePolarity,Positive*
%FSLAX46Y46*%
G04 Gerber Fmt 4.6, Leading zero omitted, Abs format (unit mm)*
G04 Created by KiCad (PCBNEW (5.1.5)-3) date 2020-04-30 20:14:28*
%MOMM*%
%LPD*%
G04 APERTURE LIST*
%ADD10R,0.300000X0.813000*%
%ADD11R,0.813000X0.300000*%
%ADD12C,0.100000*%
%ADD13R,1.500000X0.300000*%
%ADD14R,0.300000X1.500000*%
%ADD15R,1.000000X2.200000*%
%ADD16R,2.200000X1.000000*%
%ADD17R,0.600000X1.100000*%
%ADD18R,1.000000X1.600000*%
G04 APERTURE END LIST*
D10*
X199940000Y-129425000D03*
X199440000Y-129425000D03*
X198940000Y-129425000D03*
X198440000Y-129425000D03*
X197940000Y-129425000D03*
D11*
X200215000Y-128650000D03*
X200215000Y-128150000D03*
X200215000Y-127650000D03*
X197670000Y-128650000D03*
X197670000Y-128150000D03*
X197670000Y-127650000D03*
D10*
X197940000Y-126870000D03*
X198440000Y-126870000D03*
X198940000Y-126870000D03*
X199440000Y-126870000D03*
X199940000Y-126870000D03*
D12*
G36*
X220030191Y-142916053D02*
G01*
X220051426Y-142919203D01*
X220072250Y-142924419D01*
X220092462Y-142931651D01*
X220111868Y-142940830D01*
X220130281Y-142951866D01*
X220147524Y-142964654D01*
X220163430Y-142979070D01*
X220177846Y-142994976D01*
X220190634Y-143012219D01*
X220201670Y-143030632D01*
X220210849Y-143050038D01*
X220218081Y-143070250D01*
X220223297Y-143091074D01*
X220226447Y-143112309D01*
X220227500Y-143133750D01*
X220227500Y-143646250D01*
X220226447Y-143667691D01*
X220223297Y-143688926D01*
X220218081Y-143709750D01*
X220210849Y-143729962D01*
X220201670Y-143749368D01*
X220190634Y-143767781D01*
X220177846Y-143785024D01*
X220163430Y-143800930D01*
X220147524Y-143815346D01*
X220130281Y-143828134D01*
X220111868Y-143839170D01*
X220092462Y-143848349D01*
X220072250Y-143855581D01*
X220051426Y-143860797D01*
X220030191Y-143863947D01*
X220008750Y-143865000D01*
X219571250Y-143865000D01*
X219549809Y-143863947D01*
X219528574Y-143860797D01*
X219507750Y-143855581D01*
X219487538Y-143848349D01*
X219468132Y-143839170D01*
X219449719Y-143828134D01*
X219432476Y-143815346D01*
X219416570Y-143800930D01*
X219402154Y-143785024D01*
X219389366Y-143767781D01*
X219378330Y-143749368D01*
X219369151Y-143729962D01*
X219361919Y-143709750D01*
X219356703Y-143688926D01*
X219353553Y-143667691D01*
X219352500Y-143646250D01*
X219352500Y-143133750D01*
X219353553Y-143112309D01*
X219356703Y-143091074D01*
X219361919Y-143070250D01*
X219369151Y-143050038D01*
X219378330Y-143030632D01*
X219389366Y-143012219D01*
X219402154Y-142994976D01*
X219416570Y-142979070D01*
X219432476Y-142964654D01*
X219449719Y-142951866D01*
X219468132Y-142940830D01*
X219487538Y-142931651D01*
X219507750Y-142924419D01*
X219528574Y-142919203D01*
X219549809Y-142916053D01*
X219571250Y-142915000D01*
X220008750Y-142915000D01*
X220030191Y-142916053D01*
G37*
G36*
X221605191Y-142916053D02*
G01*
X221626426Y-142919203D01*
X221647250Y-142924419D01*
X221667462Y-142931651D01*
X221686868Y-142940830D01*
X221705281Y-142951866D01*
X221722524Y-142964654D01*
X221738430Y-142979070D01*
X221752846Y-142994976D01*
X221765634Y-143012219D01*
X221776670Y-143030632D01*
X221785849Y-143050038D01*
X221793081Y-143070250D01*
X221798297Y-143091074D01*
X221801447Y-143112309D01*
X221802500Y-143133750D01*
X221802500Y-143646250D01*
X221801447Y-143667691D01*
X221798297Y-143688926D01*
X221793081Y-143709750D01*
X221785849Y-143729962D01*
X221776670Y-143749368D01*
X221765634Y-143767781D01*
X221752846Y-143785024D01*
X221738430Y-143800930D01*
X221722524Y-143815346D01*
X221705281Y-143828134D01*
X221686868Y-143839170D01*
X221667462Y-143848349D01*
X221647250Y-143855581D01*
X221626426Y-143860797D01*
X221605191Y-143863947D01*
X221583750Y-143865000D01*
X221146250Y-143865000D01*
X221124809Y-143863947D01*
X221103574Y-143860797D01*
X221082750Y-143855581D01*
X221062538Y-143848349D01*
X221043132Y-143839170D01*
X221024719Y-143828134D01*
X221007476Y-143815346D01*
X220991570Y-143800930D01*
X220977154Y-143785024D01*
X220964366Y-143767781D01*
X220953330Y-143749368D01*
X220944151Y-143729962D01*
X220936919Y-143709750D01*
X220931703Y-143688926D01*
X220928553Y-143667691D01*
X220927500Y-143646250D01*
X220927500Y-143133750D01*
X220928553Y-143112309D01*
X220931703Y-143091074D01*
X220936919Y-143070250D01*
X220944151Y-143050038D01*
X220953330Y-143030632D01*
X220964366Y-143012219D01*
X220977154Y-142994976D01*
X220991570Y-142979070D01*
X221007476Y-142964654D01*
X221024719Y-142951866D01*
X221043132Y-142940830D01*
X221062538Y-142931651D01*
X221082750Y-142924419D01*
X221103574Y-142919203D01*
X221124809Y-142916053D01*
X221146250Y-142915000D01*
X221583750Y-142915000D01*
X221605191Y-142916053D01*
G37*
G36*
X197717691Y-142251053D02*
G01*
X197738926Y-142254203D01*
X197759750Y-142259419D01*
X197779962Y-142266651D01*
X197799368Y-142275830D01*
X197817781Y-142286866D01*
X197835024Y-142299654D01*
X197850930Y-142314070D01*
X197865346Y-142329976D01*
X197878134Y-142347219D01*
X197889170Y-142365632D01*
X197898349Y-142385038D01*
X197905581Y-142405250D01*
X197910797Y-142426074D01*
X197913947Y-142447309D01*
X197915000Y-142468750D01*
X197915000Y-142906250D01*
X197913947Y-142927691D01*
X197910797Y-142948926D01*
X197905581Y-142969750D01*
X197898349Y-142989962D01*
X197889170Y-143009368D01*
X197878134Y-143027781D01*
X197865346Y-143045024D01*
X197850930Y-143060930D01*
X197835024Y-143075346D01*
X197817781Y-143088134D01*
X197799368Y-143099170D01*
X197779962Y-143108349D01*
X197759750Y-143115581D01*
X197738926Y-143120797D01*
X197717691Y-143123947D01*
X197696250Y-143125000D01*
X197183750Y-143125000D01*
X197162309Y-143123947D01*
X197141074Y-143120797D01*
X197120250Y-143115581D01*
X197100038Y-143108349D01*
X197080632Y-143099170D01*
X197062219Y-143088134D01*
X197044976Y-143075346D01*
X197029070Y-143060930D01*
X197014654Y-143045024D01*
X197001866Y-143027781D01*
X196990830Y-143009368D01*
X196981651Y-142989962D01*
X196974419Y-142969750D01*
X196969203Y-142948926D01*
X196966053Y-142927691D01*
X196965000Y-142906250D01*
X196965000Y-142468750D01*
X196966053Y-142447309D01*
X196969203Y-142426074D01*
X196974419Y-142405250D01*
X196981651Y-142385038D01*
X196990830Y-142365632D01*
X197001866Y-142347219D01*
X197014654Y-142329976D01*
X197029070Y-142314070D01*
X197044976Y-142299654D01*
X197062219Y-142286866D01*
X197080632Y-142275830D01*
X197100038Y-142266651D01*
X197120250Y-142259419D01*
X197141074Y-142254203D01*
X197162309Y-142251053D01*
X197183750Y-142250000D01*
X197696250Y-142250000D01*
X197717691Y-142251053D01*
G37*
G36*
X197717691Y-140676053D02*
G01*
X197738926Y-140679203D01*
X197759750Y-140684419D01*
X197779962Y-140691651D01*
X197799368Y-140700830D01*
X197817781Y-140711866D01*
X197835024Y-140724654D01*
X197850930Y-140739070D01*
X197865346Y-140754976D01*
X197878134Y-140772219D01*
X197889170Y-140790632D01*
X197898349Y-140810038D01*
X197905581Y-140830250D01*
X197910797Y-140851074D01*
X197913947Y-140872309D01*
X197915000Y-140893750D01*
X197915000Y-141331250D01*
X197913947Y-141352691D01*
X197910797Y-141373926D01*
X197905581Y-141394750D01*
X197898349Y-141414962D01*
X197889170Y-141434368D01*
X197878134Y-141452781D01*
X197865346Y-141470024D01*
X197850930Y-141485930D01*
X197835024Y-141500346D01*
X197817781Y-141513134D01*
X197799368Y-141524170D01*
X197779962Y-141533349D01*
X197759750Y-141540581D01*
X197738926Y-141545797D01*
X197717691Y-141548947D01*
X197696250Y-141550000D01*
X197183750Y-141550000D01*
X197162309Y-141548947D01*
X197141074Y-141545797D01*
X197120250Y-141540581D01*
X197100038Y-141533349D01*
X197080632Y-141524170D01*
X197062219Y-141513134D01*
X197044976Y-141500346D01*
X197029070Y-141485930D01*
X197014654Y-141470024D01*
X197001866Y-141452781D01*
X196990830Y-141434368D01*
X196981651Y-141414962D01*
X196974419Y-141394750D01*
X196969203Y-141373926D01*
X196966053Y-141352691D01*
X196965000Y-141331250D01*
X196965000Y-140893750D01*
X196966053Y-140872309D01*
X196969203Y-140851074D01*
X196974419Y-140830250D01*
X196981651Y-140810038D01*
X196990830Y-140790632D01*
X197001866Y-140772219D01*
X197014654Y-140754976D01*
X197029070Y-140739070D01*
X197044976Y-140724654D01*
X197062219Y-140711866D01*
X197080632Y-140700830D01*
X197100038Y-140691651D01*
X197120250Y-140684419D01*
X197141074Y-140679203D01*
X197162309Y-140676053D01*
X197183750Y-140675000D01*
X197696250Y-140675000D01*
X197717691Y-140676053D01*
G37*
G36*
X204217691Y-140176053D02*
G01*
X204238926Y-140179203D01*
X204259750Y-140184419D01*
X204279962Y-140191651D01*
X204299368Y-140200830D01*
X204317781Y-140211866D01*
X204335024Y-140224654D01*
X204350930Y-140239070D01*
X204365346Y-140254976D01*
X204378134Y-140272219D01*
X204389170Y-140290632D01*
X204398349Y-140310038D01*
X204405581Y-140330250D01*
X204410797Y-140351074D01*
X204413947Y-140372309D01*
X204415000Y-140393750D01*
X204415000Y-140831250D01*
X204413947Y-140852691D01*
X204410797Y-140873926D01*
X204405581Y-140894750D01*
X204398349Y-140914962D01*
X204389170Y-140934368D01*
X204378134Y-140952781D01*
X204365346Y-140970024D01*
X204350930Y-140985930D01*
X204335024Y-141000346D01*
X204317781Y-141013134D01*
X204299368Y-141024170D01*
X204279962Y-141033349D01*
X204259750Y-141040581D01*
X204238926Y-141045797D01*
X204217691Y-141048947D01*
X204196250Y-141050000D01*
X203683750Y-141050000D01*
X203662309Y-141048947D01*
X203641074Y-141045797D01*
X203620250Y-141040581D01*
X203600038Y-141033349D01*
X203580632Y-141024170D01*
X203562219Y-141013134D01*
X203544976Y-141000346D01*
X203529070Y-140985930D01*
X203514654Y-140970024D01*
X203501866Y-140952781D01*
X203490830Y-140934368D01*
X203481651Y-140914962D01*
X203474419Y-140894750D01*
X203469203Y-140873926D01*
X203466053Y-140852691D01*
X203465000Y-140831250D01*
X203465000Y-140393750D01*
X203466053Y-140372309D01*
X203469203Y-140351074D01*
X203474419Y-140330250D01*
X203481651Y-140310038D01*
X203490830Y-140290632D01*
X203501866Y-140272219D01*
X203514654Y-140254976D01*
X203529070Y-140239070D01*
X203544976Y-140224654D01*
X203562219Y-140211866D01*
X203580632Y-140200830D01*
X203600038Y-140191651D01*
X203620250Y-140184419D01*
X203641074Y-140179203D01*
X203662309Y-140176053D01*
X203683750Y-140175000D01*
X204196250Y-140175000D01*
X204217691Y-140176053D01*
G37*
G36*
X204217691Y-141751053D02*
G01*
X204238926Y-141754203D01*
X204259750Y-141759419D01*
X204279962Y-141766651D01*
X204299368Y-141775830D01*
X204317781Y-141786866D01*
X204335024Y-141799654D01*
X204350930Y-141814070D01*
X204365346Y-141829976D01*
X204378134Y-141847219D01*
X204389170Y-141865632D01*
X204398349Y-141885038D01*
X204405581Y-141905250D01*
X204410797Y-141926074D01*
X204413947Y-141947309D01*
X204415000Y-141968750D01*
X204415000Y-142406250D01*
X204413947Y-142427691D01*
X204410797Y-142448926D01*
X204405581Y-142469750D01*
X204398349Y-142489962D01*
X204389170Y-142509368D01*
X204378134Y-142527781D01*
X204365346Y-142545024D01*
X204350930Y-142560930D01*
X204335024Y-142575346D01*
X204317781Y-142588134D01*
X204299368Y-142599170D01*
X204279962Y-142608349D01*
X204259750Y-142615581D01*
X204238926Y-142620797D01*
X204217691Y-142623947D01*
X204196250Y-142625000D01*
X203683750Y-142625000D01*
X203662309Y-142623947D01*
X203641074Y-142620797D01*
X203620250Y-142615581D01*
X203600038Y-142608349D01*
X203580632Y-142599170D01*
X203562219Y-142588134D01*
X203544976Y-142575346D01*
X203529070Y-142560930D01*
X203514654Y-142545024D01*
X203501866Y-142527781D01*
X203490830Y-142509368D01*
X203481651Y-142489962D01*
X203474419Y-142469750D01*
X203469203Y-142448926D01*
X203466053Y-142427691D01*
X203465000Y-142406250D01*
X203465000Y-141968750D01*
X203466053Y-141947309D01*
X203469203Y-141926074D01*
X203474419Y-141905250D01*
X203481651Y-141885038D01*
X203490830Y-141865632D01*
X203501866Y-141847219D01*
X203514654Y-141829976D01*
X203529070Y-141814070D01*
X203544976Y-141799654D01*
X203562219Y-141786866D01*
X203580632Y-141775830D01*
X203600038Y-141766651D01*
X203620250Y-141759419D01*
X203641074Y-141754203D01*
X203662309Y-141751053D01*
X203683750Y-141750000D01*
X204196250Y-141750000D01*
X204217691Y-141751053D01*
G37*
G36*
X198392691Y-136426053D02*
G01*
X198413926Y-136429203D01*
X198434750Y-136434419D01*
X198454962Y-136441651D01*
X198474368Y-136450830D01*
X198492781Y-136461866D01*
X198510024Y-136474654D01*
X198525930Y-136489070D01*
X198540346Y-136504976D01*
X198553134Y-136522219D01*
X198564170Y-136540632D01*
X198573349Y-136560038D01*
X198580581Y-136580250D01*
X198585797Y-136601074D01*
X198588947Y-136622309D01*
X198590000Y-136643750D01*
X198590000Y-137156250D01*
X198588947Y-137177691D01*
X198585797Y-137198926D01*
X198580581Y-137219750D01*
X198573349Y-137239962D01*
X198564170Y-137259368D01*
X198553134Y-137277781D01*
X198540346Y-137295024D01*
X198525930Y-137310930D01*
X198510024Y-137325346D01*
X198492781Y-137338134D01*
X198474368Y-137349170D01*
X198454962Y-137358349D01*
X198434750Y-137365581D01*
X198413926Y-137370797D01*
X198392691Y-137373947D01*
X198371250Y-137375000D01*
X197933750Y-137375000D01*
X197912309Y-137373947D01*
X197891074Y-137370797D01*
X197870250Y-137365581D01*
X197850038Y-137358349D01*
X197830632Y-137349170D01*
X197812219Y-137338134D01*
X197794976Y-137325346D01*
X197779070Y-137310930D01*
X197764654Y-137295024D01*
X197751866Y-137277781D01*
X197740830Y-137259368D01*
X197731651Y-137239962D01*
X197724419Y-137219750D01*
X197719203Y-137198926D01*
X197716053Y-137177691D01*
X197715000Y-137156250D01*
X197715000Y-136643750D01*
X197716053Y-136622309D01*
X197719203Y-136601074D01*
X197724419Y-136580250D01*
X197731651Y-136560038D01*
X197740830Y-136540632D01*
X197751866Y-136522219D01*
X197764654Y-136504976D01*
X197779070Y-136489070D01*
X197794976Y-136474654D01*
X197812219Y-136461866D01*
X197830632Y-136450830D01*
X197850038Y-136441651D01*
X197870250Y-136434419D01*
X197891074Y-136429203D01*
X197912309Y-136426053D01*
X197933750Y-136425000D01*
X198371250Y-136425000D01*
X198392691Y-136426053D01*
G37*
G36*
X199967691Y-136426053D02*
G01*
X199988926Y-136429203D01*
X200009750Y-136434419D01*
X200029962Y-136441651D01*
X200049368Y-136450830D01*
X200067781Y-136461866D01*
X200085024Y-136474654D01*
X200100930Y-136489070D01*
X200115346Y-136504976D01*
X200128134Y-136522219D01*
X200139170Y-136540632D01*
X200148349Y-136560038D01*
X200155581Y-136580250D01*
X200160797Y-136601074D01*
X200163947Y-136622309D01*
X200165000Y-136643750D01*
X200165000Y-137156250D01*
X200163947Y-137177691D01*
X200160797Y-137198926D01*
X200155581Y-137219750D01*
X200148349Y-137239962D01*
X200139170Y-137259368D01*
X200128134Y-137277781D01*
X200115346Y-137295024D01*
X200100930Y-137310930D01*
X200085024Y-137325346D01*
X200067781Y-137338134D01*
X200049368Y-137349170D01*
X200029962Y-137358349D01*
X200009750Y-137365581D01*
X199988926Y-137370797D01*
X199967691Y-137373947D01*
X199946250Y-137375000D01*
X199508750Y-137375000D01*
X199487309Y-137373947D01*
X199466074Y-137370797D01*
X199445250Y-137365581D01*
X199425038Y-137358349D01*
X199405632Y-137349170D01*
X199387219Y-137338134D01*
X199369976Y-137325346D01*
X199354070Y-137310930D01*
X199339654Y-137295024D01*
X199326866Y-137277781D01*
X199315830Y-137259368D01*
X199306651Y-137239962D01*
X199299419Y-137219750D01*
X199294203Y-137198926D01*
X199291053Y-137177691D01*
X199290000Y-137156250D01*
X199290000Y-136643750D01*
X199291053Y-136622309D01*
X199294203Y-136601074D01*
X199299419Y-136580250D01*
X199306651Y-136560038D01*
X199315830Y-136540632D01*
X199326866Y-136522219D01*
X199339654Y-136504976D01*
X199354070Y-136489070D01*
X199369976Y-136474654D01*
X199387219Y-136461866D01*
X199405632Y-136450830D01*
X199425038Y-136441651D01*
X199445250Y-136434419D01*
X199466074Y-136429203D01*
X199487309Y-136426053D01*
X199508750Y-136425000D01*
X199946250Y-136425000D01*
X199967691Y-136426053D01*
G37*
G36*
X198717691Y-123176053D02*
G01*
X198738926Y-123179203D01*
X198759750Y-123184419D01*
X198779962Y-123191651D01*
X198799368Y-123200830D01*
X198817781Y-123211866D01*
X198835024Y-123224654D01*
X198850930Y-123239070D01*
X198865346Y-123254976D01*
X198878134Y-123272219D01*
X198889170Y-123290632D01*
X198898349Y-123310038D01*
X198905581Y-123330250D01*
X198910797Y-123351074D01*
X198913947Y-123372309D01*
X198915000Y-123393750D01*
X198915000Y-123831250D01*
X198913947Y-123852691D01*
X198910797Y-123873926D01*
X198905581Y-123894750D01*
X198898349Y-123914962D01*
X198889170Y-123934368D01*
X198878134Y-123952781D01*
X198865346Y-123970024D01*
X198850930Y-123985930D01*
X198835024Y-124000346D01*
X198817781Y-124013134D01*
X198799368Y-124024170D01*
X198779962Y-124033349D01*
X198759750Y-124040581D01*
X198738926Y-124045797D01*
X198717691Y-124048947D01*
X198696250Y-124050000D01*
X198183750Y-124050000D01*
X198162309Y-124048947D01*
X198141074Y-124045797D01*
X198120250Y-124040581D01*
X198100038Y-124033349D01*
X198080632Y-124024170D01*
X198062219Y-124013134D01*
X198044976Y-124000346D01*
X198029070Y-123985930D01*
X198014654Y-123970024D01*
X198001866Y-123952781D01*
X197990830Y-123934368D01*
X197981651Y-123914962D01*
X197974419Y-123894750D01*
X197969203Y-123873926D01*
X197966053Y-123852691D01*
X197965000Y-123831250D01*
X197965000Y-123393750D01*
X197966053Y-123372309D01*
X197969203Y-123351074D01*
X197974419Y-123330250D01*
X197981651Y-123310038D01*
X197990830Y-123290632D01*
X198001866Y-123272219D01*
X198014654Y-123254976D01*
X198029070Y-123239070D01*
X198044976Y-123224654D01*
X198062219Y-123211866D01*
X198080632Y-123200830D01*
X198100038Y-123191651D01*
X198120250Y-123184419D01*
X198141074Y-123179203D01*
X198162309Y-123176053D01*
X198183750Y-123175000D01*
X198696250Y-123175000D01*
X198717691Y-123176053D01*
G37*
G36*
X198717691Y-124751053D02*
G01*
X198738926Y-124754203D01*
X198759750Y-124759419D01*
X198779962Y-124766651D01*
X198799368Y-124775830D01*
X198817781Y-124786866D01*
X198835024Y-124799654D01*
X198850930Y-124814070D01*
X198865346Y-124829976D01*
X198878134Y-124847219D01*
X198889170Y-124865632D01*
X198898349Y-124885038D01*
X198905581Y-124905250D01*
X198910797Y-124926074D01*
X198913947Y-124947309D01*
X198915000Y-124968750D01*
X198915000Y-125406250D01*
X198913947Y-125427691D01*
X198910797Y-125448926D01*
X198905581Y-125469750D01*
X198898349Y-125489962D01*
X198889170Y-125509368D01*
X198878134Y-125527781D01*
X198865346Y-125545024D01*
X198850930Y-125560930D01*
X198835024Y-125575346D01*
X198817781Y-125588134D01*
X198799368Y-125599170D01*
X198779962Y-125608349D01*
X198759750Y-125615581D01*
X198738926Y-125620797D01*
X198717691Y-125623947D01*
X198696250Y-125625000D01*
X198183750Y-125625000D01*
X198162309Y-125623947D01*
X198141074Y-125620797D01*
X198120250Y-125615581D01*
X198100038Y-125608349D01*
X198080632Y-125599170D01*
X198062219Y-125588134D01*
X198044976Y-125575346D01*
X198029070Y-125560930D01*
X198014654Y-125545024D01*
X198001866Y-125527781D01*
X197990830Y-125509368D01*
X197981651Y-125489962D01*
X197974419Y-125469750D01*
X197969203Y-125448926D01*
X197966053Y-125427691D01*
X197965000Y-125406250D01*
X197965000Y-124968750D01*
X197966053Y-124947309D01*
X197969203Y-124926074D01*
X197974419Y-124905250D01*
X197981651Y-124885038D01*
X197990830Y-124865632D01*
X198001866Y-124847219D01*
X198014654Y-124829976D01*
X198029070Y-124814070D01*
X198044976Y-124799654D01*
X198062219Y-124786866D01*
X198080632Y-124775830D01*
X198100038Y-124766651D01*
X198120250Y-124759419D01*
X198141074Y-124754203D01*
X198162309Y-124751053D01*
X198183750Y-124750000D01*
X198696250Y-124750000D01*
X198717691Y-124751053D01*
G37*
G36*
X196967691Y-123176053D02*
G01*
X196988926Y-123179203D01*
X197009750Y-123184419D01*
X197029962Y-123191651D01*
X197049368Y-123200830D01*
X197067781Y-123211866D01*
X197085024Y-123224654D01*
X197100930Y-123239070D01*
X197115346Y-123254976D01*
X197128134Y-123272219D01*
X197139170Y-123290632D01*
X197148349Y-123310038D01*
X197155581Y-123330250D01*
X197160797Y-123351074D01*
X197163947Y-123372309D01*
X197165000Y-123393750D01*
X197165000Y-123831250D01*
X197163947Y-123852691D01*
X197160797Y-123873926D01*
X197155581Y-123894750D01*
X197148349Y-123914962D01*
X197139170Y-123934368D01*
X197128134Y-123952781D01*
X197115346Y-123970024D01*
X197100930Y-123985930D01*
X197085024Y-124000346D01*
X197067781Y-124013134D01*
X197049368Y-124024170D01*
X197029962Y-124033349D01*
X197009750Y-124040581D01*
X196988926Y-124045797D01*
X196967691Y-124048947D01*
X196946250Y-124050000D01*
X196433750Y-124050000D01*
X196412309Y-124048947D01*
X196391074Y-124045797D01*
X196370250Y-124040581D01*
X196350038Y-124033349D01*
X196330632Y-124024170D01*
X196312219Y-124013134D01*
X196294976Y-124000346D01*
X196279070Y-123985930D01*
X196264654Y-123970024D01*
X196251866Y-123952781D01*
X196240830Y-123934368D01*
X196231651Y-123914962D01*
X196224419Y-123894750D01*
X196219203Y-123873926D01*
X196216053Y-123852691D01*
X196215000Y-123831250D01*
X196215000Y-123393750D01*
X196216053Y-123372309D01*
X196219203Y-123351074D01*
X196224419Y-123330250D01*
X196231651Y-123310038D01*
X196240830Y-123290632D01*
X196251866Y-123272219D01*
X196264654Y-123254976D01*
X196279070Y-123239070D01*
X196294976Y-123224654D01*
X196312219Y-123211866D01*
X196330632Y-123200830D01*
X196350038Y-123191651D01*
X196370250Y-123184419D01*
X196391074Y-123179203D01*
X196412309Y-123176053D01*
X196433750Y-123175000D01*
X196946250Y-123175000D01*
X196967691Y-123176053D01*
G37*
G36*
X196967691Y-124751053D02*
G01*
X196988926Y-124754203D01*
X197009750Y-124759419D01*
X197029962Y-124766651D01*
X197049368Y-124775830D01*
X197067781Y-124786866D01*
X197085024Y-124799654D01*
X197100930Y-124814070D01*
X197115346Y-124829976D01*
X197128134Y-124847219D01*
X197139170Y-124865632D01*
X197148349Y-124885038D01*
X197155581Y-124905250D01*
X197160797Y-124926074D01*
X197163947Y-124947309D01*
X197165000Y-124968750D01*
X197165000Y-125406250D01*
X197163947Y-125427691D01*
X197160797Y-125448926D01*
X197155581Y-125469750D01*
X197148349Y-125489962D01*
X197139170Y-125509368D01*
X197128134Y-125527781D01*
X197115346Y-125545024D01*
X197100930Y-125560930D01*
X197085024Y-125575346D01*
X197067781Y-125588134D01*
X197049368Y-125599170D01*
X197029962Y-125608349D01*
X197009750Y-125615581D01*
X196988926Y-125620797D01*
X196967691Y-125623947D01*
X196946250Y-125625000D01*
X196433750Y-125625000D01*
X196412309Y-125623947D01*
X196391074Y-125620797D01*
X196370250Y-125615581D01*
X196350038Y-125608349D01*
X196330632Y-125599170D01*
X196312219Y-125588134D01*
X196294976Y-125575346D01*
X196279070Y-125560930D01*
X196264654Y-125545024D01*
X196251866Y-125527781D01*
X196240830Y-125509368D01*
X196231651Y-125489962D01*
X196224419Y-125469750D01*
X196219203Y-125448926D01*
X196216053Y-125427691D01*
X196215000Y-125406250D01*
X196215000Y-124968750D01*
X196216053Y-124947309D01*
X196219203Y-124926074D01*
X196224419Y-124905250D01*
X196231651Y-124885038D01*
X196240830Y-124865632D01*
X196251866Y-124847219D01*
X196264654Y-124829976D01*
X196279070Y-124814070D01*
X196294976Y-124799654D01*
X196312219Y-124786866D01*
X196330632Y-124775830D01*
X196350038Y-124766651D01*
X196370250Y-124759419D01*
X196391074Y-124754203D01*
X196412309Y-124751053D01*
X196433750Y-124750000D01*
X196946250Y-124750000D01*
X196967691Y-124751053D01*
G37*
G36*
X195217691Y-126176053D02*
G01*
X195238926Y-126179203D01*
X195259750Y-126184419D01*
X195279962Y-126191651D01*
X195299368Y-126200830D01*
X195317781Y-126211866D01*
X195335024Y-126224654D01*
X195350930Y-126239070D01*
X195365346Y-126254976D01*
X195378134Y-126272219D01*
X195389170Y-126290632D01*
X195398349Y-126310038D01*
X195405581Y-126330250D01*
X195410797Y-126351074D01*
X195413947Y-126372309D01*
X195415000Y-126393750D01*
X195415000Y-126831250D01*
X195413947Y-126852691D01*
X195410797Y-126873926D01*
X195405581Y-126894750D01*
X195398349Y-126914962D01*
X195389170Y-126934368D01*
X195378134Y-126952781D01*
X195365346Y-126970024D01*
X195350930Y-126985930D01*
X195335024Y-127000346D01*
X195317781Y-127013134D01*
X195299368Y-127024170D01*
X195279962Y-127033349D01*
X195259750Y-127040581D01*
X195238926Y-127045797D01*
X195217691Y-127048947D01*
X195196250Y-127050000D01*
X194683750Y-127050000D01*
X194662309Y-127048947D01*
X194641074Y-127045797D01*
X194620250Y-127040581D01*
X194600038Y-127033349D01*
X194580632Y-127024170D01*
X194562219Y-127013134D01*
X194544976Y-127000346D01*
X194529070Y-126985930D01*
X194514654Y-126970024D01*
X194501866Y-126952781D01*
X194490830Y-126934368D01*
X194481651Y-126914962D01*
X194474419Y-126894750D01*
X194469203Y-126873926D01*
X194466053Y-126852691D01*
X194465000Y-126831250D01*
X194465000Y-126393750D01*
X194466053Y-126372309D01*
X194469203Y-126351074D01*
X194474419Y-126330250D01*
X194481651Y-126310038D01*
X194490830Y-126290632D01*
X194501866Y-126272219D01*
X194514654Y-126254976D01*
X194529070Y-126239070D01*
X194544976Y-126224654D01*
X194562219Y-126211866D01*
X194580632Y-126200830D01*
X194600038Y-126191651D01*
X194620250Y-126184419D01*
X194641074Y-126179203D01*
X194662309Y-126176053D01*
X194683750Y-126175000D01*
X195196250Y-126175000D01*
X195217691Y-126176053D01*
G37*
G36*
X195217691Y-127751053D02*
G01*
X195238926Y-127754203D01*
X195259750Y-127759419D01*
X195279962Y-127766651D01*
X195299368Y-127775830D01*
X195317781Y-127786866D01*
X195335024Y-127799654D01*
X195350930Y-127814070D01*
X195365346Y-127829976D01*
X195378134Y-127847219D01*
X195389170Y-127865632D01*
X195398349Y-127885038D01*
X195405581Y-127905250D01*
X195410797Y-127926074D01*
X195413947Y-127947309D01*
X195415000Y-127968750D01*
X195415000Y-128406250D01*
X195413947Y-128427691D01*
X195410797Y-128448926D01*
X195405581Y-128469750D01*
X195398349Y-128489962D01*
X195389170Y-128509368D01*
X195378134Y-128527781D01*
X195365346Y-128545024D01*
X195350930Y-128560930D01*
X195335024Y-128575346D01*
X195317781Y-128588134D01*
X195299368Y-128599170D01*
X195279962Y-128608349D01*
X195259750Y-128615581D01*
X195238926Y-128620797D01*
X195217691Y-128623947D01*
X195196250Y-128625000D01*
X194683750Y-128625000D01*
X194662309Y-128623947D01*
X194641074Y-128620797D01*
X194620250Y-128615581D01*
X194600038Y-128608349D01*
X194580632Y-128599170D01*
X194562219Y-128588134D01*
X194544976Y-128575346D01*
X194529070Y-128560930D01*
X194514654Y-128545024D01*
X194501866Y-128527781D01*
X194490830Y-128509368D01*
X194481651Y-128489962D01*
X194474419Y-128469750D01*
X194469203Y-128448926D01*
X194466053Y-128427691D01*
X194465000Y-128406250D01*
X194465000Y-127968750D01*
X194466053Y-127947309D01*
X194469203Y-127926074D01*
X194474419Y-127905250D01*
X194481651Y-127885038D01*
X194490830Y-127865632D01*
X194501866Y-127847219D01*
X194514654Y-127829976D01*
X194529070Y-127814070D01*
X194544976Y-127799654D01*
X194562219Y-127786866D01*
X194580632Y-127775830D01*
X194600038Y-127766651D01*
X194620250Y-127759419D01*
X194641074Y-127754203D01*
X194662309Y-127751053D01*
X194683750Y-127750000D01*
X195196250Y-127750000D01*
X195217691Y-127751053D01*
G37*
D13*
X204190000Y-137700000D03*
X204190000Y-137200000D03*
X204190000Y-136700000D03*
X204190000Y-136200000D03*
X204190000Y-135700000D03*
X204190000Y-135200000D03*
X204190000Y-134700000D03*
X204190000Y-134200000D03*
X204190000Y-133700000D03*
X204190000Y-133200000D03*
X204190000Y-132700000D03*
X204190000Y-132200000D03*
X204190000Y-131700000D03*
X204190000Y-131200000D03*
X204190000Y-130700000D03*
X204190000Y-130200000D03*
D14*
X206140000Y-128250000D03*
X206640000Y-128250000D03*
X207140000Y-128250000D03*
X207640000Y-128250000D03*
X208140000Y-128250000D03*
X208640000Y-128250000D03*
X209140000Y-128250000D03*
X209640000Y-128250000D03*
X210140000Y-128250000D03*
X210640000Y-128250000D03*
X211140000Y-128250000D03*
X211640000Y-128250000D03*
X212140000Y-128250000D03*
X212640000Y-128250000D03*
X213140000Y-128250000D03*
X213640000Y-128250000D03*
D13*
X215590000Y-130200000D03*
X215590000Y-130700000D03*
X215590000Y-131200000D03*
X215590000Y-131700000D03*
X215590000Y-132200000D03*
X215590000Y-132700000D03*
X215590000Y-133200000D03*
X215590000Y-133700000D03*
X215590000Y-134200000D03*
X215590000Y-134700000D03*
X215590000Y-135200000D03*
X215590000Y-135700000D03*
X215590000Y-136200000D03*
X215590000Y-136700000D03*
X215590000Y-137200000D03*
X215590000Y-137700000D03*
D14*
X213640000Y-139650000D03*
X213140000Y-139650000D03*
X212640000Y-139650000D03*
X212140000Y-139650000D03*
X211640000Y-139650000D03*
X211140000Y-139650000D03*
X210640000Y-139650000D03*
X210140000Y-139650000D03*
X209640000Y-139650000D03*
X209140000Y-139650000D03*
X208640000Y-139650000D03*
X208140000Y-139650000D03*
X207640000Y-139650000D03*
X207140000Y-139650000D03*
X206640000Y-139650000D03*
X206140000Y-139650000D03*
D15*
X200390000Y-143700000D03*
X200390000Y-140600000D03*
X194390000Y-143700000D03*
X194390000Y-140600000D03*
D16*
X197140000Y-134350000D03*
X200240000Y-134350000D03*
D17*
X216225000Y-110825000D03*
X214325700Y-110825000D03*
X214325000Y-113425000D03*
X215250000Y-113425000D03*
X216225000Y-113425000D03*
D18*
X185840000Y-147150000D03*
X193440000Y-147150000D03*
X185840000Y-157150000D03*
X190940000Y-157150000D03*
X193440000Y-157150000D03*
D12*
G36*
X226000779Y-123676144D02*
G01*
X226023834Y-123679563D01*
X226046443Y-123685227D01*
X226068387Y-123693079D01*
X226089457Y-123703044D01*
X226109448Y-123715026D01*
X226128168Y-123728910D01*
X226145438Y-123744562D01*
X226161090Y-123761832D01*
X226174974Y-123780552D01*
X226186956Y-123800543D01*
X226196921Y-123821613D01*
X226204773Y-123843557D01*
X226210437Y-123866166D01*
X226213856Y-123889221D01*
X226215000Y-123912500D01*
X226215000Y-124387500D01*
X226213856Y-124410779D01*
X226210437Y-124433834D01*
X226204773Y-124456443D01*
X226196921Y-124478387D01*
X226186956Y-124499457D01*
X226174974Y-124519448D01*
X226161090Y-124538168D01*
X226145438Y-124555438D01*
X226128168Y-124571090D01*
X226109448Y-124584974D01*
X226089457Y-124596956D01*
X226068387Y-124606921D01*
X226046443Y-124614773D01*
X226023834Y-124620437D01*
X226000779Y-124623856D01*
X225977500Y-124625000D01*
X225402500Y-124625000D01*
X225379221Y-124623856D01*
X225356166Y-124620437D01*
X225333557Y-124614773D01*
X225311613Y-124606921D01*
X225290543Y-124596956D01*
X225270552Y-124584974D01*
X225251832Y-124571090D01*
X225234562Y-124555438D01*
X225218910Y-124538168D01*
X225205026Y-124519448D01*
X225193044Y-124499457D01*
X225183079Y-124478387D01*
X225175227Y-124456443D01*
X225169563Y-124433834D01*
X225166144Y-124410779D01*
X225165000Y-124387500D01*
X225165000Y-123912500D01*
X225166144Y-123889221D01*
X225169563Y-123866166D01*
X225175227Y-123843557D01*
X225183079Y-123821613D01*
X225193044Y-123800543D01*
X225205026Y-123780552D01*
X225218910Y-123761832D01*
X225234562Y-123744562D01*
X225251832Y-123728910D01*
X225270552Y-123715026D01*
X225290543Y-123703044D01*
X225311613Y-123693079D01*
X225333557Y-123685227D01*
X225356166Y-123679563D01*
X225379221Y-123676144D01*
X225402500Y-123675000D01*
X225977500Y-123675000D01*
X226000779Y-123676144D01*
G37*
G36*
X224250779Y-123676144D02*
G01*
X224273834Y-123679563D01*
X224296443Y-123685227D01*
X224318387Y-123693079D01*
X224339457Y-123703044D01*
X224359448Y-123715026D01*
X224378168Y-123728910D01*
X224395438Y-123744562D01*
X224411090Y-123761832D01*
X224424974Y-123780552D01*
X224436956Y-123800543D01*
X224446921Y-123821613D01*
X224454773Y-123843557D01*
X224460437Y-123866166D01*
X224463856Y-123889221D01*
X224465000Y-123912500D01*
X224465000Y-124387500D01*
X224463856Y-124410779D01*
X224460437Y-124433834D01*
X224454773Y-124456443D01*
X224446921Y-124478387D01*
X224436956Y-124499457D01*
X224424974Y-124519448D01*
X224411090Y-124538168D01*
X224395438Y-124555438D01*
X224378168Y-124571090D01*
X224359448Y-124584974D01*
X224339457Y-124596956D01*
X224318387Y-124606921D01*
X224296443Y-124614773D01*
X224273834Y-124620437D01*
X224250779Y-124623856D01*
X224227500Y-124625000D01*
X223652500Y-124625000D01*
X223629221Y-124623856D01*
X223606166Y-124620437D01*
X223583557Y-124614773D01*
X223561613Y-124606921D01*
X223540543Y-124596956D01*
X223520552Y-124584974D01*
X223501832Y-124571090D01*
X223484562Y-124555438D01*
X223468910Y-124538168D01*
X223455026Y-124519448D01*
X223443044Y-124499457D01*
X223433079Y-124478387D01*
X223425227Y-124456443D01*
X223419563Y-124433834D01*
X223416144Y-124410779D01*
X223415000Y-124387500D01*
X223415000Y-123912500D01*
X223416144Y-123889221D01*
X223419563Y-123866166D01*
X223425227Y-123843557D01*
X223433079Y-123821613D01*
X223443044Y-123800543D01*
X223455026Y-123780552D01*
X223468910Y-123761832D01*
X223484562Y-123744562D01*
X223501832Y-123728910D01*
X223520552Y-123715026D01*
X223540543Y-123703044D01*
X223561613Y-123693079D01*
X223583557Y-123685227D01*
X223606166Y-123679563D01*
X223629221Y-123676144D01*
X223652500Y-123675000D01*
X224227500Y-123675000D01*
X224250779Y-123676144D01*
G37*
G36*
X212917691Y-122751053D02*
G01*
X212938926Y-122754203D01*
X212959750Y-122759419D01*
X212979962Y-122766651D01*
X212999368Y-122775830D01*
X213017781Y-122786866D01*
X213035024Y-122799654D01*
X213050930Y-122814070D01*
X213065346Y-122829976D01*
X213078134Y-122847219D01*
X213089170Y-122865632D01*
X213098349Y-122885038D01*
X213105581Y-122905250D01*
X213110797Y-122926074D01*
X213113947Y-122947309D01*
X213115000Y-122968750D01*
X213115000Y-123406250D01*
X213113947Y-123427691D01*
X213110797Y-123448926D01*
X213105581Y-123469750D01*
X213098349Y-123489962D01*
X213089170Y-123509368D01*
X213078134Y-123527781D01*
X213065346Y-123545024D01*
X213050930Y-123560930D01*
X213035024Y-123575346D01*
X213017781Y-123588134D01*
X212999368Y-123599170D01*
X212979962Y-123608349D01*
X212959750Y-123615581D01*
X212938926Y-123620797D01*
X212917691Y-123623947D01*
X212896250Y-123625000D01*
X212383750Y-123625000D01*
X212362309Y-123623947D01*
X212341074Y-123620797D01*
X212320250Y-123615581D01*
X212300038Y-123608349D01*
X212280632Y-123599170D01*
X212262219Y-123588134D01*
X212244976Y-123575346D01*
X212229070Y-123560930D01*
X212214654Y-123545024D01*
X212201866Y-123527781D01*
X212190830Y-123509368D01*
X212181651Y-123489962D01*
X212174419Y-123469750D01*
X212169203Y-123448926D01*
X212166053Y-123427691D01*
X212165000Y-123406250D01*
X212165000Y-122968750D01*
X212166053Y-122947309D01*
X212169203Y-122926074D01*
X212174419Y-122905250D01*
X212181651Y-122885038D01*
X212190830Y-122865632D01*
X212201866Y-122847219D01*
X212214654Y-122829976D01*
X212229070Y-122814070D01*
X212244976Y-122799654D01*
X212262219Y-122786866D01*
X212280632Y-122775830D01*
X212300038Y-122766651D01*
X212320250Y-122759419D01*
X212341074Y-122754203D01*
X212362309Y-122751053D01*
X212383750Y-122750000D01*
X212896250Y-122750000D01*
X212917691Y-122751053D01*
G37*
G36*
X212917691Y-121176053D02*
G01*
X212938926Y-121179203D01*
X212959750Y-121184419D01*
X212979962Y-121191651D01*
X212999368Y-121200830D01*
X213017781Y-121211866D01*
X213035024Y-121224654D01*
X213050930Y-121239070D01*
X213065346Y-121254976D01*
X213078134Y-121272219D01*
X213089170Y-121290632D01*
X213098349Y-121310038D01*
X213105581Y-121330250D01*
X213110797Y-121351074D01*
X213113947Y-121372309D01*
X213115000Y-121393750D01*
X213115000Y-121831250D01*
X213113947Y-121852691D01*
X213110797Y-121873926D01*
X213105581Y-121894750D01*
X213098349Y-121914962D01*
X213089170Y-121934368D01*
X213078134Y-121952781D01*
X213065346Y-121970024D01*
X213050930Y-121985930D01*
X213035024Y-122000346D01*
X213017781Y-122013134D01*
X212999368Y-122024170D01*
X212979962Y-122033349D01*
X212959750Y-122040581D01*
X212938926Y-122045797D01*
X212917691Y-122048947D01*
X212896250Y-122050000D01*
X212383750Y-122050000D01*
X212362309Y-122048947D01*
X212341074Y-122045797D01*
X212320250Y-122040581D01*
X212300038Y-122033349D01*
X212280632Y-122024170D01*
X212262219Y-122013134D01*
X212244976Y-122000346D01*
X212229070Y-121985930D01*
X212214654Y-121970024D01*
X212201866Y-121952781D01*
X212190830Y-121934368D01*
X212181651Y-121914962D01*
X212174419Y-121894750D01*
X212169203Y-121873926D01*
X212166053Y-121852691D01*
X212165000Y-121831250D01*
X212165000Y-121393750D01*
X212166053Y-121372309D01*
X212169203Y-121351074D01*
X212174419Y-121330250D01*
X212181651Y-121310038D01*
X212190830Y-121290632D01*
X212201866Y-121272219D01*
X212214654Y-121254976D01*
X212229070Y-121239070D01*
X212244976Y-121224654D01*
X212262219Y-121211866D01*
X212280632Y-121200830D01*
X212300038Y-121191651D01*
X212320250Y-121184419D01*
X212341074Y-121179203D01*
X212362309Y-121176053D01*
X212383750Y-121175000D01*
X212896250Y-121175000D01*
X212917691Y-121176053D01*
G37*
G36*
X209717691Y-122751053D02*
G01*
X209738926Y-122754203D01*
X209759750Y-122759419D01*
X209779962Y-122766651D01*
X209799368Y-122775830D01*
X209817781Y-122786866D01*
X209835024Y-122799654D01*
X209850930Y-122814070D01*
X209865346Y-122829976D01*
X209878134Y-122847219D01*
X209889170Y-122865632D01*
X209898349Y-122885038D01*
X209905581Y-122905250D01*
X209910797Y-122926074D01*
X209913947Y-122947309D01*
X209915000Y-122968750D01*
X209915000Y-123406250D01*
X209913947Y-123427691D01*
X209910797Y-123448926D01*
X209905581Y-123469750D01*
X209898349Y-123489962D01*
X209889170Y-123509368D01*
X209878134Y-123527781D01*
X209865346Y-123545024D01*
X209850930Y-123560930D01*
X209835024Y-123575346D01*
X209817781Y-123588134D01*
X209799368Y-123599170D01*
X209779962Y-123608349D01*
X209759750Y-123615581D01*
X209738926Y-123620797D01*
X209717691Y-123623947D01*
X209696250Y-123625000D01*
X209183750Y-123625000D01*
X209162309Y-123623947D01*
X209141074Y-123620797D01*
X209120250Y-123615581D01*
X209100038Y-123608349D01*
X209080632Y-123599170D01*
X209062219Y-123588134D01*
X209044976Y-123575346D01*
X209029070Y-123560930D01*
X209014654Y-123545024D01*
X209001866Y-123527781D01*
X208990830Y-123509368D01*
X208981651Y-123489962D01*
X208974419Y-123469750D01*
X208969203Y-123448926D01*
X208966053Y-123427691D01*
X208965000Y-123406250D01*
X208965000Y-122968750D01*
X208966053Y-122947309D01*
X208969203Y-122926074D01*
X208974419Y-122905250D01*
X208981651Y-122885038D01*
X208990830Y-122865632D01*
X209001866Y-122847219D01*
X209014654Y-122829976D01*
X209029070Y-122814070D01*
X209044976Y-122799654D01*
X209062219Y-122786866D01*
X209080632Y-122775830D01*
X209100038Y-122766651D01*
X209120250Y-122759419D01*
X209141074Y-122754203D01*
X209162309Y-122751053D01*
X209183750Y-122750000D01*
X209696250Y-122750000D01*
X209717691Y-122751053D01*
G37*
G36*
X209717691Y-121176053D02*
G01*
X209738926Y-121179203D01*
X209759750Y-121184419D01*
X209779962Y-121191651D01*
X209799368Y-121200830D01*
X209817781Y-121211866D01*
X209835024Y-121224654D01*
X209850930Y-121239070D01*
X209865346Y-121254976D01*
X209878134Y-121272219D01*
X209889170Y-121290632D01*
X209898349Y-121310038D01*
X209905581Y-121330250D01*
X209910797Y-121351074D01*
X209913947Y-121372309D01*
X209915000Y-121393750D01*
X209915000Y-121831250D01*
X209913947Y-121852691D01*
X209910797Y-121873926D01*
X209905581Y-121894750D01*
X209898349Y-121914962D01*
X209889170Y-121934368D01*
X209878134Y-121952781D01*
X209865346Y-121970024D01*
X209850930Y-121985930D01*
X209835024Y-122000346D01*
X209817781Y-122013134D01*
X209799368Y-122024170D01*
X209779962Y-122033349D01*
X209759750Y-122040581D01*
X209738926Y-122045797D01*
X209717691Y-122048947D01*
X209696250Y-122050000D01*
X209183750Y-122050000D01*
X209162309Y-122048947D01*
X209141074Y-122045797D01*
X209120250Y-122040581D01*
X209100038Y-122033349D01*
X209080632Y-122024170D01*
X209062219Y-122013134D01*
X209044976Y-122000346D01*
X209029070Y-121985930D01*
X209014654Y-121970024D01*
X209001866Y-121952781D01*
X208990830Y-121934368D01*
X208981651Y-121914962D01*
X208974419Y-121894750D01*
X208969203Y-121873926D01*
X208966053Y-121852691D01*
X208965000Y-121831250D01*
X208965000Y-121393750D01*
X208966053Y-121372309D01*
X208969203Y-121351074D01*
X208974419Y-121330250D01*
X208981651Y-121310038D01*
X208990830Y-121290632D01*
X209001866Y-121272219D01*
X209014654Y-121254976D01*
X209029070Y-121239070D01*
X209044976Y-121224654D01*
X209062219Y-121211866D01*
X209080632Y-121200830D01*
X209100038Y-121191651D01*
X209120250Y-121184419D01*
X209141074Y-121179203D01*
X209162309Y-121176053D01*
X209183750Y-121175000D01*
X209696250Y-121175000D01*
X209717691Y-121176053D01*
G37*
M02*
